%TF.GenerationSoftware,KiCad,Pcbnew,(5.99.0-6526-g442f40fa66)*%
%TF.CreationDate,2020-10-31T18:31:35+01:00*%
%TF.ProjectId,OPTMAGPROBE01A,4f50544d-4147-4505-924f-42453031412e,rev?*%
%TF.SameCoordinates,Original*%
%TF.FileFunction,Legend,Bot*%
%TF.FilePolarity,Positive*%
%FSLAX46Y46*%
G04 Gerber Fmt 4.6, Leading zero omitted, Abs format (unit mm)*
G04 Created by KiCad (PCBNEW (5.99.0-6526-g442f40fa66)) date 2020-10-31 18:31:35*
%MOMM*%
%LPD*%
G01*
G04 APERTURE LIST*
%ADD10C,0.050000*%
%ADD11C,0.120000*%
%ADD12C,0.150000*%
%ADD13C,0.127000*%
%ADD14C,0.200000*%
G04 APERTURE END LIST*
D10*
%TO.C,J1*%
X5577142Y7313809D02*
X5862857Y7313809D01*
X5720000Y7313809D02*
X5720000Y7813809D01*
X5767619Y7742380D01*
X5815238Y7694761D01*
X5862857Y7670952D01*
D11*
%TO.C,R1*%
X9400000Y5217279D02*
X9400000Y4891721D01*
X8380000Y5217279D02*
X8380000Y4891721D01*
%TO.C,U1*%
X11240000Y1468000D02*
X12700000Y1468000D01*
X11240000Y1468000D02*
X11240000Y2398000D01*
X11240000Y4628000D02*
X11240000Y3698000D01*
X11240000Y4628000D02*
X13400000Y4628000D01*
%TO.C,C1*%
X7495000Y3185279D02*
X7495000Y2859721D01*
X6475000Y3185279D02*
X6475000Y2859721D01*
%TO.C,R2*%
X7620000Y6477000D02*
X7620000Y7239000D01*
D12*
X7620000Y8382000D02*
X6096000Y8382000D01*
X6096000Y5334000D02*
X7620000Y5334000D01*
D11*
X6096000Y6477000D02*
X6096000Y7239000D01*
D13*
%TO.C,U2*%
X10630000Y6048000D02*
X10630000Y8048000D01*
X13370000Y6048000D02*
X13370000Y8048000D01*
D14*
X10186480Y6278237D02*
G75*
G03*
X10186480Y6278237I-100000J0D01*
G01*
D12*
%TO.C,J1*%
X2799000Y1190000D02*
X5339000Y1190000D01*
X2799000Y8810000D02*
X2799000Y1190000D01*
X5339000Y8810000D02*
X2799000Y8810000D01*
X5339000Y1190000D02*
X5339000Y8810000D01*
%TD*%
M02*
