%TF.GenerationSoftware,KiCad,Pcbnew,(5.99.0-6526-g442f40fa66)*%
%TF.CreationDate,2020-10-31T18:31:35+01:00*%
%TF.ProjectId,OPTMAGPROBE01A,4f50544d-4147-4505-924f-42453031412e,rev?*%
%TF.SameCoordinates,Original*%
%TF.FileFunction,Copper,L1,Top*%
%TF.FilePolarity,Positive*%
%FSLAX46Y46*%
G04 Gerber Fmt 4.6, Leading zero omitted, Abs format (unit mm)*
G04 Created by KiCad (PCBNEW (5.99.0-6526-g442f40fa66)) date 2020-10-31 18:31:35*
%MOMM*%
%LPD*%
G01*
G04 APERTURE LIST*
%ADD10C,0.150000*%
%TA.AperFunction,ComponentPad*%
%ADD11R,1.524000X1.524000*%
%TD*%
%TA.AperFunction,ViaPad*%
%ADD12C,0.800000*%
%TD*%
%TA.AperFunction,Conductor*%
%ADD13C,0.500000*%
%TD*%
G04 APERTURE END LIST*
D10*
X388095Y428571D02*
X388095Y999999D01*
X1688095Y714285D02*
X388095Y714285D01*
X1007142Y1666666D02*
X1007142Y1333333D01*
X1688095Y1333333D02*
X388095Y1333333D01*
X388095Y1809523D01*
X1688095Y2190476D02*
X388095Y2190476D01*
X388095Y2571428D01*
X449999Y2666666D01*
X511904Y2714285D01*
X635714Y2761904D01*
X821428Y2761904D01*
X945238Y2714285D01*
X1007142Y2666666D01*
X1069047Y2571428D01*
X1069047Y2190476D01*
X1688095Y3761904D02*
X1069047Y3428571D01*
X1688095Y3190476D02*
X388095Y3190476D01*
X388095Y3571428D01*
X449999Y3666666D01*
X511904Y3714285D01*
X635714Y3761904D01*
X821428Y3761904D01*
X945238Y3714285D01*
X1007142Y3666666D01*
X1069047Y3571428D01*
X1069047Y3190476D01*
X388095Y4380952D02*
X388095Y4571428D01*
X450000Y4666666D01*
X573809Y4761904D01*
X821428Y4809523D01*
X1254761Y4809523D01*
X1502380Y4761904D01*
X1626190Y4666666D01*
X1688095Y4571428D01*
X1688095Y4380952D01*
X1626190Y4285714D01*
X1502380Y4190476D01*
X1254761Y4142857D01*
X821428Y4142857D01*
X573809Y4190476D01*
X450000Y4285714D01*
X388095Y4380952D01*
X1007142Y5571428D02*
X1069047Y5714285D01*
X1130952Y5761904D01*
X1254761Y5809523D01*
X1440476Y5809523D01*
X1564285Y5761904D01*
X1626190Y5714285D01*
X1688095Y5619047D01*
X1688095Y5238095D01*
X388095Y5238095D01*
X388095Y5571428D01*
X450000Y5666666D01*
X511904Y5714285D01*
X635714Y5761904D01*
X759523Y5761904D01*
X883333Y5714285D01*
X945238Y5666666D01*
X1007142Y5571428D01*
X1007142Y5238095D01*
X1007142Y6238095D02*
X1007142Y6571428D01*
X1688095Y6714285D02*
X1688095Y6238095D01*
X388095Y6238095D01*
X388095Y6714285D01*
X388095Y7333333D02*
X388095Y7428571D01*
X450000Y7523809D01*
X511904Y7571428D01*
X635714Y7619047D01*
X883333Y7666666D01*
X1192857Y7666666D01*
X1440476Y7619047D01*
X1564285Y7571428D01*
X1626190Y7523809D01*
X1688095Y7428571D01*
X1688095Y7333333D01*
X1626190Y7238095D01*
X1564285Y7190476D01*
X1440476Y7142857D01*
X1192857Y7095238D01*
X883333Y7095238D01*
X635714Y7142857D01*
X511904Y7190476D01*
X450000Y7238095D01*
X388095Y7333333D01*
X1688095Y8619047D02*
X1688095Y8047619D01*
X1688095Y8333333D02*
X388095Y8333333D01*
X573809Y8238095D01*
X697619Y8142857D01*
X759523Y8047619D01*
X1316666Y9000000D02*
X1316666Y9476190D01*
X1688095Y8904761D02*
X388095Y9238095D01*
X1688095Y9571428D01*
D11*
%TO.P,J1,1*%
%TO.N,/COUNT*%
X4069000Y7540000D03*
%TO.P,J1,2*%
%TO.N,+5V*%
X4069000Y5000000D03*
%TO.P,J1,3*%
%TO.N,GND*%
X4069000Y2460000D03*
%TD*%
D12*
%TO.N,+5V*%
X10033000Y5969000D03*
X10160000Y4230000D03*
%TO.N,GND*%
X11303000Y762000D03*
X9525000Y2794000D03*
X11303000Y9144000D03*
X12700000Y9144000D03*
X12573000Y762000D03*
X6858000Y889000D03*
%TO.N,/COUNT*%
X8763000Y7366000D03*
X11938000Y2159000D03*
%TD*%
D13*
%TO.N,+5V*%
X10160000Y5842000D02*
X10033000Y5969000D01*
X10160000Y4230000D02*
X10160000Y5842000D01*
%TO.N,/COUNT*%
X11176000Y7366000D02*
X8763000Y7366000D01*
X11938000Y2159000D02*
X11938000Y6604000D01*
X11938000Y6604000D02*
X11176000Y7366000D01*
%TD*%
%TA.AperFunction,Conductor*%
%TO.N,GND*%
G36*
X7282375Y9781093D02*
G01*
X7322435Y9713151D01*
X7328638Y9662994D01*
X7398844Y9414060D01*
X7505897Y9178610D01*
X7647333Y8962062D01*
X7819896Y8769399D01*
X7822802Y8767008D01*
X8016712Y8607444D01*
X8016717Y8607440D01*
X8019616Y8605055D01*
X8241897Y8472811D01*
X8245372Y8471404D01*
X8245377Y8471401D01*
X8325750Y8438847D01*
X8481624Y8375712D01*
X8485276Y8374845D01*
X8485277Y8374845D01*
X8729628Y8316857D01*
X8729633Y8316856D01*
X8733279Y8315991D01*
X8883589Y8303765D01*
X8987320Y8295328D01*
X8987323Y8295328D01*
X8991073Y8295023D01*
X9066987Y8300398D01*
X9245322Y8313025D01*
X9245328Y8313026D01*
X9249072Y8313291D01*
X9501339Y8370373D01*
X9675617Y8438847D01*
X9738575Y8463583D01*
X9738577Y8463584D01*
X9742069Y8464956D01*
X9814453Y8507000D01*
X9962468Y8592974D01*
X9962471Y8592976D01*
X9965723Y8594865D01*
X10167153Y8757108D01*
X10341724Y8947954D01*
X10485420Y9163009D01*
X10487011Y9166413D01*
X10593338Y9393913D01*
X10593341Y9393920D01*
X10594932Y9397325D01*
X10600904Y9417679D01*
X10666682Y9641897D01*
X10666683Y9641900D01*
X10667742Y9645511D01*
X10676965Y9714179D01*
X10703450Y9769335D01*
X10775084Y9800000D01*
X13701001Y9800000D01*
X13759192Y9781093D01*
X13795156Y9731593D01*
X13800001Y9701000D01*
X13800000Y299000D01*
X13781093Y240809D01*
X13701000Y200000D01*
X10777480Y200000D01*
X10719289Y218907D01*
X10681037Y276646D01*
X10627830Y506197D01*
X10626980Y509865D01*
X10531137Y750096D01*
X10400059Y973067D01*
X10236763Y1173645D01*
X10104229Y1293609D01*
X10047795Y1344691D01*
X10047791Y1344694D01*
X10045007Y1347214D01*
X9890832Y1449067D01*
X9832340Y1487709D01*
X9832339Y1487709D01*
X9829202Y1489782D01*
X9825786Y1491357D01*
X9597739Y1596488D01*
X9597734Y1596490D01*
X9594315Y1598066D01*
X9345752Y1669575D01*
X9342034Y1670055D01*
X9342032Y1670055D01*
X9252831Y1681561D01*
X9089233Y1702663D01*
X9085488Y1702575D01*
X9085484Y1702575D01*
X8968057Y1699808D01*
X8830660Y1696570D01*
X8826966Y1695915D01*
X8826963Y1695915D01*
X8579683Y1652090D01*
X8579678Y1652089D01*
X8575984Y1651434D01*
X8331065Y1568296D01*
X8302582Y1553500D01*
X8104881Y1450803D01*
X8104876Y1450800D01*
X8101540Y1449067D01*
X7892691Y1296492D01*
X7709323Y1114082D01*
X7707093Y1111063D01*
X7707088Y1111057D01*
X7602770Y969821D01*
X7555657Y906035D01*
X7488952Y779249D01*
X7473614Y750096D01*
X7435228Y677137D01*
X7350808Y432657D01*
X7350132Y428953D01*
X7323150Y281214D01*
X7294096Y227367D01*
X7225761Y200000D01*
X2668500Y200000D01*
X2610309Y218907D01*
X2569500Y299000D01*
X2569500Y2251758D01*
X2902000Y2251758D01*
X2902000Y1701893D01*
X2902609Y1694154D01*
X2920603Y1580543D01*
X2925358Y1565908D01*
X2975812Y1466886D01*
X2984854Y1454441D01*
X3063441Y1375854D01*
X3075886Y1366812D01*
X3174908Y1316358D01*
X3189543Y1311603D01*
X3303154Y1293609D01*
X3310893Y1293000D01*
X3853320Y1293000D01*
X3857598Y1294390D01*
X3864879Y1308680D01*
X4268999Y1308680D01*
X4273121Y1295995D01*
X4277242Y1293000D01*
X4827107Y1293000D01*
X4834846Y1293609D01*
X4948457Y1311603D01*
X4963092Y1316358D01*
X5062114Y1366812D01*
X5074559Y1375854D01*
X5153146Y1454441D01*
X5162188Y1466886D01*
X5212642Y1565908D01*
X5217397Y1580543D01*
X5235391Y1694154D01*
X5236000Y1701893D01*
X5236000Y2244320D01*
X5234610Y2248598D01*
X5212232Y2260000D01*
X4284680Y2260001D01*
X4271995Y2255879D01*
X4269000Y2251758D01*
X4268999Y1308680D01*
X3864879Y1308680D01*
X3869000Y1316768D01*
X3869001Y2244320D01*
X3864879Y2257005D01*
X3860758Y2260000D01*
X2917680Y2260001D01*
X2904995Y2255879D01*
X2902000Y2251758D01*
X2569500Y2251758D01*
X2569500Y3218107D01*
X2902000Y3218107D01*
X2902000Y2675680D01*
X2903390Y2671402D01*
X2925768Y2660000D01*
X3853320Y2659999D01*
X3866005Y2664121D01*
X3869000Y2668242D01*
X3869000Y2675680D01*
X4268999Y2675680D01*
X4273121Y2662995D01*
X4277242Y2660000D01*
X5220320Y2659999D01*
X5233005Y2664121D01*
X5236000Y2668242D01*
X5236000Y3218107D01*
X5235391Y3225846D01*
X5217397Y3339457D01*
X5212642Y3354092D01*
X5162188Y3453114D01*
X5153146Y3465559D01*
X5074559Y3544146D01*
X5062114Y3553188D01*
X4963092Y3603642D01*
X4948457Y3608397D01*
X4834846Y3626391D01*
X4827107Y3627000D01*
X4284680Y3627000D01*
X4280402Y3625610D01*
X4269000Y3603232D01*
X4268999Y2675680D01*
X3869000Y2675680D01*
X3869001Y3611320D01*
X3864879Y3624005D01*
X3860758Y3627000D01*
X3310893Y3627000D01*
X3303154Y3626391D01*
X3189543Y3608397D01*
X3174908Y3603642D01*
X3075886Y3553188D01*
X3063441Y3544146D01*
X2984854Y3465559D01*
X2975812Y3453114D01*
X2925358Y3354092D01*
X2920603Y3339457D01*
X2902609Y3225846D01*
X2902000Y3218107D01*
X2569500Y3218107D01*
X2569500Y5762000D01*
X3102000Y5762000D01*
X3102000Y4238000D01*
X3117605Y4159550D01*
X3162043Y4093043D01*
X3228550Y4048605D01*
X3307000Y4033000D01*
X4831000Y4033000D01*
X4909450Y4048605D01*
X4975957Y4093043D01*
X5020395Y4159550D01*
X5036000Y4238000D01*
X5036000Y5762000D01*
X5020395Y5840450D01*
X4975957Y5906957D01*
X4909450Y5951395D01*
X4831000Y5967000D01*
X3307000Y5967000D01*
X3228550Y5951395D01*
X3162043Y5906957D01*
X3117605Y5840450D01*
X3102000Y5762000D01*
X2569500Y5762000D01*
X2569500Y5969000D01*
X9427500Y5969000D01*
X9448132Y5812285D01*
X9508622Y5666250D01*
X9604847Y5540847D01*
X9610000Y5536893D01*
X9670768Y5490264D01*
X9709501Y5411722D01*
X9709500Y4662636D01*
X9689042Y4602369D01*
X9635622Y4532750D01*
X9575132Y4386715D01*
X9554500Y4230000D01*
X9575132Y4073285D01*
X9635622Y3927250D01*
X9731847Y3801847D01*
X9857250Y3705622D01*
X10003285Y3645132D01*
X10132263Y3628152D01*
X10151569Y3625610D01*
X10160000Y3624500D01*
X10168432Y3625610D01*
X10187737Y3628152D01*
X10316715Y3645132D01*
X10462750Y3705622D01*
X10588153Y3801847D01*
X10684378Y3927250D01*
X10744868Y4073285D01*
X10765500Y4230000D01*
X10744868Y4386715D01*
X10684378Y4532750D01*
X10630958Y4602369D01*
X10610500Y4662636D01*
X10610500Y5775026D01*
X10613873Y5800649D01*
X10615384Y5806288D01*
X10617868Y5812285D01*
X10638500Y5969000D01*
X10617868Y6125715D01*
X10557378Y6271750D01*
X10461153Y6397153D01*
X10335750Y6493378D01*
X10189715Y6553868D01*
X10033000Y6574500D01*
X9876285Y6553868D01*
X9730250Y6493378D01*
X9604847Y6397153D01*
X9508622Y6271750D01*
X9448132Y6125715D01*
X9427500Y5969000D01*
X2569500Y5969000D01*
X2569500Y8302000D01*
X3102000Y8302000D01*
X3102000Y6778000D01*
X3117605Y6699550D01*
X3162043Y6633043D01*
X3228550Y6588605D01*
X3307000Y6573000D01*
X4831000Y6573000D01*
X4909450Y6588605D01*
X4975957Y6633043D01*
X5020395Y6699550D01*
X5036000Y6778000D01*
X5036000Y7366000D01*
X8157500Y7366000D01*
X8178132Y7209285D01*
X8238622Y7063250D01*
X8334847Y6937847D01*
X8460250Y6841622D01*
X8606285Y6781132D01*
X8763000Y6760500D01*
X8919715Y6781132D01*
X9065750Y6841622D01*
X9096647Y6865330D01*
X9135369Y6895042D01*
X9195636Y6915500D01*
X10948390Y6915500D01*
X11018394Y6886503D01*
X11458505Y6446391D01*
X11487501Y6376388D01*
X11487500Y2591636D01*
X11467042Y2531369D01*
X11413622Y2461750D01*
X11353132Y2315715D01*
X11332500Y2159000D01*
X11353132Y2002285D01*
X11413622Y1856250D01*
X11509847Y1730847D01*
X11635250Y1634622D01*
X11720988Y1599108D01*
X11765808Y1580543D01*
X11781285Y1574132D01*
X11938000Y1553500D01*
X12094715Y1574132D01*
X12110193Y1580543D01*
X12155012Y1599108D01*
X12240750Y1634622D01*
X12366153Y1730847D01*
X12462378Y1856250D01*
X12522868Y2002285D01*
X12543500Y2159000D01*
X12522868Y2315715D01*
X12462378Y2461750D01*
X12408958Y2531369D01*
X12388500Y2591636D01*
X12388500Y6572123D01*
X12389186Y6583759D01*
X12389534Y6586703D01*
X12393275Y6618308D01*
X12391946Y6625585D01*
X12391946Y6625588D01*
X12382663Y6676414D01*
X12382152Y6679482D01*
X12374464Y6730619D01*
X12373364Y6737935D01*
X12370239Y6744443D01*
X12368942Y6751545D01*
X12364291Y6760500D01*
X12341707Y6803975D01*
X12340317Y6806756D01*
X12314735Y6860029D01*
X12310631Y6864469D01*
X12309109Y6866728D01*
X12306507Y6871736D01*
X12301474Y6877629D01*
X12263049Y6916054D01*
X12260355Y6918857D01*
X12227822Y6954051D01*
X12222798Y6959486D01*
X12216923Y6962899D01*
X12210042Y6969061D01*
X11517088Y7662014D01*
X11509346Y7670728D01*
X11492394Y7692232D01*
X11492392Y7692233D01*
X11487811Y7698045D01*
X11439165Y7731666D01*
X11436674Y7733447D01*
X11395100Y7764155D01*
X11395097Y7764157D01*
X11389142Y7768555D01*
X11382332Y7770946D01*
X11376392Y7775052D01*
X11332290Y7789000D01*
X11320016Y7792882D01*
X11317068Y7793866D01*
X11268338Y7810978D01*
X11268337Y7810978D01*
X11261352Y7813431D01*
X11255317Y7813668D01*
X11252636Y7814190D01*
X11247256Y7815892D01*
X11241635Y7816334D01*
X11241632Y7816335D01*
X11241546Y7816341D01*
X11239531Y7816500D01*
X11185204Y7816500D01*
X11181317Y7816576D01*
X11180918Y7816592D01*
X11126017Y7818749D01*
X11119450Y7817008D01*
X11110225Y7816500D01*
X9195636Y7816500D01*
X9135369Y7836958D01*
X9070899Y7886427D01*
X9065750Y7890378D01*
X8919715Y7950868D01*
X8763000Y7971500D01*
X8606285Y7950868D01*
X8460250Y7890378D01*
X8334847Y7794153D01*
X8238622Y7668750D01*
X8178132Y7522715D01*
X8157500Y7366000D01*
X5036000Y7366000D01*
X5036000Y8302000D01*
X5020395Y8380450D01*
X4975957Y8446957D01*
X4909450Y8491395D01*
X4831000Y8507000D01*
X3307000Y8507000D01*
X3228550Y8491395D01*
X3162043Y8446957D01*
X3117605Y8380450D01*
X3102000Y8302000D01*
X2569500Y8302000D01*
X2569500Y9701000D01*
X2588407Y9759191D01*
X2668500Y9800000D01*
X7224184Y9800000D01*
X7282375Y9781093D01*
G37*
%TD.AperFunction*%
%TD*%
M02*
