%TF.GenerationSoftware,KiCad,Pcbnew,6.0.4-6f826c9f35~116~ubuntu20.04.1*%
%TF.CreationDate,2023-06-16T09:54:20+00:00*%
%TF.ProjectId,TFPROBE01A,54465052-4f42-4453-9031-412e6b696361,rev?*%
%TF.SameCoordinates,Original*%
%TF.FileFunction,Copper,L1,Top*%
%TF.FilePolarity,Positive*%
%FSLAX46Y46*%
G04 Gerber Fmt 4.6, Leading zero omitted, Abs format (unit mm)*
G04 Created by KiCad (PCBNEW 6.0.4-6f826c9f35~116~ubuntu20.04.1) date 2023-06-16 09:54:20*
%MOMM*%
%LPD*%
G01*
G04 APERTURE LIST*
%ADD10C,0.150000*%
%TA.AperFunction,NonConductor*%
%ADD11C,0.150000*%
%TD*%
%TA.AperFunction,ComponentPad*%
%ADD12R,1.524000X1.524000*%
%TD*%
%TA.AperFunction,ViaPad*%
%ADD13C,0.800000*%
%TD*%
%TA.AperFunction,Conductor*%
%ADD14C,0.500000*%
%TD*%
G04 APERTURE END LIST*
D10*
D11*
X388095Y428571D02*
X388095Y999999D01*
X1688095Y714285D02*
X388095Y714285D01*
X1007142Y1666666D02*
X1007142Y1333333D01*
X1688095Y1333333D02*
X388095Y1333333D01*
X388095Y1809523D01*
X1688095Y2190476D02*
X388095Y2190476D01*
X388095Y2571428D01*
X449999Y2666666D01*
X511904Y2714285D01*
X635714Y2761904D01*
X821428Y2761904D01*
X945238Y2714285D01*
X1007142Y2666666D01*
X1069047Y2571428D01*
X1069047Y2190476D01*
X1688095Y3761904D02*
X1069047Y3428571D01*
X1688095Y3190476D02*
X388095Y3190476D01*
X388095Y3571428D01*
X449999Y3666666D01*
X511904Y3714285D01*
X635714Y3761904D01*
X821428Y3761904D01*
X945238Y3714285D01*
X1007142Y3666666D01*
X1069047Y3571428D01*
X1069047Y3190476D01*
X388095Y4380952D02*
X388095Y4571428D01*
X450000Y4666666D01*
X573809Y4761904D01*
X821428Y4809523D01*
X1254761Y4809523D01*
X1502380Y4761904D01*
X1626190Y4666666D01*
X1688095Y4571428D01*
X1688095Y4380952D01*
X1626190Y4285714D01*
X1502380Y4190476D01*
X1254761Y4142857D01*
X821428Y4142857D01*
X573809Y4190476D01*
X450000Y4285714D01*
X388095Y4380952D01*
X1007142Y5571428D02*
X1069047Y5714285D01*
X1130952Y5761904D01*
X1254761Y5809523D01*
X1440476Y5809523D01*
X1564285Y5761904D01*
X1626190Y5714285D01*
X1688095Y5619047D01*
X1688095Y5238095D01*
X388095Y5238095D01*
X388095Y5571428D01*
X450000Y5666666D01*
X511904Y5714285D01*
X635714Y5761904D01*
X759523Y5761904D01*
X883333Y5714285D01*
X945238Y5666666D01*
X1007142Y5571428D01*
X1007142Y5238095D01*
X1007142Y6238095D02*
X1007142Y6571428D01*
X1688095Y6714285D02*
X1688095Y6238095D01*
X388095Y6238095D01*
X388095Y6714285D01*
X388095Y7333333D02*
X388095Y7428571D01*
X450000Y7523809D01*
X511904Y7571428D01*
X635714Y7619047D01*
X883333Y7666666D01*
X1192857Y7666666D01*
X1440476Y7619047D01*
X1564285Y7571428D01*
X1626190Y7523809D01*
X1688095Y7428571D01*
X1688095Y7333333D01*
X1626190Y7238095D01*
X1564285Y7190476D01*
X1440476Y7142857D01*
X1192857Y7095238D01*
X883333Y7095238D01*
X635714Y7142857D01*
X511904Y7190476D01*
X450000Y7238095D01*
X388095Y7333333D01*
X1688095Y8619047D02*
X1688095Y8047619D01*
X1688095Y8333333D02*
X388095Y8333333D01*
X573809Y8238095D01*
X697619Y8142857D01*
X759523Y8047619D01*
X1316666Y9000000D02*
X1316666Y9476190D01*
X1688095Y8904761D02*
X388095Y9238095D01*
X1688095Y9571428D01*
D12*
%TO.P,J1,1*%
%TO.N,/COUNT*%
X4069000Y7540000D03*
%TO.P,J1,2*%
%TO.N,+5V*%
X4069000Y5000000D03*
%TO.P,J1,3*%
%TO.N,GND*%
X4069000Y2460000D03*
%TD*%
D13*
%TO.N,+5V*%
X10033000Y5969000D03*
X10160000Y4230000D03*
%TO.N,GND*%
X11303000Y762000D03*
X9525000Y2794000D03*
X11303000Y9144000D03*
X12700000Y9144000D03*
X12573000Y762000D03*
X6858000Y889000D03*
%TO.N,/COUNT*%
X8763000Y7366000D03*
X11938000Y2159000D03*
%TD*%
D14*
%TO.N,+5V*%
X10160000Y5842000D02*
X10033000Y5969000D01*
X10160000Y4230000D02*
X10160000Y5842000D01*
%TO.N,/COUNT*%
X11176000Y7366000D02*
X8763000Y7366000D01*
X11938000Y2159000D02*
X11938000Y6604000D01*
X11938000Y6604000D02*
X11176000Y7366000D01*
%TD*%
%TA.AperFunction,Conductor*%
%TO.N,GND*%
G36*
X7283551Y9781093D02*
G01*
X7319515Y9731593D01*
X7322841Y9718276D01*
X7347424Y9579563D01*
X7347426Y9579556D01*
X7348081Y9575859D01*
X7431244Y9330869D01*
X7432974Y9327538D01*
X7432976Y9327534D01*
X7516151Y9167417D01*
X7550508Y9101277D01*
X7703128Y8892366D01*
X7885591Y8708945D01*
X7888610Y8706715D01*
X7888616Y8706710D01*
X8036311Y8597622D01*
X8093700Y8555234D01*
X8210542Y8493760D01*
X8319337Y8436519D01*
X8319342Y8436517D01*
X8322664Y8434769D01*
X8567216Y8350325D01*
X8570913Y8349650D01*
X8570920Y8349648D01*
X8782393Y8311027D01*
X8821727Y8303843D01*
X8904595Y8299500D01*
X9065729Y8299500D01*
X9142768Y8305360D01*
X9254221Y8313838D01*
X9254227Y8313839D01*
X9257975Y8314124D01*
X9510014Y8372543D01*
X9750316Y8468414D01*
X9973352Y8599530D01*
X10173989Y8762874D01*
X10291199Y8892366D01*
X10345086Y8951899D01*
X10345089Y8951903D01*
X10347609Y8954687D01*
X10490219Y9170555D01*
X10598534Y9405510D01*
X10670065Y9654146D01*
X10677743Y9713666D01*
X10703938Y9768958D01*
X10757632Y9798295D01*
X10775929Y9800000D01*
X13701000Y9800000D01*
X13759191Y9781093D01*
X13795155Y9731593D01*
X13800000Y9701000D01*
X13800000Y299000D01*
X13781093Y240809D01*
X13731593Y204845D01*
X13701000Y200000D01*
X10774640Y200000D01*
X10716449Y218907D01*
X10680485Y268407D01*
X10677159Y281724D01*
X10652576Y420437D01*
X10652574Y420444D01*
X10651919Y424141D01*
X10568756Y669131D01*
X10487254Y826029D01*
X10451228Y895382D01*
X10451225Y895387D01*
X10449492Y898723D01*
X10296872Y1107634D01*
X10114409Y1291055D01*
X10111390Y1293285D01*
X10111384Y1293290D01*
X9909330Y1442528D01*
X9906300Y1444766D01*
X9741284Y1531586D01*
X9680663Y1563481D01*
X9680658Y1563483D01*
X9677336Y1565231D01*
X9654012Y1573285D01*
X9436343Y1648446D01*
X9436344Y1648446D01*
X9432784Y1649675D01*
X9429087Y1650350D01*
X9429080Y1650352D01*
X9181399Y1695586D01*
X9181400Y1695586D01*
X9178273Y1696157D01*
X9095405Y1700500D01*
X8934271Y1700500D01*
X8857232Y1694640D01*
X8745779Y1686162D01*
X8745773Y1686161D01*
X8742025Y1685876D01*
X8489986Y1627457D01*
X8249684Y1531586D01*
X8026648Y1400470D01*
X8023730Y1398094D01*
X8023728Y1398093D01*
X7923332Y1316358D01*
X7826011Y1237126D01*
X7823491Y1234342D01*
X7823489Y1234340D01*
X7654914Y1048101D01*
X7654911Y1048097D01*
X7652391Y1045313D01*
X7509781Y829445D01*
X7401466Y594490D01*
X7329935Y345854D01*
X7323892Y299000D01*
X7322258Y286335D01*
X7296062Y231042D01*
X7242368Y201705D01*
X7224071Y200000D01*
X2595500Y200000D01*
X2537309Y218907D01*
X2501345Y268407D01*
X2496500Y299000D01*
X2496500Y2251757D01*
X2902000Y2251757D01*
X2902000Y1701893D01*
X2902609Y1694154D01*
X2920603Y1580543D01*
X2925358Y1565908D01*
X2975812Y1466886D01*
X2984854Y1454441D01*
X3063441Y1375854D01*
X3075886Y1366812D01*
X3174908Y1316358D01*
X3189543Y1311603D01*
X3303154Y1293609D01*
X3310893Y1293000D01*
X3853320Y1293000D01*
X3866005Y1297122D01*
X3869000Y1301243D01*
X3869000Y2244320D01*
X3866583Y2251757D01*
X4269000Y2251757D01*
X4269000Y1308680D01*
X4273122Y1295995D01*
X4277243Y1293000D01*
X4827107Y1293000D01*
X4834846Y1293609D01*
X4948457Y1311603D01*
X4963092Y1316358D01*
X5062114Y1366812D01*
X5074559Y1375854D01*
X5153146Y1454441D01*
X5162188Y1466886D01*
X5212642Y1565908D01*
X5217397Y1580543D01*
X5235391Y1694154D01*
X5236000Y1701893D01*
X5236000Y2244320D01*
X5231878Y2257005D01*
X5227757Y2260000D01*
X4284680Y2260000D01*
X4271995Y2255878D01*
X4269000Y2251757D01*
X3866583Y2251757D01*
X3864878Y2257005D01*
X3860757Y2260000D01*
X2917680Y2260000D01*
X2904995Y2255878D01*
X2902000Y2251757D01*
X2496500Y2251757D01*
X2496500Y3218107D01*
X2902000Y3218107D01*
X2902000Y2675680D01*
X2906122Y2662995D01*
X2910243Y2660000D01*
X3853320Y2660000D01*
X3866005Y2664122D01*
X3869000Y2668243D01*
X3869000Y3611320D01*
X3866583Y3618757D01*
X4269000Y3618757D01*
X4269000Y2675680D01*
X4273122Y2662995D01*
X4277243Y2660000D01*
X5220320Y2660000D01*
X5233005Y2664122D01*
X5236000Y2668243D01*
X5236000Y3218107D01*
X5235391Y3225846D01*
X5217397Y3339457D01*
X5212642Y3354092D01*
X5162188Y3453114D01*
X5153146Y3465559D01*
X5074559Y3544146D01*
X5062114Y3553188D01*
X4963092Y3603642D01*
X4948457Y3608397D01*
X4834846Y3626391D01*
X4827107Y3627000D01*
X4284680Y3627000D01*
X4271995Y3622878D01*
X4269000Y3618757D01*
X3866583Y3618757D01*
X3864878Y3624005D01*
X3860757Y3627000D01*
X3310893Y3627000D01*
X3303154Y3626391D01*
X3189543Y3608397D01*
X3174908Y3603642D01*
X3075886Y3553188D01*
X3063441Y3544146D01*
X2984854Y3465559D01*
X2975812Y3453114D01*
X2925358Y3354092D01*
X2920603Y3339457D01*
X2902609Y3225846D01*
X2902000Y3218107D01*
X2496500Y3218107D01*
X2496500Y5762000D01*
X3101500Y5762000D01*
X3101500Y4238000D01*
X3117143Y4159359D01*
X3161690Y4092690D01*
X3169800Y4087271D01*
X3195024Y4070417D01*
X3228359Y4048143D01*
X3237922Y4046241D01*
X3237924Y4046240D01*
X3263200Y4041213D01*
X3307000Y4032500D01*
X4831000Y4032500D01*
X4874800Y4041213D01*
X4900076Y4046240D01*
X4900078Y4046241D01*
X4909641Y4048143D01*
X4942976Y4070417D01*
X4968200Y4087271D01*
X4976310Y4092690D01*
X5020857Y4159359D01*
X5036500Y4238000D01*
X5036500Y5762000D01*
X5027690Y5806288D01*
X5022760Y5831076D01*
X5022759Y5831078D01*
X5020857Y5840641D01*
X4976310Y5907310D01*
X4909641Y5951857D01*
X4900078Y5953759D01*
X4900076Y5953760D01*
X4874800Y5958787D01*
X4831000Y5967500D01*
X3307000Y5967500D01*
X3263200Y5958787D01*
X3237924Y5953760D01*
X3237922Y5953759D01*
X3228359Y5951857D01*
X3161690Y5907310D01*
X3117143Y5840641D01*
X3115241Y5831078D01*
X3115240Y5831076D01*
X3110310Y5806288D01*
X3101500Y5762000D01*
X2496500Y5762000D01*
X2496500Y5969000D01*
X9427500Y5969000D01*
X9448132Y5812285D01*
X9508622Y5666250D01*
X9604847Y5540847D01*
X9610000Y5536893D01*
X9670767Y5490265D01*
X9705423Y5439841D01*
X9709500Y5411723D01*
X9709500Y4662636D01*
X9689042Y4602369D01*
X9635622Y4532750D01*
X9575132Y4386715D01*
X9554500Y4230000D01*
X9575132Y4073285D01*
X9635622Y3927250D01*
X9731847Y3801847D01*
X9857250Y3705622D01*
X10003285Y3645132D01*
X10160000Y3624500D01*
X10316715Y3645132D01*
X10462750Y3705622D01*
X10588153Y3801847D01*
X10684378Y3927250D01*
X10744868Y4073285D01*
X10765500Y4230000D01*
X10744868Y4386715D01*
X10684378Y4532750D01*
X10630958Y4602369D01*
X10610500Y4662636D01*
X10610500Y5775026D01*
X10613873Y5800649D01*
X10615384Y5806288D01*
X10617868Y5812285D01*
X10638500Y5969000D01*
X10617868Y6125715D01*
X10557378Y6271750D01*
X10461153Y6397153D01*
X10335750Y6493378D01*
X10189715Y6553868D01*
X10051063Y6572122D01*
X10039434Y6573653D01*
X10033000Y6574500D01*
X10026566Y6573653D01*
X10014937Y6572122D01*
X9876285Y6553868D01*
X9730250Y6493378D01*
X9604847Y6397153D01*
X9508622Y6271750D01*
X9448132Y6125715D01*
X9427500Y5969000D01*
X2496500Y5969000D01*
X2496500Y8302000D01*
X3101500Y8302000D01*
X3101500Y6778000D01*
X3117143Y6699359D01*
X3161690Y6632690D01*
X3228359Y6588143D01*
X3237922Y6586241D01*
X3237924Y6586240D01*
X3263200Y6581213D01*
X3307000Y6572500D01*
X4831000Y6572500D01*
X4874800Y6581213D01*
X4900076Y6586240D01*
X4900078Y6586241D01*
X4909641Y6588143D01*
X4976310Y6632690D01*
X5020857Y6699359D01*
X5036500Y6778000D01*
X5036500Y7366000D01*
X8157500Y7366000D01*
X8178132Y7209285D01*
X8238622Y7063250D01*
X8334847Y6937847D01*
X8460250Y6841622D01*
X8606285Y6781132D01*
X8763000Y6760500D01*
X8919715Y6781132D01*
X9065750Y6841622D01*
X9096647Y6865330D01*
X9135369Y6895042D01*
X9195636Y6915500D01*
X10948389Y6915500D01*
X11006580Y6896593D01*
X11018393Y6886504D01*
X11458504Y6446393D01*
X11486281Y6391876D01*
X11487500Y6376389D01*
X11487500Y2591636D01*
X11467042Y2531369D01*
X11413622Y2461750D01*
X11353132Y2315715D01*
X11332500Y2159000D01*
X11353132Y2002285D01*
X11413622Y1856250D01*
X11509847Y1730847D01*
X11635250Y1634622D01*
X11650496Y1628307D01*
X11765808Y1580543D01*
X11781285Y1574132D01*
X11938000Y1553500D01*
X12094715Y1574132D01*
X12110193Y1580543D01*
X12225504Y1628307D01*
X12240750Y1634622D01*
X12366153Y1730847D01*
X12462378Y1856250D01*
X12522868Y2002285D01*
X12543500Y2159000D01*
X12522868Y2315715D01*
X12462378Y2461750D01*
X12408958Y2531369D01*
X12388500Y2591636D01*
X12388500Y6572122D01*
X12389186Y6583758D01*
X12392405Y6610959D01*
X12393275Y6618307D01*
X12382656Y6676453D01*
X12382151Y6679485D01*
X12380383Y6691249D01*
X12373364Y6737935D01*
X12370239Y6744443D01*
X12368942Y6751545D01*
X12364291Y6760500D01*
X12341707Y6803975D01*
X12340317Y6806756D01*
X12314735Y6860029D01*
X12310632Y6864468D01*
X12309108Y6866729D01*
X12306507Y6871736D01*
X12301475Y6877628D01*
X12263048Y6916055D01*
X12260354Y6918858D01*
X12227822Y6954051D01*
X12222798Y6959486D01*
X12216923Y6962899D01*
X12210042Y6969061D01*
X11517081Y7662023D01*
X11509339Y7670737D01*
X11492394Y7692232D01*
X11492393Y7692233D01*
X11487811Y7698045D01*
X11461544Y7716200D01*
X11439217Y7731631D01*
X11436688Y7733438D01*
X11395097Y7764157D01*
X11395095Y7764158D01*
X11389142Y7768555D01*
X11382332Y7770946D01*
X11376392Y7775052D01*
X11369339Y7777283D01*
X11369334Y7777285D01*
X11331559Y7789231D01*
X11320029Y7792878D01*
X11317144Y7793840D01*
X11261352Y7813432D01*
X11255312Y7813669D01*
X11252633Y7814191D01*
X11247256Y7815892D01*
X11241635Y7816334D01*
X11241632Y7816335D01*
X11241546Y7816341D01*
X11239531Y7816500D01*
X11185213Y7816500D01*
X11181327Y7816576D01*
X11133410Y7818459D01*
X11133407Y7818459D01*
X11126016Y7818749D01*
X11119449Y7817008D01*
X11110224Y7816500D01*
X9195636Y7816500D01*
X9135369Y7836958D01*
X9070899Y7886427D01*
X9065750Y7890378D01*
X8919715Y7950868D01*
X8763000Y7971500D01*
X8606285Y7950868D01*
X8460250Y7890378D01*
X8334847Y7794153D01*
X8238622Y7668750D01*
X8178132Y7522715D01*
X8157500Y7366000D01*
X5036500Y7366000D01*
X5036500Y8302000D01*
X5020857Y8380641D01*
X4976310Y8447310D01*
X4909641Y8491857D01*
X4900078Y8493759D01*
X4900076Y8493760D01*
X4874800Y8498787D01*
X4831000Y8507500D01*
X3307000Y8507500D01*
X3263200Y8498787D01*
X3237924Y8493760D01*
X3237922Y8493759D01*
X3228359Y8491857D01*
X3161690Y8447310D01*
X3117143Y8380641D01*
X3101500Y8302000D01*
X2496500Y8302000D01*
X2496500Y9701000D01*
X2515407Y9759191D01*
X2564907Y9795155D01*
X2595500Y9800000D01*
X7225360Y9800000D01*
X7283551Y9781093D01*
G37*
%TD.AperFunction*%
%TD*%
M02*
