%TF.GenerationSoftware,KiCad,Pcbnew,6.0.4-6f826c9f35~116~ubuntu20.04.1*%
%TF.CreationDate,2022-10-18T10:47:03+00:00*%
%TF.ProjectId,TFPROBE01A,54465052-4f42-4453-9031-412e6b696361,rev?*%
%TF.SameCoordinates,Original*%
%TF.FileFunction,Legend,Top*%
%TF.FilePolarity,Positive*%
%FSLAX46Y46*%
G04 Gerber Fmt 4.6, Leading zero omitted, Abs format (unit mm)*
G04 Created by KiCad (PCBNEW 6.0.4-6f826c9f35~116~ubuntu20.04.1) date 2022-10-18 10:47:03*
%MOMM*%
%LPD*%
G01*
G04 APERTURE LIST*
%ADD10C,0.150000*%
%ADD11C,0.200000*%
G04 APERTURE END LIST*
D10*
X9906000Y8001000D02*
X10668000Y8001000D01*
X9271000Y7112000D02*
X9906000Y7112000D01*
X10668000Y8001000D02*
X10668000Y7112000D01*
X9906000Y7112000D02*
X9906000Y8001000D01*
X10668000Y7112000D02*
X11430000Y7112000D01*
D11*
X6420476Y2950000D02*
X6296666Y3011904D01*
X6110952Y3011904D01*
X5925238Y2950000D01*
X5801428Y2826190D01*
X5739523Y2702380D01*
X5677619Y2454761D01*
X5677619Y2269047D01*
X5739523Y2021428D01*
X5801428Y1897619D01*
X5925238Y1773809D01*
X6110952Y1711904D01*
X6234761Y1711904D01*
X6420476Y1773809D01*
X6482380Y1835714D01*
X6482380Y2269047D01*
X6234761Y2269047D01*
X7039523Y1711904D02*
X7039523Y3011904D01*
X7782380Y1711904D01*
X7782380Y3011904D01*
X8401428Y1711904D02*
X8401428Y3011904D01*
X8710952Y3011904D01*
X8896666Y2950000D01*
X9020476Y2826190D01*
X9082380Y2702380D01*
X9144285Y2454761D01*
X9144285Y2269047D01*
X9082380Y2021428D01*
X9020476Y1897619D01*
X8896666Y1773809D01*
X8710952Y1711904D01*
X8401428Y1711904D01*
X6187142Y8111904D02*
X6434761Y8111904D01*
X6558571Y8050000D01*
X6682380Y7926190D01*
X6744285Y7678571D01*
X6744285Y7245238D01*
X6682380Y6997619D01*
X6558571Y6873809D01*
X6434761Y6811904D01*
X6187142Y6811904D01*
X6063333Y6873809D01*
X5939523Y6997619D01*
X5877619Y7245238D01*
X5877619Y7678571D01*
X5939523Y7926190D01*
X6063333Y8050000D01*
X6187142Y8111904D01*
X7301428Y8111904D02*
X7301428Y7059523D01*
X7363333Y6935714D01*
X7425238Y6873809D01*
X7549047Y6811904D01*
X7796666Y6811904D01*
X7920476Y6873809D01*
X7982380Y6935714D01*
X8044285Y7059523D01*
X8044285Y8111904D01*
X8477619Y8111904D02*
X9220476Y8111904D01*
X8849047Y6811904D02*
X8849047Y8111904D01*
X5778523Y4807142D02*
X6769000Y4807142D01*
X6273761Y4311904D02*
X6273761Y5302380D01*
X8007095Y5611904D02*
X7388047Y5611904D01*
X7326142Y4992857D01*
X7388047Y5054761D01*
X7511857Y5116666D01*
X7821380Y5116666D01*
X7945190Y5054761D01*
X8007095Y4992857D01*
X8069000Y4869047D01*
X8069000Y4559523D01*
X8007095Y4435714D01*
X7945190Y4373809D01*
X7821380Y4311904D01*
X7511857Y4311904D01*
X7388047Y4373809D01*
X7326142Y4435714D01*
X8440428Y5611904D02*
X8873761Y4311904D01*
X9307095Y5611904D01*
D10*
%TO.C,J1*%
X5339000Y1190000D02*
X2799000Y1190000D01*
X5339000Y8810000D02*
X5339000Y1190000D01*
X2799000Y8810000D02*
X5339000Y8810000D01*
X2799000Y1190000D02*
X2799000Y8810000D01*
%TD*%
M02*
