%TF.GenerationSoftware,KiCad,Pcbnew,5.99.0-unknown-0a0935e0f3~125~ubuntu18.04.1*%
%TF.CreationDate,2021-04-07T19:40:52+02:00*%
%TF.ProjectId,TFPROBE01A,54465052-4f42-4453-9031-412e6b696361,rev?*%
%TF.SameCoordinates,Original*%
%TF.FileFunction,Other,Comment*%
%FSLAX46Y46*%
G04 Gerber Fmt 4.6, Leading zero omitted, Abs format (unit mm)*
G04 Created by KiCad (PCBNEW 5.99.0-unknown-0a0935e0f3~125~ubuntu18.04.1) date 2021-04-07 19:40:52*
%MOMM*%
%LPD*%
G01*
G04 APERTURE LIST*
%ADD10C,0.150000*%
G04 APERTURE END LIST*
D10*
X15939380Y952380D02*
X15939380Y380952D01*
X15939380Y666666D02*
X14939380Y666666D01*
X15082238Y571428D01*
X15177476Y476190D01*
X15225095Y380952D01*
X14939380Y1571428D02*
X14939380Y1666666D01*
X14987000Y1761904D01*
X15034619Y1809523D01*
X15129857Y1857142D01*
X15320333Y1904761D01*
X15558428Y1904761D01*
X15748904Y1857142D01*
X15844142Y1809523D01*
X15891761Y1761904D01*
X15939380Y1666666D01*
X15939380Y1571428D01*
X15891761Y1476190D01*
X15844142Y1428571D01*
X15748904Y1380952D01*
X15558428Y1333333D01*
X15320333Y1333333D01*
X15129857Y1380952D01*
X15034619Y1428571D01*
X14987000Y1476190D01*
X14939380Y1571428D01*
X15844142Y2333333D02*
X15891761Y2380952D01*
X15939380Y2333333D01*
X15891761Y2285714D01*
X15844142Y2333333D01*
X15939380Y2333333D01*
X14939380Y3000000D02*
X14939380Y3095238D01*
X14987000Y3190476D01*
X15034619Y3238095D01*
X15129857Y3285714D01*
X15320333Y3333333D01*
X15558428Y3333333D01*
X15748904Y3285714D01*
X15844142Y3238095D01*
X15891761Y3190476D01*
X15939380Y3095238D01*
X15939380Y3000000D01*
X15891761Y2904761D01*
X15844142Y2857142D01*
X15748904Y2809523D01*
X15558428Y2761904D01*
X15320333Y2761904D01*
X15129857Y2809523D01*
X15034619Y2857142D01*
X14987000Y2904761D01*
X14939380Y3000000D01*
X14939380Y3952380D02*
X14939380Y4047619D01*
X14987000Y4142857D01*
X15034619Y4190476D01*
X15129857Y4238095D01*
X15320333Y4285714D01*
X15558428Y4285714D01*
X15748904Y4238095D01*
X15844142Y4190476D01*
X15891761Y4142857D01*
X15939380Y4047619D01*
X15939380Y3952380D01*
X15891761Y3857142D01*
X15844142Y3809523D01*
X15748904Y3761904D01*
X15558428Y3714285D01*
X15320333Y3714285D01*
X15129857Y3761904D01*
X15034619Y3809523D01*
X14987000Y3857142D01*
X14939380Y3952380D01*
X14939380Y4904761D02*
X14939380Y5000000D01*
X14987000Y5095238D01*
X15034619Y5142857D01*
X15129857Y5190476D01*
X15320333Y5238095D01*
X15558428Y5238095D01*
X15748904Y5190476D01*
X15844142Y5142857D01*
X15891761Y5095238D01*
X15939380Y5000000D01*
X15939380Y4904761D01*
X15891761Y4809523D01*
X15844142Y4761904D01*
X15748904Y4714285D01*
X15558428Y4666666D01*
X15320333Y4666666D01*
X15129857Y4714285D01*
X15034619Y4761904D01*
X14987000Y4809523D01*
X14939380Y4904761D01*
X14939380Y5857142D02*
X14939380Y5952380D01*
X14987000Y6047619D01*
X15034619Y6095238D01*
X15129857Y6142857D01*
X15320333Y6190476D01*
X15558428Y6190476D01*
X15748904Y6142857D01*
X15844142Y6095238D01*
X15891761Y6047619D01*
X15939380Y5952380D01*
X15939380Y5857142D01*
X15891761Y5761904D01*
X15844142Y5714285D01*
X15748904Y5666666D01*
X15558428Y5619047D01*
X15320333Y5619047D01*
X15129857Y5666666D01*
X15034619Y5714285D01*
X14987000Y5761904D01*
X14939380Y5857142D01*
X15939380Y7380952D02*
X15272714Y7380952D01*
X15367952Y7380952D02*
X15320333Y7428571D01*
X15272714Y7523809D01*
X15272714Y7666666D01*
X15320333Y7761904D01*
X15415571Y7809523D01*
X15939380Y7809523D01*
X15415571Y7809523D02*
X15320333Y7857142D01*
X15272714Y7952380D01*
X15272714Y8095238D01*
X15320333Y8190476D01*
X15415571Y8238095D01*
X15939380Y8238095D01*
X15939380Y8714285D02*
X15272714Y8714285D01*
X15367952Y8714285D02*
X15320333Y8761904D01*
X15272714Y8857142D01*
X15272714Y9000000D01*
X15320333Y9095238D01*
X15415571Y9142857D01*
X15939380Y9142857D01*
X15415571Y9142857D02*
X15320333Y9190476D01*
X15272714Y9285714D01*
X15272714Y9428571D01*
X15320333Y9523809D01*
X15415571Y9571428D01*
X15939380Y9571428D01*
X14500000Y10000000D02*
X17223420Y10000000D01*
X14500000Y0D02*
X17223420Y0D01*
X16637000Y10000000D02*
X16637000Y0D01*
X16637000Y10000000D02*
X16637000Y0D01*
X16637000Y10000000D02*
X16050579Y8873496D01*
X16637000Y10000000D02*
X17223421Y8873496D01*
X16637000Y0D02*
X17223421Y1126504D01*
X16637000Y0D02*
X16050579Y1126504D01*
X-2997619Y809523D02*
X-2997619Y1476190D01*
X-1997619Y1047619D01*
X-2045238Y1904761D02*
X-1997619Y1904761D01*
X-1902380Y1857142D01*
X-1854761Y1809523D01*
X-2997619Y2761904D02*
X-2997619Y2571428D01*
X-2950000Y2476190D01*
X-2902380Y2428571D01*
X-2759523Y2333333D01*
X-2569047Y2285714D01*
X-2188095Y2285714D01*
X-2092857Y2333333D01*
X-2045238Y2380952D01*
X-1997619Y2476190D01*
X-1997619Y2666666D01*
X-2045238Y2761904D01*
X-2092857Y2809523D01*
X-2188095Y2857142D01*
X-2426190Y2857142D01*
X-2521428Y2809523D01*
X-2569047Y2761904D01*
X-2616666Y2666666D01*
X-2616666Y2476190D01*
X-2569047Y2380952D01*
X-2521428Y2333333D01*
X-2426190Y2285714D01*
X-2902380Y3238095D02*
X-2950000Y3285714D01*
X-2997619Y3380952D01*
X-2997619Y3619047D01*
X-2950000Y3714285D01*
X-2902380Y3761904D01*
X-2807142Y3809523D01*
X-2711904Y3809523D01*
X-2569047Y3761904D01*
X-1997619Y3190476D01*
X-1997619Y3809523D01*
X-2997619Y4428571D02*
X-2997619Y4523809D01*
X-2950000Y4619047D01*
X-2902380Y4666666D01*
X-2807142Y4714285D01*
X-2616666Y4761904D01*
X-2378571Y4761904D01*
X-2188095Y4714285D01*
X-2092857Y4666666D01*
X-2045238Y4619047D01*
X-1997619Y4523809D01*
X-1997619Y4428571D01*
X-2045238Y4333333D01*
X-2092857Y4285714D01*
X-2188095Y4238095D01*
X-2378571Y4190476D01*
X-2616666Y4190476D01*
X-2807142Y4238095D01*
X-2902380Y4285714D01*
X-2950000Y4333333D01*
X-2997619Y4428571D01*
X-2997619Y5380952D02*
X-2997619Y5476190D01*
X-2950000Y5571428D01*
X-2902380Y5619047D01*
X-2807142Y5666666D01*
X-2616666Y5714285D01*
X-2378571Y5714285D01*
X-2188095Y5666666D01*
X-2092857Y5619047D01*
X-2045238Y5571428D01*
X-1997619Y5476190D01*
X-1997619Y5380952D01*
X-2045238Y5285714D01*
X-2092857Y5238095D01*
X-2188095Y5190476D01*
X-2378571Y5142857D01*
X-2616666Y5142857D01*
X-2807142Y5190476D01*
X-2902380Y5238095D01*
X-2950000Y5285714D01*
X-2997619Y5380952D01*
X-1997619Y6904761D02*
X-2664285Y6904761D01*
X-2569047Y6904761D02*
X-2616666Y6952380D01*
X-2664285Y7047619D01*
X-2664285Y7190476D01*
X-2616666Y7285714D01*
X-2521428Y7333333D01*
X-1997619Y7333333D01*
X-2521428Y7333333D02*
X-2616666Y7380952D01*
X-2664285Y7476190D01*
X-2664285Y7619047D01*
X-2616666Y7714285D01*
X-2521428Y7761904D01*
X-1997619Y7761904D01*
X-1997619Y8238095D02*
X-2664285Y8238095D01*
X-2569047Y8238095D02*
X-2616666Y8285714D01*
X-2664285Y8380952D01*
X-2664285Y8523809D01*
X-2616666Y8619047D01*
X-2521428Y8666666D01*
X-1997619Y8666666D01*
X-2521428Y8666666D02*
X-2616666Y8714285D01*
X-2664285Y8809523D01*
X-2664285Y8952380D01*
X-2616666Y9047619D01*
X-2521428Y9095238D01*
X-1997619Y9095238D01*
X2299000Y1190000D02*
X-1886420Y1190000D01*
X2299000Y8810000D02*
X-1886420Y8810000D01*
X-1300000Y1190000D02*
X-1300000Y8810000D01*
X-1300000Y1190000D02*
X-1300000Y8810000D01*
X-1300000Y1190000D02*
X-713579Y2316504D01*
X-1300000Y1190000D02*
X-1886421Y2316504D01*
X-1300000Y8810000D02*
X-1886421Y7683496D01*
X-1300000Y8810000D02*
X-713579Y7683496D01*
X2952380Y-2223380D02*
X2380952Y-2223380D01*
X2666666Y-2223380D02*
X2666666Y-1223380D01*
X2571428Y-1366238D01*
X2476190Y-1461476D01*
X2380952Y-1509095D01*
X3809523Y-1556714D02*
X3809523Y-2223380D01*
X3571428Y-1175761D02*
X3333333Y-1890047D01*
X3952380Y-1890047D01*
X4333333Y-2128142D02*
X4380952Y-2175761D01*
X4333333Y-2223380D01*
X4285714Y-2175761D01*
X4333333Y-2128142D01*
X4333333Y-2223380D01*
X4999999Y-1223380D02*
X5095238Y-1223380D01*
X5190476Y-1271000D01*
X5238095Y-1318619D01*
X5285714Y-1413857D01*
X5333333Y-1604333D01*
X5333333Y-1842428D01*
X5285714Y-2032904D01*
X5238095Y-2128142D01*
X5190476Y-2175761D01*
X5095238Y-2223380D01*
X4999999Y-2223380D01*
X4904761Y-2175761D01*
X4857142Y-2128142D01*
X4809523Y-2032904D01*
X4761904Y-1842428D01*
X4761904Y-1604333D01*
X4809523Y-1413857D01*
X4857142Y-1318619D01*
X4904761Y-1271000D01*
X4999999Y-1223380D01*
X5952380Y-1223380D02*
X6047619Y-1223380D01*
X6142857Y-1271000D01*
X6190476Y-1318619D01*
X6238095Y-1413857D01*
X6285714Y-1604333D01*
X6285714Y-1842428D01*
X6238095Y-2032904D01*
X6190476Y-2128142D01*
X6142857Y-2175761D01*
X6047619Y-2223380D01*
X5952380Y-2223380D01*
X5857142Y-2175761D01*
X5809523Y-2128142D01*
X5761904Y-2032904D01*
X5714285Y-1842428D01*
X5714285Y-1604333D01*
X5761904Y-1413857D01*
X5809523Y-1318619D01*
X5857142Y-1271000D01*
X5952380Y-1223380D01*
X6904761Y-1223380D02*
X6999999Y-1223380D01*
X7095238Y-1271000D01*
X7142857Y-1318619D01*
X7190476Y-1413857D01*
X7238095Y-1604333D01*
X7238095Y-1842428D01*
X7190476Y-2032904D01*
X7142857Y-2128142D01*
X7095238Y-2175761D01*
X6999999Y-2223380D01*
X6904761Y-2223380D01*
X6809523Y-2175761D01*
X6761904Y-2128142D01*
X6714285Y-2032904D01*
X6666666Y-1842428D01*
X6666666Y-1604333D01*
X6714285Y-1413857D01*
X6761904Y-1318619D01*
X6809523Y-1271000D01*
X6904761Y-1223380D01*
X7857142Y-1223380D02*
X7952380Y-1223380D01*
X8047619Y-1271000D01*
X8095238Y-1318619D01*
X8142857Y-1413857D01*
X8190476Y-1604333D01*
X8190476Y-1842428D01*
X8142857Y-2032904D01*
X8095238Y-2128142D01*
X8047619Y-2175761D01*
X7952380Y-2223380D01*
X7857142Y-2223380D01*
X7761904Y-2175761D01*
X7714285Y-2128142D01*
X7666666Y-2032904D01*
X7619047Y-1842428D01*
X7619047Y-1604333D01*
X7666666Y-1413857D01*
X7714285Y-1318619D01*
X7761904Y-1271000D01*
X7857142Y-1223380D01*
X9380952Y-2223380D02*
X9380952Y-1556714D01*
X9380952Y-1651952D02*
X9428571Y-1604333D01*
X9523809Y-1556714D01*
X9666666Y-1556714D01*
X9761904Y-1604333D01*
X9809523Y-1699571D01*
X9809523Y-2223380D01*
X9809523Y-1699571D02*
X9857142Y-1604333D01*
X9952380Y-1556714D01*
X10095238Y-1556714D01*
X10190476Y-1604333D01*
X10238095Y-1699571D01*
X10238095Y-2223380D01*
X10714285Y-2223380D02*
X10714285Y-1556714D01*
X10714285Y-1651952D02*
X10761904Y-1604333D01*
X10857142Y-1556714D01*
X11000000Y-1556714D01*
X11095238Y-1604333D01*
X11142857Y-1699571D01*
X11142857Y-2223380D01*
X11142857Y-1699571D02*
X11190476Y-1604333D01*
X11285714Y-1556714D01*
X11428571Y-1556714D01*
X11523809Y-1604333D01*
X11571428Y-1699571D01*
X11571428Y-2223380D01*
X0Y-500000D02*
X0Y-3507420D01*
X14000000Y-500000D02*
X14000000Y-3507420D01*
X0Y-2921000D02*
X14000000Y-2921000D01*
X0Y-2921000D02*
X14000000Y-2921000D01*
X0Y-2921000D02*
X1126504Y-3507421D01*
X0Y-2921000D02*
X1126504Y-2334579D01*
X14000000Y-2921000D02*
X12873496Y-2334579D01*
X14000000Y-2921000D02*
X12873496Y-3507421D01*
M02*
