%TF.GenerationSoftware,KiCad,Pcbnew,(5.99.0-6526-g442f40fa66)*%
%TF.CreationDate,2020-11-01T17:44:47+01:00*%
%TF.ProjectId,TFPROBE01A,54465052-4f42-4453-9031-412e6b696361,rev?*%
%TF.SameCoordinates,Original*%
%TF.FileFunction,Legend,Top*%
%TF.FilePolarity,Positive*%
%FSLAX46Y46*%
G04 Gerber Fmt 4.6, Leading zero omitted, Abs format (unit mm)*
G04 Created by KiCad (PCBNEW (5.99.0-6526-g442f40fa66)) date 2020-11-01 17:44:47*
%MOMM*%
%LPD*%
G01*
G04 APERTURE LIST*
%ADD10C,0.150000*%
%ADD11C,0.200000*%
G04 APERTURE END LIST*
D10*
X9906000Y8001000D02*
X10668000Y8001000D01*
X9271000Y7112000D02*
X9906000Y7112000D01*
X10668000Y8001000D02*
X10668000Y7112000D01*
X9906000Y7112000D02*
X9906000Y8001000D01*
X10668000Y7112000D02*
X11430000Y7112000D01*
D11*
X6200476Y3190000D02*
X6076666Y3251904D01*
X5890952Y3251904D01*
X5705238Y3190000D01*
X5581428Y3066190D01*
X5519523Y2942380D01*
X5457619Y2694761D01*
X5457619Y2509047D01*
X5519523Y2261428D01*
X5581428Y2137619D01*
X5705238Y2013809D01*
X5890952Y1951904D01*
X6014761Y1951904D01*
X6200476Y2013809D01*
X6262380Y2075714D01*
X6262380Y2509047D01*
X6014761Y2509047D01*
X6819523Y1951904D02*
X6819523Y3251904D01*
X7562380Y1951904D01*
X7562380Y3251904D01*
X8181428Y1951904D02*
X8181428Y3251904D01*
X8490952Y3251904D01*
X8676666Y3190000D01*
X8800476Y3066190D01*
X8862380Y2942380D01*
X8924285Y2694761D01*
X8924285Y2509047D01*
X8862380Y2261428D01*
X8800476Y2137619D01*
X8676666Y2013809D01*
X8490952Y1951904D01*
X8181428Y1951904D01*
X5767142Y8331904D02*
X6014761Y8331904D01*
X6138571Y8270000D01*
X6262380Y8146190D01*
X6324285Y7898571D01*
X6324285Y7465238D01*
X6262380Y7217619D01*
X6138571Y7093809D01*
X6014761Y7031904D01*
X5767142Y7031904D01*
X5643333Y7093809D01*
X5519523Y7217619D01*
X5457619Y7465238D01*
X5457619Y7898571D01*
X5519523Y8146190D01*
X5643333Y8270000D01*
X5767142Y8331904D01*
X6881428Y8331904D02*
X6881428Y7279523D01*
X6943333Y7155714D01*
X7005238Y7093809D01*
X7129047Y7031904D01*
X7376666Y7031904D01*
X7500476Y7093809D01*
X7562380Y7155714D01*
X7624285Y7279523D01*
X7624285Y8331904D01*
X8057619Y8331904D02*
X8800476Y8331904D01*
X8429047Y7031904D02*
X8429047Y8331904D01*
X5519523Y4987142D02*
X6510000Y4987142D01*
X6014761Y4491904D02*
X6014761Y5482380D01*
X7748095Y5791904D02*
X7129047Y5791904D01*
X7067142Y5172857D01*
X7129047Y5234761D01*
X7252857Y5296666D01*
X7562380Y5296666D01*
X7686190Y5234761D01*
X7748095Y5172857D01*
X7810000Y5049047D01*
X7810000Y4739523D01*
X7748095Y4615714D01*
X7686190Y4553809D01*
X7562380Y4491904D01*
X7252857Y4491904D01*
X7129047Y4553809D01*
X7067142Y4615714D01*
X8181428Y5791904D02*
X8614761Y4491904D01*
X9048095Y5791904D01*
M02*
