  0
SECTION
  2
HEADER
  9
$ANGBASE
  50
0.0
  9
$ANGDIR
  70
1
  9
$MEASUREMENT
  70
0
  0
ENDSEC
  0
SECTION
  2
TABLES
  0
TABLE
  2
LTYPE
  70
4
  0
LTYPE
  5
40F
  2
CONTINUOUS
  70
0
  3
Solid line
  72
65
  73
0
  40
0.0
  0
LTYPE
  5
410
  2
DASHDOT
 70
0
  3
Dash Dot ____ _ ____ _
 72
65
 73
4
 40
2.0
 49
1.25
 49
-0.25
 49
0.25
 49
-0.25
  0
LTYPE
  5
411
  2
DASHED
 70
0
  3
Dashed __ __ __ __ __
 72
65
 73
2
 40
0.75
 49
0.5
 49
-0.25
  0
LTYPE
  5
43B
  2
DOTTED
 70
0
  3
Dotted .  .  .  .
 72
65
 73
2
 40
0.2
 49
0.0
 49
-0.2
  0
ENDTAB
  0
TABLE
  2
STYLE
  70
4
  0
STYLE
  2
KICAD
  70
0
  40
0
  41
1
  42
1
  50
0
  71
0
  3
isocp.shx
  0
STYLE
  2
KICADB
  70
0
  40
0
  41
1
  42
1
  50
0
  71
0
  3
isocp.shx
  0
STYLE
  2
KICADI
  70
0
  40
0
  41
1
  42
1
  50
15
  71
0
  3
isocp.shx
  0
STYLE
  2
KICADBI
  70
0
  40
0
  41
1
  42
1
  50
15
  71
0
  3
isocp.shx
  0
ENDTAB
  0
TABLE
  2
LAYER
  70
1
  0
LAYER
  2
BLACK
  70
0
  62
7
  6
CONTINUOUS
  0
ENDTAB
  0
ENDSEC
  0
SECTION
  2
ENTITIES
0
LINE
8
BLACK
6
CONTINUOUS
10
0.21058
20
0.349736
11
0.21071
21
0.349758
0
LINE
8
BLACK
6
CONTINUOUS
10
0.21071
20
0.349758
11
0.210823
21
0.349693
0
LINE
8
BLACK
6
CONTINUOUS
10
0.210823
20
0.349693
11
0.211207
21
0.349625
0
LINE
8
BLACK
6
CONTINUOUS
10
0.211207
20
0.349625
11
0.211794
21
0.349132
0
LINE
8
BLACK
6
CONTINUOUS
10
0.211794
20
0.349132
11
0.212459
21
0.348748
0
LINE
8
BLACK
6
CONTINUOUS
10
0.212459
20
0.348748
11
0.21255
21
0.348498
0
LINE
8
BLACK
6
CONTINUOUS
10
0.21255
20
0.348498
11
0.212754
21
0.348327
0
LINE
8
BLACK
6
CONTINUOUS
10
0.212754
20
0.348327
11
0.212887
21
0.347571
0
LINE
8
BLACK
6
CONTINUOUS
10
0.212887
20
0.347571
11
0.21315
21
0.34685
0
LINE
8
BLACK
6
CONTINUOUS
10
0.21315
20
0.34685
11
0.21315
21
0.0468504
0
LINE
8
BLACK
6
CONTINUOUS
10
0.21315
20
0.0468504
11
0.213082
21
0.0464669
0
LINE
8
BLACK
6
CONTINUOUS
10
0.213082
20
0.0464669
11
0.213105
21
0.0463376
0
LINE
8
BLACK
6
CONTINUOUS
10
0.213105
20
0.0463376
11
0.213039
21
0.046224
0
LINE
8
BLACK
6
CONTINUOUS
10
0.213039
20
0.046224
11
0.212972
21
0.0458405
0
LINE
8
BLACK
6
CONTINUOUS
10
0.212972
20
0.0458405
11
0.212478
21
0.0452528
0
LINE
8
BLACK
6
CONTINUOUS
10
0.212478
20
0.0452528
11
0.212095
21
0.0445885
0
LINE
8
BLACK
6
CONTINUOUS
10
0.212095
20
0.0445885
11
0.211844
21
0.0444974
0
LINE
8
BLACK
6
CONTINUOUS
10
0.211844
20
0.0444974
11
0.211673
21
0.0442932
0
LINE
8
BLACK
6
CONTINUOUS
10
0.211673
20
0.0442932
11
0.210918
21
0.04416
0
LINE
8
BLACK
6
CONTINUOUS
10
0.210918
20
0.04416
11
0.210197
21
0.0438976
0
LINE
8
BLACK
6
CONTINUOUS
10
0.210197
20
0.0438976
11
0.110197
21
0.0438976
0
LINE
8
BLACK
6
CONTINUOUS
10
0.110197
20
0.0438976
11
0.109813
21
0.0439653
0
LINE
8
BLACK
6
CONTINUOUS
10
0.109813
20
0.0439653
11
0.109684
21
0.0439425
0
LINE
8
BLACK
6
CONTINUOUS
10
0.109684
20
0.0439425
11
0.10957
21
0.0440081
0
LINE
8
BLACK
6
CONTINUOUS
10
0.10957
20
0.0440081
11
0.109187
21
0.0440757
0
LINE
8
BLACK
6
CONTINUOUS
10
0.109187
20
0.0440757
11
0.108599
21
0.0445689
0
LINE
8
BLACK
6
CONTINUOUS
10
0.108599
20
0.0445689
11
0.107935
21
0.0449524
0
LINE
8
BLACK
6
CONTINUOUS
10
0.107935
20
0.0449524
11
0.107844
21
0.0452028
0
LINE
8
BLACK
6
CONTINUOUS
10
0.107844
20
0.0452028
11
0.10764
21
0.045374
0
LINE
8
BLACK
6
CONTINUOUS
10
0.10764
20
0.045374
11
0.107506
21
0.0461296
0
LINE
8
BLACK
6
CONTINUOUS
10
0.107506
20
0.0461296
11
0.107244
21
0.0468504
0
LINE
8
BLACK
6
CONTINUOUS
10
0.107244
20
0.0468504
11
0.107244
21
0.34685
0
LINE
8
BLACK
6
CONTINUOUS
10
0.107244
20
0.34685
11
0.107312
21
0.347234
0
LINE
8
BLACK
6
CONTINUOUS
10
0.107312
20
0.347234
11
0.107289
21
0.347363
0
LINE
8
BLACK
6
CONTINUOUS
10
0.107289
20
0.347363
11
0.107355
21
0.347477
0
LINE
8
BLACK
6
CONTINUOUS
10
0.107355
20
0.347477
11
0.107422
21
0.34786
0
LINE
8
BLACK
6
CONTINUOUS
10
0.107422
20
0.34786
11
0.107915
21
0.348448
0
LINE
8
BLACK
6
CONTINUOUS
10
0.107915
20
0.348448
11
0.108299
21
0.349112
0
LINE
8
BLACK
6
CONTINUOUS
10
0.108299
20
0.349112
11
0.108549
21
0.349203
0
LINE
8
BLACK
6
CONTINUOUS
10
0.108549
20
0.349203
11
0.10872
21
0.349408
0
LINE
8
BLACK
6
CONTINUOUS
10
0.10872
20
0.349408
11
0.109476
21
0.349541
0
LINE
8
BLACK
6
CONTINUOUS
10
0.109476
20
0.349541
11
0.110197
21
0.349803
0
LINE
8
BLACK
6
CONTINUOUS
10
0.110197
20
0.349803
11
0.210197
21
0.349803
0
LINE
8
BLACK
6
CONTINUOUS
10
0.210197
20
0.349803
11
0.21058
21
0.349736
0
LINE
8
BLACK
6
CONTINUOUS
10
0.11315
20
0.343898
11
0.11315
21
0.0498031
0
LINE
8
BLACK
6
CONTINUOUS
10
0.11315
20
0.0498031
11
0.207244
21
0.0498031
0
LINE
8
BLACK
6
CONTINUOUS
10
0.207244
20
0.0498031
11
0.207244
21
0.343898
0
LINE
8
BLACK
6
CONTINUOUS
10
0.207244
20
0.343898
11
0.11315
21
0.343898
  0
ENDSEC
  0
EOF
