  0
SECTION
  2
HEADER
  9
$ANGBASE
  50
0.0
  9
$ANGDIR
  70
1
  9
$MEASUREMENT
  70
0
  0
ENDSEC
  0
SECTION
  2
TABLES
  0
TABLE
  2
LTYPE
  70
4
  0
LTYPE
  5
40F
  2
CONTINUOUS
  70
0
  3
Solid line
  72
65
  73
0
  40
0.0
  0
LTYPE
  5
410
  2
DASHDOT
 70
0
  3
Dash Dot ____ _ ____ _
 72
65
 73
4
 40
2.0
 49
1.25
 49
-0.25
 49
0.25
 49
-0.25
  0
LTYPE
  5
411
  2
DASHED
 70
0
  3
Dashed __ __ __ __ __
 72
65
 73
2
 40
0.75
 49
0.5
 49
-0.25
  0
LTYPE
  5
43B
  2
DOTTED
 70
0
  3
Dotted .  .  .  .
 72
65
 73
2
 40
0.2
 49
0.0
 49
-0.2
  0
ENDTAB
  0
TABLE
  2
STYLE
  70
4
  0
STYLE
  2
KICAD
  70
0
  40
0
  41
1
  42
1
  50
0
  71
0
  3
isocp.shx
  0
STYLE
  2
KICADB
  70
0
  40
0
  41
1
  42
1
  50
0
  71
0
  3
isocp.shx
  0
STYLE
  2
KICADI
  70
0
  40
0
  41
1
  42
1
  50
15
  71
0
  3
isocp.shx
  0
STYLE
  2
KICADBI
  70
0
  40
0
  41
1
  42
1
  50
15
  71
0
  3
isocp.shx
  0
ENDTAB
  0
TABLE
  2
LAYER
  70
1
  0
LAYER
  2
BLACK
  70
0
  62
7
  6
CONTINUOUS
  0
ENDTAB
  0
ENDSEC
  0
SECTION
  2
ENTITIES
0
LINE
8
BLACK
6
CONTINUOUS
10
0.359888
20
0.058793
11
0.369416
21
0.0570959
0
LINE
8
BLACK
6
CONTINUOUS
10
0.369416
20
0.0570959
11
0.378539
21
0.0538654
0
LINE
8
BLACK
6
CONTINUOUS
10
0.378539
20
0.0538654
11
0.387011
21
0.0491883
0
LINE
8
BLACK
6
CONTINUOUS
10
0.387011
20
0.0491883
11
0.394606
21
0.0431902
0
LINE
8
BLACK
6
CONTINUOUS
10
0.394606
20
0.0431902
11
0.401119
21
0.0360322
0
LINE
8
BLACK
6
CONTINUOUS
10
0.401119
20
0.0360322
11
0.406376
21
0.0279065
0
LINE
8
BLACK
6
CONTINUOUS
10
0.406376
20
0.0279065
11
0.410235
21
0.0190315
0
LINE
8
BLACK
6
CONTINUOUS
10
0.410235
20
0.0190315
11
0.412593
21
0.00964524
0
LINE
8
BLACK
6
CONTINUOUS
10
0.412593
20
0.00964524
11
0.413386
21
0
0
LINE
8
BLACK
6
CONTINUOUS
10
0.413386
20
0
11
0.413315
21
-0.00288484
0
LINE
8
BLACK
6
CONTINUOUS
10
0.413315
20
-0.00288484
11
0.412052
21
-0.0124798
0
LINE
8
BLACK
6
CONTINUOUS
10
0.412052
20
-0.0124798
11
0.409239
21
-0.0217396
0
LINE
8
BLACK
6
CONTINUOUS
10
0.409239
20
-0.0217396
11
0.404951
21
-0.0304156
0
LINE
8
BLACK
6
CONTINUOUS
10
0.404951
20
-0.0304156
11
0.399303
21
-0.0382748
0
LINE
8
BLACK
6
CONTINUOUS
10
0.399303
20
-0.0382748
11
0.392448
21
-0.0451061
0
LINE
8
BLACK
6
CONTINUOUS
10
0.392448
20
-0.0451061
11
0.384569
21
-0.050726
0
LINE
8
BLACK
6
CONTINUOUS
10
0.384569
20
-0.050726
11
0.375879
21
-0.0549836
0
LINE
8
BLACK
6
CONTINUOUS
10
0.375879
20
-0.0549836
11
0.366609
21
-0.0577646
0
LINE
8
BLACK
6
CONTINUOUS
10
0.366609
20
-0.0577646
11
0.35701
21
-0.0589943
0
LINE
8
BLACK
6
CONTINUOUS
10
0.35701
20
-0.0589943
11
0.347338
21
-0.0586397
0
LINE
8
BLACK
6
CONTINUOUS
10
0.347338
20
-0.0586397
11
0.337855
21
-0.0567103
0
LINE
8
BLACK
6
CONTINUOUS
10
0.337855
20
-0.0567103
11
0.328814
21
-0.0532578
0
LINE
8
BLACK
6
CONTINUOUS
10
0.328814
20
-0.0532578
11
0.320458
21
-0.0483751
0
LINE
8
BLACK
6
CONTINUOUS
10
0.320458
20
-0.0483751
11
0.313012
21
-0.0421933
0
LINE
8
BLACK
6
CONTINUOUS
10
0.313012
20
-0.0421933
11
0.306676
21
-0.0348783
0
LINE
8
BLACK
6
CONTINUOUS
10
0.306676
20
-0.0348783
11
0.301619
21
-0.0266266
0
LINE
8
BLACK
6
CONTINUOUS
10
0.301619
20
-0.0266266
11
0.297978
21
-0.0176599
0
LINE
8
BLACK
6
CONTINUOUS
10
0.297978
20
-0.0176599
11
0.29585
21
-0.0082189
0
LINE
8
BLACK
6
CONTINUOUS
10
0.29585
20
-0.0082189
11
0.295293
21
0.00144283
0
LINE
8
BLACK
6
CONTINUOUS
10
0.295293
20
0.00144283
11
0.296322
21
0.0110658
0
LINE
8
BLACK
6
CONTINUOUS
10
0.296322
20
0.0110658
11
0.298908
21
0.0203916
0
LINE
8
BLACK
6
CONTINUOUS
10
0.298908
20
0.0203916
11
0.302983
21
0.0291698
0
LINE
8
BLACK
6
CONTINUOUS
10
0.302983
20
0.0291698
11
0.308436
21
0.0371646
0
LINE
8
BLACK
6
CONTINUOUS
10
0.308436
20
0.0371646
11
0.315122
21
0.0441613
0
LINE
8
BLACK
6
CONTINUOUS
10
0.315122
20
0.0441613
11
0.322862
21
0.049972
0
LINE
8
BLACK
6
CONTINUOUS
10
0.322862
20
0.049972
11
0.331446
21
0.0544407
0
LINE
8
BLACK
6
CONTINUOUS
10
0.331446
20
0.0544407
11
0.340645
21
0.0574474
0
LINE
8
BLACK
6
CONTINUOUS
10
0.340645
20
0.0574474
11
0.350211
21
0.0589113
0
LINE
8
BLACK
6
CONTINUOUS
10
0.350211
20
0.0589113
11
0.359888
21
0.058793
0
LINE
8
BLACK
6
CONTINUOUS
10
0.19321
20
0.134125
11
0.195765
21
0.132418
0
LINE
8
BLACK
6
CONTINUOUS
10
0.195765
20
0.132418
11
0.197471
21
0.129864
0
LINE
8
BLACK
6
CONTINUOUS
10
0.197471
20
0.129864
11
0.198071
21
0.12685
0
LINE
8
BLACK
6
CONTINUOUS
10
0.198071
20
0.12685
11
0.198071
21
0.0668504
0
LINE
8
BLACK
6
CONTINUOUS
10
0.198071
20
0.0668504
11
0.197471
21
0.0638371
0
LINE
8
BLACK
6
CONTINUOUS
10
0.197471
20
0.0638371
11
0.195765
21
0.0612826
0
LINE
8
BLACK
6
CONTINUOUS
10
0.195765
20
0.0612826
11
0.19321
21
0.0595757
0
LINE
8
BLACK
6
CONTINUOUS
10
0.19321
20
0.0595757
11
0.190197
21
0.0589764
0
LINE
8
BLACK
6
CONTINUOUS
10
0.190197
20
0.0589764
11
0.130197
21
0.0589764
0
LINE
8
BLACK
6
CONTINUOUS
10
0.130197
20
0.0589764
11
0.127184
21
0.0595757
0
LINE
8
BLACK
6
CONTINUOUS
10
0.127184
20
0.0595757
11
0.124629
21
0.0612826
0
LINE
8
BLACK
6
CONTINUOUS
10
0.124629
20
0.0612826
11
0.122922
21
0.0638371
0
LINE
8
BLACK
6
CONTINUOUS
10
0.122922
20
0.0638371
11
0.122323
21
0.0668504
0
LINE
8
BLACK
6
CONTINUOUS
10
0.122323
20
0.0668504
11
0.122323
21
0.12685
0
LINE
8
BLACK
6
CONTINUOUS
10
0.122323
20
0.12685
11
0.122922
21
0.129864
0
LINE
8
BLACK
6
CONTINUOUS
10
0.122922
20
0.129864
11
0.124629
21
0.132418
0
LINE
8
BLACK
6
CONTINUOUS
10
0.124629
20
0.132418
11
0.127184
21
0.134125
0
LINE
8
BLACK
6
CONTINUOUS
10
0.127184
20
0.134125
11
0.130197
21
0.134724
0
LINE
8
BLACK
6
CONTINUOUS
10
0.130197
20
0.134724
11
0.190197
21
0.134724
0
LINE
8
BLACK
6
CONTINUOUS
10
0.190197
20
0.134724
11
0.19321
21
0.134125
0
LINE
8
BLACK
6
CONTINUOUS
10
0.19321
20
0.234125
11
0.195765
21
0.232418
0
LINE
8
BLACK
6
CONTINUOUS
10
0.195765
20
0.232418
11
0.197471
21
0.229864
0
LINE
8
BLACK
6
CONTINUOUS
10
0.197471
20
0.229864
11
0.198071
21
0.22685
0
LINE
8
BLACK
6
CONTINUOUS
10
0.198071
20
0.22685
11
0.198071
21
0.16685
0
LINE
8
BLACK
6
CONTINUOUS
10
0.198071
20
0.16685
11
0.197471
21
0.163837
0
LINE
8
BLACK
6
CONTINUOUS
10
0.197471
20
0.163837
11
0.195765
21
0.161283
0
LINE
8
BLACK
6
CONTINUOUS
10
0.195765
20
0.161283
11
0.19321
21
0.159576
0
LINE
8
BLACK
6
CONTINUOUS
10
0.19321
20
0.159576
11
0.190197
21
0.158976
0
LINE
8
BLACK
6
CONTINUOUS
10
0.190197
20
0.158976
11
0.130197
21
0.158976
0
LINE
8
BLACK
6
CONTINUOUS
10
0.130197
20
0.158976
11
0.127184
21
0.159576
0
LINE
8
BLACK
6
CONTINUOUS
10
0.127184
20
0.159576
11
0.124629
21
0.161283
0
LINE
8
BLACK
6
CONTINUOUS
10
0.124629
20
0.161283
11
0.122922
21
0.163837
0
LINE
8
BLACK
6
CONTINUOUS
10
0.122922
20
0.163837
11
0.122323
21
0.16685
0
LINE
8
BLACK
6
CONTINUOUS
10
0.122323
20
0.16685
11
0.122323
21
0.22685
0
LINE
8
BLACK
6
CONTINUOUS
10
0.122323
20
0.22685
11
0.122922
21
0.229864
0
LINE
8
BLACK
6
CONTINUOUS
10
0.122922
20
0.229864
11
0.124629
21
0.232418
0
LINE
8
BLACK
6
CONTINUOUS
10
0.124629
20
0.232418
11
0.127184
21
0.234125
0
LINE
8
BLACK
6
CONTINUOUS
10
0.127184
20
0.234125
11
0.130197
21
0.234724
0
LINE
8
BLACK
6
CONTINUOUS
10
0.130197
20
0.234724
11
0.190197
21
0.234724
0
LINE
8
BLACK
6
CONTINUOUS
10
0.190197
20
0.234724
11
0.19321
21
0.234125
0
LINE
8
BLACK
6
CONTINUOUS
10
0.19321
20
0.334125
11
0.195765
21
0.332418
0
LINE
8
BLACK
6
CONTINUOUS
10
0.195765
20
0.332418
11
0.197471
21
0.329864
0
LINE
8
BLACK
6
CONTINUOUS
10
0.197471
20
0.329864
11
0.198071
21
0.32685
0
LINE
8
BLACK
6
CONTINUOUS
10
0.198071
20
0.32685
11
0.198071
21
0.26685
0
LINE
8
BLACK
6
CONTINUOUS
10
0.198071
20
0.26685
11
0.197471
21
0.263837
0
LINE
8
BLACK
6
CONTINUOUS
10
0.197471
20
0.263837
11
0.195765
21
0.261283
0
LINE
8
BLACK
6
CONTINUOUS
10
0.195765
20
0.261283
11
0.19321
21
0.259576
0
LINE
8
BLACK
6
CONTINUOUS
10
0.19321
20
0.259576
11
0.190197
21
0.258976
0
LINE
8
BLACK
6
CONTINUOUS
10
0.190197
20
0.258976
11
0.130197
21
0.258976
0
LINE
8
BLACK
6
CONTINUOUS
10
0.130197
20
0.258976
11
0.127184
21
0.259576
0
LINE
8
BLACK
6
CONTINUOUS
10
0.127184
20
0.259576
11
0.124629
21
0.261283
0
LINE
8
BLACK
6
CONTINUOUS
10
0.124629
20
0.261283
11
0.122922
21
0.263837
0
LINE
8
BLACK
6
CONTINUOUS
10
0.122922
20
0.263837
11
0.122323
21
0.26685
0
LINE
8
BLACK
6
CONTINUOUS
10
0.122323
20
0.26685
11
0.122323
21
0.32685
0
LINE
8
BLACK
6
CONTINUOUS
10
0.122323
20
0.32685
11
0.122922
21
0.329864
0
LINE
8
BLACK
6
CONTINUOUS
10
0.122922
20
0.329864
11
0.124629
21
0.332418
0
LINE
8
BLACK
6
CONTINUOUS
10
0.124629
20
0.332418
11
0.127184
21
0.334125
0
LINE
8
BLACK
6
CONTINUOUS
10
0.127184
20
0.334125
11
0.130197
21
0.334724
0
LINE
8
BLACK
6
CONTINUOUS
10
0.130197
20
0.334724
11
0.190197
21
0.334724
0
LINE
8
BLACK
6
CONTINUOUS
10
0.190197
20
0.334724
11
0.19321
21
0.334125
0
LINE
8
BLACK
6
CONTINUOUS
10
0.359888
20
0.452494
11
0.369416
21
0.450797
0
LINE
8
BLACK
6
CONTINUOUS
10
0.369416
20
0.450797
11
0.378539
21
0.447566
0
LINE
8
BLACK
6
CONTINUOUS
10
0.378539
20
0.447566
11
0.387011
21
0.442889
0
LINE
8
BLACK
6
CONTINUOUS
10
0.387011
20
0.442889
11
0.394606
21
0.436891
0
LINE
8
BLACK
6
CONTINUOUS
10
0.394606
20
0.436891
11
0.401119
21
0.429733
0
LINE
8
BLACK
6
CONTINUOUS
10
0.401119
20
0.429733
11
0.406376
21
0.421607
0
LINE
8
BLACK
6
CONTINUOUS
10
0.406376
20
0.421607
11
0.410235
21
0.412732
0
LINE
8
BLACK
6
CONTINUOUS
10
0.410235
20
0.412732
11
0.412593
21
0.403346
0
LINE
8
BLACK
6
CONTINUOUS
10
0.412593
20
0.403346
11
0.413386
21
0.393701
0
LINE
8
BLACK
6
CONTINUOUS
10
0.413386
20
0.393701
11
0.413315
21
0.390816
0
LINE
8
BLACK
6
CONTINUOUS
10
0.413315
20
0.390816
11
0.412052
21
0.381221
0
LINE
8
BLACK
6
CONTINUOUS
10
0.412052
20
0.381221
11
0.409239
21
0.371961
0
LINE
8
BLACK
6
CONTINUOUS
10
0.409239
20
0.371961
11
0.404951
21
0.363285
0
LINE
8
BLACK
6
CONTINUOUS
10
0.404951
20
0.363285
11
0.399303
21
0.355426
0
LINE
8
BLACK
6
CONTINUOUS
10
0.399303
20
0.355426
11
0.392448
21
0.348595
0
LINE
8
BLACK
6
CONTINUOUS
10
0.392448
20
0.348595
11
0.384569
21
0.342975
0
LINE
8
BLACK
6
CONTINUOUS
10
0.384569
20
0.342975
11
0.375879
21
0.338717
0
LINE
8
BLACK
6
CONTINUOUS
10
0.375879
20
0.338717
11
0.366609
21
0.335936
0
LINE
8
BLACK
6
CONTINUOUS
10
0.366609
20
0.335936
11
0.35701
21
0.334706
0
LINE
8
BLACK
6
CONTINUOUS
10
0.35701
20
0.334706
11
0.347338
21
0.335061
0
LINE
8
BLACK
6
CONTINUOUS
10
0.347338
20
0.335061
11
0.337855
21
0.336991
0
LINE
8
BLACK
6
CONTINUOUS
10
0.337855
20
0.336991
11
0.328814
21
0.340443
0
LINE
8
BLACK
6
CONTINUOUS
10
0.328814
20
0.340443
11
0.320458
21
0.345326
0
LINE
8
BLACK
6
CONTINUOUS
10
0.320458
20
0.345326
11
0.313012
21
0.351508
0
LINE
8
BLACK
6
CONTINUOUS
10
0.313012
20
0.351508
11
0.306676
21
0.358822
0
LINE
8
BLACK
6
CONTINUOUS
10
0.306676
20
0.358822
11
0.301619
21
0.367074
0
LINE
8
BLACK
6
CONTINUOUS
10
0.301619
20
0.367074
11
0.297978
21
0.376041
0
LINE
8
BLACK
6
CONTINUOUS
10
0.297978
20
0.376041
11
0.29585
21
0.385482
0
LINE
8
BLACK
6
CONTINUOUS
10
0.29585
20
0.385482
11
0.295293
21
0.395144
0
LINE
8
BLACK
6
CONTINUOUS
10
0.295293
20
0.395144
11
0.296322
21
0.404767
0
LINE
8
BLACK
6
CONTINUOUS
10
0.296322
20
0.404767
11
0.298908
21
0.414092
0
LINE
8
BLACK
6
CONTINUOUS
10
0.298908
20
0.414092
11
0.302983
21
0.422871
0
LINE
8
BLACK
6
CONTINUOUS
10
0.302983
20
0.422871
11
0.308436
21
0.430865
0
LINE
8
BLACK
6
CONTINUOUS
10
0.308436
20
0.430865
11
0.315122
21
0.437862
0
LINE
8
BLACK
6
CONTINUOUS
10
0.315122
20
0.437862
11
0.322862
21
0.443673
0
LINE
8
BLACK
6
CONTINUOUS
10
0.322862
20
0.443673
11
0.331446
21
0.448142
0
LINE
8
BLACK
6
CONTINUOUS
10
0.331446
20
0.448142
11
0.340645
21
0.451148
0
LINE
8
BLACK
6
CONTINUOUS
10
0.340645
20
0.451148
11
0.350211
21
0.452612
0
LINE
8
BLACK
6
CONTINUOUS
10
0.350211
20
0.452612
11
0.359888
21
0.452494
  0
ENDSEC
  0
EOF
