  0
SECTION
  2
HEADER
  9
$ANGBASE
  50
0.0
  9
$ANGDIR
  70
1
  9
$MEASUREMENT
  70
0
  0
ENDSEC
  0
SECTION
  2
TABLES
  0
TABLE
  2
LTYPE
  70
4
  0
LTYPE
  5
40F
  2
CONTINUOUS
  70
0
  3
Solid line
  72
65
  73
0
  40
0.0
  0
LTYPE
  5
410
  2
DASHDOT
 70
0
  3
Dash Dot ____ _ ____ _
 72
65
 73
4
 40
2.0
 49
1.25
 49
-0.25
 49
0.25
 49
-0.25
  0
LTYPE
  5
411
  2
DASHED
 70
0
  3
Dashed __ __ __ __ __
 72
65
 73
2
 40
0.75
 49
0.5
 49
-0.25
  0
LTYPE
  5
43B
  2
DOTTED
 70
0
  3
Dotted .  .  .  .
 72
65
 73
2
 40
0.2
 49
0.0
 49
-0.2
  0
ENDTAB
  0
TABLE
  2
STYLE
  70
4
  0
STYLE
  2
KICAD
  70
0
  40
0
  41
1
  42
1
  50
0
  71
0
  3
isocp.shx
  0
STYLE
  2
KICADB
  70
0
  40
0
  41
1
  42
1
  50
0
  71
0
  3
isocp.shx
  0
STYLE
  2
KICADI
  70
0
  40
0
  41
1
  42
1
  50
15
  71
0
  3
isocp.shx
  0
STYLE
  2
KICADBI
  70
0
  40
0
  41
1
  42
1
  50
15
  71
0
  3
isocp.shx
  0
ENDTAB
  0
TABLE
  2
LAYER
  70
1
  0
LAYER
  2
BLACK
  70
0
  62
7
  6
CONTINUOUS
  0
ENDTAB
  0
ENDSEC
  0
SECTION
  2
ENTITIES
0
LINE
8
BLACK
6
CONTINUOUS
10
0.0876927
20
0.0661136
11
0.0888056
21
0.064428
0
LINE
8
BLACK
6
CONTINUOUS
10
0.0888056
20
0.064428
11
0.0885746
21
0.0624215
0
LINE
8
BLACK
6
CONTINUOUS
10
0.0885746
20
0.0624215
11
0.0866999
21
0.058672
0
LINE
8
BLACK
6
CONTINUOUS
10
0.0866999
20
0.058672
11
0.086174
21
0.0579629
0
LINE
8
BLACK
6
CONTINUOUS
10
0.086174
20
0.0579629
11
0.0861468
21
0.0579046
0
LINE
8
BLACK
6
CONTINUOUS
10
0.0861468
20
0.0579046
11
0.084272
21
0.0560298
0
LINE
8
BLACK
6
CONTINUOUS
10
0.084272
20
0.0560298
11
0.083432
21
0.0554416
0
LINE
8
BLACK
6
CONTINUOUS
10
0.083432
20
0.0554416
11
0.0833455
21
0.0554341
0
LINE
8
BLACK
6
CONTINUOUS
10
0.0833455
20
0.0554341
11
0.0832807
21
0.0553761
0
LINE
8
BLACK
6
CONTINUOUS
10
0.0832807
20
0.0553761
11
0.0739069
21
0.0516266
0
LINE
8
BLACK
6
CONTINUOUS
10
0.0739069
20
0.0516266
11
0.0738561
21
0.051616
0
LINE
8
BLACK
6
CONTINUOUS
10
0.0738561
20
0.051616
11
0.0738369
21
0.0515997
0
LINE
8
BLACK
6
CONTINUOUS
10
0.0738369
20
0.0515997
11
0.073818
21
0.0515996
0
LINE
8
BLACK
6
CONTINUOUS
10
0.073818
20
0.0515996
11
0.0738033
21
0.0515874
0
LINE
8
BLACK
6
CONTINUOUS
10
0.0738033
20
0.0515874
11
0.0475567
21
0.0422136
0
LINE
8
BLACK
6
CONTINUOUS
10
0.0475567
20
0.0422136
11
0.0465457
21
0.0420417
0
LINE
8
BLACK
6
CONTINUOUS
10
0.0465457
20
0.0420417
11
0.0446519
21
0.0427439
0
LINE
8
BLACK
6
CONTINUOUS
10
0.0446519
20
0.0427439
11
0.0436526
21
0.0444992
0
LINE
8
BLACK
6
CONTINUOUS
10
0.0436526
20
0.0444992
11
0.0440154
21
0.0464861
0
LINE
8
BLACK
6
CONTINUOUS
10
0.0440154
20
0.0464861
11
0.0455704
21
0.0477751
0
LINE
8
BLACK
6
CONTINUOUS
10
0.0455704
20
0.0477751
11
0.064031
21
0.0543682
0
LINE
8
BLACK
6
CONTINUOUS
10
0.064031
20
0.0543682
11
0.0455704
21
0.0609613
0
LINE
8
BLACK
6
CONTINUOUS
10
0.0455704
20
0.0609613
11
0.0446792
21
0.0614687
0
LINE
8
BLACK
6
CONTINUOUS
10
0.0446792
20
0.0614687
11
0.0436588
21
0.0632117
0
LINE
8
BLACK
6
CONTINUOUS
10
0.0436588
20
0.0632117
11
0.0439975
21
0.0652029
0
LINE
8
BLACK
6
CONTINUOUS
10
0.0439975
20
0.0652029
11
0.0455369
21
0.0665105
0
LINE
8
BLACK
6
CONTINUOUS
10
0.0455369
20
0.0665105
11
0.0475567
21
0.0665228
0
LINE
8
BLACK
6
CONTINUOUS
10
0.0475567
20
0.0665228
11
0.0727511
21
0.0575248
0
LINE
8
BLACK
6
CONTINUOUS
10
0.0727511
20
0.0575248
11
0.0805248
21
0.0606342
0
LINE
8
BLACK
6
CONTINUOUS
10
0.0805248
20
0.0606342
11
0.0816321
21
0.0617416
0
LINE
8
BLACK
6
CONTINUOUS
10
0.0816321
20
0.0617416
11
0.0832926
21
0.0650625
0
LINE
8
BLACK
6
CONTINUOUS
10
0.0832926
20
0.0650625
11
0.0839035
21
0.0658862
0
LINE
8
BLACK
6
CONTINUOUS
10
0.0839035
20
0.0658862
11
0.0857567
21
0.0666894
0
LINE
8
BLACK
6
CONTINUOUS
10
0.0857567
20
0.0666894
11
0.0876927
21
0.0661136
0
LINE
8
BLACK
6
CONTINUOUS
10
0.0681959
20
0.0833896
11
0.0683311
21
0.0832761
0
LINE
8
BLACK
6
CONTINUOUS
10
0.0683311
20
0.0832761
11
0.0685065
21
0.0832559
0
LINE
8
BLACK
6
CONTINUOUS
10
0.0685065
20
0.0832559
11
0.072256
21
0.0813811
0
LINE
8
BLACK
6
CONTINUOUS
10
0.072256
20
0.0813811
11
0.0730797
21
0.0807702
0
LINE
8
BLACK
6
CONTINUOUS
10
0.0730797
20
0.0807702
11
0.0732555
21
0.0803645
0
LINE
8
BLACK
6
CONTINUOUS
10
0.0732555
20
0.0803645
11
0.0735765
21
0.0800606
0
LINE
8
BLACK
6
CONTINUOUS
10
0.0735765
20
0.0800606
11
0.0754513
21
0.0763111
0
LINE
8
BLACK
6
CONTINUOUS
10
0.0754513
20
0.0763111
11
0.0757436
21
0.0753282
0
LINE
8
BLACK
6
CONTINUOUS
10
0.0757436
20
0.0753282
11
0.0752743
21
0.0733637
0
LINE
8
BLACK
6
CONTINUOUS
10
0.0752743
20
0.0733637
11
0.073652
21
0.0721604
0
LINE
8
BLACK
6
CONTINUOUS
10
0.073652
20
0.0721604
11
0.0716359
21
0.0722814
0
LINE
8
BLACK
6
CONTINUOUS
10
0.0716359
20
0.0722814
11
0.0701692
21
0.0736701
0
LINE
8
BLACK
6
CONTINUOUS
10
0.0701692
20
0.0736701
11
0.0687346
21
0.0765393
0
LINE
8
BLACK
6
CONTINUOUS
10
0.0687346
20
0.0765393
11
0.0664889
21
0.0776622
0
LINE
8
BLACK
6
CONTINUOUS
10
0.0664889
20
0.0776622
11
0.0334402
21
0.0776622
0
LINE
8
BLACK
6
CONTINUOUS
10
0.0334402
20
0.0776622
11
0.0324302
21
0.0778402
0
LINE
8
BLACK
6
CONTINUOUS
10
0.0324302
20
0.0778402
11
0.030883
21
0.0791385
0
LINE
8
BLACK
6
CONTINUOUS
10
0.030883
20
0.0791385
11
0.0305322
21
0.0811277
0
LINE
8
BLACK
6
CONTINUOUS
10
0.0305322
20
0.0811277
11
0.0315422
21
0.0828769
0
LINE
8
BLACK
6
CONTINUOUS
10
0.0315422
20
0.0828769
11
0.0334402
21
0.0835677
0
LINE
8
BLACK
6
CONTINUOUS
10
0.0334402
20
0.0835677
11
0.0671859
21
0.0835677
0
LINE
8
BLACK
6
CONTINUOUS
10
0.0671859
20
0.0835677
11
0.0681959
21
0.0833896
0
LINE
8
BLACK
6
CONTINUOUS
10
0.0738202
20
0.117135
11
0.0753674
21
0.115837
0
LINE
8
BLACK
6
CONTINUOUS
10
0.0753674
20
0.115837
11
0.0757181
21
0.113848
0
LINE
8
BLACK
6
CONTINUOUS
10
0.0757181
20
0.113848
11
0.0747082
21
0.112099
0
LINE
8
BLACK
6
CONTINUOUS
10
0.0747082
20
0.112099
11
0.0728102
21
0.111408
0
LINE
8
BLACK
6
CONTINUOUS
10
0.0728102
20
0.111408
11
0.0551406
21
0.111408
0
LINE
8
BLACK
6
CONTINUOUS
10
0.0551406
20
0.111408
11
0.0551406
21
0.101237
0
LINE
8
BLACK
6
CONTINUOUS
10
0.0551406
20
0.101237
11
0.0549625
21
0.100227
0
LINE
8
BLACK
6
CONTINUOUS
10
0.0549625
20
0.100227
11
0.0536642
21
0.0986802
0
LINE
8
BLACK
6
CONTINUOUS
10
0.0536642
20
0.0986802
11
0.0516751
21
0.0983294
0
LINE
8
BLACK
6
CONTINUOUS
10
0.0516751
20
0.0983294
11
0.0499259
21
0.0993393
0
LINE
8
BLACK
6
CONTINUOUS
10
0.0499259
20
0.0993393
11
0.0492351
21
0.101237
0
LINE
8
BLACK
6
CONTINUOUS
10
0.0492351
20
0.101237
11
0.0492351
21
0.111408
0
LINE
8
BLACK
6
CONTINUOUS
10
0.0492351
20
0.111408
11
0.0363929
21
0.111408
0
LINE
8
BLACK
6
CONTINUOUS
10
0.0363929
20
0.111408
11
0.0363929
21
0.095613
0
LINE
8
BLACK
6
CONTINUOUS
10
0.0363929
20
0.095613
11
0.0362148
21
0.0946031
0
LINE
8
BLACK
6
CONTINUOUS
10
0.0362148
20
0.0946031
11
0.0349165
21
0.0930559
0
LINE
8
BLACK
6
CONTINUOUS
10
0.0349165
20
0.0930559
11
0.0329274
21
0.0927051
0
LINE
8
BLACK
6
CONTINUOUS
10
0.0329274
20
0.0927051
11
0.0311782
21
0.093715
0
LINE
8
BLACK
6
CONTINUOUS
10
0.0311782
20
0.093715
11
0.0304874
21
0.095613
0
LINE
8
BLACK
6
CONTINUOUS
10
0.0304874
20
0.095613
11
0.0304874
21
0.114361
0
LINE
8
BLACK
6
CONTINUOUS
10
0.0304874
20
0.114361
11
0.030555
21
0.114744
0
LINE
8
BLACK
6
CONTINUOUS
10
0.030555
20
0.114744
11
0.0305322
21
0.114873
0
LINE
8
BLACK
6
CONTINUOUS
10
0.0305322
20
0.114873
11
0.0305978
21
0.114987
0
LINE
8
BLACK
6
CONTINUOUS
10
0.0305978
20
0.114987
11
0.0306655
21
0.115371
0
LINE
8
BLACK
6
CONTINUOUS
10
0.0306655
20
0.115371
11
0.0311586
21
0.115958
0
LINE
8
BLACK
6
CONTINUOUS
10
0.0311586
20
0.115958
11
0.0315422
21
0.116623
0
LINE
8
BLACK
6
CONTINUOUS
10
0.0315422
20
0.116623
11
0.0317925
21
0.116714
0
LINE
8
BLACK
6
CONTINUOUS
10
0.0317925
20
0.116714
11
0.0319638
21
0.116918
0
LINE
8
BLACK
6
CONTINUOUS
10
0.0319638
20
0.116918
11
0.0327193
21
0.117051
0
LINE
8
BLACK
6
CONTINUOUS
10
0.0327193
20
0.117051
11
0.0334402
21
0.117313
0
LINE
8
BLACK
6
CONTINUOUS
10
0.0334402
20
0.117313
11
0.0728102
21
0.117313
0
LINE
8
BLACK
6
CONTINUOUS
10
0.0728102
20
0.117313
11
0.0738202
21
0.117135
0
LINE
8
BLACK
6
CONTINUOUS
10
0.0738202
20
0.141507
11
0.0753674
21
0.140209
0
LINE
8
BLACK
6
CONTINUOUS
10
0.0753674
20
0.140209
11
0.0757181
21
0.13822
0
LINE
8
BLACK
6
CONTINUOUS
10
0.0757181
20
0.13822
11
0.0747082
21
0.136471
0
LINE
8
BLACK
6
CONTINUOUS
10
0.0747082
20
0.136471
11
0.0728102
21
0.13578
0
LINE
8
BLACK
6
CONTINUOUS
10
0.0728102
20
0.13578
11
0.0547596
21
0.13578
0
LINE
8
BLACK
6
CONTINUOUS
10
0.0547596
20
0.13578
11
0.0520622
21
0.134431
0
LINE
8
BLACK
6
CONTINUOUS
10
0.0520622
20
0.134431
11
0.050865
21
0.133234
0
LINE
8
BLACK
6
CONTINUOUS
10
0.050865
20
0.133234
11
0.0495163
21
0.130537
0
LINE
8
BLACK
6
CONTINUOUS
10
0.0495163
20
0.130537
11
0.0495163
21
0.127484
0
LINE
8
BLACK
6
CONTINUOUS
10
0.0495163
20
0.127484
11
0.0493382
21
0.126474
0
LINE
8
BLACK
6
CONTINUOUS
10
0.0493382
20
0.126474
11
0.0480399
21
0.124927
0
LINE
8
BLACK
6
CONTINUOUS
10
0.0480399
20
0.124927
11
0.0460508
21
0.124576
0
LINE
8
BLACK
6
CONTINUOUS
10
0.0460508
20
0.124576
11
0.0443016
21
0.125586
0
LINE
8
BLACK
6
CONTINUOUS
10
0.0443016
20
0.125586
11
0.0436108
21
0.127484
0
LINE
8
BLACK
6
CONTINUOUS
10
0.0436108
20
0.127484
11
0.0436108
21
0.131234
0
LINE
8
BLACK
6
CONTINUOUS
10
0.0436108
20
0.131234
11
0.0437889
21
0.132244
0
LINE
8
BLACK
6
CONTINUOUS
10
0.0437889
20
0.132244
11
0.0439023
21
0.132379
0
LINE
8
BLACK
6
CONTINUOUS
10
0.0439023
20
0.132379
11
0.0439225
21
0.132554
0
LINE
8
BLACK
6
CONTINUOUS
10
0.0439225
20
0.132554
11
0.0456187
21
0.135946
0
LINE
8
BLACK
6
CONTINUOUS
10
0.0456187
20
0.135946
11
0.0455536
21
0.135958
0
LINE
8
BLACK
6
CONTINUOUS
10
0.0455536
20
0.135958
11
0.0440064
21
0.137256
0
LINE
8
BLACK
6
CONTINUOUS
10
0.0440064
20
0.137256
11
0.0436556
21
0.139245
0
LINE
8
BLACK
6
CONTINUOUS
10
0.0436556
20
0.139245
11
0.0446656
21
0.140995
0
LINE
8
BLACK
6
CONTINUOUS
10
0.0446656
20
0.140995
11
0.0465635
21
0.141685
0
LINE
8
BLACK
6
CONTINUOUS
10
0.0465635
20
0.141685
11
0.0728102
21
0.141685
0
LINE
8
BLACK
6
CONTINUOUS
10
0.0728102
20
0.141685
11
0.0738202
21
0.141507
0
LINE
8
BLACK
6
CONTINUOUS
10
0.0681959
20
0.177128
11
0.0683311
21
0.177014
0
LINE
8
BLACK
6
CONTINUOUS
10
0.0683311
20
0.177014
11
0.0685065
21
0.176994
0
LINE
8
BLACK
6
CONTINUOUS
10
0.0685065
20
0.176994
11
0.072256
21
0.175119
0
LINE
8
BLACK
6
CONTINUOUS
10
0.072256
20
0.175119
11
0.0730796
21
0.174509
0
LINE
8
BLACK
6
CONTINUOUS
10
0.0730796
20
0.174509
11
0.0732555
21
0.174103
0
LINE
8
BLACK
6
CONTINUOUS
10
0.0732555
20
0.174103
11
0.0735765
21
0.173799
0
LINE
8
BLACK
6
CONTINUOUS
10
0.0735765
20
0.173799
11
0.0754513
21
0.170049
0
LINE
8
BLACK
6
CONTINUOUS
10
0.0754513
20
0.170049
11
0.0757436
21
0.169066
0
LINE
8
BLACK
6
CONTINUOUS
10
0.0757436
20
0.169066
11
0.0757026
21
0.168895
0
LINE
8
BLACK
6
CONTINUOUS
10
0.0757026
20
0.168895
11
0.075763
21
0.168729
0
LINE
8
BLACK
6
CONTINUOUS
10
0.075763
20
0.168729
11
0.075763
21
0.16123
0
LINE
8
BLACK
6
CONTINUOUS
10
0.075763
20
0.16123
11
0.0755849
21
0.16022
0
LINE
8
BLACK
6
CONTINUOUS
10
0.0755849
20
0.16022
11
0.0754715
21
0.160085
0
LINE
8
BLACK
6
CONTINUOUS
10
0.0754715
20
0.160085
11
0.0754513
21
0.159909
0
LINE
8
BLACK
6
CONTINUOUS
10
0.0754513
20
0.159909
11
0.0735765
21
0.15616
0
LINE
8
BLACK
6
CONTINUOUS
10
0.0735765
20
0.15616
11
0.0729656
21
0.155336
0
LINE
8
BLACK
6
CONTINUOUS
10
0.0729656
20
0.155336
11
0.0711124
21
0.154533
0
LINE
8
BLACK
6
CONTINUOUS
10
0.0711124
20
0.154533
11
0.0691764
21
0.155109
0
LINE
8
BLACK
6
CONTINUOUS
10
0.0691764
20
0.155109
11
0.0680635
21
0.156794
0
LINE
8
BLACK
6
CONTINUOUS
10
0.0680635
20
0.156794
11
0.0682944
21
0.158801
0
LINE
8
BLACK
6
CONTINUOUS
10
0.0682944
20
0.158801
11
0.0698575
21
0.161927
0
LINE
8
BLACK
6
CONTINUOUS
10
0.0698575
20
0.161927
11
0.0698575
21
0.168032
0
LINE
8
BLACK
6
CONTINUOUS
10
0.0698575
20
0.168032
11
0.0687346
21
0.170278
0
LINE
8
BLACK
6
CONTINUOUS
10
0.0687346
20
0.170278
11
0.0664889
21
0.1714
0
LINE
8
BLACK
6
CONTINUOUS
10
0.0664889
20
0.1714
11
0.0621076
21
0.1714
0
LINE
8
BLACK
6
CONTINUOUS
10
0.0621076
20
0.1714
11
0.0588328
21
0.155026
0
LINE
8
BLACK
6
CONTINUOUS
10
0.0588328
20
0.155026
11
0.0584601
21
0.154071
0
LINE
8
BLACK
6
CONTINUOUS
10
0.0584601
20
0.154071
11
0.0580793
21
0.153766
0
LINE
8
BLACK
6
CONTINUOUS
10
0.0580793
20
0.153766
11
0.0578354
21
0.153344
0
LINE
8
BLACK
6
CONTINUOUS
10
0.0578354
20
0.153344
11
0.0573155
21
0.153154
0
LINE
8
BLACK
6
CONTINUOUS
10
0.0573155
20
0.153154
11
0.0568836
21
0.152808
0
LINE
8
BLACK
6
CONTINUOUS
10
0.0568836
20
0.152808
11
0.0563958
21
0.15282
0
LINE
8
BLACK
6
CONTINUOUS
10
0.0563958
20
0.15282
11
0.0559374
21
0.152653
0
LINE
8
BLACK
6
CONTINUOUS
10
0.0559374
20
0.152653
11
0.0521878
21
0.152653
0
LINE
8
BLACK
6
CONTINUOUS
10
0.0521878
20
0.152653
11
0.0511779
21
0.152831
0
LINE
8
BLACK
6
CONTINUOUS
10
0.0511779
20
0.152831
11
0.0510427
21
0.152944
0
LINE
8
BLACK
6
CONTINUOUS
10
0.0510427
20
0.152944
11
0.0508673
21
0.152964
0
LINE
8
BLACK
6
CONTINUOUS
10
0.0508673
20
0.152964
11
0.0471178
21
0.154839
0
LINE
8
BLACK
6
CONTINUOUS
10
0.0471178
20
0.154839
11
0.0462941
21
0.15545
0
LINE
8
BLACK
6
CONTINUOUS
10
0.0462941
20
0.15545
11
0.0461183
21
0.155856
0
LINE
8
BLACK
6
CONTINUOUS
10
0.0461183
20
0.155856
11
0.0457973
21
0.15616
0
LINE
8
BLACK
6
CONTINUOUS
10
0.0457973
20
0.15616
11
0.0439225
21
0.159909
0
LINE
8
BLACK
6
CONTINUOUS
10
0.0439225
20
0.159909
11
0.0436301
21
0.160892
0
LINE
8
BLACK
6
CONTINUOUS
10
0.0436301
20
0.160892
11
0.0436711
21
0.161064
0
LINE
8
BLACK
6
CONTINUOUS
10
0.0436711
20
0.161064
11
0.0436108
21
0.16123
0
LINE
8
BLACK
6
CONTINUOUS
10
0.0436108
20
0.16123
11
0.0436108
21
0.168729
0
LINE
8
BLACK
6
CONTINUOUS
10
0.0436108
20
0.168729
11
0.0437889
21
0.169739
0
LINE
8
BLACK
6
CONTINUOUS
10
0.0437889
20
0.169739
11
0.0439023
21
0.169874
0
LINE
8
BLACK
6
CONTINUOUS
10
0.0439023
20
0.169874
11
0.0439225
21
0.170049
0
LINE
8
BLACK
6
CONTINUOUS
10
0.0439225
20
0.170049
11
0.0457973
21
0.173799
0
LINE
8
BLACK
6
CONTINUOUS
10
0.0457973
20
0.173799
11
0.0464082
21
0.174623
0
LINE
8
BLACK
6
CONTINUOUS
10
0.0464082
20
0.174623
11
0.0468139
21
0.174798
0
LINE
8
BLACK
6
CONTINUOUS
10
0.0468139
20
0.174798
11
0.0471178
21
0.175119
0
LINE
8
BLACK
6
CONTINUOUS
10
0.0471178
20
0.175119
11
0.0508673
21
0.176994
0
LINE
8
BLACK
6
CONTINUOUS
10
0.0508673
20
0.176994
11
0.0518502
21
0.177287
0
LINE
8
BLACK
6
CONTINUOUS
10
0.0518502
20
0.177287
11
0.0520219
21
0.177246
0
LINE
8
BLACK
6
CONTINUOUS
10
0.0520219
20
0.177246
11
0.0521878
21
0.177306
0
LINE
8
BLACK
6
CONTINUOUS
10
0.0521878
20
0.177306
11
0.0671859
21
0.177306
0
LINE
8
BLACK
6
CONTINUOUS
10
0.0671859
20
0.177306
11
0.0681959
21
0.177128
0
LINE
8
BLACK
6
CONTINUOUS
10
0.0528849
20
0.1714
11
0.0506392
21
0.170278
0
LINE
8
BLACK
6
CONTINUOUS
10
0.0506392
20
0.170278
11
0.0495163
21
0.168032
0
LINE
8
BLACK
6
CONTINUOUS
10
0.0495163
20
0.168032
11
0.0495163
21
0.161927
0
LINE
8
BLACK
6
CONTINUOUS
10
0.0495163
20
0.161927
11
0.0506392
21
0.159681
0
LINE
8
BLACK
6
CONTINUOUS
10
0.0506392
20
0.159681
11
0.0528849
21
0.158558
0
LINE
8
BLACK
6
CONTINUOUS
10
0.0528849
20
0.158558
11
0.0535167
21
0.158558
0
LINE
8
BLACK
6
CONTINUOUS
10
0.0535167
20
0.158558
11
0.0560851
21
0.1714
0
LINE
8
BLACK
6
CONTINUOUS
10
0.0560851
20
0.1714
11
0.0528849
21
0.1714
0
LINE
8
BLACK
6
CONTINUOUS
10
0.0663211
20
0.212748
11
0.0664563
21
0.212635
0
LINE
8
BLACK
6
CONTINUOUS
10
0.0664563
20
0.212635
11
0.0666317
21
0.212615
0
LINE
8
BLACK
6
CONTINUOUS
10
0.0666317
20
0.212615
11
0.0703812
21
0.21074
0
LINE
8
BLACK
6
CONTINUOUS
10
0.0703812
20
0.21074
11
0.0710903
21
0.210214
0
LINE
8
BLACK
6
CONTINUOUS
10
0.0710903
20
0.210214
11
0.0711486
21
0.210187
0
LINE
8
BLACK
6
CONTINUOUS
10
0.0711486
20
0.210187
11
0.0730234
21
0.208312
0
LINE
8
BLACK
6
CONTINUOUS
10
0.0730234
20
0.208312
11
0.0735297
21
0.207589
0
LINE
8
BLACK
6
CONTINUOUS
10
0.0735297
20
0.207589
11
0.0735765
21
0.207545
0
LINE
8
BLACK
6
CONTINUOUS
10
0.0735765
20
0.207545
11
0.0754513
21
0.203795
0
LINE
8
BLACK
6
CONTINUOUS
10
0.0754513
20
0.203795
11
0.0757436
21
0.202812
0
LINE
8
BLACK
6
CONTINUOUS
10
0.0757436
20
0.202812
11
0.0757026
21
0.202641
0
LINE
8
BLACK
6
CONTINUOUS
10
0.0757026
20
0.202641
11
0.075763
21
0.202475
0
LINE
8
BLACK
6
CONTINUOUS
10
0.075763
20
0.202475
11
0.075763
21
0.194976
0
LINE
8
BLACK
6
CONTINUOUS
10
0.075763
20
0.194976
11
0.0755849
21
0.193966
0
LINE
8
BLACK
6
CONTINUOUS
10
0.0755849
20
0.193966
11
0.0754715
21
0.19383
0
LINE
8
BLACK
6
CONTINUOUS
10
0.0754715
20
0.19383
11
0.0754513
21
0.193655
0
LINE
8
BLACK
6
CONTINUOUS
10
0.0754513
20
0.193655
11
0.0750909
21
0.192934
0
LINE
8
BLACK
6
CONTINUOUS
10
0.0750909
20
0.192934
11
0.0753674
21
0.192702
0
LINE
8
BLACK
6
CONTINUOUS
10
0.0753674
20
0.192702
11
0.0757181
21
0.190713
0
LINE
8
BLACK
6
CONTINUOUS
10
0.0757181
20
0.190713
11
0.0747082
21
0.188964
0
LINE
8
BLACK
6
CONTINUOUS
10
0.0747082
20
0.188964
11
0.0728102
21
0.188273
0
LINE
8
BLACK
6
CONTINUOUS
10
0.0728102
20
0.188273
11
0.0334402
21
0.188273
0
LINE
8
BLACK
6
CONTINUOUS
10
0.0334402
20
0.188273
11
0.0324302
21
0.188451
0
LINE
8
BLACK
6
CONTINUOUS
10
0.0324302
20
0.188451
11
0.030883
21
0.18975
0
LINE
8
BLACK
6
CONTINUOUS
10
0.030883
20
0.18975
11
0.0305322
21
0.191739
0
LINE
8
BLACK
6
CONTINUOUS
10
0.0305322
20
0.191739
11
0.0315422
21
0.193488
0
LINE
8
BLACK
6
CONTINUOUS
10
0.0315422
20
0.193488
11
0.0334402
21
0.194179
0
LINE
8
BLACK
6
CONTINUOUS
10
0.0334402
20
0.194179
11
0.0437667
21
0.194179
0
LINE
8
BLACK
6
CONTINUOUS
10
0.0437667
20
0.194179
11
0.0436302
21
0.194638
0
LINE
8
BLACK
6
CONTINUOUS
10
0.0436302
20
0.194638
11
0.0436712
21
0.19481
0
LINE
8
BLACK
6
CONTINUOUS
10
0.0436712
20
0.19481
11
0.0436108
21
0.194976
0
LINE
8
BLACK
6
CONTINUOUS
10
0.0436108
20
0.194976
11
0.0436108
21
0.202475
0
LINE
8
BLACK
6
CONTINUOUS
10
0.0436108
20
0.202475
11
0.0437889
21
0.203485
0
LINE
8
BLACK
6
CONTINUOUS
10
0.0437889
20
0.203485
11
0.0439023
21
0.20362
0
LINE
8
BLACK
6
CONTINUOUS
10
0.0439023
20
0.20362
11
0.0439225
21
0.203795
0
LINE
8
BLACK
6
CONTINUOUS
10
0.0439225
20
0.203795
11
0.0457973
21
0.207545
0
LINE
8
BLACK
6
CONTINUOUS
10
0.0457973
20
0.207545
11
0.0463232
21
0.208254
0
LINE
8
BLACK
6
CONTINUOUS
10
0.0463232
20
0.208254
11
0.0463504
21
0.208312
0
LINE
8
BLACK
6
CONTINUOUS
10
0.0463504
20
0.208312
11
0.0482252
21
0.210187
0
LINE
8
BLACK
6
CONTINUOUS
10
0.0482252
20
0.210187
11
0.0489482
21
0.210693
0
LINE
8
BLACK
6
CONTINUOUS
10
0.0489482
20
0.210693
11
0.0489926
21
0.21074
0
LINE
8
BLACK
6
CONTINUOUS
10
0.0489926
20
0.21074
11
0.0527421
21
0.212615
0
LINE
8
BLACK
6
CONTINUOUS
10
0.0527421
20
0.212615
11
0.053725
21
0.212907
0
LINE
8
BLACK
6
CONTINUOUS
10
0.053725
20
0.212907
11
0.0538967
21
0.212866
0
LINE
8
BLACK
6
CONTINUOUS
10
0.0538967
20
0.212866
11
0.0540626
21
0.212926
0
LINE
8
BLACK
6
CONTINUOUS
10
0.0540626
20
0.212926
11
0.0653112
21
0.212926
0
LINE
8
BLACK
6
CONTINUOUS
10
0.0653112
20
0.212926
11
0.0663211
21
0.212748
0
LINE
8
BLACK
6
CONTINUOUS
10
0.0547596
20
0.207021
11
0.0520622
21
0.205672
0
LINE
8
BLACK
6
CONTINUOUS
10
0.0520622
20
0.205672
11
0.050865
21
0.204475
0
LINE
8
BLACK
6
CONTINUOUS
10
0.050865
20
0.204475
11
0.0495163
21
0.201778
0
LINE
8
BLACK
6
CONTINUOUS
10
0.0495163
20
0.201778
11
0.0495163
21
0.195673
0
LINE
8
BLACK
6
CONTINUOUS
10
0.0495163
20
0.195673
11
0.0502632
21
0.194179
0
LINE
8
BLACK
6
CONTINUOUS
10
0.0502632
20
0.194179
11
0.0691106
21
0.194179
0
LINE
8
BLACK
6
CONTINUOUS
10
0.0691106
20
0.194179
11
0.0698575
21
0.195673
0
LINE
8
BLACK
6
CONTINUOUS
10
0.0698575
20
0.195673
11
0.0698575
21
0.201778
0
LINE
8
BLACK
6
CONTINUOUS
10
0.0698575
20
0.201778
11
0.0685087
21
0.204475
0
LINE
8
BLACK
6
CONTINUOUS
10
0.0685087
20
0.204475
11
0.0673116
21
0.205672
0
LINE
8
BLACK
6
CONTINUOUS
10
0.0673116
20
0.205672
11
0.0646141
21
0.207021
0
LINE
8
BLACK
6
CONTINUOUS
10
0.0646141
20
0.207021
11
0.0547596
21
0.207021
0
LINE
8
BLACK
6
CONTINUOUS
10
0.0738202
20
0.246494
11
0.0753674
21
0.245196
0
LINE
8
BLACK
6
CONTINUOUS
10
0.0753674
20
0.245196
11
0.0757181
21
0.243207
0
LINE
8
BLACK
6
CONTINUOUS
10
0.0757181
20
0.243207
11
0.0747082
21
0.241458
0
LINE
8
BLACK
6
CONTINUOUS
10
0.0747082
20
0.241458
11
0.0728102
21
0.240767
0
LINE
8
BLACK
6
CONTINUOUS
10
0.0728102
20
0.240767
11
0.0515361
21
0.240767
0
LINE
8
BLACK
6
CONTINUOUS
10
0.0515361
20
0.240767
11
0.050865
21
0.240096
0
LINE
8
BLACK
6
CONTINUOUS
10
0.050865
20
0.240096
11
0.0495163
21
0.237398
0
LINE
8
BLACK
6
CONTINUOUS
10
0.0495163
20
0.237398
11
0.0495163
21
0.233168
0
LINE
8
BLACK
6
CONTINUOUS
10
0.0495163
20
0.233168
11
0.0506392
21
0.230922
0
LINE
8
BLACK
6
CONTINUOUS
10
0.0506392
20
0.230922
11
0.0528849
21
0.229799
0
LINE
8
BLACK
6
CONTINUOUS
10
0.0528849
20
0.229799
11
0.0728102
21
0.229799
0
LINE
8
BLACK
6
CONTINUOUS
10
0.0728102
20
0.229799
11
0.0738202
21
0.229621
0
LINE
8
BLACK
6
CONTINUOUS
10
0.0738202
20
0.229621
11
0.0753674
21
0.228323
0
LINE
8
BLACK
6
CONTINUOUS
10
0.0753674
20
0.228323
11
0.0757181
21
0.226334
0
LINE
8
BLACK
6
CONTINUOUS
10
0.0757181
20
0.226334
11
0.0747082
21
0.224585
0
LINE
8
BLACK
6
CONTINUOUS
10
0.0747082
20
0.224585
11
0.0728102
21
0.223894
0
LINE
8
BLACK
6
CONTINUOUS
10
0.0728102
20
0.223894
11
0.0521878
21
0.223894
0
LINE
8
BLACK
6
CONTINUOUS
10
0.0521878
20
0.223894
11
0.0511779
21
0.224072
0
LINE
8
BLACK
6
CONTINUOUS
10
0.0511779
20
0.224072
11
0.0510427
21
0.224185
0
LINE
8
BLACK
6
CONTINUOUS
10
0.0510427
20
0.224185
11
0.0508673
21
0.224206
0
LINE
8
BLACK
6
CONTINUOUS
10
0.0508673
20
0.224206
11
0.0471178
21
0.22608
0
LINE
8
BLACK
6
CONTINUOUS
10
0.0471178
20
0.22608
11
0.0462941
21
0.226691
0
LINE
8
BLACK
6
CONTINUOUS
10
0.0462941
20
0.226691
11
0.0461183
21
0.227097
0
LINE
8
BLACK
6
CONTINUOUS
10
0.0461183
20
0.227097
11
0.0457973
21
0.227401
0
LINE
8
BLACK
6
CONTINUOUS
10
0.0457973
20
0.227401
11
0.0439225
21
0.23115
0
LINE
8
BLACK
6
CONTINUOUS
10
0.0439225
20
0.23115
11
0.0436302
21
0.232133
0
LINE
8
BLACK
6
CONTINUOUS
10
0.0436302
20
0.232133
11
0.0436712
21
0.232305
0
LINE
8
BLACK
6
CONTINUOUS
10
0.0436712
20
0.232305
11
0.0436108
21
0.232471
0
LINE
8
BLACK
6
CONTINUOUS
10
0.0436108
20
0.232471
11
0.0436108
21
0.238095
0
LINE
8
BLACK
6
CONTINUOUS
10
0.0436108
20
0.238095
11
0.0437889
21
0.239105
0
LINE
8
BLACK
6
CONTINUOUS
10
0.0437889
20
0.239105
11
0.0439023
21
0.23924
0
LINE
8
BLACK
6
CONTINUOUS
10
0.0439023
20
0.23924
11
0.0439225
21
0.239416
0
LINE
8
BLACK
6
CONTINUOUS
10
0.0439225
20
0.239416
11
0.0449432
21
0.241457
0
LINE
8
BLACK
6
CONTINUOUS
10
0.0449432
20
0.241457
11
0.0440064
21
0.242243
0
LINE
8
BLACK
6
CONTINUOUS
10
0.0440064
20
0.242243
11
0.0436556
21
0.244232
0
LINE
8
BLACK
6
CONTINUOUS
10
0.0436556
20
0.244232
11
0.0446656
21
0.245981
0
LINE
8
BLACK
6
CONTINUOUS
10
0.0446656
20
0.245981
11
0.0465635
21
0.246672
0
LINE
8
BLACK
6
CONTINUOUS
10
0.0465635
20
0.246672
11
0.0728102
21
0.246672
0
LINE
8
BLACK
6
CONTINUOUS
10
0.0728102
20
0.246672
11
0.0738202
21
0.246494
0
LINE
8
BLACK
6
CONTINUOUS
10
0.0681959
20
0.282115
11
0.0683311
21
0.282001
0
LINE
8
BLACK
6
CONTINUOUS
10
0.0683311
20
0.282001
11
0.0685065
21
0.281981
0
LINE
8
BLACK
6
CONTINUOUS
10
0.0685065
20
0.281981
11
0.072256
21
0.280106
0
LINE
8
BLACK
6
CONTINUOUS
10
0.072256
20
0.280106
11
0.0730796
21
0.279495
0
LINE
8
BLACK
6
CONTINUOUS
10
0.0730796
20
0.279495
11
0.0732555
21
0.27909
0
LINE
8
BLACK
6
CONTINUOUS
10
0.0732555
20
0.27909
11
0.0735765
21
0.278786
0
LINE
8
BLACK
6
CONTINUOUS
10
0.0735765
20
0.278786
11
0.0754513
21
0.275036
0
LINE
8
BLACK
6
CONTINUOUS
10
0.0754513
20
0.275036
11
0.0757436
21
0.274053
0
LINE
8
BLACK
6
CONTINUOUS
10
0.0757436
20
0.274053
11
0.0757026
21
0.273882
0
LINE
8
BLACK
6
CONTINUOUS
10
0.0757026
20
0.273882
11
0.075763
21
0.273716
0
LINE
8
BLACK
6
CONTINUOUS
10
0.075763
20
0.273716
11
0.075763
21
0.268091
0
LINE
8
BLACK
6
CONTINUOUS
10
0.075763
20
0.268091
11
0.0755849
21
0.267082
0
LINE
8
BLACK
6
CONTINUOUS
10
0.0755849
20
0.267082
11
0.0754715
21
0.266946
0
LINE
8
BLACK
6
CONTINUOUS
10
0.0754715
20
0.266946
11
0.0754513
21
0.266771
0
LINE
8
BLACK
6
CONTINUOUS
10
0.0754513
20
0.266771
11
0.0744306
21
0.26473
0
LINE
8
BLACK
6
CONTINUOUS
10
0.0744306
20
0.26473
11
0.0753674
21
0.263944
0
LINE
8
BLACK
6
CONTINUOUS
10
0.0753674
20
0.263944
11
0.0757181
21
0.261954
0
LINE
8
BLACK
6
CONTINUOUS
10
0.0757181
20
0.261954
11
0.0747082
21
0.260205
0
LINE
8
BLACK
6
CONTINUOUS
10
0.0747082
20
0.260205
11
0.0728102
21
0.259514
0
LINE
8
BLACK
6
CONTINUOUS
10
0.0728102
20
0.259514
11
0.0465635
21
0.259514
0
LINE
8
BLACK
6
CONTINUOUS
10
0.0465635
20
0.259514
11
0.0455536
21
0.259692
0
LINE
8
BLACK
6
CONTINUOUS
10
0.0455536
20
0.259692
11
0.0440064
21
0.260991
0
LINE
8
BLACK
6
CONTINUOUS
10
0.0440064
20
0.260991
11
0.0436556
21
0.26298
0
LINE
8
BLACK
6
CONTINUOUS
10
0.0436556
20
0.26298
11
0.0446656
21
0.264729
0
LINE
8
BLACK
6
CONTINUOUS
10
0.0446656
20
0.264729
11
0.0465635
21
0.26542
0
LINE
8
BLACK
6
CONTINUOUS
10
0.0465635
20
0.26542
11
0.0678376
21
0.26542
0
LINE
8
BLACK
6
CONTINUOUS
10
0.0678376
20
0.26542
11
0.0685087
21
0.266091
0
LINE
8
BLACK
6
CONTINUOUS
10
0.0685087
20
0.266091
11
0.0698575
21
0.268789
0
LINE
8
BLACK
6
CONTINUOUS
10
0.0698575
20
0.268789
11
0.0698575
21
0.273019
0
LINE
8
BLACK
6
CONTINUOUS
10
0.0698575
20
0.273019
11
0.0687346
21
0.275264
0
LINE
8
BLACK
6
CONTINUOUS
10
0.0687346
20
0.275264
11
0.0664889
21
0.276387
0
LINE
8
BLACK
6
CONTINUOUS
10
0.0664889
20
0.276387
11
0.0465635
21
0.276387
0
LINE
8
BLACK
6
CONTINUOUS
10
0.0465635
20
0.276387
11
0.0455536
21
0.276565
0
LINE
8
BLACK
6
CONTINUOUS
10
0.0455536
20
0.276565
11
0.0440064
21
0.277864
0
LINE
8
BLACK
6
CONTINUOUS
10
0.0440064
20
0.277864
11
0.0436556
21
0.279853
0
LINE
8
BLACK
6
CONTINUOUS
10
0.0436556
20
0.279853
11
0.0446656
21
0.281602
0
LINE
8
BLACK
6
CONTINUOUS
10
0.0446656
20
0.281602
11
0.0465635
21
0.282293
0
LINE
8
BLACK
6
CONTINUOUS
10
0.0465635
20
0.282293
11
0.0671859
21
0.282293
0
LINE
8
BLACK
6
CONTINUOUS
10
0.0671859
20
0.282293
11
0.0681959
21
0.282115
0
LINE
8
BLACK
6
CONTINUOUS
10
0.0738202
20
0.317735
11
0.0753674
21
0.316437
0
LINE
8
BLACK
6
CONTINUOUS
10
0.0753674
20
0.316437
11
0.0757181
21
0.314448
0
LINE
8
BLACK
6
CONTINUOUS
10
0.0757181
20
0.314448
11
0.0747082
21
0.312699
0
LINE
8
BLACK
6
CONTINUOUS
10
0.0747082
20
0.312699
11
0.0728102
21
0.312008
0
LINE
8
BLACK
6
CONTINUOUS
10
0.0728102
20
0.312008
11
0.0515361
21
0.312008
0
LINE
8
BLACK
6
CONTINUOUS
10
0.0515361
20
0.312008
11
0.050865
21
0.311337
0
LINE
8
BLACK
6
CONTINUOUS
10
0.050865
20
0.311337
11
0.0495163
21
0.308639
0
LINE
8
BLACK
6
CONTINUOUS
10
0.0495163
20
0.308639
11
0.0495163
21
0.304409
0
LINE
8
BLACK
6
CONTINUOUS
10
0.0495163
20
0.304409
11
0.0506392
21
0.302163
0
LINE
8
BLACK
6
CONTINUOUS
10
0.0506392
20
0.302163
11
0.0528849
21
0.30104
0
LINE
8
BLACK
6
CONTINUOUS
10
0.0528849
20
0.30104
11
0.0728102
21
0.30104
0
LINE
8
BLACK
6
CONTINUOUS
10
0.0728102
20
0.30104
11
0.0738202
21
0.300862
0
LINE
8
BLACK
6
CONTINUOUS
10
0.0738202
20
0.300862
11
0.0753674
21
0.299564
0
LINE
8
BLACK
6
CONTINUOUS
10
0.0753674
20
0.299564
11
0.0757181
21
0.297575
0
LINE
8
BLACK
6
CONTINUOUS
10
0.0757181
20
0.297575
11
0.0747082
21
0.295826
0
LINE
8
BLACK
6
CONTINUOUS
10
0.0747082
20
0.295826
11
0.0728102
21
0.295135
0
LINE
8
BLACK
6
CONTINUOUS
10
0.0728102
20
0.295135
11
0.0521878
21
0.295135
0
LINE
8
BLACK
6
CONTINUOUS
10
0.0521878
20
0.295135
11
0.0511779
21
0.295313
0
LINE
8
BLACK
6
CONTINUOUS
10
0.0511779
20
0.295313
11
0.0510427
21
0.295426
0
LINE
8
BLACK
6
CONTINUOUS
10
0.0510427
20
0.295426
11
0.0508673
21
0.295447
0
LINE
8
BLACK
6
CONTINUOUS
10
0.0508673
20
0.295447
11
0.0471178
21
0.297321
0
LINE
8
BLACK
6
CONTINUOUS
10
0.0471178
20
0.297321
11
0.0462941
21
0.297932
0
LINE
8
BLACK
6
CONTINUOUS
10
0.0462941
20
0.297932
11
0.0461183
21
0.298338
0
LINE
8
BLACK
6
CONTINUOUS
10
0.0461183
20
0.298338
11
0.0457973
21
0.298642
0
LINE
8
BLACK
6
CONTINUOUS
10
0.0457973
20
0.298642
11
0.0439225
21
0.302391
0
LINE
8
BLACK
6
CONTINUOUS
10
0.0439225
20
0.302391
11
0.0436302
21
0.303374
0
LINE
8
BLACK
6
CONTINUOUS
10
0.0436302
20
0.303374
11
0.0436712
21
0.303546
0
LINE
8
BLACK
6
CONTINUOUS
10
0.0436712
20
0.303546
11
0.0436108
21
0.303712
0
LINE
8
BLACK
6
CONTINUOUS
10
0.0436108
20
0.303712
11
0.0436108
21
0.309336
0
LINE
8
BLACK
6
CONTINUOUS
10
0.0436108
20
0.309336
11
0.0437889
21
0.310346
0
LINE
8
BLACK
6
CONTINUOUS
10
0.0437889
20
0.310346
11
0.0439023
21
0.310481
0
LINE
8
BLACK
6
CONTINUOUS
10
0.0439023
20
0.310481
11
0.0439225
21
0.310657
0
LINE
8
BLACK
6
CONTINUOUS
10
0.0439225
20
0.310657
11
0.044598
21
0.312008
0
LINE
8
BLACK
6
CONTINUOUS
10
0.044598
20
0.312008
11
0.0334402
21
0.312008
0
LINE
8
BLACK
6
CONTINUOUS
10
0.0334402
20
0.312008
11
0.0324302
21
0.312186
0
LINE
8
BLACK
6
CONTINUOUS
10
0.0324302
20
0.312186
11
0.030883
21
0.313484
0
LINE
8
BLACK
6
CONTINUOUS
10
0.030883
20
0.313484
11
0.0305322
21
0.315473
0
LINE
8
BLACK
6
CONTINUOUS
10
0.0305322
20
0.315473
11
0.0315422
21
0.317223
0
LINE
8
BLACK
6
CONTINUOUS
10
0.0315422
20
0.317223
11
0.0334402
21
0.317913
0
LINE
8
BLACK
6
CONTINUOUS
10
0.0334402
20
0.317913
11
0.0728102
21
0.317913
0
LINE
8
BLACK
6
CONTINUOUS
10
0.0728102
20
0.317913
11
0.0738202
21
0.317735
0
LINE
8
BLACK
6
CONTINUOUS
10
0.0357021
20
0.352479
11
0.0363929
21
0.350581
0
LINE
8
BLACK
6
CONTINUOUS
10
0.0363929
20
0.350581
11
0.0363929
21
0.342285
0
LINE
8
BLACK
6
CONTINUOUS
10
0.0363929
20
0.342285
11
0.0728102
21
0.342285
0
LINE
8
BLACK
6
CONTINUOUS
10
0.0728102
20
0.342285
11
0.0738202
21
0.342107
0
LINE
8
BLACK
6
CONTINUOUS
10
0.0738202
20
0.342107
11
0.0753674
21
0.340809
0
LINE
8
BLACK
6
CONTINUOUS
10
0.0753674
20
0.340809
11
0.0757181
21
0.33882
0
LINE
8
BLACK
6
CONTINUOUS
10
0.0757181
20
0.33882
11
0.0747082
21
0.337071
0
LINE
8
BLACK
6
CONTINUOUS
10
0.0747082
20
0.337071
11
0.0728102
21
0.33638
0
LINE
8
BLACK
6
CONTINUOUS
10
0.0728102
20
0.33638
11
0.0363929
21
0.33638
0
LINE
8
BLACK
6
CONTINUOUS
10
0.0363929
20
0.33638
11
0.0363929
21
0.328084
0
LINE
8
BLACK
6
CONTINUOUS
10
0.0363929
20
0.328084
11
0.0362148
21
0.327074
0
LINE
8
BLACK
6
CONTINUOUS
10
0.0362148
20
0.327074
11
0.0349165
21
0.325527
0
LINE
8
BLACK
6
CONTINUOUS
10
0.0349165
20
0.325527
11
0.0329274
21
0.325176
0
LINE
8
BLACK
6
CONTINUOUS
10
0.0329274
20
0.325176
11
0.0311782
21
0.326186
0
LINE
8
BLACK
6
CONTINUOUS
10
0.0311782
20
0.326186
11
0.0304874
21
0.328084
0
LINE
8
BLACK
6
CONTINUOUS
10
0.0304874
20
0.328084
11
0.0304874
21
0.350581
0
LINE
8
BLACK
6
CONTINUOUS
10
0.0304874
20
0.350581
11
0.0306655
21
0.351591
0
LINE
8
BLACK
6
CONTINUOUS
10
0.0306655
20
0.351591
11
0.0319638
21
0.353138
0
LINE
8
BLACK
6
CONTINUOUS
10
0.0319638
20
0.353138
11
0.0339529
21
0.353489
0
LINE
8
BLACK
6
CONTINUOUS
10
0.0339529
20
0.353489
11
0.0357021
21
0.352479
0
LINE
8
BLACK
6
CONTINUOUS
10
0.0117717
20
0.371063
11
0.00948067
21
0.371807
0
LINE
8
BLACK
6
CONTINUOUS
10
0.00948067
20
0.371807
11
0.00806476
21
0.373756
0
LINE
8
BLACK
6
CONTINUOUS
10
0.00806476
20
0.373756
11
0.00787402
21
0.374961
0
LINE
8
BLACK
6
CONTINUOUS
10
0.00787402
20
0.374961
11
0.00787402
21
0.381929
0
LINE
8
BLACK
6
CONTINUOUS
10
0.00787402
20
0.381929
11
0.00861839
21
0.38422
0
LINE
8
BLACK
6
CONTINUOUS
10
0.00861839
20
0.38422
11
0.0105672
21
0.385636
0
LINE
8
BLACK
6
CONTINUOUS
10
0.0105672
20
0.385636
11
0.0117717
21
0.385827
0
LINE
8
BLACK
6
CONTINUOUS
10
0.0117717
20
0.385827
11
0.284463
21
0.385827
0
LINE
8
BLACK
6
CONTINUOUS
10
0.284463
20
0.385827
11
0.286754
21
0.385082
0
LINE
8
BLACK
6
CONTINUOUS
10
0.286754
20
0.385082
11
0.28817
21
0.383134
0
LINE
8
BLACK
6
CONTINUOUS
10
0.28817
20
0.383134
11
0.288301
21
0.382609
0
LINE
8
BLACK
6
CONTINUOUS
10
0.288301
20
0.382609
11
0.289269
21
0.377148
0
LINE
8
BLACK
6
CONTINUOUS
10
0.289269
20
0.377148
11
0.289269
21
0.377148
0
LINE
8
BLACK
6
CONTINUOUS
10
0.289269
20
0.377148
11
0.289295
21
0.377002
0
LINE
8
BLACK
6
CONTINUOUS
10
0.289295
20
0.377002
11
0.292569
21
0.367357
0
LINE
8
BLACK
6
CONTINUOUS
10
0.292569
20
0.367357
11
0.292637
21
0.367226
0
LINE
8
BLACK
6
CONTINUOUS
10
0.292637
20
0.367226
11
0.292637
21
0.367226
0
LINE
8
BLACK
6
CONTINUOUS
10
0.292637
20
0.367226
11
0.295911
21
0.360922
0
LINE
8
BLACK
6
CONTINUOUS
10
0.295911
20
0.360922
11
0.297264
21
0.358318
0
LINE
8
BLACK
6
CONTINUOUS
10
0.297264
20
0.358318
11
0.303273
21
0.350093
0
LINE
8
BLACK
6
CONTINUOUS
10
0.303273
20
0.350093
11
0.310456
21
0.342872
0
LINE
8
BLACK
6
CONTINUOUS
10
0.310456
20
0.342872
11
0.310575
21
0.342784
0
LINE
8
BLACK
6
CONTINUOUS
10
0.310575
20
0.342784
11
0.310575
21
0.342784
0
LINE
8
BLACK
6
CONTINUOUS
10
0.310575
20
0.342784
11
0.31639
21
0.338489
0
LINE
8
BLACK
6
CONTINUOUS
10
0.31639
20
0.338489
11
0.31865
21
0.33682
0
LINE
8
BLACK
6
CONTINUOUS
10
0.31865
20
0.33682
11
0.32325
21
0.3344
0
LINE
8
BLACK
6
CONTINUOUS
10
0.32325
20
0.3344
11
0.327533
21
0.332146
0
LINE
8
BLACK
6
CONTINUOUS
10
0.327533
20
0.332146
11
0.327533
21
0.332146
0
LINE
8
BLACK
6
CONTINUOUS
10
0.327533
20
0.332146
11
0.327664
21
0.332078
0
LINE
8
BLACK
6
CONTINUOUS
10
0.327664
20
0.332078
11
0.327804
21
0.332029
0
LINE
8
BLACK
6
CONTINUOUS
10
0.327804
20
0.332029
11
0.327804
21
0.332029
0
LINE
8
BLACK
6
CONTINUOUS
10
0.327804
20
0.332029
11
0.331593
21
0.330721
0
LINE
8
BLACK
6
CONTINUOUS
10
0.331593
20
0.330721
11
0.337292
21
0.328753
0
LINE
8
BLACK
6
CONTINUOUS
10
0.337292
20
0.328753
11
0.337438
21
0.328726
0
LINE
8
BLACK
6
CONTINUOUS
10
0.337438
20
0.328726
11
0.337438
21
0.328726
0
LINE
8
BLACK
6
CONTINUOUS
10
0.337438
20
0.328726
11
0.345764
21
0.327206
0
LINE
8
BLACK
6
CONTINUOUS
10
0.345764
20
0.327206
11
0.347312
21
0.326923
0
LINE
8
BLACK
6
CONTINUOUS
10
0.347312
20
0.326923
11
0.350575
21
0.326752
0
LINE
8
BLACK
6
CONTINUOUS
10
0.350575
20
0.326752
11
0.356918
21
0.326752
0
LINE
8
BLACK
6
CONTINUOUS
10
0.356918
20
0.326752
11
0.359951
21
0.326983
0
LINE
8
BLACK
6
CONTINUOUS
10
0.359951
20
0.326983
11
0.364339
21
0.327316
0
LINE
8
BLACK
6
CONTINUOUS
10
0.364339
20
0.327316
11
0.36434
21
0.327316
0
LINE
8
BLACK
6
CONTINUOUS
10
0.36434
20
0.327316
11
0.364487
21
0.327328
0
LINE
8
BLACK
6
CONTINUOUS
10
0.364487
20
0.327328
11
0.37441
21
0.329628
0
LINE
8
BLACK
6
CONTINUOUS
10
0.37441
20
0.329628
11
0.37715
21
0.330721
0
LINE
8
BLACK
6
CONTINUOUS
10
0.37715
20
0.330721
11
0.381734
21
0.33255
0
LINE
8
BLACK
6
CONTINUOUS
10
0.381734
20
0.33255
11
0.383871
21
0.333402
0
LINE
8
BLACK
6
CONTINUOUS
10
0.383871
20
0.333402
11
0.392652
21
0.338564
0
LINE
8
BLACK
6
CONTINUOUS
10
0.392652
20
0.338564
11
0.394338
21
0.339937
0
LINE
8
BLACK
6
CONTINUOUS
10
0.394338
20
0.339937
11
0.400436
21
0.344902
0
LINE
8
BLACK
6
CONTINUOUS
10
0.400436
20
0.344902
11
0.400551
21
0.344995
0
LINE
8
BLACK
6
CONTINUOUS
10
0.400551
20
0.344995
11
0.405165
21
0.350093
0
LINE
8
BLACK
6
CONTINUOUS
10
0.405165
20
0.350093
11
0.407287
21
0.352437
0
LINE
8
BLACK
6
CONTINUOUS
10
0.407287
20
0.352437
11
0.407287
21
0.352437
0
LINE
8
BLACK
6
CONTINUOUS
10
0.407287
20
0.352437
11
0.407386
21
0.352547
0
LINE
8
BLACK
6
CONTINUOUS
10
0.407386
20
0.352547
11
0.413001
21
0.361045
0
LINE
8
BLACK
6
CONTINUOUS
10
0.413001
20
0.361045
11
0.417265
21
0.370296
0
LINE
8
BLACK
6
CONTINUOUS
10
0.417265
20
0.370296
11
0.420081
21
0.380084
0
LINE
8
BLACK
6
CONTINUOUS
10
0.420081
20
0.380084
11
0.420384
21
0.382428
0
LINE
8
BLACK
6
CONTINUOUS
10
0.420384
20
0.382428
11
0.421415
21
0.384605
0
LINE
8
BLACK
6
CONTINUOUS
10
0.421415
20
0.384605
11
0.423529
21
0.38576
0
LINE
8
BLACK
6
CONTINUOUS
10
0.423529
20
0.38576
11
0.424249
21
0.385827
0
LINE
8
BLACK
6
CONTINUOUS
10
0.424249
20
0.385827
11
0.539409
21
0.385827
0
LINE
8
BLACK
6
CONTINUOUS
10
0.539409
20
0.385827
11
0.5417
21
0.385082
0
LINE
8
BLACK
6
CONTINUOUS
10
0.5417
20
0.385082
11
0.543116
21
0.383134
0
LINE
8
BLACK
6
CONTINUOUS
10
0.543116
20
0.383134
11
0.543307
21
0.381929
0
LINE
8
BLACK
6
CONTINUOUS
10
0.543307
20
0.381929
11
0.543307
21
0.347261
0
LINE
8
BLACK
6
CONTINUOUS
10
0.543307
20
0.347261
11
0.544123
21
0.346445
0
LINE
8
BLACK
6
CONTINUOUS
10
0.544123
20
0.346445
11
0.544267
21
0.346162
0
LINE
8
BLACK
6
CONTINUOUS
10
0.544267
20
0.346162
11
0.544524
21
0.345975
0
LINE
8
BLACK
6
CONTINUOUS
10
0.544524
20
0.345975
11
0.544809
21
0.345098
0
LINE
8
BLACK
6
CONTINUOUS
10
0.544809
20
0.345098
11
0.545228
21
0.344277
0
LINE
8
BLACK
6
CONTINUOUS
10
0.545228
20
0.344277
11
0.545178
21
0.343963
0
LINE
8
BLACK
6
CONTINUOUS
10
0.545178
20
0.343963
11
0.545276
21
0.343661
0
LINE
8
BLACK
6
CONTINUOUS
10
0.545276
20
0.343661
11
0.545276
21
0.026339
0
LINE
8
BLACK
6
CONTINUOUS
10
0.545276
20
0.026339
11
0.544991
21
0.0254623
0
LINE
8
BLACK
6
CONTINUOUS
10
0.544991
20
0.0254623
11
0.544847
21
0.0245516
0
LINE
8
BLACK
6
CONTINUOUS
10
0.544847
20
0.0245516
11
0.544622
21
0.024327
0
LINE
8
BLACK
6
CONTINUOUS
10
0.544622
20
0.024327
11
0.544524
21
0.0240248
0
LINE
8
BLACK
6
CONTINUOUS
10
0.544524
20
0.0240248
11
0.543778
21
0.0234829
0
LINE
8
BLACK
6
CONTINUOUS
10
0.543778
20
0.0234829
11
0.543307
21
0.0230118
0
LINE
8
BLACK
6
CONTINUOUS
10
0.543307
20
0.0230118
11
0.543307
21
0.0117717
0
LINE
8
BLACK
6
CONTINUOUS
10
0.543307
20
0.0117717
11
0.542563
21
0.00948067
0
LINE
8
BLACK
6
CONTINUOUS
10
0.542563
20
0.00948067
11
0.540614
21
0.00806476
0
LINE
8
BLACK
6
CONTINUOUS
10
0.540614
20
0.00806476
11
0.539409
21
0.00787402
0
LINE
8
BLACK
6
CONTINUOUS
10
0.539409
20
0.00787402
11
0.424198
21
0.00787402
0
LINE
8
BLACK
6
CONTINUOUS
10
0.424198
20
0.00787402
11
0.421907
21
0.00861839
0
LINE
8
BLACK
6
CONTINUOUS
10
0.421907
20
0.00861839
11
0.420492
21
0.0105672
0
LINE
8
BLACK
6
CONTINUOUS
10
0.420492
20
0.0105672
11
0.420361
21
0.0110915
0
LINE
8
BLACK
6
CONTINUOUS
10
0.420361
20
0.0110915
11
0.419393
21
0.0165526
0
LINE
8
BLACK
6
CONTINUOUS
10
0.419393
20
0.0165526
11
0.419393
21
0.0165529
0
LINE
8
BLACK
6
CONTINUOUS
10
0.419393
20
0.0165529
11
0.419367
21
0.0166985
0
LINE
8
BLACK
6
CONTINUOUS
10
0.419367
20
0.0166985
11
0.416093
21
0.0263437
0
LINE
8
BLACK
6
CONTINUOUS
10
0.416093
20
0.0263437
11
0.412884
21
0.0325208
0
LINE
8
BLACK
6
CONTINUOUS
10
0.412884
20
0.0325208
11
0.411466
21
0.0352513
0
LINE
8
BLACK
6
CONTINUOUS
10
0.411466
20
0.0352513
11
0.411466
21
0.0352515
0
LINE
8
BLACK
6
CONTINUOUS
10
0.411466
20
0.0352515
11
0.411397
21
0.0353828
0
LINE
8
BLACK
6
CONTINUOUS
10
0.411397
20
0.0353828
11
0.405389
21
0.0436076
0
LINE
8
BLACK
6
CONTINUOUS
10
0.405389
20
0.0436076
11
0.398205
21
0.0508289
0
LINE
8
BLACK
6
CONTINUOUS
10
0.398205
20
0.0508289
11
0.398086
21
0.0509167
0
LINE
8
BLACK
6
CONTINUOUS
10
0.398086
20
0.0509167
11
0.398086
21
0.0509169
0
LINE
8
BLACK
6
CONTINUOUS
10
0.398086
20
0.0509169
11
0.390131
21
0.0567924
0
LINE
8
BLACK
6
CONTINUOUS
10
0.390131
20
0.0567924
11
0.390012
21
0.0568806
0
LINE
8
BLACK
6
CONTINUOUS
10
0.390012
20
0.0568806
11
0.383434
21
0.0603414
0
LINE
8
BLACK
6
CONTINUOUS
10
0.383434
20
0.0603414
11
0.381128
21
0.0615544
0
LINE
8
BLACK
6
CONTINUOUS
10
0.381128
20
0.0615544
11
0.381128
21
0.0615544
0
LINE
8
BLACK
6
CONTINUOUS
10
0.381128
20
0.0615544
11
0.380997
21
0.0616233
0
LINE
8
BLACK
6
CONTINUOUS
10
0.380997
20
0.0616233
11
0.380079
21
0.0619404
0
LINE
8
BLACK
6
CONTINUOUS
10
0.380079
20
0.0619404
11
0.373903
21
0.0640731
0
LINE
8
BLACK
6
CONTINUOUS
10
0.373903
20
0.0640731
11
0.371369
21
0.0649478
0
LINE
8
BLACK
6
CONTINUOUS
10
0.371369
20
0.0649478
11
0.371224
21
0.0649744
0
LINE
8
BLACK
6
CONTINUOUS
10
0.371224
20
0.0649744
11
0.371224
21
0.0649745
0
LINE
8
BLACK
6
CONTINUOUS
10
0.371224
20
0.0649745
11
0.361472
21
0.0667554
0
LINE
8
BLACK
6
CONTINUOUS
10
0.361472
20
0.0667554
11
0.361472
21
0.0667554
0
LINE
8
BLACK
6
CONTINUOUS
10
0.361472
20
0.0667554
11
0.361349
21
0.0667778
0
LINE
8
BLACK
6
CONTINUOUS
10
0.361349
20
0.0667778
11
0.358087
21
0.0669488
0
LINE
8
BLACK
6
CONTINUOUS
10
0.358087
20
0.0669488
11
0.351743
21
0.0669488
0
LINE
8
BLACK
6
CONTINUOUS
10
0.351743
20
0.0669488
11
0.34871
21
0.0667181
0
LINE
8
BLACK
6
CONTINUOUS
10
0.34871
20
0.0667181
11
0.344322
21
0.0663843
0
LINE
8
BLACK
6
CONTINUOUS
10
0.344322
20
0.0663843
11
0.344322
21
0.0663843
0
LINE
8
BLACK
6
CONTINUOUS
10
0.344322
20
0.0663843
11
0.344174
21
0.0663731
0
LINE
8
BLACK
6
CONTINUOUS
10
0.344174
20
0.0663731
11
0.334251
21
0.0640731
0
LINE
8
BLACK
6
CONTINUOUS
10
0.334251
20
0.0640731
11
0.334114
21
0.0640182
0
LINE
8
BLACK
6
CONTINUOUS
10
0.334114
20
0.0640182
11
0.334114
21
0.0640182
0
LINE
8
BLACK
6
CONTINUOUS
10
0.334114
20
0.0640182
11
0.330946
21
0.0627544
0
LINE
8
BLACK
6
CONTINUOUS
10
0.330946
20
0.0627544
11
0.324791
21
0.0602987
0
LINE
8
BLACK
6
CONTINUOUS
10
0.324791
20
0.0602987
11
0.31601
21
0.0551366
0
LINE
8
BLACK
6
CONTINUOUS
10
0.31601
20
0.0551366
11
0.315895
21
0.0550431
0
LINE
8
BLACK
6
CONTINUOUS
10
0.315895
20
0.0550431
11
0.315895
21
0.055043
0
LINE
8
BLACK
6
CONTINUOUS
10
0.315895
20
0.055043
11
0.311942
21
0.0518251
0
LINE
8
BLACK
6
CONTINUOUS
10
0.311942
20
0.0518251
11
0.308111
21
0.0487057
0
LINE
8
BLACK
6
CONTINUOUS
10
0.308111
20
0.0487057
11
0.308011
21
0.0485961
0
LINE
8
BLACK
6
CONTINUOUS
10
0.308011
20
0.0485961
11
0.308011
21
0.0485961
0
LINE
8
BLACK
6
CONTINUOUS
10
0.308011
20
0.0485961
11
0.301375
21
0.0412638
0
LINE
8
BLACK
6
CONTINUOUS
10
0.301375
20
0.0412638
11
0.301374
21
0.0412637
0
LINE
8
BLACK
6
CONTINUOUS
10
0.301374
20
0.0412637
11
0.301275
21
0.0411541
0
LINE
8
BLACK
6
CONTINUOUS
10
0.301275
20
0.0411541
11
0.295661
21
0.0326553
0
LINE
8
BLACK
6
CONTINUOUS
10
0.295661
20
0.0326553
11
0.291396
21
0.0234051
0
LINE
8
BLACK
6
CONTINUOUS
10
0.291396
20
0.0234051
11
0.28858
21
0.0136163
0
LINE
8
BLACK
6
CONTINUOUS
10
0.28858
20
0.0136163
11
0.288342
21
0.0117717
0
LINE
8
BLACK
6
CONTINUOUS
10
0.288342
20
0.0117717
11
0.288278
21
0.011273
0
LINE
8
BLACK
6
CONTINUOUS
10
0.288278
20
0.011273
11
0.287247
21
0.00909614
0
LINE
8
BLACK
6
CONTINUOUS
10
0.287247
20
0.00909614
11
0.285133
21
0.00794114
0
LINE
8
BLACK
6
CONTINUOUS
10
0.285133
20
0.00794114
11
0.284412
21
0.00787402
0
LINE
8
BLACK
6
CONTINUOUS
10
0.284412
20
0.00787402
11
0.0117717
21
0.00787402
0
LINE
8
BLACK
6
CONTINUOUS
10
0.0117717
20
0.00787402
11
0.00948067
21
0.00861839
0
LINE
8
BLACK
6
CONTINUOUS
10
0.00948067
20
0.00861839
11
0.00806476
21
0.0105672
0
LINE
8
BLACK
6
CONTINUOUS
10
0.00806476
20
0.0105672
11
0.00787402
21
0.0117717
0
LINE
8
BLACK
6
CONTINUOUS
10
0.00787402
20
0.0117717
11
0.00787402
21
0.0187402
0
LINE
8
BLACK
6
CONTINUOUS
10
0.00787402
20
0.0187402
11
0.00861839
21
0.0210311
0
LINE
8
BLACK
6
CONTINUOUS
10
0.00861839
20
0.0210311
11
0.0105672
21
0.022447
0
LINE
8
BLACK
6
CONTINUOUS
10
0.0105672
20
0.022447
11
0.0117717
21
0.0226378
0
LINE
8
BLACK
6
CONTINUOUS
10
0.0117717
20
0.0226378
11
0.100472
21
0.0226378
0
LINE
8
BLACK
6
CONTINUOUS
10
0.100472
20
0.0226378
11
0.100472
21
0.371063
0
LINE
8
BLACK
6
CONTINUOUS
10
0.100472
20
0.371063
11
0.0117717
21
0.371063
0
LINE
8
BLACK
6
CONTINUOUS
10
0.114276
20
0.066699
11
0.114984
21
0.0622261
0
LINE
8
BLACK
6
CONTINUOUS
10
0.114984
20
0.0622261
11
0.115172
21
0.0616499
0
LINE
8
BLACK
6
CONTINUOUS
10
0.115172
20
0.0616499
11
0.117158
21
0.0577514
0
LINE
8
BLACK
6
CONTINUOUS
10
0.117158
20
0.0577514
11
0.117514
21
0.0572615
0
LINE
8
BLACK
6
CONTINUOUS
10
0.117514
20
0.0572615
11
0.120608
21
0.0541675
0
LINE
8
BLACK
6
CONTINUOUS
10
0.120608
20
0.0541675
11
0.121098
21
0.0538115
0
LINE
8
BLACK
6
CONTINUOUS
10
0.121098
20
0.0538115
11
0.124996
21
0.0518251
0
LINE
8
BLACK
6
CONTINUOUS
10
0.124996
20
0.0518251
11
0.125573
21
0.0516379
0
LINE
8
BLACK
6
CONTINUOUS
10
0.125573
20
0.0516379
11
0.130045
21
0.0509295
0
LINE
8
BLACK
6
CONTINUOUS
10
0.130045
20
0.0509295
11
0.13035
21
0.0509055
0
LINE
8
BLACK
6
CONTINUOUS
10
0.13035
20
0.0509055
11
0.151706
21
0.0509055
0
LINE
8
BLACK
6
CONTINUOUS
10
0.151706
20
0.0509055
11
0.152205
21
0.0510678
0
LINE
8
BLACK
6
CONTINUOUS
10
0.152205
20
0.0510678
11
0.152323
21
0.05123
0
LINE
8
BLACK
6
CONTINUOUS
10
0.152323
20
0.05123
11
0.152323
21
0.0668504
0
LINE
8
BLACK
6
CONTINUOUS
10
0.152323
20
0.0668504
11
0.130197
21
0.0668504
0
LINE
8
BLACK
6
CONTINUOUS
10
0.130197
20
0.0668504
11
0.130197
21
0.0889764
0
LINE
8
BLACK
6
CONTINUOUS
10
0.130197
20
0.0889764
11
0.114869
21
0.0889764
0
LINE
8
BLACK
6
CONTINUOUS
10
0.114869
20
0.0889764
11
0.11437
21
0.0888141
0
LINE
8
BLACK
6
CONTINUOUS
10
0.11437
20
0.0888141
11
0.114252
21
0.0886519
0
LINE
8
BLACK
6
CONTINUOUS
10
0.114252
20
0.0886519
11
0.114252
21
0.0670037
0
LINE
8
BLACK
6
CONTINUOUS
10
0.114252
20
0.0670037
11
0.114276
21
0.066699
0
LINE
8
BLACK
6
CONTINUOUS
10
0.240567
20
0.0777003
11
0.241095
21
0.0735161
0
LINE
8
BLACK
6
CONTINUOUS
10
0.241095
20
0.0735161
11
0.241216
21
0.073045
0
LINE
8
BLACK
6
CONTINUOUS
10
0.241216
20
0.073045
11
0.243302
21
0.0677773
0
LINE
8
BLACK
6
CONTINUOUS
10
0.243302
20
0.0677773
11
0.243536
21
0.0673512
0
LINE
8
BLACK
6
CONTINUOUS
10
0.243536
20
0.0673512
11
0.246866
21
0.0627677
0
LINE
8
BLACK
6
CONTINUOUS
10
0.246866
20
0.0627677
11
0.247199
21
0.0624132
0
LINE
8
BLACK
6
CONTINUOUS
10
0.247199
20
0.0624132
11
0.251564
21
0.0588019
0
LINE
8
BLACK
6
CONTINUOUS
10
0.251564
20
0.0588019
11
0.251975
21
0.0585413
0
LINE
8
BLACK
6
CONTINUOUS
10
0.251975
20
0.0585413
11
0.257101
21
0.0561291
0
LINE
8
BLACK
6
CONTINUOUS
10
0.257101
20
0.0561291
11
0.257564
21
0.0559788
0
LINE
8
BLACK
6
CONTINUOUS
10
0.257564
20
0.0559788
11
0.262411
21
0.0550541
0
LINE
8
BLACK
6
CONTINUOUS
10
0.262411
20
0.0550541
11
0.262775
21
0.0550197
0
LINE
8
BLACK
6
CONTINUOUS
10
0.262775
20
0.0550197
11
0.266509
21
0.0550197
0
LINE
8
BLACK
6
CONTINUOUS
10
0.266509
20
0.0550197
11
0.267008
21
0.055182
0
LINE
8
BLACK
6
CONTINUOUS
10
0.267008
20
0.055182
11
0.267126
21
0.0553442
0
LINE
8
BLACK
6
CONTINUOUS
10
0.267126
20
0.0553442
11
0.267126
21
0.0707677
0
LINE
8
BLACK
6
CONTINUOUS
10
0.267126
20
0.0707677
11
0.264911
21
0.0707677
0
LINE
8
BLACK
6
CONTINUOUS
10
0.264911
20
0.0707677
11
0.261616
21
0.0714233
0
LINE
8
BLACK
6
CONTINUOUS
10
0.261616
20
0.0714233
11
0.258822
21
0.0732902
0
LINE
8
BLACK
6
CONTINUOUS
10
0.258822
20
0.0732902
11
0.256955
21
0.0760842
0
LINE
8
BLACK
6
CONTINUOUS
10
0.256955
20
0.0760842
11
0.256299
21
0.0793799
0
LINE
8
BLACK
6
CONTINUOUS
10
0.256299
20
0.0793799
11
0.256299
21
0.0801181
0
LINE
8
BLACK
6
CONTINUOUS
10
0.256299
20
0.0801181
11
0.241169
21
0.0801181
0
LINE
8
BLACK
6
CONTINUOUS
10
0.241169
20
0.0801181
11
0.240669
21
0.0799558
0
LINE
8
BLACK
6
CONTINUOUS
10
0.240669
20
0.0799558
11
0.240551
21
0.0797936
0
LINE
8
BLACK
6
CONTINUOUS
10
0.240551
20
0.0797936
11
0.240551
21
0.0779439
0
LINE
8
BLACK
6
CONTINUOUS
10
0.240551
20
0.0779439
11
0.240567
21
0.0777003
0
LINE
8
BLACK
6
CONTINUOUS
10
0.293701
20
0.0801181
11
0.293701
21
0.0793799
0
LINE
8
BLACK
6
CONTINUOUS
10
0.293701
20
0.0793799
11
0.293045
21
0.0760842
0
LINE
8
BLACK
6
CONTINUOUS
10
0.293045
20
0.0760842
11
0.291178
21
0.0732902
0
LINE
8
BLACK
6
CONTINUOUS
10
0.291178
20
0.0732902
11
0.288384
21
0.0714233
0
LINE
8
BLACK
6
CONTINUOUS
10
0.288384
20
0.0714233
11
0.285089
21
0.0707677
0
LINE
8
BLACK
6
CONTINUOUS
10
0.285089
20
0.0707677
11
0.282874
21
0.0707677
0
LINE
8
BLACK
6
CONTINUOUS
10
0.282874
20
0.0707677
11
0.282874
21
0.055637
0
LINE
8
BLACK
6
CONTINUOUS
10
0.282874
20
0.055637
11
0.283036
21
0.0551376
0
LINE
8
BLACK
6
CONTINUOUS
10
0.283036
20
0.0551376
11
0.283199
21
0.0550197
0
LINE
8
BLACK
6
CONTINUOUS
10
0.283199
20
0.0550197
11
0.286525
21
0.0550197
0
LINE
8
BLACK
6
CONTINUOUS
10
0.286525
20
0.0550197
11
0.286768
21
0.055035
0
LINE
8
BLACK
6
CONTINUOUS
10
0.286768
20
0.055035
11
0.290952
21
0.0555636
0
LINE
8
BLACK
6
CONTINUOUS
10
0.290952
20
0.0555636
11
0.291424
21
0.0556846
0
LINE
8
BLACK
6
CONTINUOUS
10
0.291424
20
0.0556846
11
0.296691
21
0.0577702
0
LINE
8
BLACK
6
CONTINUOUS
10
0.296691
20
0.0577702
11
0.297117
21
0.0580044
0
LINE
8
BLACK
6
CONTINUOUS
10
0.297117
20
0.0580044
11
0.301701
21
0.0613345
0
LINE
8
BLACK
6
CONTINUOUS
10
0.301701
20
0.0613345
11
0.302055
21
0.0616675
0
LINE
8
BLACK
6
CONTINUOUS
10
0.302055
20
0.0616675
11
0.305667
21
0.0660327
0
LINE
8
BLACK
6
CONTINUOUS
10
0.305667
20
0.0660327
11
0.305927
21
0.0664434
0
LINE
8
BLACK
6
CONTINUOUS
10
0.305927
20
0.0664434
11
0.308339
21
0.0715696
0
LINE
8
BLACK
6
CONTINUOUS
10
0.308339
20
0.0715696
11
0.30849
21
0.0720321
0
LINE
8
BLACK
6
CONTINUOUS
10
0.30849
20
0.0720321
11
0.309414
21
0.0768796
0
LINE
8
BLACK
6
CONTINUOUS
10
0.309414
20
0.0768796
11
0.309449
21
0.0772439
0
LINE
8
BLACK
6
CONTINUOUS
10
0.309449
20
0.0772439
11
0.309449
21
0.0795008
0
LINE
8
BLACK
6
CONTINUOUS
10
0.309449
20
0.0795008
11
0.309287
21
0.0800002
0
LINE
8
BLACK
6
CONTINUOUS
10
0.309287
20
0.0800002
11
0.309124
21
0.0801181
0
LINE
8
BLACK
6
CONTINUOUS
10
0.309124
20
0.0801181
11
0.293701
21
0.0801181
0
LINE
8
BLACK
6
CONTINUOUS
10
0.450787
20
0.112126
11
0.450787
21
0.104252
0
LINE
8
BLACK
6
CONTINUOUS
10
0.450787
20
0.104252
11
0.440945
21
0.104252
0
LINE
8
BLACK
6
CONTINUOUS
10
0.440945
20
0.104252
11
0.440945
21
0.0889244
0
LINE
8
BLACK
6
CONTINUOUS
10
0.440945
20
0.0889244
11
0.441107
21
0.088425
0
LINE
8
BLACK
6
CONTINUOUS
10
0.441107
20
0.088425
11
0.441269
21
0.0883071
0
LINE
8
BLACK
6
CONTINUOUS
10
0.441269
20
0.0883071
11
0.442308
21
0.0883071
0
LINE
8
BLACK
6
CONTINUOUS
10
0.442308
20
0.0883071
11
0.444599
21
0.0875627
0
LINE
8
BLACK
6
CONTINUOUS
10
0.444599
20
0.0875627
11
0.446015
21
0.0856139
0
LINE
8
BLACK
6
CONTINUOUS
10
0.446015
20
0.0856139
11
0.446172
21
0.0849183
0
LINE
8
BLACK
6
CONTINUOUS
10
0.446172
20
0.0849183
11
0.446974
21
0.0788301
0
LINE
8
BLACK
6
CONTINUOUS
10
0.446974
20
0.0788301
11
0.449355
21
0.0730807
0
LINE
8
BLACK
6
CONTINUOUS
10
0.449355
20
0.0730807
11
0.453144
21
0.0681436
0
LINE
8
BLACK
6
CONTINUOUS
10
0.453144
20
0.0681436
11
0.458081
21
0.0643552
0
LINE
8
BLACK
6
CONTINUOUS
10
0.458081
20
0.0643552
11
0.458681
21
0.0641066
0
LINE
8
BLACK
6
CONTINUOUS
10
0.458681
20
0.0641066
11
0.463221
21
0.0622261
0
LINE
8
BLACK
6
CONTINUOUS
10
0.463221
20
0.0622261
11
0.46383
21
0.0619737
0
LINE
8
BLACK
6
CONTINUOUS
10
0.46383
20
0.0619737
11
0.47
21
0.0611614
0
LINE
8
BLACK
6
CONTINUOUS
10
0.47
20
0.0611614
11
0.47617
21
0.0619737
0
LINE
8
BLACK
6
CONTINUOUS
10
0.47617
20
0.0619737
11
0.476406
21
0.0620715
0
LINE
8
BLACK
6
CONTINUOUS
10
0.476406
20
0.0620715
11
0.481683
21
0.0642574
0
LINE
8
BLACK
6
CONTINUOUS
10
0.481683
20
0.0642574
11
0.481684
21
0.0642575
0
LINE
8
BLACK
6
CONTINUOUS
10
0.481684
20
0.0642575
11
0.481919
21
0.0643552
0
LINE
8
BLACK
6
CONTINUOUS
10
0.481919
20
0.0643552
11
0.481939
21
0.0643701
0
LINE
8
BLACK
6
CONTINUOUS
10
0.481939
20
0.0643701
11
0.483775
21
0.0648622
0
LINE
8
BLACK
6
CONTINUOUS
10
0.483775
20
0.0648622
11
0.483796
21
0.0648622
0
LINE
8
BLACK
6
CONTINUOUS
10
0.483796
20
0.0648622
11
0.486087
21
0.0641178
0
LINE
8
BLACK
6
CONTINUOUS
10
0.486087
20
0.0641178
11
0.487037
21
0.06313
0
LINE
8
BLACK
6
CONTINUOUS
10
0.487037
20
0.06313
11
0.488374
21
0.0611295
0
LINE
8
BLACK
6
CONTINUOUS
10
0.488374
20
0.0611295
11
0.490998
21
0.0593757
0
LINE
8
BLACK
6
CONTINUOUS
10
0.490998
20
0.0593757
11
0.491375
21
0.0593008
0
LINE
8
BLACK
6
CONTINUOUS
10
0.491375
20
0.0593008
11
0.491375
21
0.0593008
0
LINE
8
BLACK
6
CONTINUOUS
10
0.491375
20
0.0593008
11
0.49237
21
0.0591029
0
LINE
8
BLACK
6
CONTINUOUS
10
0.49237
20
0.0591029
11
0.494094
21
0.0587598
0
LINE
8
BLACK
6
CONTINUOUS
10
0.494094
20
0.0587598
11
0.529528
21
0.0587598
0
LINE
8
BLACK
6
CONTINUOUS
10
0.529528
20
0.0587598
11
0.531252
21
0.0591029
0
LINE
8
BLACK
6
CONTINUOUS
10
0.531252
20
0.0591029
11
0.532247
21
0.0593008
0
LINE
8
BLACK
6
CONTINUOUS
10
0.532247
20
0.0593008
11
0.532247
21
0.0593008
0
LINE
8
BLACK
6
CONTINUOUS
10
0.532247
20
0.0593008
11
0.532624
21
0.0593757
0
LINE
8
BLACK
6
CONTINUOUS
10
0.532624
20
0.0593757
11
0.535248
21
0.0611295
0
LINE
8
BLACK
6
CONTINUOUS
10
0.535248
20
0.0611295
11
0.536169
21
0.0625068
0
LINE
8
BLACK
6
CONTINUOUS
10
0.536169
20
0.0625068
11
0.537402
21
0.063479
0
LINE
8
BLACK
6
CONTINUOUS
10
0.537402
20
0.063479
11
0.537402
21
0.101756
0
LINE
8
BLACK
6
CONTINUOUS
10
0.537402
20
0.101756
11
0.536169
21
0.10269
0
LINE
8
BLACK
6
CONTINUOUS
10
0.536169
20
0.10269
11
0.535462
21
0.103748
0
LINE
8
BLACK
6
CONTINUOUS
10
0.535462
20
0.103748
11
0.535248
21
0.104067
0
LINE
8
BLACK
6
CONTINUOUS
10
0.535248
20
0.104067
11
0.532624
21
0.105821
0
LINE
8
BLACK
6
CONTINUOUS
10
0.532624
20
0.105821
11
0.532247
21
0.105896
0
LINE
8
BLACK
6
CONTINUOUS
10
0.532247
20
0.105896
11
0.532247
21
0.105896
0
LINE
8
BLACK
6
CONTINUOUS
10
0.532247
20
0.105896
11
0.531252
21
0.106094
0
LINE
8
BLACK
6
CONTINUOUS
10
0.531252
20
0.106094
11
0.529528
21
0.106437
0
LINE
8
BLACK
6
CONTINUOUS
10
0.529528
20
0.106437
11
0.494094
21
0.106437
0
LINE
8
BLACK
6
CONTINUOUS
10
0.494094
20
0.106437
11
0.49237
21
0.106094
0
LINE
8
BLACK
6
CONTINUOUS
10
0.49237
20
0.106094
11
0.491375
21
0.105896
0
LINE
8
BLACK
6
CONTINUOUS
10
0.491375
20
0.105896
11
0.491375
21
0.105896
0
LINE
8
BLACK
6
CONTINUOUS
10
0.491375
20
0.105896
11
0.490998
21
0.105821
0
LINE
8
BLACK
6
CONTINUOUS
10
0.490998
20
0.105821
11
0.488374
21
0.104067
0
LINE
8
BLACK
6
CONTINUOUS
10
0.488374
20
0.104067
11
0.488288
21
0.104196
0
LINE
8
BLACK
6
CONTINUOUS
10
0.488288
20
0.104196
11
0.486794
21
0.103435
0
LINE
8
BLACK
6
CONTINUOUS
10
0.486794
20
0.103435
11
0.484415
21
0.103812
0
LINE
8
BLACK
6
CONTINUOUS
10
0.484415
20
0.103812
11
0.483812
21
0.104192
0
LINE
8
BLACK
6
CONTINUOUS
10
0.483812
20
0.104192
11
0.483808
21
0.104196
0
LINE
8
BLACK
6
CONTINUOUS
10
0.483808
20
0.104196
11
0.481919
21
0.105645
0
LINE
8
BLACK
6
CONTINUOUS
10
0.481919
20
0.105645
11
0.47617
21
0.108026
0
LINE
8
BLACK
6
CONTINUOUS
10
0.47617
20
0.108026
11
0.47
21
0.108839
0
LINE
8
BLACK
6
CONTINUOUS
10
0.47
20
0.108839
11
0.470014
21
0.108944
0
LINE
8
BLACK
6
CONTINUOUS
10
0.470014
20
0.108944
11
0.468151
21
0.10955
0
LINE
8
BLACK
6
CONTINUOUS
10
0.468151
20
0.10955
11
0.466736
21
0.111498
0
LINE
8
BLACK
6
CONTINUOUS
10
0.466736
20
0.111498
11
0.46657
21
0.112008
0
LINE
8
BLACK
6
CONTINUOUS
10
0.46657
20
0.112008
11
0.466408
21
0.112126
0
LINE
8
BLACK
6
CONTINUOUS
10
0.466408
20
0.112126
11
0.450787
21
0.112126
0
LINE
8
BLACK
6
CONTINUOUS
10
0.399433
20
0.104101
11
0.400142
21
0.0996277
0
LINE
8
BLACK
6
CONTINUOUS
10
0.400142
20
0.0996277
11
0.400329
21
0.0990515
0
LINE
8
BLACK
6
CONTINUOUS
10
0.400329
20
0.0990515
11
0.402315
21
0.095153
0
LINE
8
BLACK
6
CONTINUOUS
10
0.402315
20
0.095153
11
0.402671
21
0.094663
0
LINE
8
BLACK
6
CONTINUOUS
10
0.402671
20
0.094663
11
0.405765
21
0.0915691
0
LINE
8
BLACK
6
CONTINUOUS
10
0.405765
20
0.0915691
11
0.406255
21
0.0912131
0
LINE
8
BLACK
6
CONTINUOUS
10
0.406255
20
0.0912131
11
0.410154
21
0.0892267
0
LINE
8
BLACK
6
CONTINUOUS
10
0.410154
20
0.0892267
11
0.41073
21
0.0890395
0
LINE
8
BLACK
6
CONTINUOUS
10
0.41073
20
0.0890395
11
0.415203
21
0.0883311
0
LINE
8
BLACK
6
CONTINUOUS
10
0.415203
20
0.0883311
11
0.415508
21
0.0883071
0
LINE
8
BLACK
6
CONTINUOUS
10
0.415508
20
0.0883071
11
0.42458
21
0.0883071
0
LINE
8
BLACK
6
CONTINUOUS
10
0.42458
20
0.0883071
11
0.425079
21
0.0884694
0
LINE
8
BLACK
6
CONTINUOUS
10
0.425079
20
0.0884694
11
0.425197
21
0.0886316
0
LINE
8
BLACK
6
CONTINUOUS
10
0.425197
20
0.0886316
11
0.425197
21
0.104252
0
LINE
8
BLACK
6
CONTINUOUS
10
0.425197
20
0.104252
11
0.415354
21
0.104252
0
LINE
8
BLACK
6
CONTINUOUS
10
0.415354
20
0.104252
11
0.415354
21
0.112126
0
LINE
8
BLACK
6
CONTINUOUS
10
0.415354
20
0.112126
11
0.400027
21
0.112126
0
LINE
8
BLACK
6
CONTINUOUS
10
0.400027
20
0.112126
11
0.399527
21
0.111964
0
LINE
8
BLACK
6
CONTINUOUS
10
0.399527
20
0.111964
11
0.399409
21
0.111801
0
LINE
8
BLACK
6
CONTINUOUS
10
0.399409
20
0.111801
11
0.399409
21
0.104405
0
LINE
8
BLACK
6
CONTINUOUS
10
0.399409
20
0.104405
11
0.399433
21
0.104101
0
LINE
8
BLACK
6
CONTINUOUS
10
0.513976
20
0.324724
11
0.513976
21
0.309961
0
LINE
8
BLACK
6
CONTINUOUS
10
0.513976
20
0.309961
11
0.529304
21
0.309961
0
LINE
8
BLACK
6
CONTINUOUS
10
0.529304
20
0.309961
11
0.529803
21
0.310123
0
LINE
8
BLACK
6
CONTINUOUS
10
0.529803
20
0.310123
11
0.529921
21
0.310285
0
LINE
8
BLACK
6
CONTINUOUS
10
0.529921
20
0.310285
11
0.529921
21
0.324571
0
LINE
8
BLACK
6
CONTINUOUS
10
0.529921
20
0.324571
11
0.529897
21
0.324876
0
LINE
8
BLACK
6
CONTINUOUS
10
0.529897
20
0.324876
11
0.529189
21
0.329349
0
LINE
8
BLACK
6
CONTINUOUS
10
0.529189
20
0.329349
11
0.529002
21
0.329925
0
LINE
8
BLACK
6
CONTINUOUS
10
0.529002
20
0.329925
11
0.527015
21
0.333823
0
LINE
8
BLACK
6
CONTINUOUS
10
0.527015
20
0.333823
11
0.526659
21
0.334313
0
LINE
8
BLACK
6
CONTINUOUS
10
0.526659
20
0.334313
11
0.523565
21
0.337407
0
LINE
8
BLACK
6
CONTINUOUS
10
0.523565
20
0.337407
11
0.523075
21
0.337763
0
LINE
8
BLACK
6
CONTINUOUS
10
0.523075
20
0.337763
11
0.519177
21
0.33975
0
LINE
8
BLACK
6
CONTINUOUS
10
0.519177
20
0.33975
11
0.518601
21
0.339937
0
LINE
8
BLACK
6
CONTINUOUS
10
0.518601
20
0.339937
11
0.514128
21
0.340645
0
LINE
8
BLACK
6
CONTINUOUS
10
0.514128
20
0.340645
11
0.513823
21
0.340669
0
LINE
8
BLACK
6
CONTINUOUS
10
0.513823
20
0.340669
11
0.505735
21
0.340669
0
LINE
8
BLACK
6
CONTINUOUS
10
0.505735
20
0.340669
11
0.505236
21
0.340507
0
LINE
8
BLACK
6
CONTINUOUS
10
0.505236
20
0.340507
11
0.505118
21
0.340345
0
LINE
8
BLACK
6
CONTINUOUS
10
0.505118
20
0.340345
11
0.505118
21
0.324724
0
LINE
8
BLACK
6
CONTINUOUS
10
0.505118
20
0.324724
11
0.513976
21
0.324724
0
LINE
8
BLACK
6
CONTINUOUS
10
0.205979
20
0.0888585
11
0.205817
21
0.0889764
0
LINE
8
BLACK
6
CONTINUOUS
10
0.205817
20
0.0889764
11
0.190197
21
0.0889764
0
LINE
8
BLACK
6
CONTINUOUS
10
0.190197
20
0.0889764
11
0.190197
21
0.0668504
0
LINE
8
BLACK
6
CONTINUOUS
10
0.190197
20
0.0668504
11
0.168071
21
0.0668504
0
LINE
8
BLACK
6
CONTINUOUS
10
0.168071
20
0.0668504
11
0.168071
21
0.0515228
0
LINE
8
BLACK
6
CONTINUOUS
10
0.168071
20
0.0515228
11
0.168233
21
0.0510234
0
LINE
8
BLACK
6
CONTINUOUS
10
0.168233
20
0.0510234
11
0.168395
21
0.0509055
0
LINE
8
BLACK
6
CONTINUOUS
10
0.168395
20
0.0509055
11
0.190044
21
0.0509055
0
LINE
8
BLACK
6
CONTINUOUS
10
0.190044
20
0.0509055
11
0.190348
21
0.0509295
0
LINE
8
BLACK
6
CONTINUOUS
10
0.190348
20
0.0509295
11
0.194821
21
0.0516379
0
LINE
8
BLACK
6
CONTINUOUS
10
0.194821
20
0.0516379
11
0.195397
21
0.0518251
0
LINE
8
BLACK
6
CONTINUOUS
10
0.195397
20
0.0518251
11
0.199296
21
0.0538115
0
LINE
8
BLACK
6
CONTINUOUS
10
0.199296
20
0.0538115
11
0.199786
21
0.0541675
0
LINE
8
BLACK
6
CONTINUOUS
10
0.199786
20
0.0541675
11
0.20288
21
0.0572615
0
LINE
8
BLACK
6
CONTINUOUS
10
0.20288
20
0.0572615
11
0.203236
21
0.0577514
0
LINE
8
BLACK
6
CONTINUOUS
10
0.203236
20
0.0577514
11
0.205222
21
0.0616499
0
LINE
8
BLACK
6
CONTINUOUS
10
0.205222
20
0.0616499
11
0.205409
21
0.0622261
0
LINE
8
BLACK
6
CONTINUOUS
10
0.205409
20
0.0622261
11
0.206118
21
0.066699
0
LINE
8
BLACK
6
CONTINUOUS
10
0.206118
20
0.066699
11
0.206142
21
0.0670037
0
LINE
8
BLACK
6
CONTINUOUS
10
0.206142
20
0.0670037
11
0.206142
21
0.0883591
0
LINE
8
BLACK
6
CONTINUOUS
10
0.206142
20
0.0883591
11
0.205979
21
0.0888585
0
LINE
8
BLACK
6
CONTINUOUS
10
0.190197
20
0.12685
11
0.190197
21
0.104724
0
LINE
8
BLACK
6
CONTINUOUS
10
0.190197
20
0.104724
11
0.205524
21
0.104724
0
LINE
8
BLACK
6
CONTINUOUS
10
0.205524
20
0.104724
11
0.206024
21
0.104887
0
LINE
8
BLACK
6
CONTINUOUS
10
0.206024
20
0.104887
11
0.206142
21
0.105049
0
LINE
8
BLACK
6
CONTINUOUS
10
0.206142
20
0.105049
11
0.206142
21
0.126697
0
LINE
8
BLACK
6
CONTINUOUS
10
0.206142
20
0.126697
11
0.206118
21
0.127002
0
LINE
8
BLACK
6
CONTINUOUS
10
0.206118
20
0.127002
11
0.205409
21
0.131475
0
LINE
8
BLACK
6
CONTINUOUS
10
0.205409
20
0.131475
11
0.205222
21
0.132051
0
LINE
8
BLACK
6
CONTINUOUS
10
0.205222
20
0.132051
11
0.203236
21
0.135949
0
LINE
8
BLACK
6
CONTINUOUS
10
0.203236
20
0.135949
11
0.20288
21
0.136439
0
LINE
8
BLACK
6
CONTINUOUS
10
0.20288
20
0.136439
11
0.199786
21
0.139533
0
LINE
8
BLACK
6
CONTINUOUS
10
0.199786
20
0.139533
11
0.199296
21
0.139889
0
LINE
8
BLACK
6
CONTINUOUS
10
0.199296
20
0.139889
11
0.195397
21
0.141876
0
LINE
8
BLACK
6
CONTINUOUS
10
0.195397
20
0.141876
11
0.194821
21
0.142063
0
LINE
8
BLACK
6
CONTINUOUS
10
0.194821
20
0.142063
11
0.190348
21
0.142771
0
LINE
8
BLACK
6
CONTINUOUS
10
0.190348
20
0.142771
11
0.190044
21
0.142795
0
LINE
8
BLACK
6
CONTINUOUS
10
0.190044
20
0.142795
11
0.168688
21
0.142795
0
LINE
8
BLACK
6
CONTINUOUS
10
0.168688
20
0.142795
11
0.168189
21
0.142633
0
LINE
8
BLACK
6
CONTINUOUS
10
0.168189
20
0.142633
11
0.168071
21
0.142471
0
LINE
8
BLACK
6
CONTINUOUS
10
0.168071
20
0.142471
11
0.168071
21
0.12685
0
LINE
8
BLACK
6
CONTINUOUS
10
0.168071
20
0.12685
11
0.190197
21
0.12685
0
LINE
8
BLACK
6
CONTINUOUS
10
0.114414
20
0.104842
11
0.114576
21
0.104724
0
LINE
8
BLACK
6
CONTINUOUS
10
0.114576
20
0.104724
11
0.130197
21
0.104724
0
LINE
8
BLACK
6
CONTINUOUS
10
0.130197
20
0.104724
11
0.130197
21
0.12685
0
LINE
8
BLACK
6
CONTINUOUS
10
0.130197
20
0.12685
11
0.152323
21
0.12685
0
LINE
8
BLACK
6
CONTINUOUS
10
0.152323
20
0.12685
11
0.152323
21
0.142178
0
LINE
8
BLACK
6
CONTINUOUS
10
0.152323
20
0.142178
11
0.152228
21
0.142471
0
LINE
8
BLACK
6
CONTINUOUS
10
0.152228
20
0.142471
11
0.152161
21
0.142677
0
LINE
8
BLACK
6
CONTINUOUS
10
0.152161
20
0.142677
11
0.151998
21
0.142795
0
LINE
8
BLACK
6
CONTINUOUS
10
0.151998
20
0.142795
11
0.13035
21
0.142795
0
LINE
8
BLACK
6
CONTINUOUS
10
0.13035
20
0.142795
11
0.130045
21
0.142771
0
LINE
8
BLACK
6
CONTINUOUS
10
0.130045
20
0.142771
11
0.125573
21
0.142063
0
LINE
8
BLACK
6
CONTINUOUS
10
0.125573
20
0.142063
11
0.124996
21
0.141876
0
LINE
8
BLACK
6
CONTINUOUS
10
0.124996
20
0.141876
11
0.121098
21
0.139889
0
LINE
8
BLACK
6
CONTINUOUS
10
0.121098
20
0.139889
11
0.120608
21
0.139533
0
LINE
8
BLACK
6
CONTINUOUS
10
0.120608
20
0.139533
11
0.117514
21
0.136439
0
LINE
8
BLACK
6
CONTINUOUS
10
0.117514
20
0.136439
11
0.117158
21
0.135949
0
LINE
8
BLACK
6
CONTINUOUS
10
0.117158
20
0.135949
11
0.115172
21
0.132051
0
LINE
8
BLACK
6
CONTINUOUS
10
0.115172
20
0.132051
11
0.114984
21
0.131475
0
LINE
8
BLACK
6
CONTINUOUS
10
0.114984
20
0.131475
11
0.114276
21
0.127002
0
LINE
8
BLACK
6
CONTINUOUS
10
0.114276
20
0.127002
11
0.114252
21
0.126697
0
LINE
8
BLACK
6
CONTINUOUS
10
0.114252
20
0.126697
11
0.114252
21
0.105342
0
LINE
8
BLACK
6
CONTINUOUS
10
0.114252
20
0.105342
11
0.114414
21
0.104842
0
LINE
8
BLACK
6
CONTINUOUS
10
0.302801
20
0.113571
11
0.298436
21
0.117182
0
LINE
8
BLACK
6
CONTINUOUS
10
0.298436
20
0.117182
11
0.298025
21
0.117443
0
LINE
8
BLACK
6
CONTINUOUS
10
0.298025
20
0.117443
11
0.292959
21
0.119827
0
LINE
8
BLACK
6
CONTINUOUS
10
0.292959
20
0.119827
11
0.291203
21
0.121476
0
LINE
8
BLACK
6
CONTINUOUS
10
0.291203
20
0.121476
11
0.290751
21
0.123842
0
LINE
8
BLACK
6
CONTINUOUS
10
0.290751
20
0.123842
11
0.291777
21
0.126022
0
LINE
8
BLACK
6
CONTINUOUS
10
0.291777
20
0.126022
11
0.292849
21
0.126827
0
LINE
8
BLACK
6
CONTINUOUS
10
0.292849
20
0.126827
11
0.293887
21
0.127356
0
LINE
8
BLACK
6
CONTINUOUS
10
0.293887
20
0.127356
11
0.294633
21
0.127736
0
LINE
8
BLACK
6
CONTINUOUS
10
0.294633
20
0.127736
11
0.294633
21
0.127736
0
LINE
8
BLACK
6
CONTINUOUS
10
0.294633
20
0.127736
11
0.294906
21
0.127875
0
LINE
8
BLACK
6
CONTINUOUS
10
0.294906
20
0.127875
11
0.298601
21
0.13157
0
LINE
8
BLACK
6
CONTINUOUS
10
0.298601
20
0.13157
11
0.298846
21
0.132051
0
LINE
8
BLACK
6
CONTINUOUS
10
0.298846
20
0.132051
11
0.300835
21
0.135953
0
LINE
8
BLACK
6
CONTINUOUS
10
0.300835
20
0.135953
11
0.300835
21
0.135953
0
LINE
8
BLACK
6
CONTINUOUS
10
0.300835
20
0.135953
11
0.300974
21
0.136226
0
LINE
8
BLACK
6
CONTINUOUS
10
0.300974
20
0.136226
11
0.301594
21
0.140145
0
LINE
8
BLACK
6
CONTINUOUS
10
0.301594
20
0.140145
11
0.301594
21
0.159855
0
LINE
8
BLACK
6
CONTINUOUS
10
0.301594
20
0.159855
11
0.301571
21
0.160006
0
LINE
8
BLACK
6
CONTINUOUS
10
0.301571
20
0.160006
11
0.301022
21
0.163471
0
LINE
8
BLACK
6
CONTINUOUS
10
0.301022
20
0.163471
11
0.301022
21
0.163471
0
LINE
8
BLACK
6
CONTINUOUS
10
0.301022
20
0.163471
11
0.300974
21
0.163774
0
LINE
8
BLACK
6
CONTINUOUS
10
0.300974
20
0.163774
11
0.299502
21
0.166663
0
LINE
8
BLACK
6
CONTINUOUS
10
0.299502
20
0.166663
11
0.298741
21
0.168157
0
LINE
8
BLACK
6
CONTINUOUS
10
0.298741
20
0.168157
11
0.298741
21
0.168157
0
LINE
8
BLACK
6
CONTINUOUS
10
0.298741
20
0.168157
11
0.298601
21
0.16843
0
LINE
8
BLACK
6
CONTINUOUS
10
0.298601
20
0.16843
11
0.294906
21
0.172125
0
LINE
8
BLACK
6
CONTINUOUS
10
0.294906
20
0.172125
11
0.294633
21
0.172264
0
LINE
8
BLACK
6
CONTINUOUS
10
0.294633
20
0.172264
11
0.294385
21
0.172445
0
LINE
8
BLACK
6
CONTINUOUS
10
0.294385
20
0.172445
11
0.294461
21
0.172549
0
LINE
8
BLACK
6
CONTINUOUS
10
0.294461
20
0.172549
11
0.293161
21
0.173851
0
LINE
8
BLACK
6
CONTINUOUS
10
0.293161
20
0.173851
11
0.292736
21
0.175619
0
LINE
8
BLACK
6
CONTINUOUS
10
0.292736
20
0.175619
11
0.292736
21
0.203012
0
LINE
8
BLACK
6
CONTINUOUS
10
0.292736
20
0.203012
11
0.293481
21
0.205303
0
LINE
8
BLACK
6
CONTINUOUS
10
0.293481
20
0.205303
11
0.295429
21
0.206719
0
LINE
8
BLACK
6
CONTINUOUS
10
0.295429
20
0.206719
11
0.296634
21
0.206909
0
LINE
8
BLACK
6
CONTINUOUS
10
0.296634
20
0.206909
11
0.2975
21
0.206909
0
LINE
8
BLACK
6
CONTINUOUS
10
0.2975
20
0.206909
11
0.299224
21
0.207252
0
LINE
8
BLACK
6
CONTINUOUS
10
0.299224
20
0.207252
11
0.30022
21
0.20745
0
LINE
8
BLACK
6
CONTINUOUS
10
0.30022
20
0.20745
11
0.30022
21
0.20745
0
LINE
8
BLACK
6
CONTINUOUS
10
0.30022
20
0.20745
11
0.300596
21
0.207525
0
LINE
8
BLACK
6
CONTINUOUS
10
0.300596
20
0.207525
11
0.303221
21
0.209279
0
LINE
8
BLACK
6
CONTINUOUS
10
0.303221
20
0.209279
11
0.304058
21
0.210532
0
LINE
8
BLACK
6
CONTINUOUS
10
0.304058
20
0.210532
11
0.305949
21
0.212023
0
LINE
8
BLACK
6
CONTINUOUS
10
0.305949
20
0.212023
11
0.307298
21
0.212264
0
LINE
8
BLACK
6
CONTINUOUS
10
0.307298
20
0.212264
11
0.324091
21
0.212264
0
LINE
8
BLACK
6
CONTINUOUS
10
0.324091
20
0.212264
11
0.326381
21
0.211519
0
LINE
8
BLACK
6
CONTINUOUS
10
0.326381
20
0.211519
11
0.326847
21
0.211122
0
LINE
8
BLACK
6
CONTINUOUS
10
0.326847
20
0.211122
11
0.330094
21
0.207875
0
LINE
8
BLACK
6
CONTINUOUS
10
0.330094
20
0.207875
11
0.330367
21
0.207736
0
LINE
8
BLACK
6
CONTINUOUS
10
0.330367
20
0.207736
11
0.330367
21
0.207736
0
LINE
8
BLACK
6
CONTINUOUS
10
0.330367
20
0.207736
11
0.332649
21
0.206573
0
LINE
8
BLACK
6
CONTINUOUS
10
0.332649
20
0.206573
11
0.33475
21
0.205503
0
LINE
8
BLACK
6
CONTINUOUS
10
0.33475
20
0.205503
11
0.335053
21
0.205455
0
LINE
8
BLACK
6
CONTINUOUS
10
0.335053
20
0.205455
11
0.335053
21
0.205455
0
LINE
8
BLACK
6
CONTINUOUS
10
0.335053
20
0.205455
11
0.338517
21
0.204906
0
LINE
8
BLACK
6
CONTINUOUS
10
0.338517
20
0.204906
11
0.338517
21
0.204906
0
LINE
8
BLACK
6
CONTINUOUS
10
0.338517
20
0.204906
11
0.338669
21
0.204882
0
LINE
8
BLACK
6
CONTINUOUS
10
0.338669
20
0.204882
11
0.352397
21
0.204882
0
LINE
8
BLACK
6
CONTINUOUS
10
0.352397
20
0.204882
11
0.354688
21
0.204138
0
LINE
8
BLACK
6
CONTINUOUS
10
0.354688
20
0.204138
11
0.356104
21
0.202189
0
LINE
8
BLACK
6
CONTINUOUS
10
0.356104
20
0.202189
11
0.356104
21
0.19978
0
LINE
8
BLACK
6
CONTINUOUS
10
0.356104
20
0.19978
11
0.355153
21
0.198228
0
LINE
8
BLACK
6
CONTINUOUS
10
0.355153
20
0.198228
11
0.351177
21
0.194252
0
LINE
8
BLACK
6
CONTINUOUS
10
0.351177
20
0.194252
11
0.349031
21
0.193158
0
LINE
8
BLACK
6
CONTINUOUS
10
0.349031
20
0.193158
11
0.348421
21
0.19311
0
LINE
8
BLACK
6
CONTINUOUS
10
0.348421
20
0.19311
11
0.338669
21
0.19311
0
LINE
8
BLACK
6
CONTINUOUS
10
0.338669
20
0.19311
11
0.338517
21
0.193086
0
LINE
8
BLACK
6
CONTINUOUS
10
0.338517
20
0.193086
11
0.338517
21
0.193086
0
LINE
8
BLACK
6
CONTINUOUS
10
0.338517
20
0.193086
11
0.335053
21
0.192538
0
LINE
8
BLACK
6
CONTINUOUS
10
0.335053
20
0.192538
11
0.335053
21
0.192538
0
LINE
8
BLACK
6
CONTINUOUS
10
0.335053
20
0.192538
11
0.33475
21
0.19249
0
LINE
8
BLACK
6
CONTINUOUS
10
0.33475
20
0.19249
11
0.334477
21
0.19235
0
LINE
8
BLACK
6
CONTINUOUS
10
0.334477
20
0.19235
11
0.334477
21
0.19235
0
LINE
8
BLACK
6
CONTINUOUS
10
0.334477
20
0.19235
11
0.330367
21
0.190256
0
LINE
8
BLACK
6
CONTINUOUS
10
0.330367
20
0.190256
11
0.330367
21
0.190256
0
LINE
8
BLACK
6
CONTINUOUS
10
0.330367
20
0.190256
11
0.330094
21
0.190117
0
LINE
8
BLACK
6
CONTINUOUS
10
0.330094
20
0.190117
11
0.326399
21
0.186422
0
LINE
8
BLACK
6
CONTINUOUS
10
0.326399
20
0.186422
11
0.326259
21
0.186149
0
LINE
8
BLACK
6
CONTINUOUS
10
0.326259
20
0.186149
11
0.326259
21
0.186149
0
LINE
8
BLACK
6
CONTINUOUS
10
0.326259
20
0.186149
11
0.324165
21
0.182039
0
LINE
8
BLACK
6
CONTINUOUS
10
0.324165
20
0.182039
11
0.324026
21
0.181766
0
LINE
8
BLACK
6
CONTINUOUS
10
0.324026
20
0.181766
11
0.323978
21
0.181463
0
LINE
8
BLACK
6
CONTINUOUS
10
0.323978
20
0.181463
11
0.323978
21
0.181463
0
LINE
8
BLACK
6
CONTINUOUS
10
0.323978
20
0.181463
11
0.323517
21
0.178551
0
LINE
8
BLACK
6
CONTINUOUS
10
0.323517
20
0.178551
11
0.323406
21
0.177847
0
LINE
8
BLACK
6
CONTINUOUS
10
0.323406
20
0.177847
11
0.323406
21
0.158137
0
LINE
8
BLACK
6
CONTINUOUS
10
0.323406
20
0.158137
11
0.324026
21
0.154219
0
LINE
8
BLACK
6
CONTINUOUS
10
0.324026
20
0.154219
11
0.324165
21
0.153945
0
LINE
8
BLACK
6
CONTINUOUS
10
0.324165
20
0.153945
11
0.324165
21
0.153945
0
LINE
8
BLACK
6
CONTINUOUS
10
0.324165
20
0.153945
11
0.326236
21
0.149882
0
LINE
8
BLACK
6
CONTINUOUS
10
0.326236
20
0.149882
11
0.326399
21
0.149562
0
LINE
8
BLACK
6
CONTINUOUS
10
0.326399
20
0.149562
11
0.330094
21
0.145867
0
LINE
8
BLACK
6
CONTINUOUS
10
0.330094
20
0.145867
11
0.330367
21
0.145728
0
LINE
8
BLACK
6
CONTINUOUS
10
0.330367
20
0.145728
11
0.330367
21
0.145728
0
LINE
8
BLACK
6
CONTINUOUS
10
0.330367
20
0.145728
11
0.334477
21
0.143634
0
LINE
8
BLACK
6
CONTINUOUS
10
0.334477
20
0.143634
11
0.33475
21
0.143495
0
LINE
8
BLACK
6
CONTINUOUS
10
0.33475
20
0.143495
11
0.335053
21
0.143447
0
LINE
8
BLACK
6
CONTINUOUS
10
0.335053
20
0.143447
11
0.335053
21
0.143447
0
LINE
8
BLACK
6
CONTINUOUS
10
0.335053
20
0.143447
11
0.338517
21
0.142898
0
LINE
8
BLACK
6
CONTINUOUS
10
0.338517
20
0.142898
11
0.338517
21
0.142898
0
LINE
8
BLACK
6
CONTINUOUS
10
0.338517
20
0.142898
11
0.338669
21
0.142874
0
LINE
8
BLACK
6
CONTINUOUS
10
0.338669
20
0.142874
11
0.361331
21
0.142874
0
LINE
8
BLACK
6
CONTINUOUS
10
0.361331
20
0.142874
11
0.361483
21
0.142898
0
LINE
8
BLACK
6
CONTINUOUS
10
0.361483
20
0.142898
11
0.361483
21
0.142898
0
LINE
8
BLACK
6
CONTINUOUS
10
0.361483
20
0.142898
11
0.364947
21
0.143447
0
LINE
8
BLACK
6
CONTINUOUS
10
0.364947
20
0.143447
11
0.364947
21
0.143447
0
LINE
8
BLACK
6
CONTINUOUS
10
0.364947
20
0.143447
11
0.36525
21
0.143495
0
LINE
8
BLACK
6
CONTINUOUS
10
0.36525
20
0.143495
11
0.365523
21
0.143634
0
LINE
8
BLACK
6
CONTINUOUS
10
0.365523
20
0.143634
11
0.369633
21
0.145728
0
LINE
8
BLACK
6
CONTINUOUS
10
0.369633
20
0.145728
11
0.369633
21
0.145728
0
LINE
8
BLACK
6
CONTINUOUS
10
0.369633
20
0.145728
11
0.369906
21
0.145867
0
LINE
8
BLACK
6
CONTINUOUS
10
0.369906
20
0.145867
11
0.373601
21
0.149562
0
LINE
8
BLACK
6
CONTINUOUS
10
0.373601
20
0.149562
11
0.373764
21
0.149882
0
LINE
8
BLACK
6
CONTINUOUS
10
0.373764
20
0.149882
11
0.37409
21
0.150521
0
LINE
8
BLACK
6
CONTINUOUS
10
0.37409
20
0.150521
11
0.37464
21
0.151602
0
LINE
8
BLACK
6
CONTINUOUS
10
0.37464
20
0.151602
11
0.376344
21
0.153305
0
LINE
8
BLACK
6
CONTINUOUS
10
0.376344
20
0.153305
11
0.378723
21
0.153682
0
LINE
8
BLACK
6
CONTINUOUS
10
0.378723
20
0.153682
11
0.380869
21
0.152588
0
LINE
8
BLACK
6
CONTINUOUS
10
0.380869
20
0.152588
11
0.381205
21
0.152205
0
LINE
8
BLACK
6
CONTINUOUS
10
0.381205
20
0.152205
11
0.383144
21
0.149679
0
LINE
8
BLACK
6
CONTINUOUS
10
0.383144
20
0.149679
11
0.388081
21
0.145891
0
LINE
8
BLACK
6
CONTINUOUS
10
0.388081
20
0.145891
11
0.39383
21
0.143509
0
LINE
8
BLACK
6
CONTINUOUS
10
0.39383
20
0.143509
11
0.395994
21
0.143224
0
LINE
8
BLACK
6
CONTINUOUS
10
0.395994
20
0.143224
11
0.396533
21
0.143153
0
LINE
8
BLACK
6
CONTINUOUS
10
0.396533
20
0.143153
11
0.398707
21
0.142116
0
LINE
8
BLACK
6
CONTINUOUS
10
0.398707
20
0.142116
11
0.399856
21
0.139999
0
LINE
8
BLACK
6
CONTINUOUS
10
0.399856
20
0.139999
11
0.399874
21
0.138679
0
LINE
8
BLACK
6
CONTINUOUS
10
0.399874
20
0.138679
11
0.399433
21
0.135899
0
LINE
8
BLACK
6
CONTINUOUS
10
0.399433
20
0.135899
11
0.399409
21
0.135595
0
LINE
8
BLACK
6
CONTINUOUS
10
0.399409
20
0.135595
11
0.399409
21
0.128491
0
LINE
8
BLACK
6
CONTINUOUS
10
0.399409
20
0.128491
11
0.399572
21
0.127992
0
LINE
8
BLACK
6
CONTINUOUS
10
0.399572
20
0.127992
11
0.399734
21
0.127874
0
LINE
8
BLACK
6
CONTINUOUS
10
0.399734
20
0.127874
11
0.415354
21
0.127874
0
LINE
8
BLACK
6
CONTINUOUS
10
0.415354
20
0.127874
11
0.415354
21
0.135748
0
LINE
8
BLACK
6
CONTINUOUS
10
0.415354
20
0.135748
11
0.450787
21
0.135748
0
LINE
8
BLACK
6
CONTINUOUS
10
0.450787
20
0.135748
11
0.450787
21
0.127874
0
LINE
8
BLACK
6
CONTINUOUS
10
0.450787
20
0.127874
11
0.466115
21
0.127874
0
LINE
8
BLACK
6
CONTINUOUS
10
0.466115
20
0.127874
11
0.466614
21
0.128036
0
LINE
8
BLACK
6
CONTINUOUS
10
0.466614
20
0.128036
11
0.466732
21
0.128199
0
LINE
8
BLACK
6
CONTINUOUS
10
0.466732
20
0.128199
11
0.466732
21
0.135748
0
LINE
8
BLACK
6
CONTINUOUS
10
0.466732
20
0.135748
11
0.466811
21
0.135748
0
LINE
8
BLACK
6
CONTINUOUS
10
0.466811
20
0.135748
11
0.467307
21
0.137807
0
LINE
8
BLACK
6
CONTINUOUS
10
0.467307
20
0.137807
11
0.469139
21
0.13937
0
LINE
8
BLACK
6
CONTINUOUS
10
0.469139
20
0.13937
11
0.470628
21
0.139665
0
LINE
8
BLACK
6
CONTINUOUS
10
0.470628
20
0.139665
11
0.483796
21
0.139665
0
LINE
8
BLACK
6
CONTINUOUS
10
0.483796
20
0.139665
11
0.486087
21
0.138921
0
LINE
8
BLACK
6
CONTINUOUS
10
0.486087
20
0.138921
11
0.487037
21
0.137933
0
LINE
8
BLACK
6
CONTINUOUS
10
0.487037
20
0.137933
11
0.488374
21
0.135933
0
LINE
8
BLACK
6
CONTINUOUS
10
0.488374
20
0.135933
11
0.490998
21
0.134179
0
LINE
8
BLACK
6
CONTINUOUS
10
0.490998
20
0.134179
11
0.491375
21
0.134104
0
LINE
8
BLACK
6
CONTINUOUS
10
0.491375
20
0.134104
11
0.491375
21
0.134104
0
LINE
8
BLACK
6
CONTINUOUS
10
0.491375
20
0.134104
11
0.49237
21
0.133906
0
LINE
8
BLACK
6
CONTINUOUS
10
0.49237
20
0.133906
11
0.494094
21
0.133563
0
LINE
8
BLACK
6
CONTINUOUS
10
0.494094
20
0.133563
11
0.529528
21
0.133563
0
LINE
8
BLACK
6
CONTINUOUS
10
0.529528
20
0.133563
11
0.531252
21
0.133906
0
LINE
8
BLACK
6
CONTINUOUS
10
0.531252
20
0.133906
11
0.532247
21
0.134104
0
LINE
8
BLACK
6
CONTINUOUS
10
0.532247
20
0.134104
11
0.532247
21
0.134104
0
LINE
8
BLACK
6
CONTINUOUS
10
0.532247
20
0.134104
11
0.532624
21
0.134179
0
LINE
8
BLACK
6
CONTINUOUS
10
0.532624
20
0.134179
11
0.535248
21
0.135933
0
LINE
8
BLACK
6
CONTINUOUS
10
0.535248
20
0.135933
11
0.536169
21
0.13731
0
LINE
8
BLACK
6
CONTINUOUS
10
0.536169
20
0.13731
11
0.537402
21
0.138282
0
LINE
8
BLACK
6
CONTINUOUS
10
0.537402
20
0.138282
11
0.537402
21
0.17656
0
LINE
8
BLACK
6
CONTINUOUS
10
0.537402
20
0.17656
11
0.536169
21
0.177493
0
LINE
8
BLACK
6
CONTINUOUS
10
0.536169
20
0.177493
11
0.535462
21
0.178551
0
LINE
8
BLACK
6
CONTINUOUS
10
0.535462
20
0.178551
11
0.535248
21
0.17887
0
LINE
8
BLACK
6
CONTINUOUS
10
0.535248
20
0.17887
11
0.532624
21
0.180624
0
LINE
8
BLACK
6
CONTINUOUS
10
0.532624
20
0.180624
11
0.532247
21
0.180699
0
LINE
8
BLACK
6
CONTINUOUS
10
0.532247
20
0.180699
11
0.532247
21
0.180699
0
LINE
8
BLACK
6
CONTINUOUS
10
0.532247
20
0.180699
11
0.531252
21
0.180897
0
LINE
8
BLACK
6
CONTINUOUS
10
0.531252
20
0.180897
11
0.529528
21
0.18124
0
LINE
8
BLACK
6
CONTINUOUS
10
0.529528
20
0.18124
11
0.500789
21
0.18124
0
LINE
8
BLACK
6
CONTINUOUS
10
0.500789
20
0.18124
11
0.498498
21
0.181985
0
LINE
8
BLACK
6
CONTINUOUS
10
0.498498
20
0.181985
11
0.497082
21
0.183933
0
LINE
8
BLACK
6
CONTINUOUS
10
0.497082
20
0.183933
11
0.497082
21
0.186342
0
LINE
8
BLACK
6
CONTINUOUS
10
0.497082
20
0.186342
11
0.498143
21
0.188
0
LINE
8
BLACK
6
CONTINUOUS
10
0.498143
20
0.188
11
0.498996
21
0.188787
0
LINE
8
BLACK
6
CONTINUOUS
10
0.498996
20
0.188787
11
0.49913
21
0.189019
0
LINE
8
BLACK
6
CONTINUOUS
10
0.49913
20
0.189019
11
0.499372
21
0.18929
0
LINE
8
BLACK
6
CONTINUOUS
10
0.499372
20
0.18929
11
0.508898
21
0.198816
0
LINE
8
BLACK
6
CONTINUOUS
10
0.508898
20
0.198816
11
0.509241
21
0.19912
0
LINE
8
BLACK
6
CONTINUOUS
10
0.509241
20
0.19912
11
0.510317
21
0.199968
0
LINE
8
BLACK
6
CONTINUOUS
10
0.510317
20
0.199968
11
0.51164
21
0.201883
0
LINE
8
BLACK
6
CONTINUOUS
10
0.51164
20
0.201883
11
0.51171
21
0.201981
0
LINE
8
BLACK
6
CONTINUOUS
10
0.51171
20
0.201981
11
0.51292
21
0.203618
0
LINE
8
BLACK
6
CONTINUOUS
10
0.51292
20
0.203618
11
0.51292
21
0.203618
0
LINE
8
BLACK
6
CONTINUOUS
10
0.51292
20
0.203618
11
0.513093
21
0.203853
0
LINE
8
BLACK
6
CONTINUOUS
10
0.513093
20
0.203853
11
0.513187
21
0.204121
0
LINE
8
BLACK
6
CONTINUOUS
10
0.513187
20
0.204121
11
0.513349
21
0.204355
0
LINE
8
BLACK
6
CONTINUOUS
10
0.513349
20
0.204355
11
0.51405
21
0.206573
0
LINE
8
BLACK
6
CONTINUOUS
10
0.51405
20
0.206573
11
0.514088
21
0.206688
0
LINE
8
BLACK
6
CONTINUOUS
10
0.514088
20
0.206688
11
0.514859
21
0.208884
0
LINE
8
BLACK
6
CONTINUOUS
10
0.514859
20
0.208884
11
0.514869
21
0.209121
0
LINE
8
BLACK
6
CONTINUOUS
10
0.514869
20
0.209121
11
0.514889
21
0.209227
0
LINE
8
BLACK
6
CONTINUOUS
10
0.514889
20
0.209227
11
0.514956
21
0.209439
0
LINE
8
BLACK
6
CONTINUOUS
10
0.514956
20
0.209439
11
0.51498
21
0.209743
0
LINE
8
BLACK
6
CONTINUOUS
10
0.51498
20
0.209743
11
0.51498
21
0.211882
0
LINE
8
BLACK
6
CONTINUOUS
10
0.51498
20
0.211882
11
0.514983
21
0.212035
0
LINE
8
BLACK
6
CONTINUOUS
10
0.514983
20
0.212035
11
0.514984
21
0.212051
0
LINE
8
BLACK
6
CONTINUOUS
10
0.514984
20
0.212051
11
0.515069
21
0.214212
0
LINE
8
BLACK
6
CONTINUOUS
10
0.515069
20
0.214212
11
0.515
21
0.214471
0
LINE
8
BLACK
6
CONTINUOUS
10
0.515
20
0.214471
11
0.51498
21
0.214834
0
LINE
8
BLACK
6
CONTINUOUS
10
0.51498
20
0.214834
11
0.51498
21
0.219372
0
LINE
8
BLACK
6
CONTINUOUS
10
0.51498
20
0.219372
11
0.515725
21
0.221663
0
LINE
8
BLACK
6
CONTINUOUS
10
0.515725
20
0.221663
11
0.517088
21
0.222738
0
LINE
8
BLACK
6
CONTINUOUS
10
0.517088
20
0.222738
11
0.517072
21
0.222762
0
LINE
8
BLACK
6
CONTINUOUS
10
0.517072
20
0.222762
11
0.517375
21
0.222964
0
LINE
8
BLACK
6
CONTINUOUS
10
0.517375
20
0.222964
11
0.517375
21
0.222964
0
LINE
8
BLACK
6
CONTINUOUS
10
0.517375
20
0.222964
11
0.519697
21
0.224515
0
LINE
8
BLACK
6
CONTINUOUS
10
0.519697
20
0.224515
11
0.521451
21
0.22714
0
LINE
8
BLACK
6
CONTINUOUS
10
0.521451
20
0.22714
11
0.522067
21
0.230236
0
LINE
8
BLACK
6
CONTINUOUS
10
0.522067
20
0.230236
11
0.522067
21
0.263691
0
LINE
8
BLACK
6
CONTINUOUS
10
0.522067
20
0.263691
11
0.522811
21
0.265982
0
LINE
8
BLACK
6
CONTINUOUS
10
0.522811
20
0.265982
11
0.523363
21
0.266534
0
LINE
8
BLACK
6
CONTINUOUS
10
0.523363
20
0.266534
11
0.523349
21
0.266549
0
LINE
8
BLACK
6
CONTINUOUS
10
0.523349
20
0.266549
11
0.526659
21
0.26986
0
LINE
8
BLACK
6
CONTINUOUS
10
0.526659
20
0.26986
11
0.527015
21
0.27035
0
LINE
8
BLACK
6
CONTINUOUS
10
0.527015
20
0.27035
11
0.529002
21
0.274248
0
LINE
8
BLACK
6
CONTINUOUS
10
0.529002
20
0.274248
11
0.529189
21
0.274825
0
LINE
8
BLACK
6
CONTINUOUS
10
0.529189
20
0.274825
11
0.529897
21
0.279297
0
LINE
8
BLACK
6
CONTINUOUS
10
0.529897
20
0.279297
11
0.529921
21
0.279602
0
LINE
8
BLACK
6
CONTINUOUS
10
0.529921
20
0.279602
11
0.529921
21
0.293595
0
LINE
8
BLACK
6
CONTINUOUS
10
0.529921
20
0.293595
11
0.529759
21
0.294095
0
LINE
8
BLACK
6
CONTINUOUS
10
0.529759
20
0.294095
11
0.529597
21
0.294213
0
LINE
8
BLACK
6
CONTINUOUS
10
0.529597
20
0.294213
11
0.513976
21
0.294213
0
LINE
8
BLACK
6
CONTINUOUS
10
0.513976
20
0.294213
11
0.513976
21
0.279449
0
LINE
8
BLACK
6
CONTINUOUS
10
0.513976
20
0.279449
11
0.480512
21
0.279449
0
LINE
8
BLACK
6
CONTINUOUS
10
0.480512
20
0.279449
11
0.480512
21
0.324724
0
LINE
8
BLACK
6
CONTINUOUS
10
0.480512
20
0.324724
11
0.48937
21
0.324724
0
LINE
8
BLACK
6
CONTINUOUS
10
0.48937
20
0.324724
11
0.48937
21
0.340052
0
LINE
8
BLACK
6
CONTINUOUS
10
0.48937
20
0.340052
11
0.489275
21
0.340345
0
LINE
8
BLACK
6
CONTINUOUS
10
0.489275
20
0.340345
11
0.489208
21
0.340551
0
LINE
8
BLACK
6
CONTINUOUS
10
0.489208
20
0.340551
11
0.489046
21
0.340669
0
LINE
8
BLACK
6
CONTINUOUS
10
0.489046
20
0.340669
11
0.480665
21
0.340669
0
LINE
8
BLACK
6
CONTINUOUS
10
0.480665
20
0.340669
11
0.48036
21
0.340645
0
LINE
8
BLACK
6
CONTINUOUS
10
0.48036
20
0.340645
11
0.475888
21
0.339937
0
LINE
8
BLACK
6
CONTINUOUS
10
0.475888
20
0.339937
11
0.475311
21
0.33975
0
LINE
8
BLACK
6
CONTINUOUS
10
0.475311
20
0.33975
11
0.471413
21
0.337763
0
LINE
8
BLACK
6
CONTINUOUS
10
0.471413
20
0.337763
11
0.470923
21
0.337407
0
LINE
8
BLACK
6
CONTINUOUS
10
0.470923
20
0.337407
11
0.467612
21
0.334097
0
LINE
8
BLACK
6
CONTINUOUS
10
0.467612
20
0.334097
11
0.467548
21
0.334161
0
LINE
8
BLACK
6
CONTINUOUS
10
0.467548
20
0.334161
11
0.465959
21
0.333006
0
LINE
8
BLACK
6
CONTINUOUS
10
0.465959
20
0.333006
11
0.464754
21
0.332815
0
LINE
8
BLACK
6
CONTINUOUS
10
0.464754
20
0.332815
11
0.430906
21
0.332815
0
LINE
8
BLACK
6
CONTINUOUS
10
0.430906
20
0.332815
11
0.429195
21
0.332475
0
LINE
8
BLACK
6
CONTINUOUS
10
0.429195
20
0.332475
11
0.428186
21
0.332274
0
LINE
8
BLACK
6
CONTINUOUS
10
0.428186
20
0.332274
11
0.428186
21
0.332274
0
LINE
8
BLACK
6
CONTINUOUS
10
0.428186
20
0.332274
11
0.427809
21
0.332199
0
LINE
8
BLACK
6
CONTINUOUS
10
0.427809
20
0.332199
11
0.425185
21
0.330445
0
LINE
8
BLACK
6
CONTINUOUS
10
0.425185
20
0.330445
11
0.423431
21
0.327821
0
LINE
8
BLACK
6
CONTINUOUS
10
0.423431
20
0.327821
11
0.423356
21
0.327444
0
LINE
8
BLACK
6
CONTINUOUS
10
0.423356
20
0.327444
11
0.423356
21
0.327444
0
LINE
8
BLACK
6
CONTINUOUS
10
0.423356
20
0.327444
11
0.423252
21
0.326923
0
LINE
8
BLACK
6
CONTINUOUS
10
0.423252
20
0.326923
11
0.422815
21
0.324724
0
LINE
8
BLACK
6
CONTINUOUS
10
0.422815
20
0.324724
11
0.422815
21
0.311634
0
LINE
8
BLACK
6
CONTINUOUS
10
0.422815
20
0.311634
11
0.422071
21
0.309343
0
LINE
8
BLACK
6
CONTINUOUS
10
0.422071
20
0.309343
11
0.420122
21
0.307927
0
LINE
8
BLACK
6
CONTINUOUS
10
0.420122
20
0.307927
11
0.418917
21
0.307736
0
LINE
8
BLACK
6
CONTINUOUS
10
0.418917
20
0.307736
11
0.362033
21
0.307736
0
LINE
8
BLACK
6
CONTINUOUS
10
0.362033
20
0.307736
11
0.35966
21
0.308542
0
LINE
8
BLACK
6
CONTINUOUS
10
0.35966
20
0.308542
11
0.357122
21
0.310489
0
LINE
8
BLACK
6
CONTINUOUS
10
0.357122
20
0.310489
11
0.356919
21
0.310645
0
LINE
8
BLACK
6
CONTINUOUS
10
0.356919
20
0.310645
11
0.35117
21
0.313026
0
LINE
8
BLACK
6
CONTINUOUS
10
0.35117
20
0.313026
11
0.345
21
0.313839
0
LINE
8
BLACK
6
CONTINUOUS
10
0.345
20
0.313839
11
0.33883
21
0.313026
0
LINE
8
BLACK
6
CONTINUOUS
10
0.33883
20
0.313026
11
0.333081
21
0.310645
0
LINE
8
BLACK
6
CONTINUOUS
10
0.333081
20
0.310645
11
0.332878
21
0.310489
0
LINE
8
BLACK
6
CONTINUOUS
10
0.332878
20
0.310489
11
0.33034
21
0.308542
0
LINE
8
BLACK
6
CONTINUOUS
10
0.33034
20
0.308542
11
0.327967
21
0.307736
0
LINE
8
BLACK
6
CONTINUOUS
10
0.327967
20
0.307736
11
0.313961
21
0.307736
0
LINE
8
BLACK
6
CONTINUOUS
10
0.313961
20
0.307736
11
0.31167
21
0.308481
0
LINE
8
BLACK
6
CONTINUOUS
10
0.31167
20
0.308481
11
0.311205
21
0.308878
0
LINE
8
BLACK
6
CONTINUOUS
10
0.311205
20
0.308878
11
0.306732
21
0.313351
0
LINE
8
BLACK
6
CONTINUOUS
10
0.306732
20
0.313351
11
0.305639
21
0.315497
0
LINE
8
BLACK
6
CONTINUOUS
10
0.305639
20
0.315497
11
0.305591
21
0.316107
0
LINE
8
BLACK
6
CONTINUOUS
10
0.305591
20
0.316107
11
0.305591
21
0.325
0
LINE
8
BLACK
6
CONTINUOUS
10
0.305591
20
0.325
11
0.305204
21
0.326945
0
LINE
8
BLACK
6
CONTINUOUS
10
0.305204
20
0.326945
11
0.30505
21
0.32772
0
LINE
8
BLACK
6
CONTINUOUS
10
0.30505
20
0.32772
11
0.30505
21
0.32772
0
LINE
8
BLACK
6
CONTINUOUS
10
0.30505
20
0.32772
11
0.304975
21
0.328096
0
LINE
8
BLACK
6
CONTINUOUS
10
0.304975
20
0.328096
11
0.303221
21
0.330721
0
LINE
8
BLACK
6
CONTINUOUS
10
0.303221
20
0.330721
11
0.300596
21
0.332475
0
LINE
8
BLACK
6
CONTINUOUS
10
0.300596
20
0.332475
11
0.30022
21
0.33255
0
LINE
8
BLACK
6
CONTINUOUS
10
0.30022
20
0.33255
11
0.30022
21
0.33255
0
LINE
8
BLACK
6
CONTINUOUS
10
0.30022
20
0.33255
11
0.299073
21
0.332778
0
LINE
8
BLACK
6
CONTINUOUS
10
0.299073
20
0.332778
11
0.2975
21
0.333091
0
LINE
8
BLACK
6
CONTINUOUS
10
0.2975
20
0.333091
11
0.2425
21
0.333091
0
LINE
8
BLACK
6
CONTINUOUS
10
0.2425
20
0.333091
11
0.240927
21
0.332778
0
LINE
8
BLACK
6
CONTINUOUS
10
0.240927
20
0.332778
11
0.23978
21
0.33255
0
LINE
8
BLACK
6
CONTINUOUS
10
0.23978
20
0.33255
11
0.23978
21
0.33255
0
LINE
8
BLACK
6
CONTINUOUS
10
0.23978
20
0.33255
11
0.239404
21
0.332475
0
LINE
8
BLACK
6
CONTINUOUS
10
0.239404
20
0.332475
11
0.236779
21
0.330721
0
LINE
8
BLACK
6
CONTINUOUS
10
0.236779
20
0.330721
11
0.235025
21
0.328096
0
LINE
8
BLACK
6
CONTINUOUS
10
0.235025
20
0.328096
11
0.23495
21
0.32772
0
LINE
8
BLACK
6
CONTINUOUS
10
0.23495
20
0.32772
11
0.234918
21
0.327642
0
LINE
8
BLACK
6
CONTINUOUS
10
0.234918
20
0.327642
11
0.233354
21
0.325811
0
LINE
8
BLACK
6
CONTINUOUS
10
0.233354
20
0.325811
11
0.231317
21
0.325236
0
LINE
8
BLACK
6
CONTINUOUS
10
0.231317
20
0.325236
11
0.201807
21
0.325236
0
LINE
8
BLACK
6
CONTINUOUS
10
0.201807
20
0.325236
11
0.199516
21
0.325981
0
LINE
8
BLACK
6
CONTINUOUS
10
0.199516
20
0.325981
11
0.1981
21
0.327929
0
LINE
8
BLACK
6
CONTINUOUS
10
0.1981
20
0.327929
11
0.197984
21
0.328373
0
LINE
8
BLACK
6
CONTINUOUS
10
0.197984
20
0.328373
11
0.19779
21
0.329349
0
LINE
8
BLACK
6
CONTINUOUS
10
0.19779
20
0.329349
11
0.197672
21
0.329946
0
LINE
8
BLACK
6
CONTINUOUS
10
0.197672
20
0.329946
11
0.195918
21
0.332571
0
LINE
8
BLACK
6
CONTINUOUS
10
0.195918
20
0.332571
11
0.193293
21
0.334325
0
LINE
8
BLACK
6
CONTINUOUS
10
0.193293
20
0.334325
11
0.192916
21
0.3344
0
LINE
8
BLACK
6
CONTINUOUS
10
0.192916
20
0.3344
11
0.192916
21
0.3344
0
LINE
8
BLACK
6
CONTINUOUS
10
0.192916
20
0.3344
11
0.191921
21
0.334598
0
LINE
8
BLACK
6
CONTINUOUS
10
0.191921
20
0.334598
11
0.190197
21
0.334941
0
LINE
8
BLACK
6
CONTINUOUS
10
0.190197
20
0.334941
11
0.130197
21
0.334941
0
LINE
8
BLACK
6
CONTINUOUS
10
0.130197
20
0.334941
11
0.128472
21
0.334598
0
LINE
8
BLACK
6
CONTINUOUS
10
0.128472
20
0.334598
11
0.127477
21
0.3344
0
LINE
8
BLACK
6
CONTINUOUS
10
0.127477
20
0.3344
11
0.127477
21
0.3344
0
LINE
8
BLACK
6
CONTINUOUS
10
0.127477
20
0.3344
11
0.127101
21
0.334325
0
LINE
8
BLACK
6
CONTINUOUS
10
0.127101
20
0.334325
11
0.124476
21
0.332571
0
LINE
8
BLACK
6
CONTINUOUS
10
0.124476
20
0.332571
11
0.122722
21
0.329946
0
LINE
8
BLACK
6
CONTINUOUS
10
0.122722
20
0.329946
11
0.122647
21
0.32957
0
LINE
8
BLACK
6
CONTINUOUS
10
0.122647
20
0.32957
11
0.122647
21
0.32957
0
LINE
8
BLACK
6
CONTINUOUS
10
0.122647
20
0.32957
11
0.122494
21
0.328801
0
LINE
8
BLACK
6
CONTINUOUS
10
0.122494
20
0.328801
11
0.122106
21
0.32685
0
LINE
8
BLACK
6
CONTINUOUS
10
0.122106
20
0.32685
11
0.122106
21
0.26685
0
LINE
8
BLACK
6
CONTINUOUS
10
0.122106
20
0.26685
11
0.122722
21
0.263754
0
LINE
8
BLACK
6
CONTINUOUS
10
0.122722
20
0.263754
11
0.124476
21
0.26113
0
LINE
8
BLACK
6
CONTINUOUS
10
0.124476
20
0.26113
11
0.127101
21
0.259376
0
LINE
8
BLACK
6
CONTINUOUS
10
0.127101
20
0.259376
11
0.127477
21
0.259301
0
LINE
8
BLACK
6
CONTINUOUS
10
0.127477
20
0.259301
11
0.127477
21
0.259301
0
LINE
8
BLACK
6
CONTINUOUS
10
0.127477
20
0.259301
11
0.128472
21
0.259103
0
LINE
8
BLACK
6
CONTINUOUS
10
0.128472
20
0.259103
11
0.130197
21
0.25876
0
LINE
8
BLACK
6
CONTINUOUS
10
0.130197
20
0.25876
11
0.190197
21
0.25876
0
LINE
8
BLACK
6
CONTINUOUS
10
0.190197
20
0.25876
11
0.191921
21
0.259103
0
LINE
8
BLACK
6
CONTINUOUS
10
0.191921
20
0.259103
11
0.192916
21
0.259301
0
LINE
8
BLACK
6
CONTINUOUS
10
0.192916
20
0.259301
11
0.192916
21
0.259301
0
LINE
8
BLACK
6
CONTINUOUS
10
0.192916
20
0.259301
11
0.193293
21
0.259376
0
LINE
8
BLACK
6
CONTINUOUS
10
0.193293
20
0.259376
11
0.195918
21
0.26113
0
LINE
8
BLACK
6
CONTINUOUS
10
0.195918
20
0.26113
11
0.197672
21
0.263754
0
LINE
8
BLACK
6
CONTINUOUS
10
0.197672
20
0.263754
11
0.198287
21
0.26685
0
LINE
8
BLACK
6
CONTINUOUS
10
0.198287
20
0.26685
11
0.198287
21
0.285866
0
LINE
8
BLACK
6
CONTINUOUS
10
0.198287
20
0.285866
11
0.199032
21
0.288157
0
LINE
8
BLACK
6
CONTINUOUS
10
0.199032
20
0.288157
11
0.200981
21
0.289573
0
LINE
8
BLACK
6
CONTINUOUS
10
0.200981
20
0.289573
11
0.202185
21
0.289764
0
LINE
8
BLACK
6
CONTINUOUS
10
0.202185
20
0.289764
11
0.231317
21
0.289764
0
LINE
8
BLACK
6
CONTINUOUS
10
0.231317
20
0.289764
11
0.233608
21
0.289019
0
LINE
8
BLACK
6
CONTINUOUS
10
0.233608
20
0.289019
11
0.234918
21
0.287358
0
LINE
8
BLACK
6
CONTINUOUS
10
0.234918
20
0.287358
11
0.23495
21
0.28728
0
LINE
8
BLACK
6
CONTINUOUS
10
0.23495
20
0.28728
11
0.235025
21
0.286904
0
LINE
8
BLACK
6
CONTINUOUS
10
0.235025
20
0.286904
11
0.236779
21
0.284279
0
LINE
8
BLACK
6
CONTINUOUS
10
0.236779
20
0.284279
11
0.239404
21
0.282525
0
LINE
8
BLACK
6
CONTINUOUS
10
0.239404
20
0.282525
11
0.23978
21
0.28245
0
LINE
8
BLACK
6
CONTINUOUS
10
0.23978
20
0.28245
11
0.23978
21
0.28245
0
LINE
8
BLACK
6
CONTINUOUS
10
0.23978
20
0.28245
11
0.240776
21
0.282252
0
LINE
8
BLACK
6
CONTINUOUS
10
0.240776
20
0.282252
11
0.2425
21
0.281909
0
LINE
8
BLACK
6
CONTINUOUS
10
0.2425
20
0.281909
11
0.286393
21
0.281909
0
LINE
8
BLACK
6
CONTINUOUS
10
0.286393
20
0.281909
11
0.288684
21
0.281165
0
LINE
8
BLACK
6
CONTINUOUS
10
0.288684
20
0.281165
11
0.289149
21
0.280768
0
LINE
8
BLACK
6
CONTINUOUS
10
0.289149
20
0.280768
11
0.291571
21
0.278346
0
LINE
8
BLACK
6
CONTINUOUS
10
0.291571
20
0.278346
11
0.291876
21
0.278003
0
LINE
8
BLACK
6
CONTINUOUS
10
0.291876
20
0.278003
11
0.292724
21
0.276927
0
LINE
8
BLACK
6
CONTINUOUS
10
0.292724
20
0.276927
11
0.292964
21
0.276762
0
LINE
8
BLACK
6
CONTINUOUS
10
0.292964
20
0.276762
11
0.292964
21
0.276762
0
LINE
8
BLACK
6
CONTINUOUS
10
0.292964
20
0.276762
11
0.294637
21
0.275605
0
LINE
8
BLACK
6
CONTINUOUS
10
0.294637
20
0.275605
11
0.294737
21
0.275534
0
LINE
8
BLACK
6
CONTINUOUS
10
0.294737
20
0.275534
11
0.296374
21
0.274325
0
LINE
8
BLACK
6
CONTINUOUS
10
0.296374
20
0.274325
11
0.296609
21
0.274151
0
LINE
8
BLACK
6
CONTINUOUS
10
0.296609
20
0.274151
11
0.296877
21
0.274057
0
LINE
8
BLACK
6
CONTINUOUS
10
0.296877
20
0.274057
11
0.297111
21
0.273896
0
LINE
8
BLACK
6
CONTINUOUS
10
0.297111
20
0.273896
11
0.297388
21
0.273808
0
LINE
8
BLACK
6
CONTINUOUS
10
0.297388
20
0.273808
11
0.297388
21
0.273808
0
LINE
8
BLACK
6
CONTINUOUS
10
0.297388
20
0.273808
11
0.298808
21
0.273359
0
LINE
8
BLACK
6
CONTINUOUS
10
0.298808
20
0.273359
11
0.29933
21
0.273194
0
LINE
8
BLACK
6
CONTINUOUS
10
0.29933
20
0.273194
11
0.299443
21
0.273156
0
LINE
8
BLACK
6
CONTINUOUS
10
0.299443
20
0.273156
11
0.30164
21
0.272385
0
LINE
8
BLACK
6
CONTINUOUS
10
0.30164
20
0.272385
11
0.301877
21
0.272375
0
LINE
8
BLACK
6
CONTINUOUS
10
0.301877
20
0.272375
11
0.301983
21
0.272355
0
LINE
8
BLACK
6
CONTINUOUS
10
0.301983
20
0.272355
11
0.302195
21
0.272288
0
LINE
8
BLACK
6
CONTINUOUS
10
0.302195
20
0.272288
11
0.302416
21
0.27227
0
LINE
8
BLACK
6
CONTINUOUS
10
0.302416
20
0.27227
11
0.302416
21
0.27227
0
LINE
8
BLACK
6
CONTINUOUS
10
0.302416
20
0.27227
11
0.302419
21
0.27227
0
LINE
8
BLACK
6
CONTINUOUS
10
0.302419
20
0.27227
11
0.302499
21
0.272264
0
LINE
8
BLACK
6
CONTINUOUS
10
0.302499
20
0.272264
11
0.304637
21
0.272264
0
LINE
8
BLACK
6
CONTINUOUS
10
0.304637
20
0.272264
11
0.30479
21
0.272261
0
LINE
8
BLACK
6
CONTINUOUS
10
0.30479
20
0.272261
11
0.306677
21
0.272187
0
LINE
8
BLACK
6
CONTINUOUS
10
0.306677
20
0.272187
11
0.306677
21
0.272187
0
LINE
8
BLACK
6
CONTINUOUS
10
0.306677
20
0.272187
11
0.306968
21
0.272175
0
LINE
8
BLACK
6
CONTINUOUS
10
0.306968
20
0.272175
11
0.307226
21
0.272244
0
LINE
8
BLACK
6
CONTINUOUS
10
0.307226
20
0.272244
11
0.30759
21
0.272264
0
LINE
8
BLACK
6
CONTINUOUS
10
0.30759
20
0.272264
11
0.327967
21
0.272264
0
LINE
8
BLACK
6
CONTINUOUS
10
0.327967
20
0.272264
11
0.33034
21
0.271458
0
LINE
8
BLACK
6
CONTINUOUS
10
0.33034
20
0.271458
11
0.333081
21
0.269355
0
LINE
8
BLACK
6
CONTINUOUS
10
0.333081
20
0.269355
11
0.33883
21
0.266974
0
LINE
8
BLACK
6
CONTINUOUS
10
0.33883
20
0.266974
11
0.345
21
0.266161
0
LINE
8
BLACK
6
CONTINUOUS
10
0.345
20
0.266161
11
0.35117
21
0.266974
0
LINE
8
BLACK
6
CONTINUOUS
10
0.35117
20
0.266974
11
0.356919
21
0.269355
0
LINE
8
BLACK
6
CONTINUOUS
10
0.356919
20
0.269355
11
0.35966
21
0.271458
0
LINE
8
BLACK
6
CONTINUOUS
10
0.35966
20
0.271458
11
0.362033
21
0.272264
0
LINE
8
BLACK
6
CONTINUOUS
10
0.362033
20
0.272264
11
0.41113
21
0.272264
0
LINE
8
BLACK
6
CONTINUOUS
10
0.41113
20
0.272264
11
0.413421
21
0.271519
0
LINE
8
BLACK
6
CONTINUOUS
10
0.413421
20
0.271519
11
0.414837
21
0.269571
0
LINE
8
BLACK
6
CONTINUOUS
10
0.414837
20
0.269571
11
0.414927
21
0.268425
0
LINE
8
BLACK
6
CONTINUOUS
10
0.414927
20
0.268425
11
0.428509
21
0.254843
0
LINE
8
BLACK
6
CONTINUOUS
10
0.428509
20
0.254843
11
0.430906
21
0.254843
0
LINE
8
BLACK
6
CONTINUOUS
10
0.430906
20
0.254843
11
0.430906
21
0.267638
0
LINE
8
BLACK
6
CONTINUOUS
10
0.430906
20
0.267638
11
0.469094
21
0.267638
0
LINE
8
BLACK
6
CONTINUOUS
10
0.469094
20
0.267638
11
0.469094
21
0.230236
0
LINE
8
BLACK
6
CONTINUOUS
10
0.469094
20
0.230236
11
0.430906
21
0.230236
0
LINE
8
BLACK
6
CONTINUOUS
10
0.430906
20
0.230236
11
0.430906
21
0.243031
0
LINE
8
BLACK
6
CONTINUOUS
10
0.430906
20
0.243031
11
0.426063
21
0.243031
0
LINE
8
BLACK
6
CONTINUOUS
10
0.426063
20
0.243031
11
0.425312
21
0.243233
0
LINE
8
BLACK
6
CONTINUOUS
10
0.425312
20
0.243233
11
0.424535
21
0.243233
0
LINE
8
BLACK
6
CONTINUOUS
10
0.424535
20
0.243233
11
0.423861
21
0.243621
0
LINE
8
BLACK
6
CONTINUOUS
10
0.423861
20
0.243621
11
0.42311
21
0.243823
0
LINE
8
BLACK
6
CONTINUOUS
10
0.42311
20
0.243823
11
0.42256
21
0.244372
0
LINE
8
BLACK
6
CONTINUOUS
10
0.42256
20
0.244372
11
0.421887
21
0.244761
0
LINE
8
BLACK
6
CONTINUOUS
10
0.421887
20
0.244761
11
0.412679
21
0.25397
0
LINE
8
BLACK
6
CONTINUOUS
10
0.412679
20
0.25397
11
0.412267
21
0.253671
0
LINE
8
BLACK
6
CONTINUOUS
10
0.412267
20
0.253671
11
0.409859
21
0.253671
0
LINE
8
BLACK
6
CONTINUOUS
10
0.409859
20
0.253671
11
0.40869
21
0.254286
0
LINE
8
BLACK
6
CONTINUOUS
10
0.40869
20
0.254286
11
0.406919
21
0.255645
0
LINE
8
BLACK
6
CONTINUOUS
10
0.406919
20
0.255645
11
0.40117
21
0.258026
0
LINE
8
BLACK
6
CONTINUOUS
10
0.40117
20
0.258026
11
0.396092
21
0.258695
0
LINE
8
BLACK
6
CONTINUOUS
10
0.396092
20
0.258695
11
0.395253
21
0.258805
0
LINE
8
BLACK
6
CONTINUOUS
10
0.395253
20
0.258805
11
0.395
21
0.258839
0
LINE
8
BLACK
6
CONTINUOUS
10
0.395
20
0.258839
11
0.394747
21
0.258805
0
LINE
8
BLACK
6
CONTINUOUS
10
0.394747
20
0.258805
11
0.393908
21
0.258695
0
LINE
8
BLACK
6
CONTINUOUS
10
0.393908
20
0.258695
11
0.38883
21
0.258026
0
LINE
8
BLACK
6
CONTINUOUS
10
0.38883
20
0.258026
11
0.383081
21
0.255645
0
LINE
8
BLACK
6
CONTINUOUS
10
0.383081
20
0.255645
11
0.382878
21
0.255489
0
LINE
8
BLACK
6
CONTINUOUS
10
0.382878
20
0.255489
11
0.38034
21
0.253542
0
LINE
8
BLACK
6
CONTINUOUS
10
0.38034
20
0.253542
11
0.377967
21
0.252736
0
LINE
8
BLACK
6
CONTINUOUS
10
0.377967
20
0.252736
11
0.369642
21
0.252736
0
LINE
8
BLACK
6
CONTINUOUS
10
0.369642
20
0.252736
11
0.367873
21
0.253161
0
LINE
8
BLACK
6
CONTINUOUS
10
0.367873
20
0.253161
11
0.365523
21
0.254358
0
LINE
8
BLACK
6
CONTINUOUS
10
0.365523
20
0.254358
11
0.365523
21
0.254358
0
LINE
8
BLACK
6
CONTINUOUS
10
0.365523
20
0.254358
11
0.36525
21
0.254497
0
LINE
8
BLACK
6
CONTINUOUS
10
0.36525
20
0.254497
11
0.364947
21
0.254545
0
LINE
8
BLACK
6
CONTINUOUS
10
0.364947
20
0.254545
11
0.364947
21
0.254545
0
LINE
8
BLACK
6
CONTINUOUS
10
0.364947
20
0.254545
11
0.361483
21
0.255094
0
LINE
8
BLACK
6
CONTINUOUS
10
0.361483
20
0.255094
11
0.361483
21
0.255094
0
LINE
8
BLACK
6
CONTINUOUS
10
0.361483
20
0.255094
11
0.361331
21
0.255118
0
LINE
8
BLACK
6
CONTINUOUS
10
0.361331
20
0.255118
11
0.338669
21
0.255118
0
LINE
8
BLACK
6
CONTINUOUS
10
0.338669
20
0.255118
11
0.338517
21
0.255094
0
LINE
8
BLACK
6
CONTINUOUS
10
0.338517
20
0.255094
11
0.338517
21
0.255094
0
LINE
8
BLACK
6
CONTINUOUS
10
0.338517
20
0.255094
11
0.335053
21
0.254545
0
LINE
8
BLACK
6
CONTINUOUS
10
0.335053
20
0.254545
11
0.335053
21
0.254545
0
LINE
8
BLACK
6
CONTINUOUS
10
0.335053
20
0.254545
11
0.33475
21
0.254497
0
LINE
8
BLACK
6
CONTINUOUS
10
0.33475
20
0.254497
11
0.334477
21
0.254358
0
LINE
8
BLACK
6
CONTINUOUS
10
0.334477
20
0.254358
11
0.334477
21
0.254358
0
LINE
8
BLACK
6
CONTINUOUS
10
0.334477
20
0.254358
11
0.330367
21
0.252264
0
LINE
8
BLACK
6
CONTINUOUS
10
0.330367
20
0.252264
11
0.330367
21
0.252264
0
LINE
8
BLACK
6
CONTINUOUS
10
0.330367
20
0.252264
11
0.330094
21
0.252125
0
LINE
8
BLACK
6
CONTINUOUS
10
0.330094
20
0.252125
11
0.326847
21
0.248878
0
LINE
8
BLACK
6
CONTINUOUS
10
0.326847
20
0.248878
11
0.3247
21
0.247784
0
LINE
8
BLACK
6
CONTINUOUS
10
0.3247
20
0.247784
11
0.324091
21
0.247736
0
LINE
8
BLACK
6
CONTINUOUS
10
0.324091
20
0.247736
11
0.30924
21
0.247736
0
LINE
8
BLACK
6
CONTINUOUS
10
0.30924
20
0.247736
11
0.306949
21
0.248481
0
LINE
8
BLACK
6
CONTINUOUS
10
0.306949
20
0.248481
11
0.305533
21
0.250429
0
LINE
8
BLACK
6
CONTINUOUS
10
0.305533
20
0.250429
11
0.305417
21
0.250873
0
LINE
8
BLACK
6
CONTINUOUS
10
0.305417
20
0.250873
11
0.305221
21
0.251856
0
LINE
8
BLACK
6
CONTINUOUS
10
0.305221
20
0.251856
11
0.304975
21
0.253096
0
LINE
8
BLACK
6
CONTINUOUS
10
0.304975
20
0.253096
11
0.303221
21
0.255721
0
LINE
8
BLACK
6
CONTINUOUS
10
0.303221
20
0.255721
11
0.300596
21
0.257475
0
LINE
8
BLACK
6
CONTINUOUS
10
0.300596
20
0.257475
11
0.30022
21
0.25755
0
LINE
8
BLACK
6
CONTINUOUS
10
0.30022
20
0.25755
11
0.30022
21
0.25755
0
LINE
8
BLACK
6
CONTINUOUS
10
0.30022
20
0.25755
11
0.299224
21
0.257748
0
LINE
8
BLACK
6
CONTINUOUS
10
0.299224
20
0.257748
11
0.2975
21
0.258091
0
LINE
8
BLACK
6
CONTINUOUS
10
0.2975
20
0.258091
11
0.2425
21
0.258091
0
LINE
8
BLACK
6
CONTINUOUS
10
0.2425
20
0.258091
11
0.240776
21
0.257748
0
LINE
8
BLACK
6
CONTINUOUS
10
0.240776
20
0.257748
11
0.23978
21
0.25755
0
LINE
8
BLACK
6
CONTINUOUS
10
0.23978
20
0.25755
11
0.23978
21
0.25755
0
LINE
8
BLACK
6
CONTINUOUS
10
0.23978
20
0.25755
11
0.239404
21
0.257475
0
LINE
8
BLACK
6
CONTINUOUS
10
0.239404
20
0.257475
11
0.236779
21
0.255721
0
LINE
8
BLACK
6
CONTINUOUS
10
0.236779
20
0.255721
11
0.235025
21
0.253096
0
LINE
8
BLACK
6
CONTINUOUS
10
0.235025
20
0.253096
11
0.23495
21
0.25272
0
LINE
8
BLACK
6
CONTINUOUS
10
0.23495
20
0.25272
11
0.234918
21
0.252642
0
LINE
8
BLACK
6
CONTINUOUS
10
0.234918
20
0.252642
11
0.233354
21
0.250811
0
LINE
8
BLACK
6
CONTINUOUS
10
0.233354
20
0.250811
11
0.231317
21
0.250236
0
LINE
8
BLACK
6
CONTINUOUS
10
0.231317
20
0.250236
11
0.197101
21
0.250236
0
LINE
8
BLACK
6
CONTINUOUS
10
0.197101
20
0.250236
11
0.196643
21
0.250263
0
LINE
8
BLACK
6
CONTINUOUS
10
0.196643
20
0.250263
11
0.196585
21
0.25027
0
LINE
8
BLACK
6
CONTINUOUS
10
0.196585
20
0.25027
11
0.195283
21
0.250424
0
LINE
8
BLACK
6
CONTINUOUS
10
0.195283
20
0.250424
11
0.194997
21
0.250372
0
LINE
8
BLACK
6
CONTINUOUS
10
0.194997
20
0.250372
11
0.194997
21
0.250372
0
LINE
8
BLACK
6
CONTINUOUS
10
0.194997
20
0.250372
11
0.193789
21
0.250151
0
LINE
8
BLACK
6
CONTINUOUS
10
0.193789
20
0.250151
11
0.192995
21
0.250006
0
LINE
8
BLACK
6
CONTINUOUS
10
0.192995
20
0.250006
11
0.192875
21
0.249986
0
LINE
8
BLACK
6
CONTINUOUS
10
0.192875
20
0.249986
11
0.190573
21
0.24964
0
LINE
8
BLACK
6
CONTINUOUS
10
0.190573
20
0.24964
11
0.190317
21
0.249517
0
LINE
8
BLACK
6
CONTINUOUS
10
0.190317
20
0.249517
11
0.190038
21
0.249466
0
LINE
8
BLACK
6
CONTINUOUS
10
0.190038
20
0.249466
11
0.189779
21
0.249332
0
LINE
8
BLACK
6
CONTINUOUS
10
0.189779
20
0.249332
11
0.189779
21
0.249332
0
LINE
8
BLACK
6
CONTINUOUS
10
0.189779
20
0.249332
11
0.187973
21
0.248394
0
LINE
8
BLACK
6
CONTINUOUS
10
0.187973
20
0.248394
11
0.187864
21
0.248339
0
LINE
8
BLACK
6
CONTINUOUS
10
0.187864
20
0.248339
11
0.185767
21
0.247332
0
LINE
8
BLACK
6
CONTINUOUS
10
0.185767
20
0.247332
11
0.185592
21
0.247171
0
LINE
8
BLACK
6
CONTINUOUS
10
0.185592
20
0.247171
11
0.185503
21
0.247111
0
LINE
8
BLACK
6
CONTINUOUS
10
0.185503
20
0.247111
11
0.185306
21
0.247008
0
LINE
8
BLACK
6
CONTINUOUS
10
0.185306
20
0.247008
11
0.185137
21
0.246864
0
LINE
8
BLACK
6
CONTINUOUS
10
0.185137
20
0.246864
11
0.185137
21
0.246864
0
LINE
8
BLACK
6
CONTINUOUS
10
0.185137
20
0.246864
11
0.185132
21
0.24686
0
LINE
8
BLACK
6
CONTINUOUS
10
0.185132
20
0.24686
11
0.185131
21
0.246859
0
LINE
8
BLACK
6
CONTINUOUS
10
0.185131
20
0.246859
11
0.185074
21
0.24681
0
LINE
8
BLACK
6
CONTINUOUS
10
0.185074
20
0.24681
11
0.18356
21
0.245297
0
LINE
8
BLACK
6
CONTINUOUS
10
0.18356
20
0.245297
11
0.18345
21
0.245191
0
LINE
8
BLACK
6
CONTINUOUS
10
0.18345
20
0.245191
11
0.181851
21
0.243713
0
LINE
8
BLACK
6
CONTINUOUS
10
0.181851
20
0.243713
11
0.181717
21
0.243481
0
LINE
8
BLACK
6
CONTINUOUS
10
0.181717
20
0.243481
11
0.181474
21
0.243211
0
LINE
8
BLACK
6
CONTINUOUS
10
0.181474
20
0.243211
11
0.174346
21
0.236083
0
LINE
8
BLACK
6
CONTINUOUS
10
0.174346
20
0.236083
11
0.1722
21
0.234989
0
LINE
8
BLACK
6
CONTINUOUS
10
0.1722
20
0.234989
11
0.17159
21
0.234941
0
LINE
8
BLACK
6
CONTINUOUS
10
0.17159
20
0.234941
11
0.130197
21
0.234941
0
LINE
8
BLACK
6
CONTINUOUS
10
0.130197
20
0.234941
11
0.128472
21
0.234598
0
LINE
8
BLACK
6
CONTINUOUS
10
0.128472
20
0.234598
11
0.127477
21
0.2344
0
LINE
8
BLACK
6
CONTINUOUS
10
0.127477
20
0.2344
11
0.127477
21
0.2344
0
LINE
8
BLACK
6
CONTINUOUS
10
0.127477
20
0.2344
11
0.127101
21
0.234325
0
LINE
8
BLACK
6
CONTINUOUS
10
0.127101
20
0.234325
11
0.124476
21
0.232571
0
LINE
8
BLACK
6
CONTINUOUS
10
0.124476
20
0.232571
11
0.122722
21
0.229946
0
LINE
8
BLACK
6
CONTINUOUS
10
0.122722
20
0.229946
11
0.122647
21
0.22957
0
LINE
8
BLACK
6
CONTINUOUS
10
0.122647
20
0.22957
11
0.122647
21
0.22957
0
LINE
8
BLACK
6
CONTINUOUS
10
0.122647
20
0.22957
11
0.122449
21
0.228575
0
LINE
8
BLACK
6
CONTINUOUS
10
0.122449
20
0.228575
11
0.122106
21
0.22685
0
LINE
8
BLACK
6
CONTINUOUS
10
0.122106
20
0.22685
11
0.122106
21
0.16685
0
LINE
8
BLACK
6
CONTINUOUS
10
0.122106
20
0.16685
11
0.122722
21
0.163754
0
LINE
8
BLACK
6
CONTINUOUS
10
0.122722
20
0.163754
11
0.124476
21
0.16113
0
LINE
8
BLACK
6
CONTINUOUS
10
0.124476
20
0.16113
11
0.124795
21
0.160916
0
LINE
8
BLACK
6
CONTINUOUS
10
0.124795
20
0.160916
11
0.125788
21
0.160253
0
LINE
8
BLACK
6
CONTINUOUS
10
0.125788
20
0.160253
11
0.127101
21
0.159376
0
LINE
8
BLACK
6
CONTINUOUS
10
0.127101
20
0.159376
11
0.127477
21
0.159301
0
LINE
8
BLACK
6
CONTINUOUS
10
0.127477
20
0.159301
11
0.127477
21
0.159301
0
LINE
8
BLACK
6
CONTINUOUS
10
0.127477
20
0.159301
11
0.128472
21
0.159103
0
LINE
8
BLACK
6
CONTINUOUS
10
0.128472
20
0.159103
11
0.130197
21
0.15876
0
LINE
8
BLACK
6
CONTINUOUS
10
0.130197
20
0.15876
11
0.190197
21
0.15876
0
LINE
8
BLACK
6
CONTINUOUS
10
0.190197
20
0.15876
11
0.191921
21
0.159103
0
LINE
8
BLACK
6
CONTINUOUS
10
0.191921
20
0.159103
11
0.192916
21
0.159301
0
LINE
8
BLACK
6
CONTINUOUS
10
0.192916
20
0.159301
11
0.192916
21
0.159301
0
LINE
8
BLACK
6
CONTINUOUS
10
0.192916
20
0.159301
11
0.193293
21
0.159376
0
LINE
8
BLACK
6
CONTINUOUS
10
0.193293
20
0.159376
11
0.194605
21
0.160253
0
LINE
8
BLACK
6
CONTINUOUS
10
0.194605
20
0.160253
11
0.195598
21
0.160916
0
LINE
8
BLACK
6
CONTINUOUS
10
0.195598
20
0.160916
11
0.195918
21
0.16113
0
LINE
8
BLACK
6
CONTINUOUS
10
0.195918
20
0.16113
11
0.197672
21
0.163754
0
LINE
8
BLACK
6
CONTINUOUS
10
0.197672
20
0.163754
11
0.198287
21
0.16685
0
LINE
8
BLACK
6
CONTINUOUS
10
0.198287
20
0.16685
11
0.198287
21
0.208244
0
LINE
8
BLACK
6
CONTINUOUS
10
0.198287
20
0.208244
11
0.199032
21
0.210535
0
LINE
8
BLACK
6
CONTINUOUS
10
0.199032
20
0.210535
11
0.199429
21
0.211
0
LINE
8
BLACK
6
CONTINUOUS
10
0.199429
20
0.211
11
0.202051
21
0.213622
0
LINE
8
BLACK
6
CONTINUOUS
10
0.202051
20
0.213622
11
0.204198
21
0.214716
0
LINE
8
BLACK
6
CONTINUOUS
10
0.204198
20
0.214716
11
0.204808
21
0.214764
0
LINE
8
BLACK
6
CONTINUOUS
10
0.204808
20
0.214764
11
0.231317
21
0.214764
0
LINE
8
BLACK
6
CONTINUOUS
10
0.231317
20
0.214764
11
0.233608
21
0.214019
0
LINE
8
BLACK
6
CONTINUOUS
10
0.233608
20
0.214019
11
0.234918
21
0.212358
0
LINE
8
BLACK
6
CONTINUOUS
10
0.234918
20
0.212358
11
0.23495
21
0.21228
0
LINE
8
BLACK
6
CONTINUOUS
10
0.23495
20
0.21228
11
0.235025
21
0.211904
0
LINE
8
BLACK
6
CONTINUOUS
10
0.235025
20
0.211904
11
0.236779
21
0.209279
0
LINE
8
BLACK
6
CONTINUOUS
10
0.236779
20
0.209279
11
0.239404
21
0.207525
0
LINE
8
BLACK
6
CONTINUOUS
10
0.239404
20
0.207525
11
0.23978
21
0.20745
0
LINE
8
BLACK
6
CONTINUOUS
10
0.23978
20
0.20745
11
0.23978
21
0.20745
0
LINE
8
BLACK
6
CONTINUOUS
10
0.23978
20
0.20745
11
0.240776
21
0.207252
0
LINE
8
BLACK
6
CONTINUOUS
10
0.240776
20
0.207252
11
0.2425
21
0.206909
0
LINE
8
BLACK
6
CONTINUOUS
10
0.2425
20
0.206909
11
0.253366
21
0.206909
0
LINE
8
BLACK
6
CONTINUOUS
10
0.253366
20
0.206909
11
0.255657
21
0.206165
0
LINE
8
BLACK
6
CONTINUOUS
10
0.255657
20
0.206165
11
0.257073
21
0.204216
0
LINE
8
BLACK
6
CONTINUOUS
10
0.257073
20
0.204216
11
0.257264
21
0.203012
0
LINE
8
BLACK
6
CONTINUOUS
10
0.257264
20
0.203012
11
0.257264
21
0.175619
0
LINE
8
BLACK
6
CONTINUOUS
10
0.257264
20
0.175619
11
0.256519
21
0.173328
0
LINE
8
BLACK
6
CONTINUOUS
10
0.256519
20
0.173328
11
0.255565
21
0.172513
0
LINE
8
BLACK
6
CONTINUOUS
10
0.255565
20
0.172513
11
0.255615
21
0.172445
0
LINE
8
BLACK
6
CONTINUOUS
10
0.255615
20
0.172445
11
0.255367
21
0.172264
0
LINE
8
BLACK
6
CONTINUOUS
10
0.255367
20
0.172264
11
0.255094
21
0.172125
0
LINE
8
BLACK
6
CONTINUOUS
10
0.255094
20
0.172125
11
0.251399
21
0.16843
0
LINE
8
BLACK
6
CONTINUOUS
10
0.251399
20
0.16843
11
0.251259
21
0.168157
0
LINE
8
BLACK
6
CONTINUOUS
10
0.251259
20
0.168157
11
0.251259
21
0.168157
0
LINE
8
BLACK
6
CONTINUOUS
10
0.251259
20
0.168157
11
0.250498
21
0.166663
0
LINE
8
BLACK
6
CONTINUOUS
10
0.250498
20
0.166663
11
0.249026
21
0.163774
0
LINE
8
BLACK
6
CONTINUOUS
10
0.249026
20
0.163774
11
0.248978
21
0.163471
0
LINE
8
BLACK
6
CONTINUOUS
10
0.248978
20
0.163471
11
0.248978
21
0.163471
0
LINE
8
BLACK
6
CONTINUOUS
10
0.248978
20
0.163471
11
0.248429
21
0.160006
0
LINE
8
BLACK
6
CONTINUOUS
10
0.248429
20
0.160006
11
0.248406
21
0.159855
0
LINE
8
BLACK
6
CONTINUOUS
10
0.248406
20
0.159855
11
0.248406
21
0.140145
0
LINE
8
BLACK
6
CONTINUOUS
10
0.248406
20
0.140145
11
0.249026
21
0.136226
0
LINE
8
BLACK
6
CONTINUOUS
10
0.249026
20
0.136226
11
0.249165
21
0.135953
0
LINE
8
BLACK
6
CONTINUOUS
10
0.249165
20
0.135953
11
0.249165
21
0.135953
0
LINE
8
BLACK
6
CONTINUOUS
10
0.249165
20
0.135953
11
0.251154
21
0.132051
0
LINE
8
BLACK
6
CONTINUOUS
10
0.251154
20
0.132051
11
0.251399
21
0.13157
0
LINE
8
BLACK
6
CONTINUOUS
10
0.251399
20
0.13157
11
0.255094
21
0.127875
0
LINE
8
BLACK
6
CONTINUOUS
10
0.255094
20
0.127875
11
0.255367
21
0.127736
0
LINE
8
BLACK
6
CONTINUOUS
10
0.255367
20
0.127736
11
0.255367
21
0.127736
0
LINE
8
BLACK
6
CONTINUOUS
10
0.255367
20
0.127736
11
0.257291
21
0.126755
0
LINE
8
BLACK
6
CONTINUOUS
10
0.257291
20
0.126755
11
0.258995
21
0.125052
0
LINE
8
BLACK
6
CONTINUOUS
10
0.258995
20
0.125052
11
0.259372
21
0.122673
0
LINE
8
BLACK
6
CONTINUOUS
10
0.259372
20
0.122673
11
0.258278
21
0.120526
0
LINE
8
BLACK
6
CONTINUOUS
10
0.258278
20
0.120526
11
0.256957
21
0.119658
0
LINE
8
BLACK
6
CONTINUOUS
10
0.256957
20
0.119658
11
0.253309
21
0.118214
0
LINE
8
BLACK
6
CONTINUOUS
10
0.253309
20
0.118214
11
0.252883
21
0.11798
0
LINE
8
BLACK
6
CONTINUOUS
10
0.252883
20
0.11798
11
0.248299
21
0.11465
0
LINE
8
BLACK
6
CONTINUOUS
10
0.248299
20
0.11465
11
0.247945
21
0.114317
0
LINE
8
BLACK
6
CONTINUOUS
10
0.247945
20
0.114317
11
0.244333
21
0.109952
0
LINE
8
BLACK
6
CONTINUOUS
10
0.244333
20
0.109952
11
0.244073
21
0.109541
0
LINE
8
BLACK
6
CONTINUOUS
10
0.244073
20
0.109541
11
0.241661
21
0.104415
0
LINE
8
BLACK
6
CONTINUOUS
10
0.241661
20
0.104415
11
0.24151
21
0.103952
0
LINE
8
BLACK
6
CONTINUOUS
10
0.24151
20
0.103952
11
0.240586
21
0.0991046
0
LINE
8
BLACK
6
CONTINUOUS
10
0.240586
20
0.0991046
11
0.240551
21
0.0987404
0
LINE
8
BLACK
6
CONTINUOUS
10
0.240551
20
0.0987404
11
0.240551
21
0.0964835
0
LINE
8
BLACK
6
CONTINUOUS
10
0.240551
20
0.0964835
11
0.240713
21
0.0959841
0
LINE
8
BLACK
6
CONTINUOUS
10
0.240713
20
0.0959841
11
0.240876
21
0.0958661
0
LINE
8
BLACK
6
CONTINUOUS
10
0.240876
20
0.0958661
11
0.256299
21
0.0958661
0
LINE
8
BLACK
6
CONTINUOUS
10
0.256299
20
0.0958661
11
0.256299
21
0.0966043
0
LINE
8
BLACK
6
CONTINUOUS
10
0.256299
20
0.0966043
11
0.256955
21
0.0999001
0
LINE
8
BLACK
6
CONTINUOUS
10
0.256955
20
0.0999001
11
0.258822
21
0.102694
0
LINE
8
BLACK
6
CONTINUOUS
10
0.258822
20
0.102694
11
0.261616
21
0.104561
0
LINE
8
BLACK
6
CONTINUOUS
10
0.261616
20
0.104561
11
0.264911
21
0.105217
0
LINE
8
BLACK
6
CONTINUOUS
10
0.264911
20
0.105217
11
0.285089
21
0.105217
0
LINE
8
BLACK
6
CONTINUOUS
10
0.285089
20
0.105217
11
0.288384
21
0.104561
0
LINE
8
BLACK
6
CONTINUOUS
10
0.288384
20
0.104561
11
0.291178
21
0.102694
0
LINE
8
BLACK
6
CONTINUOUS
10
0.291178
20
0.102694
11
0.293045
21
0.0999001
0
LINE
8
BLACK
6
CONTINUOUS
10
0.293045
20
0.0999001
11
0.293701
21
0.0966043
0
LINE
8
BLACK
6
CONTINUOUS
10
0.293701
20
0.0966043
11
0.293701
21
0.0958661
0
LINE
8
BLACK
6
CONTINUOUS
10
0.293701
20
0.0958661
11
0.308831
21
0.0958661
0
LINE
8
BLACK
6
CONTINUOUS
10
0.308831
20
0.0958661
11
0.309331
21
0.0960284
0
LINE
8
BLACK
6
CONTINUOUS
10
0.309331
20
0.0960284
11
0.309449
21
0.0961907
0
LINE
8
BLACK
6
CONTINUOUS
10
0.309449
20
0.0961907
11
0.309449
21
0.0980404
0
LINE
8
BLACK
6
CONTINUOUS
10
0.309449
20
0.0980404
11
0.309433
21
0.098284
0
LINE
8
BLACK
6
CONTINUOUS
10
0.309433
20
0.098284
11
0.308905
21
0.102468
0
LINE
8
BLACK
6
CONTINUOUS
10
0.308905
20
0.102468
11
0.308784
21
0.102939
0
LINE
8
BLACK
6
CONTINUOUS
10
0.308784
20
0.102939
11
0.306698
21
0.108207
0
LINE
8
BLACK
6
CONTINUOUS
10
0.306698
20
0.108207
11
0.306464
21
0.108633
0
LINE
8
BLACK
6
CONTINUOUS
10
0.306464
20
0.108633
11
0.304162
21
0.111801
0
LINE
8
BLACK
6
CONTINUOUS
10
0.304162
20
0.111801
11
0.303134
21
0.113217
0
LINE
8
BLACK
6
CONTINUOUS
10
0.303134
20
0.113217
11
0.302801
21
0.113571
0
LINE
8
BLACK
6
CONTINUOUS
10
0.474866
20
0.0999773
11
0.479256
21
0.0977404
0
LINE
8
BLACK
6
CONTINUOUS
10
0.479256
20
0.0977404
11
0.48274
21
0.0942565
0
LINE
8
BLACK
6
CONTINUOUS
10
0.48274
20
0.0942565
11
0.483665
21
0.0924409
0
LINE
8
BLACK
6
CONTINUOUS
10
0.483665
20
0.0924409
11
0.494094
21
0.0924409
0
LINE
8
BLACK
6
CONTINUOUS
10
0.494094
20
0.0924409
11
0.494094
21
0.0983465
0
LINE
8
BLACK
6
CONTINUOUS
10
0.494094
20
0.0983465
11
0.529528
21
0.0983465
0
LINE
8
BLACK
6
CONTINUOUS
10
0.529528
20
0.0983465
11
0.529528
21
0.0668504
0
LINE
8
BLACK
6
CONTINUOUS
10
0.529528
20
0.0668504
11
0.494094
21
0.0668504
0
LINE
8
BLACK
6
CONTINUOUS
10
0.494094
20
0.0668504
11
0.494094
21
0.0727559
0
LINE
8
BLACK
6
CONTINUOUS
10
0.494094
20
0.0727559
11
0.479753
21
0.0727559
0
LINE
8
BLACK
6
CONTINUOUS
10
0.479753
20
0.0727559
11
0.479256
21
0.0722596
0
LINE
8
BLACK
6
CONTINUOUS
10
0.479256
20
0.0722596
11
0.474866
21
0.0700227
0
LINE
8
BLACK
6
CONTINUOUS
10
0.474866
20
0.0700227
11
0.47
21
0.069252
0
LINE
8
BLACK
6
CONTINUOUS
10
0.47
20
0.069252
11
0.465134
21
0.0700227
0
LINE
8
BLACK
6
CONTINUOUS
10
0.465134
20
0.0700227
11
0.460744
21
0.0722596
0
LINE
8
BLACK
6
CONTINUOUS
10
0.460744
20
0.0722596
11
0.45726
21
0.0757435
0
LINE
8
BLACK
6
CONTINUOUS
10
0.45726
20
0.0757435
11
0.455023
21
0.0801336
0
LINE
8
BLACK
6
CONTINUOUS
10
0.455023
20
0.0801336
11
0.454252
21
0.085
0
LINE
8
BLACK
6
CONTINUOUS
10
0.454252
20
0.085
11
0.455023
21
0.0898664
0
LINE
8
BLACK
6
CONTINUOUS
10
0.455023
20
0.0898664
11
0.45726
21
0.0942565
0
LINE
8
BLACK
6
CONTINUOUS
10
0.45726
20
0.0942565
11
0.460744
21
0.0977404
0
LINE
8
BLACK
6
CONTINUOUS
10
0.460744
20
0.0977404
11
0.465134
21
0.0999773
0
LINE
8
BLACK
6
CONTINUOUS
10
0.465134
20
0.0999773
11
0.47
21
0.100748
0
LINE
8
BLACK
6
CONTINUOUS
10
0.47
20
0.100748
11
0.474866
21
0.0999773
0
LINE
8
BLACK
6
CONTINUOUS
10
0.399866
20
0.249977
11
0.404256
21
0.24774
0
LINE
8
BLACK
6
CONTINUOUS
10
0.404256
20
0.24774
11
0.40774
21
0.244256
0
LINE
8
BLACK
6
CONTINUOUS
10
0.40774
20
0.244256
11
0.409977
21
0.239866
0
LINE
8
BLACK
6
CONTINUOUS
10
0.409977
20
0.239866
11
0.410748
21
0.235
0
LINE
8
BLACK
6
CONTINUOUS
10
0.410748
20
0.235
11
0.409977
21
0.230134
0
LINE
8
BLACK
6
CONTINUOUS
10
0.409977
20
0.230134
11
0.40774
21
0.225744
0
LINE
8
BLACK
6
CONTINUOUS
10
0.40774
20
0.225744
11
0.404256
21
0.22226
0
LINE
8
BLACK
6
CONTINUOUS
10
0.404256
20
0.22226
11
0.399866
21
0.220023
0
LINE
8
BLACK
6
CONTINUOUS
10
0.399866
20
0.220023
11
0.395
21
0.219252
0
LINE
8
BLACK
6
CONTINUOUS
10
0.395
20
0.219252
11
0.390134
21
0.220023
0
LINE
8
BLACK
6
CONTINUOUS
10
0.390134
20
0.220023
11
0.385744
21
0.22226
0
LINE
8
BLACK
6
CONTINUOUS
10
0.385744
20
0.22226
11
0.382846
21
0.225157
0
LINE
8
BLACK
6
CONTINUOUS
10
0.382846
20
0.225157
11
0.368701
21
0.225157
0
LINE
8
BLACK
6
CONTINUOUS
10
0.368701
20
0.225157
11
0.368701
21
0.221388
0
LINE
8
BLACK
6
CONTINUOUS
10
0.368701
20
0.221388
11
0.368045
21
0.218092
0
LINE
8
BLACK
6
CONTINUOUS
10
0.368045
20
0.218092
11
0.366178
21
0.215298
0
LINE
8
BLACK
6
CONTINUOUS
10
0.366178
20
0.215298
11
0.363384
21
0.213431
0
LINE
8
BLACK
6
CONTINUOUS
10
0.363384
20
0.213431
11
0.360089
21
0.212776
0
LINE
8
BLACK
6
CONTINUOUS
10
0.360089
20
0.212776
11
0.339911
21
0.212776
0
LINE
8
BLACK
6
CONTINUOUS
10
0.339911
20
0.212776
11
0.336616
21
0.213431
0
LINE
8
BLACK
6
CONTINUOUS
10
0.336616
20
0.213431
11
0.333822
21
0.215298
0
LINE
8
BLACK
6
CONTINUOUS
10
0.333822
20
0.215298
11
0.331955
21
0.218092
0
LINE
8
BLACK
6
CONTINUOUS
10
0.331955
20
0.218092
11
0.331544
21
0.220157
0
LINE
8
BLACK
6
CONTINUOUS
10
0.331544
20
0.220157
11
0.2975
21
0.220157
0
LINE
8
BLACK
6
CONTINUOUS
10
0.2975
20
0.220157
11
0.2975
21
0.215
0
LINE
8
BLACK
6
CONTINUOUS
10
0.2975
20
0.215
11
0.284843
21
0.215
0
LINE
8
BLACK
6
CONTINUOUS
10
0.284843
20
0.215
11
0.284843
21
0.167224
0
LINE
8
BLACK
6
CONTINUOUS
10
0.284843
20
0.167224
11
0.285089
21
0.167224
0
LINE
8
BLACK
6
CONTINUOUS
10
0.285089
20
0.167224
11
0.288384
21
0.166569
0
LINE
8
BLACK
6
CONTINUOUS
10
0.288384
20
0.166569
11
0.291178
21
0.164702
0
LINE
8
BLACK
6
CONTINUOUS
10
0.291178
20
0.164702
11
0.293045
21
0.161908
0
LINE
8
BLACK
6
CONTINUOUS
10
0.293045
20
0.161908
11
0.293701
21
0.158612
0
LINE
8
BLACK
6
CONTINUOUS
10
0.293701
20
0.158612
11
0.293701
21
0.141388
0
LINE
8
BLACK
6
CONTINUOUS
10
0.293701
20
0.141388
11
0.293045
21
0.138092
0
LINE
8
BLACK
6
CONTINUOUS
10
0.293045
20
0.138092
11
0.291178
21
0.135298
0
LINE
8
BLACK
6
CONTINUOUS
10
0.291178
20
0.135298
11
0.288384
21
0.133431
0
LINE
8
BLACK
6
CONTINUOUS
10
0.288384
20
0.133431
11
0.285089
21
0.132776
0
LINE
8
BLACK
6
CONTINUOUS
10
0.285089
20
0.132776
11
0.264911
21
0.132776
0
LINE
8
BLACK
6
CONTINUOUS
10
0.264911
20
0.132776
11
0.261616
21
0.133431
0
LINE
8
BLACK
6
CONTINUOUS
10
0.261616
20
0.133431
11
0.258822
21
0.135298
0
LINE
8
BLACK
6
CONTINUOUS
10
0.258822
20
0.135298
11
0.256955
21
0.138092
0
LINE
8
BLACK
6
CONTINUOUS
10
0.256955
20
0.138092
11
0.256299
21
0.141388
0
LINE
8
BLACK
6
CONTINUOUS
10
0.256299
20
0.141388
11
0.256299
21
0.158612
0
LINE
8
BLACK
6
CONTINUOUS
10
0.256299
20
0.158612
11
0.256955
21
0.161908
0
LINE
8
BLACK
6
CONTINUOUS
10
0.256955
20
0.161908
11
0.258822
21
0.164702
0
LINE
8
BLACK
6
CONTINUOUS
10
0.258822
20
0.164702
11
0.261616
21
0.166569
0
LINE
8
BLACK
6
CONTINUOUS
10
0.261616
20
0.166569
11
0.264911
21
0.167224
0
LINE
8
BLACK
6
CONTINUOUS
10
0.264911
20
0.167224
11
0.265157
21
0.167224
0
LINE
8
BLACK
6
CONTINUOUS
10
0.265157
20
0.167224
11
0.265157
21
0.215
0
LINE
8
BLACK
6
CONTINUOUS
10
0.265157
20
0.215
11
0.2425
21
0.215
0
LINE
8
BLACK
6
CONTINUOUS
10
0.2425
20
0.215
11
0.2425
21
0.222657
0
LINE
8
BLACK
6
CONTINUOUS
10
0.2425
20
0.222657
11
0.199923
21
0.222657
0
LINE
8
BLACK
6
CONTINUOUS
10
0.199923
20
0.222657
11
0.190197
21
0.212931
0
LINE
8
BLACK
6
CONTINUOUS
10
0.190197
20
0.212931
11
0.190197
21
0.16685
0
LINE
8
BLACK
6
CONTINUOUS
10
0.190197
20
0.16685
11
0.130197
21
0.16685
0
LINE
8
BLACK
6
CONTINUOUS
10
0.130197
20
0.16685
11
0.130197
21
0.22685
0
LINE
8
BLACK
6
CONTINUOUS
10
0.130197
20
0.22685
11
0.176277
21
0.22685
0
LINE
8
BLACK
6
CONTINUOUS
10
0.176277
20
0.22685
11
0.188887
21
0.23946
0
LINE
8
BLACK
6
CONTINUOUS
10
0.188887
20
0.23946
11
0.188887
21
0.23946
0
LINE
8
BLACK
6
CONTINUOUS
10
0.188887
20
0.23946
11
0.19208
21
0.241593
0
LINE
8
BLACK
6
CONTINUOUS
10
0.19208
20
0.241593
11
0.195846
21
0.242343
0
LINE
8
BLACK
6
CONTINUOUS
10
0.195846
20
0.242343
11
0.2425
21
0.242343
0
LINE
8
BLACK
6
CONTINUOUS
10
0.2425
20
0.242343
11
0.2425
21
0.25
0
LINE
8
BLACK
6
CONTINUOUS
10
0.2425
20
0.25
11
0.2975
21
0.25
0
LINE
8
BLACK
6
CONTINUOUS
10
0.2975
20
0.25
11
0.2975
21
0.239843
0
LINE
8
BLACK
6
CONTINUOUS
10
0.2975
20
0.239843
11
0.331544
21
0.239843
0
LINE
8
BLACK
6
CONTINUOUS
10
0.331544
20
0.239843
11
0.331955
21
0.241908
0
LINE
8
BLACK
6
CONTINUOUS
10
0.331955
20
0.241908
11
0.333822
21
0.244702
0
LINE
8
BLACK
6
CONTINUOUS
10
0.333822
20
0.244702
11
0.336616
21
0.246569
0
LINE
8
BLACK
6
CONTINUOUS
10
0.336616
20
0.246569
11
0.339911
21
0.247224
0
LINE
8
BLACK
6
CONTINUOUS
10
0.339911
20
0.247224
11
0.360089
21
0.247224
0
LINE
8
BLACK
6
CONTINUOUS
10
0.360089
20
0.247224
11
0.363384
21
0.246569
0
LINE
8
BLACK
6
CONTINUOUS
10
0.363384
20
0.246569
11
0.365968
21
0.244843
0
LINE
8
BLACK
6
CONTINUOUS
10
0.365968
20
0.244843
11
0.382846
21
0.244843
0
LINE
8
BLACK
6
CONTINUOUS
10
0.382846
20
0.244843
11
0.385744
21
0.24774
0
LINE
8
BLACK
6
CONTINUOUS
10
0.385744
20
0.24774
11
0.390134
21
0.249977
0
LINE
8
BLACK
6
CONTINUOUS
10
0.390134
20
0.249977
11
0.395
21
0.250748
0
LINE
8
BLACK
6
CONTINUOUS
10
0.395
20
0.250748
11
0.399866
21
0.249977
0
LINE
8
BLACK
6
CONTINUOUS
10
0.404866
20
0.181513
11
0.409256
21
0.179276
0
LINE
8
BLACK
6
CONTINUOUS
10
0.409256
20
0.179276
11
0.41274
21
0.175792
0
LINE
8
BLACK
6
CONTINUOUS
10
0.41274
20
0.175792
11
0.414977
21
0.171402
0
LINE
8
BLACK
6
CONTINUOUS
10
0.414977
20
0.171402
11
0.415636
21
0.167244
0
LINE
8
BLACK
6
CONTINUOUS
10
0.415636
20
0.167244
11
0.494094
21
0.167244
0
LINE
8
BLACK
6
CONTINUOUS
10
0.494094
20
0.167244
11
0.494094
21
0.17315
0
LINE
8
BLACK
6
CONTINUOUS
10
0.494094
20
0.17315
11
0.529528
21
0.17315
0
LINE
8
BLACK
6
CONTINUOUS
10
0.529528
20
0.17315
11
0.529528
21
0.141654
0
LINE
8
BLACK
6
CONTINUOUS
10
0.529528
20
0.141654
11
0.494094
21
0.141654
0
LINE
8
BLACK
6
CONTINUOUS
10
0.494094
20
0.141654
11
0.494094
21
0.147559
0
LINE
8
BLACK
6
CONTINUOUS
10
0.494094
20
0.147559
11
0.409134
21
0.147559
0
LINE
8
BLACK
6
CONTINUOUS
10
0.409134
20
0.147559
11
0.409134
21
0.147559
0
LINE
8
BLACK
6
CONTINUOUS
10
0.409134
20
0.147559
11
0.405367
21
0.148308
0
LINE
8
BLACK
6
CONTINUOUS
10
0.405367
20
0.148308
11
0.403491
21
0.149562
0
LINE
8
BLACK
6
CONTINUOUS
10
0.403491
20
0.149562
11
0.402174
21
0.150442
0
LINE
8
BLACK
6
CONTINUOUS
10
0.402174
20
0.150442
11
0.402174
21
0.150442
0
LINE
8
BLACK
6
CONTINUOUS
10
0.402174
20
0.150442
11
0.401579
21
0.151037
0
LINE
8
BLACK
6
CONTINUOUS
10
0.401579
20
0.151037
11
0.4
21
0.150787
0
LINE
8
BLACK
6
CONTINUOUS
10
0.4
20
0.150787
11
0.395134
21
0.151558
0
LINE
8
BLACK
6
CONTINUOUS
10
0.395134
20
0.151558
11
0.390744
21
0.153795
0
LINE
8
BLACK
6
CONTINUOUS
10
0.390744
20
0.153795
11
0.38726
21
0.157279
0
LINE
8
BLACK
6
CONTINUOUS
10
0.38726
20
0.157279
11
0.385023
21
0.161669
0
LINE
8
BLACK
6
CONTINUOUS
10
0.385023
20
0.161669
11
0.384252
21
0.166535
0
LINE
8
BLACK
6
CONTINUOUS
10
0.384252
20
0.166535
11
0.385023
21
0.171402
0
LINE
8
BLACK
6
CONTINUOUS
10
0.385023
20
0.171402
11
0.38726
21
0.175792
0
LINE
8
BLACK
6
CONTINUOUS
10
0.38726
20
0.175792
11
0.390744
21
0.179276
0
LINE
8
BLACK
6
CONTINUOUS
10
0.390744
20
0.179276
11
0.395134
21
0.181513
0
LINE
8
BLACK
6
CONTINUOUS
10
0.395134
20
0.181513
11
0.4
21
0.182283
0
LINE
8
BLACK
6
CONTINUOUS
10
0.4
20
0.182283
11
0.404866
21
0.181513
0
LINE
8
BLACK
6
CONTINUOUS
10
0.368701
20
0.172773
11
0.368701
21
0.15938
0
LINE
8
BLACK
6
CONTINUOUS
10
0.368701
20
0.15938
11
0.368045
21
0.156084
0
LINE
8
BLACK
6
CONTINUOUS
10
0.368045
20
0.156084
11
0.366178
21
0.15329
0
LINE
8
BLACK
6
CONTINUOUS
10
0.366178
20
0.15329
11
0.363384
21
0.151423
0
LINE
8
BLACK
6
CONTINUOUS
10
0.363384
20
0.151423
11
0.360089
21
0.150768
0
LINE
8
BLACK
6
CONTINUOUS
10
0.360089
20
0.150768
11
0.339911
21
0.150768
0
LINE
8
BLACK
6
CONTINUOUS
10
0.339911
20
0.150768
11
0.336616
21
0.151423
0
LINE
8
BLACK
6
CONTINUOUS
10
0.336616
20
0.151423
11
0.333822
21
0.15329
0
LINE
8
BLACK
6
CONTINUOUS
10
0.333822
20
0.15329
11
0.331955
21
0.156084
0
LINE
8
BLACK
6
CONTINUOUS
10
0.331955
20
0.156084
11
0.331299
21
0.15938
0
LINE
8
BLACK
6
CONTINUOUS
10
0.331299
20
0.15938
11
0.331299
21
0.176604
0
LINE
8
BLACK
6
CONTINUOUS
10
0.331299
20
0.176604
11
0.331955
21
0.1799
0
LINE
8
BLACK
6
CONTINUOUS
10
0.331955
20
0.1799
11
0.333822
21
0.182694
0
LINE
8
BLACK
6
CONTINUOUS
10
0.333822
20
0.182694
11
0.336616
21
0.184561
0
LINE
8
BLACK
6
CONTINUOUS
10
0.336616
20
0.184561
11
0.339911
21
0.185217
0
LINE
8
BLACK
6
CONTINUOUS
10
0.339911
20
0.185217
11
0.353305
21
0.185217
0
LINE
8
BLACK
6
CONTINUOUS
10
0.353305
20
0.185217
11
0.375048
21
0.20696
0
LINE
8
BLACK
6
CONTINUOUS
10
0.375048
20
0.20696
11
0.375048
21
0.20696
0
LINE
8
BLACK
6
CONTINUOUS
10
0.375048
20
0.20696
11
0.378241
21
0.209093
0
LINE
8
BLACK
6
CONTINUOUS
10
0.378241
20
0.209093
11
0.378635
21
0.209172
0
LINE
8
BLACK
6
CONTINUOUS
10
0.378635
20
0.209172
11
0.382008
21
0.209843
0
LINE
8
BLACK
6
CONTINUOUS
10
0.382008
20
0.209843
11
0.382008
21
0.209843
0
LINE
8
BLACK
6
CONTINUOUS
10
0.382008
20
0.209843
11
0.480923
21
0.209843
0
LINE
8
BLACK
6
CONTINUOUS
10
0.480923
20
0.209843
11
0.487402
21
0.216321
0
LINE
8
BLACK
6
CONTINUOUS
10
0.487402
20
0.216321
11
0.487402
21
0.230236
0
LINE
8
BLACK
6
CONTINUOUS
10
0.487402
20
0.230236
11
0.480512
21
0.230236
0
LINE
8
BLACK
6
CONTINUOUS
10
0.480512
20
0.230236
11
0.480512
21
0.267638
0
LINE
8
BLACK
6
CONTINUOUS
10
0.480512
20
0.267638
11
0.513976
21
0.267638
0
LINE
8
BLACK
6
CONTINUOUS
10
0.513976
20
0.267638
11
0.513976
21
0.230236
0
LINE
8
BLACK
6
CONTINUOUS
10
0.513976
20
0.230236
11
0.507087
21
0.230236
0
LINE
8
BLACK
6
CONTINUOUS
10
0.507087
20
0.230236
11
0.507087
21
0.212244
0
LINE
8
BLACK
6
CONTINUOUS
10
0.507087
20
0.212244
11
0.506337
21
0.208478
0
LINE
8
BLACK
6
CONTINUOUS
10
0.506337
20
0.208478
11
0.504204
21
0.205284
0
LINE
8
BLACK
6
CONTINUOUS
10
0.504204
20
0.205284
11
0.504204
21
0.205284
0
LINE
8
BLACK
6
CONTINUOUS
10
0.504204
20
0.205284
11
0.49196
21
0.19304
0
LINE
8
BLACK
6
CONTINUOUS
10
0.49196
20
0.19304
11
0.49196
21
0.19304
0
LINE
8
BLACK
6
CONTINUOUS
10
0.49196
20
0.19304
11
0.488767
21
0.190907
0
LINE
8
BLACK
6
CONTINUOUS
10
0.488767
20
0.190907
11
0.485
21
0.190157
0
LINE
8
BLACK
6
CONTINUOUS
10
0.485
20
0.190157
11
0.386085
21
0.190157
0
LINE
8
BLACK
6
CONTINUOUS
10
0.386085
20
0.190157
11
0.368701
21
0.172773
0
LINE
8
BLACK
6
CONTINUOUS
10
0.190197
20
0.317343
11
0.2425
21
0.317343
0
LINE
8
BLACK
6
CONTINUOUS
10
0.2425
20
0.317343
11
0.2425
21
0.325
0
LINE
8
BLACK
6
CONTINUOUS
10
0.2425
20
0.325
11
0.2975
21
0.325
0
LINE
8
BLACK
6
CONTINUOUS
10
0.2975
20
0.325
11
0.2975
21
0.311419
0
LINE
8
BLACK
6
CONTINUOUS
10
0.2975
20
0.311419
11
0.309077
21
0.299843
0
LINE
8
BLACK
6
CONTINUOUS
10
0.309077
20
0.299843
11
0.332846
21
0.299843
0
LINE
8
BLACK
6
CONTINUOUS
10
0.332846
20
0.299843
11
0.335744
21
0.30274
0
LINE
8
BLACK
6
CONTINUOUS
10
0.335744
20
0.30274
11
0.340134
21
0.304977
0
LINE
8
BLACK
6
CONTINUOUS
10
0.340134
20
0.304977
11
0.345
21
0.305748
0
LINE
8
BLACK
6
CONTINUOUS
10
0.345
20
0.305748
11
0.349866
21
0.304977
0
LINE
8
BLACK
6
CONTINUOUS
10
0.349866
20
0.304977
11
0.354256
21
0.30274
0
LINE
8
BLACK
6
CONTINUOUS
10
0.354256
20
0.30274
11
0.357154
21
0.299843
0
LINE
8
BLACK
6
CONTINUOUS
10
0.357154
20
0.299843
11
0.430906
21
0.299843
0
LINE
8
BLACK
6
CONTINUOUS
10
0.430906
20
0.299843
11
0.430906
21
0.324724
0
LINE
8
BLACK
6
CONTINUOUS
10
0.430906
20
0.324724
11
0.469094
21
0.324724
0
LINE
8
BLACK
6
CONTINUOUS
10
0.469094
20
0.324724
11
0.469094
21
0.279449
0
LINE
8
BLACK
6
CONTINUOUS
10
0.469094
20
0.279449
11
0.430906
21
0.279449
0
LINE
8
BLACK
6
CONTINUOUS
10
0.430906
20
0.279449
11
0.430906
21
0.280157
0
LINE
8
BLACK
6
CONTINUOUS
10
0.430906
20
0.280157
11
0.357154
21
0.280157
0
LINE
8
BLACK
6
CONTINUOUS
10
0.357154
20
0.280157
11
0.354256
21
0.27726
0
LINE
8
BLACK
6
CONTINUOUS
10
0.354256
20
0.27726
11
0.349866
21
0.275023
0
LINE
8
BLACK
6
CONTINUOUS
10
0.349866
20
0.275023
11
0.345
21
0.274252
0
LINE
8
BLACK
6
CONTINUOUS
10
0.345
20
0.274252
11
0.340134
21
0.275023
0
LINE
8
BLACK
6
CONTINUOUS
10
0.340134
20
0.275023
11
0.335744
21
0.27726
0
LINE
8
BLACK
6
CONTINUOUS
10
0.335744
20
0.27726
11
0.332846
21
0.280157
0
LINE
8
BLACK
6
CONTINUOUS
10
0.332846
20
0.280157
11
0.305
21
0.280157
0
LINE
8
BLACK
6
CONTINUOUS
10
0.305
20
0.280157
11
0.301233
21
0.280907
0
LINE
8
BLACK
6
CONTINUOUS
10
0.301233
20
0.280907
11
0.29804
21
0.28304
0
LINE
8
BLACK
6
CONTINUOUS
10
0.29804
20
0.28304
11
0.291081
21
0.29
0
LINE
8
BLACK
6
CONTINUOUS
10
0.291081
20
0.29
11
0.2425
21
0.29
0
LINE
8
BLACK
6
CONTINUOUS
10
0.2425
20
0.29
11
0.2425
21
0.297657
0
LINE
8
BLACK
6
CONTINUOUS
10
0.2425
20
0.297657
11
0.190197
21
0.297657
0
LINE
8
BLACK
6
CONTINUOUS
10
0.190197
20
0.297657
11
0.190197
21
0.26685
0
LINE
8
BLACK
6
CONTINUOUS
10
0.190197
20
0.26685
11
0.130197
21
0.26685
0
LINE
8
BLACK
6
CONTINUOUS
10
0.130197
20
0.26685
11
0.130197
21
0.32685
0
LINE
8
BLACK
6
CONTINUOUS
10
0.130197
20
0.32685
11
0.190197
21
0.32685
0
LINE
8
BLACK
6
CONTINUOUS
10
0.190197
20
0.32685
11
0.190197
21
0.317343
0
CIRCLE
8
BLACK
10
0.395
20
0.235
40
0.00787402
0
CIRCLE
8
BLACK
10
0.4
20
0.166535
40
0.00787402
0
CIRCLE
8
BLACK
10
0.445
20
0.03
40
0.00787402
0
CIRCLE
8
BLACK
10
0.375
20
0.11
40
0.00787402
0
CIRCLE
8
BLACK
10
0.445
20
0.36
40
0.00787402
0
CIRCLE
8
BLACK
10
0.5
20
0.36
40
0.00787402
0
CIRCLE
8
BLACK
10
0.495
20
0.03
40
0.00787402
0
CIRCLE
8
BLACK
10
0.27
20
0.035
40
0.00787402
0
CIRCLE
8
BLACK
10
0.345
20
0.29
40
0.00787402
0
CIRCLE
8
BLACK
10
0.47
20
0.085
40
0.00787402
  0
ENDSEC
  0
EOF
