  0
SECTION
  2
HEADER
  9
$ANGBASE
  50
0.0
  9
$ANGDIR
  70
1
  9
$MEASUREMENT
  70
0
  0
ENDSEC
  0
SECTION
  2
TABLES
  0
TABLE
  2
LTYPE
  70
4
  0
LTYPE
  5
40F
  2
CONTINUOUS
  70
0
  3
Solid line
  72
65
  73
0
  40
0.0
  0
LTYPE
  5
410
  2
DASHDOT
 70
0
  3
Dash Dot ____ _ ____ _
 72
65
 73
4
 40
2.0
 49
1.25
 49
-0.25
 49
0.25
 49
-0.25
  0
LTYPE
  5
411
  2
DASHED
 70
0
  3
Dashed __ __ __ __ __
 72
65
 73
2
 40
0.75
 49
0.5
 49
-0.25
  0
LTYPE
  5
43B
  2
DOTTED
 70
0
  3
Dotted .  .  .  .
 72
65
 73
2
 40
0.2
 49
0.0
 49
-0.2
  0
ENDTAB
  0
TABLE
  2
STYLE
  70
4
  0
STYLE
  2
KICAD
  70
0
  40
0
  41
1
  42
1
  50
0
  71
0
  3
isocp.shx
  0
STYLE
  2
KICADB
  70
0
  40
0
  41
1
  42
1
  50
0
  71
0
  3
isocp.shx
  0
STYLE
  2
KICADI
  70
0
  40
0
  41
1
  42
1
  50
15
  71
0
  3
isocp.shx
  0
STYLE
  2
KICADBI
  70
0
  40
0
  41
1
  42
1
  50
15
  71
0
  3
isocp.shx
  0
ENDTAB
  0
TABLE
  2
LAYER
  70
1
  0
LAYER
  2
BLACK
  70
0
  62
7
  6
CONTINUOUS
  0
ENDTAB
  0
ENDSEC
  0
SECTION
  2
ENTITIES
0
LINE
8
BLACK
6
CONTINUOUS
10
0.404816
20
0.0504064
11
0.404528
21
0.0511024
0
LINE
8
BLACK
6
CONTINUOUS
10
0.404528
20
0.0511024
11
0.404528
21
0.188898
0
LINE
8
BLACK
6
CONTINUOUS
10
0.404528
20
0.188898
11
0.404816
21
0.189594
0
LINE
8
BLACK
6
CONTINUOUS
10
0.404816
20
0.189594
11
0.405512
21
0.189882
0
LINE
8
BLACK
6
CONTINUOUS
10
0.405512
20
0.189882
11
0.53937
21
0.189882
0
LINE
8
BLACK
6
CONTINUOUS
10
0.53937
20
0.189882
11
0.540066
21
0.189594
0
LINE
8
BLACK
6
CONTINUOUS
10
0.540066
20
0.189594
11
0.540354
21
0.188898
0
LINE
8
BLACK
6
CONTINUOUS
10
0.540354
20
0.188898
11
0.540354
21
0.0511024
0
LINE
8
BLACK
6
CONTINUOUS
10
0.540354
20
0.0511024
11
0.540066
21
0.0504064
0
LINE
8
BLACK
6
CONTINUOUS
10
0.540066
20
0.0504064
11
0.53937
21
0.0501181
0
LINE
8
BLACK
6
CONTINUOUS
10
0.53937
20
0.0501181
11
0.405512
21
0.0501181
0
LINE
8
BLACK
6
CONTINUOUS
10
0.405512
20
0.0501181
11
0.404816
21
0.0504064
0
LINE
8
BLACK
6
CONTINUOUS
10
0.406496
20
0.187913
11
0.406496
21
0.0520866
0
LINE
8
BLACK
6
CONTINUOUS
10
0.406496
20
0.0520866
11
0.538386
21
0.0520866
0
LINE
8
BLACK
6
CONTINUOUS
10
0.538386
20
0.0520866
11
0.538386
21
0.187913
0
LINE
8
BLACK
6
CONTINUOUS
10
0.538386
20
0.187913
11
0.406496
21
0.187913
0
LINE
8
BLACK
6
CONTINUOUS
10
0.245564
20
0.0600324
11
0.245276
21
0.0607283
0
LINE
8
BLACK
6
CONTINUOUS
10
0.245276
20
0.0607283
11
0.245276
21
0.177264
0
LINE
8
BLACK
6
CONTINUOUS
10
0.245276
20
0.177264
11
0.245564
21
0.17796
0
LINE
8
BLACK
6
CONTINUOUS
10
0.245564
20
0.17796
11
0.24626
21
0.178248
0
LINE
8
BLACK
6
CONTINUOUS
10
0.24626
20
0.178248
11
0.30374
21
0.178248
0
LINE
8
BLACK
6
CONTINUOUS
10
0.30374
20
0.178248
11
0.304436
21
0.17796
0
LINE
8
BLACK
6
CONTINUOUS
10
0.304436
20
0.17796
11
0.304724
21
0.177264
0
LINE
8
BLACK
6
CONTINUOUS
10
0.304724
20
0.177264
11
0.304724
21
0.0607283
0
LINE
8
BLACK
6
CONTINUOUS
10
0.304724
20
0.0607283
11
0.304436
21
0.0600324
0
LINE
8
BLACK
6
CONTINUOUS
10
0.304436
20
0.0600324
11
0.30374
21
0.0597441
0
LINE
8
BLACK
6
CONTINUOUS
10
0.30374
20
0.0597441
11
0.24626
21
0.0597441
0
LINE
8
BLACK
6
CONTINUOUS
10
0.24626
20
0.0597441
11
0.245564
21
0.0600324
0
LINE
8
BLACK
6
CONTINUOUS
10
0.247244
20
0.17628
11
0.247244
21
0.0617126
0
LINE
8
BLACK
6
CONTINUOUS
10
0.247244
20
0.0617126
11
0.302756
21
0.0617126
0
LINE
8
BLACK
6
CONTINUOUS
10
0.302756
20
0.0617126
11
0.302756
21
0.17628
0
LINE
8
BLACK
6
CONTINUOUS
10
0.302756
20
0.17628
11
0.247244
21
0.17628
0
LINE
8
BLACK
6
CONTINUOUS
10
0.320564
20
0.140032
11
0.320276
21
0.140728
0
LINE
8
BLACK
6
CONTINUOUS
10
0.320276
20
0.140728
11
0.320276
21
0.257264
0
LINE
8
BLACK
6
CONTINUOUS
10
0.320276
20
0.257264
11
0.320564
21
0.25796
0
LINE
8
BLACK
6
CONTINUOUS
10
0.320564
20
0.25796
11
0.32126
21
0.258248
0
LINE
8
BLACK
6
CONTINUOUS
10
0.32126
20
0.258248
11
0.37874
21
0.258248
0
LINE
8
BLACK
6
CONTINUOUS
10
0.37874
20
0.258248
11
0.379436
21
0.25796
0
LINE
8
BLACK
6
CONTINUOUS
10
0.379436
20
0.25796
11
0.379724
21
0.257264
0
LINE
8
BLACK
6
CONTINUOUS
10
0.379724
20
0.257264
11
0.379724
21
0.140728
0
LINE
8
BLACK
6
CONTINUOUS
10
0.379724
20
0.140728
11
0.379436
21
0.140032
0
LINE
8
BLACK
6
CONTINUOUS
10
0.379436
20
0.140032
11
0.37874
21
0.139744
0
LINE
8
BLACK
6
CONTINUOUS
10
0.37874
20
0.139744
11
0.32126
21
0.139744
0
LINE
8
BLACK
6
CONTINUOUS
10
0.32126
20
0.139744
11
0.320564
21
0.140032
0
LINE
8
BLACK
6
CONTINUOUS
10
0.322244
20
0.25628
11
0.322244
21
0.141713
0
LINE
8
BLACK
6
CONTINUOUS
10
0.322244
20
0.141713
11
0.377756
21
0.141713
0
LINE
8
BLACK
6
CONTINUOUS
10
0.377756
20
0.141713
11
0.377756
21
0.25628
0
LINE
8
BLACK
6
CONTINUOUS
10
0.377756
20
0.25628
11
0.322244
21
0.25628
0
LINE
8
BLACK
6
CONTINUOUS
10
0.41269
20
0.219698
11
0.412402
21
0.220394
0
LINE
8
BLACK
6
CONTINUOUS
10
0.412402
20
0.220394
11
0.412402
21
0.334567
0
LINE
8
BLACK
6
CONTINUOUS
10
0.412402
20
0.334567
11
0.41269
21
0.335263
0
LINE
8
BLACK
6
CONTINUOUS
10
0.41269
20
0.335263
11
0.413386
21
0.335551
0
LINE
8
BLACK
6
CONTINUOUS
10
0.413386
20
0.335551
11
0.531496
21
0.335551
0
LINE
8
BLACK
6
CONTINUOUS
10
0.531496
20
0.335551
11
0.532192
21
0.335263
0
LINE
8
BLACK
6
CONTINUOUS
10
0.532192
20
0.335263
11
0.53248
21
0.334567
0
LINE
8
BLACK
6
CONTINUOUS
10
0.53248
20
0.334567
11
0.53248
21
0.220394
0
LINE
8
BLACK
6
CONTINUOUS
10
0.53248
20
0.220394
11
0.532192
21
0.219698
0
LINE
8
BLACK
6
CONTINUOUS
10
0.532192
20
0.219698
11
0.531496
21
0.219409
0
LINE
8
BLACK
6
CONTINUOUS
10
0.531496
20
0.219409
11
0.413386
21
0.219409
0
LINE
8
BLACK
6
CONTINUOUS
10
0.413386
20
0.219409
11
0.41269
21
0.219698
0
LINE
8
BLACK
6
CONTINUOUS
10
0.41437
20
0.333583
11
0.41437
21
0.221378
0
LINE
8
BLACK
6
CONTINUOUS
10
0.41437
20
0.221378
11
0.530512
21
0.221378
0
LINE
8
BLACK
6
CONTINUOUS
10
0.530512
20
0.221378
11
0.530512
21
0.333583
0
LINE
8
BLACK
6
CONTINUOUS
10
0.530512
20
0.333583
11
0.41437
21
0.333583
  0
ENDSEC
  0
EOF
