  0
SECTION
  2
HEADER
  9
$ANGBASE
  50
0.0
  9
$ANGDIR
  70
1
  9
$MEASUREMENT
  70
0
  0
ENDSEC
  0
SECTION
  2
TABLES
  0
TABLE
  2
LTYPE
  70
4
  0
LTYPE
  5
40F
  2
CONTINUOUS
  70
0
  3
Solid line
  72
65
  73
0
  40
0.0
  0
LTYPE
  5
410
  2
DASHDOT
 70
0
  3
Dash Dot ____ _ ____ _
 72
65
 73
4
 40
2.0
 49
1.25
 49
-0.25
 49
0.25
 49
-0.25
  0
LTYPE
  5
411
  2
DASHED
 70
0
  3
Dashed __ __ __ __ __
 72
65
 73
2
 40
0.75
 49
0.5
 49
-0.25
  0
LTYPE
  5
43B
  2
DOTTED
 70
0
  3
Dotted .  .  .  .
 72
65
 73
2
 40
0.2
 49
0.0
 49
-0.2
  0
ENDTAB
  0
TABLE
  2
STYLE
  70
4
  0
STYLE
  2
KICAD
  70
0
  40
0
  41
1
  42
1
  50
0
  71
0
  3
isocp.shx
  0
STYLE
  2
KICADB
  70
0
  40
0
  41
1
  42
1
  50
0
  71
0
  3
isocp.shx
  0
STYLE
  2
KICADI
  70
0
  40
0
  41
1
  42
1
  50
15
  71
0
  3
isocp.shx
  0
STYLE
  2
KICADBI
  70
0
  40
0
  41
1
  42
1
  50
15
  71
0
  3
isocp.shx
  0
ENDTAB
  0
TABLE
  2
LAYER
  70
1
  0
LAYER
  2
BLACK
  70
0
  62
7
  6
CONTINUOUS
  0
ENDTAB
  0
ENDSEC
  0
SECTION
  2
ENTITIES
0
LINE
8
BLACK
6
CONTINUOUS
10
0.21058
20
0.349736
11
0.21071
21
0.349758
0
LINE
8
BLACK
6
CONTINUOUS
10
0.21071
20
0.349758
11
0.210823
21
0.349693
0
LINE
8
BLACK
6
CONTINUOUS
10
0.210823
20
0.349693
11
0.211207
21
0.349625
0
LINE
8
BLACK
6
CONTINUOUS
10
0.211207
20
0.349625
11
0.211794
21
0.349132
0
LINE
8
BLACK
6
CONTINUOUS
10
0.211794
20
0.349132
11
0.212459
21
0.348748
0
LINE
8
BLACK
6
CONTINUOUS
10
0.212459
20
0.348748
11
0.21255
21
0.348498
0
LINE
8
BLACK
6
CONTINUOUS
10
0.21255
20
0.348498
11
0.212754
21
0.348327
0
LINE
8
BLACK
6
CONTINUOUS
10
0.212754
20
0.348327
11
0.212887
21
0.347571
0
LINE
8
BLACK
6
CONTINUOUS
10
0.212887
20
0.347571
11
0.21315
21
0.34685
0
LINE
8
BLACK
6
CONTINUOUS
10
0.21315
20
0.34685
11
0.21315
21
0.0468504
0
LINE
8
BLACK
6
CONTINUOUS
10
0.21315
20
0.0468504
11
0.213082
21
0.0464669
0
LINE
8
BLACK
6
CONTINUOUS
10
0.213082
20
0.0464669
11
0.213105
21
0.0463376
0
LINE
8
BLACK
6
CONTINUOUS
10
0.213105
20
0.0463376
11
0.213039
21
0.046224
0
LINE
8
BLACK
6
CONTINUOUS
10
0.213039
20
0.046224
11
0.212972
21
0.0458405
0
LINE
8
BLACK
6
CONTINUOUS
10
0.212972
20
0.0458405
11
0.212478
21
0.0452528
0
LINE
8
BLACK
6
CONTINUOUS
10
0.212478
20
0.0452528
11
0.212095
21
0.0445885
0
LINE
8
BLACK
6
CONTINUOUS
10
0.212095
20
0.0445885
11
0.211844
21
0.0444974
0
LINE
8
BLACK
6
CONTINUOUS
10
0.211844
20
0.0444974
11
0.211673
21
0.0442932
0
LINE
8
BLACK
6
CONTINUOUS
10
0.211673
20
0.0442932
11
0.210918
21
0.04416
0
LINE
8
BLACK
6
CONTINUOUS
10
0.210918
20
0.04416
11
0.210197
21
0.0438976
0
LINE
8
BLACK
6
CONTINUOUS
10
0.210197
20
0.0438976
11
0.110197
21
0.0438976
0
LINE
8
BLACK
6
CONTINUOUS
10
0.110197
20
0.0438976
11
0.109813
21
0.0439653
0
LINE
8
BLACK
6
CONTINUOUS
10
0.109813
20
0.0439653
11
0.109684
21
0.0439425
0
LINE
8
BLACK
6
CONTINUOUS
10
0.109684
20
0.0439425
11
0.10957
21
0.0440081
0
LINE
8
BLACK
6
CONTINUOUS
10
0.10957
20
0.0440081
11
0.109187
21
0.0440757
0
LINE
8
BLACK
6
CONTINUOUS
10
0.109187
20
0.0440757
11
0.108599
21
0.0445689
0
LINE
8
BLACK
6
CONTINUOUS
10
0.108599
20
0.0445689
11
0.107935
21
0.0449524
0
LINE
8
BLACK
6
CONTINUOUS
10
0.107935
20
0.0449524
11
0.107844
21
0.0452028
0
LINE
8
BLACK
6
CONTINUOUS
10
0.107844
20
0.0452028
11
0.10764
21
0.045374
0
LINE
8
BLACK
6
CONTINUOUS
10
0.10764
20
0.045374
11
0.107506
21
0.0461296
0
LINE
8
BLACK
6
CONTINUOUS
10
0.107506
20
0.0461296
11
0.107244
21
0.0468504
0
LINE
8
BLACK
6
CONTINUOUS
10
0.107244
20
0.0468504
11
0.107244
21
0.34685
0
LINE
8
BLACK
6
CONTINUOUS
10
0.107244
20
0.34685
11
0.107312
21
0.347234
0
LINE
8
BLACK
6
CONTINUOUS
10
0.107312
20
0.347234
11
0.107289
21
0.347363
0
LINE
8
BLACK
6
CONTINUOUS
10
0.107289
20
0.347363
11
0.107355
21
0.347477
0
LINE
8
BLACK
6
CONTINUOUS
10
0.107355
20
0.347477
11
0.107422
21
0.34786
0
LINE
8
BLACK
6
CONTINUOUS
10
0.107422
20
0.34786
11
0.107915
21
0.348448
0
LINE
8
BLACK
6
CONTINUOUS
10
0.107915
20
0.348448
11
0.108299
21
0.349112
0
LINE
8
BLACK
6
CONTINUOUS
10
0.108299
20
0.349112
11
0.108549
21
0.349203
0
LINE
8
BLACK
6
CONTINUOUS
10
0.108549
20
0.349203
11
0.10872
21
0.349408
0
LINE
8
BLACK
6
CONTINUOUS
10
0.10872
20
0.349408
11
0.109476
21
0.349541
0
LINE
8
BLACK
6
CONTINUOUS
10
0.109476
20
0.349541
11
0.110197
21
0.349803
0
LINE
8
BLACK
6
CONTINUOUS
10
0.110197
20
0.349803
11
0.210197
21
0.349803
0
LINE
8
BLACK
6
CONTINUOUS
10
0.210197
20
0.349803
11
0.21058
21
0.349736
0
LINE
8
BLACK
6
CONTINUOUS
10
0.11315
20
0.343898
11
0.11315
21
0.0498031
0
LINE
8
BLACK
6
CONTINUOUS
10
0.11315
20
0.0498031
11
0.207244
21
0.0498031
0
LINE
8
BLACK
6
CONTINUOUS
10
0.207244
20
0.0498031
11
0.207244
21
0.343898
0
LINE
8
BLACK
6
CONTINUOUS
10
0.207244
20
0.343898
11
0.11315
21
0.343898
0
LINE
8
BLACK
6
CONTINUOUS
10
0.342377
20
0.122319
11
0.343015
21
0.122314
0
LINE
8
BLACK
6
CONTINUOUS
10
0.343015
20
0.122314
11
0.350326
21
0.119877
0
LINE
8
BLACK
6
CONTINUOUS
10
0.350326
20
0.119877
11
0.351056
21
0.119338
0
LINE
8
BLACK
6
CONTINUOUS
10
0.351056
20
0.119338
11
0.351865
21
0.118926
0
LINE
8
BLACK
6
CONTINUOUS
10
0.351865
20
0.118926
11
0.35674
21
0.114051
0
LINE
8
BLACK
6
CONTINUOUS
10
0.35674
20
0.114051
11
0.357029
21
0.113483
0
LINE
8
BLACK
6
CONTINUOUS
10
0.357029
20
0.113483
11
0.357477
21
0.113028
0
LINE
8
BLACK
6
CONTINUOUS
10
0.357477
20
0.113028
11
0.359914
21
0.108154
0
LINE
8
BLACK
6
CONTINUOUS
10
0.359914
20
0.108154
11
0.35998
21
0.10772
0
LINE
8
BLACK
6
CONTINUOUS
10
0.35998
20
0.10772
11
0.360212
21
0.107348
0
LINE
8
BLACK
6
CONTINUOUS
10
0.360212
20
0.107348
11
0.36265
21
0.097599
0
LINE
8
BLACK
6
CONTINUOUS
10
0.36265
20
0.097599
11
0.362616
21
0.0971102
0
LINE
8
BLACK
6
CONTINUOUS
10
0.362616
20
0.0971102
11
0.362767
21
0.0966441
0
LINE
8
BLACK
6
CONTINUOUS
10
0.362767
20
0.0966441
11
0.362767
21
0.0893326
0
LINE
8
BLACK
6
CONTINUOUS
10
0.362767
20
0.0893326
11
0.362616
21
0.0888665
0
LINE
8
BLACK
6
CONTINUOUS
10
0.362616
20
0.0888665
11
0.36265
21
0.0883777
0
LINE
8
BLACK
6
CONTINUOUS
10
0.36265
20
0.0883777
11
0.360212
21
0.0786289
0
LINE
8
BLACK
6
CONTINUOUS
10
0.360212
20
0.0786289
11
0.35998
21
0.078257
0
LINE
8
BLACK
6
CONTINUOUS
10
0.35998
20
0.078257
11
0.359914
21
0.0778231
0
LINE
8
BLACK
6
CONTINUOUS
10
0.359914
20
0.0778231
11
0.357477
21
0.0729487
0
LINE
8
BLACK
6
CONTINUOUS
10
0.357477
20
0.0729487
11
0.357029
21
0.0724941
0
LINE
8
BLACK
6
CONTINUOUS
10
0.357029
20
0.0724941
11
0.35674
21
0.0719255
0
LINE
8
BLACK
6
CONTINUOUS
10
0.35674
20
0.0719255
11
0.351865
21
0.0670511
0
LINE
8
BLACK
6
CONTINUOUS
10
0.351865
20
0.0670511
11
0.351056
21
0.0666391
0
LINE
8
BLACK
6
CONTINUOUS
10
0.351056
20
0.0666391
11
0.350326
21
0.0661
0
LINE
8
BLACK
6
CONTINUOUS
10
0.350326
20
0.0661
11
0.343015
21
0.0636628
0
LINE
8
BLACK
6
CONTINUOUS
10
0.343015
20
0.0636628
11
0.342377
21
0.063658
0
LINE
8
BLACK
6
CONTINUOUS
10
0.342377
20
0.063658
11
0.34177
21
0.0634608
0
LINE
8
BLACK
6
CONTINUOUS
10
0.34177
20
0.0634608
11
0.329584
21
0.0634608
0
LINE
8
BLACK
6
CONTINUOUS
10
0.329584
20
0.0634608
11
0.328991
21
0.0636535
0
LINE
8
BLACK
6
CONTINUOUS
10
0.328991
20
0.0636535
11
0.328367
21
0.0636535
0
LINE
8
BLACK
6
CONTINUOUS
10
0.328367
20
0.0636535
11
0.327863
21
0.06402
0
LINE
8
BLACK
6
CONTINUOUS
10
0.327863
20
0.06402
11
0.32727
21
0.0642127
0
LINE
8
BLACK
6
CONTINUOUS
10
0.32727
20
0.0642127
11
0.326903
21
0.0647171
0
LINE
8
BLACK
6
CONTINUOUS
10
0.326903
20
0.0647171
11
0.326399
21
0.0650837
0
LINE
8
BLACK
6
CONTINUOUS
10
0.326399
20
0.0650837
11
0.326206
21
0.0656767
0
LINE
8
BLACK
6
CONTINUOUS
10
0.326206
20
0.0656767
11
0.325839
21
0.0661812
0
LINE
8
BLACK
6
CONTINUOUS
10
0.325839
20
0.0661812
11
0.325839
21
0.0668048
0
LINE
8
BLACK
6
CONTINUOUS
10
0.325839
20
0.0668048
11
0.325647
21
0.0673978
0
LINE
8
BLACK
6
CONTINUOUS
10
0.325647
20
0.0673978
11
0.325647
21
0.118579
0
LINE
8
BLACK
6
CONTINUOUS
10
0.325647
20
0.118579
11
0.325839
21
0.119172
0
LINE
8
BLACK
6
CONTINUOUS
10
0.325839
20
0.119172
11
0.325839
21
0.119796
0
LINE
8
BLACK
6
CONTINUOUS
10
0.325839
20
0.119796
11
0.326206
21
0.1203
0
LINE
8
BLACK
6
CONTINUOUS
10
0.326206
20
0.1203
11
0.326399
21
0.120893
0
LINE
8
BLACK
6
CONTINUOUS
10
0.326399
20
0.120893
11
0.326903
21
0.12126
0
LINE
8
BLACK
6
CONTINUOUS
10
0.326903
20
0.12126
11
0.32727
21
0.121764
0
LINE
8
BLACK
6
CONTINUOUS
10
0.32727
20
0.121764
11
0.327863
21
0.121957
0
LINE
8
BLACK
6
CONTINUOUS
10
0.327863
20
0.121957
11
0.328367
21
0.122323
0
LINE
8
BLACK
6
CONTINUOUS
10
0.328367
20
0.122323
11
0.328991
21
0.122323
0
LINE
8
BLACK
6
CONTINUOUS
10
0.328991
20
0.122323
11
0.329584
21
0.122516
0
LINE
8
BLACK
6
CONTINUOUS
10
0.329584
20
0.122516
11
0.34177
21
0.122516
0
LINE
8
BLACK
6
CONTINUOUS
10
0.34177
20
0.122516
11
0.342377
21
0.122319
0
LINE
8
BLACK
6
CONTINUOUS
10
0.333521
20
0.114642
11
0.333521
21
0.0713348
0
LINE
8
BLACK
6
CONTINUOUS
10
0.333521
20
0.0713348
11
0.341131
21
0.0713348
0
LINE
8
BLACK
6
CONTINUOUS
10
0.341131
20
0.0713348
11
0.346955
21
0.073276
0
LINE
8
BLACK
6
CONTINUOUS
10
0.346955
20
0.073276
11
0.35072
21
0.0770416
0
LINE
8
BLACK
6
CONTINUOUS
10
0.35072
20
0.0770416
11
0.352678
21
0.080958
0
LINE
8
BLACK
6
CONTINUOUS
10
0.352678
20
0.080958
11
0.354893
21
0.0898172
0
LINE
8
BLACK
6
CONTINUOUS
10
0.354893
20
0.0898172
11
0.354893
21
0.0961595
0
LINE
8
BLACK
6
CONTINUOUS
10
0.354893
20
0.0961595
11
0.352678
21
0.105019
0
LINE
8
BLACK
6
CONTINUOUS
10
0.352678
20
0.105019
11
0.35072
21
0.108935
0
LINE
8
BLACK
6
CONTINUOUS
10
0.35072
20
0.108935
11
0.346955
21
0.112701
0
LINE
8
BLACK
6
CONTINUOUS
10
0.346955
20
0.112701
11
0.341131
21
0.114642
0
LINE
8
BLACK
6
CONTINUOUS
10
0.341131
20
0.114642
11
0.333521
21
0.114642
0
LINE
8
BLACK
6
CONTINUOUS
10
0.247582
20
0.122235
11
0.24848
21
0.1221
0
LINE
8
BLACK
6
CONTINUOUS
10
0.24848
20
0.1221
11
0.253354
21
0.119663
0
LINE
8
BLACK
6
CONTINUOUS
10
0.253354
20
0.119663
11
0.255088
21
0.117956
0
LINE
8
BLACK
6
CONTINUOUS
10
0.255088
20
0.117956
11
0.255487
21
0.115555
0
LINE
8
BLACK
6
CONTINUOUS
10
0.255487
20
0.115555
11
0.254399
21
0.113379
0
LINE
8
BLACK
6
CONTINUOUS
10
0.254399
20
0.113379
11
0.252239
21
0.112258
0
LINE
8
BLACK
6
CONTINUOUS
10
0.252239
20
0.112258
11
0.249833
21
0.11262
0
LINE
8
BLACK
6
CONTINUOUS
10
0.249833
20
0.11262
11
0.24579
21
0.114642
0
LINE
8
BLACK
6
CONTINUOUS
10
0.24579
20
0.114642
11
0.240046
21
0.114642
0
LINE
8
BLACK
6
CONTINUOUS
10
0.240046
20
0.114642
11
0.234223
21
0.112701
0
LINE
8
BLACK
6
CONTINUOUS
10
0.234223
20
0.112701
11
0.230457
21
0.108935
0
LINE
8
BLACK
6
CONTINUOUS
10
0.230457
20
0.108935
11
0.228499
21
0.105019
0
LINE
8
BLACK
6
CONTINUOUS
10
0.228499
20
0.105019
11
0.226284
21
0.0961595
0
LINE
8
BLACK
6
CONTINUOUS
10
0.226284
20
0.0961595
11
0.226284
21
0.0898172
0
LINE
8
BLACK
6
CONTINUOUS
10
0.226284
20
0.0898172
11
0.228499
21
0.0809581
0
LINE
8
BLACK
6
CONTINUOUS
10
0.228499
20
0.0809581
11
0.230457
21
0.0770415
0
LINE
8
BLACK
6
CONTINUOUS
10
0.230457
20
0.0770415
11
0.234223
21
0.073276
0
LINE
8
BLACK
6
CONTINUOUS
10
0.234223
20
0.073276
11
0.240046
21
0.0713348
0
LINE
8
BLACK
6
CONTINUOUS
10
0.240046
20
0.0713348
11
0.243643
21
0.0713348
0
LINE
8
BLACK
6
CONTINUOUS
10
0.243643
20
0.0713348
11
0.249467
21
0.0732761
0
LINE
8
BLACK
6
CONTINUOUS
10
0.249467
20
0.0732761
11
0.250094
21
0.073903
0
LINE
8
BLACK
6
CONTINUOUS
10
0.250094
20
0.073903
11
0.250094
21
0.0853956
0
LINE
8
BLACK
6
CONTINUOUS
10
0.250094
20
0.0853956
11
0.244282
21
0.0853956
0
LINE
8
BLACK
6
CONTINUOUS
10
0.244282
20
0.0853956
11
0.241968
21
0.0861474
0
LINE
8
BLACK
6
CONTINUOUS
10
0.241968
20
0.0861474
11
0.240538
21
0.0881159
0
LINE
8
BLACK
6
CONTINUOUS
10
0.240538
20
0.0881159
11
0.240538
21
0.0905492
0
LINE
8
BLACK
6
CONTINUOUS
10
0.240538
20
0.0905492
11
0.241968
21
0.0925177
0
LINE
8
BLACK
6
CONTINUOUS
10
0.241968
20
0.0925177
11
0.244282
21
0.0932696
0
LINE
8
BLACK
6
CONTINUOUS
10
0.244282
20
0.0932696
11
0.254031
21
0.0932696
0
LINE
8
BLACK
6
CONTINUOUS
10
0.254031
20
0.0932696
11
0.254624
21
0.0930769
0
LINE
8
BLACK
6
CONTINUOUS
10
0.254624
20
0.0930769
11
0.255247
21
0.0930769
0
LINE
8
BLACK
6
CONTINUOUS
10
0.255247
20
0.0930769
11
0.255752
21
0.0927104
0
LINE
8
BLACK
6
CONTINUOUS
10
0.255752
20
0.0927104
11
0.256345
21
0.0925177
0
LINE
8
BLACK
6
CONTINUOUS
10
0.256345
20
0.0925177
11
0.256711
21
0.0920132
0
LINE
8
BLACK
6
CONTINUOUS
10
0.256711
20
0.0920132
11
0.257216
21
0.0916467
0
LINE
8
BLACK
6
CONTINUOUS
10
0.257216
20
0.0916467
11
0.257409
21
0.0910537
0
LINE
8
BLACK
6
CONTINUOUS
10
0.257409
20
0.0910537
11
0.257775
21
0.0905492
0
LINE
8
BLACK
6
CONTINUOUS
10
0.257775
20
0.0905492
11
0.257775
21
0.0899256
0
LINE
8
BLACK
6
CONTINUOUS
10
0.257775
20
0.0899256
11
0.257968
21
0.0893326
0
LINE
8
BLACK
6
CONTINUOUS
10
0.257968
20
0.0893326
11
0.257968
21
0.0722722
0
LINE
8
BLACK
6
CONTINUOUS
10
0.257968
20
0.0722722
11
0.25787
21
0.0719701
0
LINE
8
BLACK
6
CONTINUOUS
10
0.25787
20
0.0719701
11
0.257919
21
0.0716563
0
LINE
8
BLACK
6
CONTINUOUS
10
0.257919
20
0.0716563
11
0.257501
21
0.070835
0
LINE
8
BLACK
6
CONTINUOUS
10
0.257501
20
0.070835
11
0.257216
21
0.0699581
0
LINE
8
BLACK
6
CONTINUOUS
10
0.257216
20
0.0699581
11
0.256959
21
0.0697713
0
LINE
8
BLACK
6
CONTINUOUS
10
0.256959
20
0.0697713
11
0.256815
21
0.0694883
0
LINE
8
BLACK
6
CONTINUOUS
10
0.256815
20
0.0694883
11
0.254377
21
0.0670511
0
LINE
8
BLACK
6
CONTINUOUS
10
0.254377
20
0.0670511
11
0.253569
21
0.0666391
0
LINE
8
BLACK
6
CONTINUOUS
10
0.253569
20
0.0666391
11
0.252839
21
0.0661
0
LINE
8
BLACK
6
CONTINUOUS
10
0.252839
20
0.0661
11
0.245527
21
0.0636628
0
LINE
8
BLACK
6
CONTINUOUS
10
0.245527
20
0.0636628
11
0.244889
21
0.063658
0
LINE
8
BLACK
6
CONTINUOUS
10
0.244889
20
0.063658
11
0.244282
21
0.0634608
0
LINE
8
BLACK
6
CONTINUOUS
10
0.244282
20
0.0634608
11
0.239408
21
0.0634608
0
LINE
8
BLACK
6
CONTINUOUS
10
0.239408
20
0.0634608
11
0.238801
21
0.063658
0
LINE
8
BLACK
6
CONTINUOUS
10
0.238801
20
0.063658
11
0.238163
21
0.0636628
0
LINE
8
BLACK
6
CONTINUOUS
10
0.238163
20
0.0636628
11
0.230851
21
0.0661
0
LINE
8
BLACK
6
CONTINUOUS
10
0.230851
20
0.0661
11
0.230121
21
0.066639
0
LINE
8
BLACK
6
CONTINUOUS
10
0.230121
20
0.066639
11
0.229312
21
0.0670511
0
LINE
8
BLACK
6
CONTINUOUS
10
0.229312
20
0.0670511
11
0.224438
21
0.0719255
0
LINE
8
BLACK
6
CONTINUOUS
10
0.224438
20
0.0719255
11
0.224148
21
0.0724941
0
LINE
8
BLACK
6
CONTINUOUS
10
0.224148
20
0.0724941
11
0.2237
21
0.0729487
0
LINE
8
BLACK
6
CONTINUOUS
10
0.2237
20
0.0729487
11
0.221263
21
0.0778231
0
LINE
8
BLACK
6
CONTINUOUS
10
0.221263
20
0.0778231
11
0.221198
21
0.078257
0
LINE
8
BLACK
6
CONTINUOUS
10
0.221198
20
0.078257
11
0.220965
21
0.0786289
0
LINE
8
BLACK
6
CONTINUOUS
10
0.220965
20
0.0786289
11
0.218528
21
0.0883777
0
LINE
8
BLACK
6
CONTINUOUS
10
0.218528
20
0.0883777
11
0.218562
21
0.0888665
0
LINE
8
BLACK
6
CONTINUOUS
10
0.218562
20
0.0888665
11
0.21841
21
0.0893326
0
LINE
8
BLACK
6
CONTINUOUS
10
0.21841
20
0.0893326
11
0.21841
21
0.0966441
0
LINE
8
BLACK
6
CONTINUOUS
10
0.21841
20
0.0966441
11
0.218562
21
0.0971102
0
LINE
8
BLACK
6
CONTINUOUS
10
0.218562
20
0.0971102
11
0.218528
21
0.097599
0
LINE
8
BLACK
6
CONTINUOUS
10
0.218528
20
0.097599
11
0.220965
21
0.107348
0
LINE
8
BLACK
6
CONTINUOUS
10
0.220965
20
0.107348
11
0.221198
21
0.10772
0
LINE
8
BLACK
6
CONTINUOUS
10
0.221198
20
0.10772
11
0.221263
21
0.108154
0
LINE
8
BLACK
6
CONTINUOUS
10
0.221263
20
0.108154
11
0.2237
21
0.113028
0
LINE
8
BLACK
6
CONTINUOUS
10
0.2237
20
0.113028
11
0.224148
21
0.113483
0
LINE
8
BLACK
6
CONTINUOUS
10
0.224148
20
0.113483
11
0.224438
21
0.114051
0
LINE
8
BLACK
6
CONTINUOUS
10
0.224438
20
0.114051
11
0.229312
21
0.118926
0
LINE
8
BLACK
6
CONTINUOUS
10
0.229312
20
0.118926
11
0.230121
21
0.119338
0
LINE
8
BLACK
6
CONTINUOUS
10
0.230121
20
0.119338
11
0.230851
21
0.119877
0
LINE
8
BLACK
6
CONTINUOUS
10
0.230851
20
0.119877
11
0.238163
21
0.122314
0
LINE
8
BLACK
6
CONTINUOUS
10
0.238163
20
0.122314
11
0.238801
21
0.122319
0
LINE
8
BLACK
6
CONTINUOUS
10
0.238801
20
0.122319
11
0.239408
21
0.122516
0
LINE
8
BLACK
6
CONTINUOUS
10
0.239408
20
0.122516
11
0.246719
21
0.122516
0
LINE
8
BLACK
6
CONTINUOUS
10
0.246719
20
0.122516
11
0.247582
21
0.122235
0
LINE
8
BLACK
6
CONTINUOUS
10
0.27617
20
0.122323
11
0.277182
21
0.122323
0
LINE
8
BLACK
6
CONTINUOUS
10
0.277182
20
0.122323
11
0.277362
21
0.122193
0
LINE
8
BLACK
6
CONTINUOUS
10
0.277362
20
0.122193
11
0.277583
21
0.122168
0
LINE
8
BLACK
6
CONTINUOUS
10
0.277583
20
0.122168
11
0.278332
21
0.121488
0
LINE
8
BLACK
6
CONTINUOUS
10
0.278332
20
0.121488
11
0.279151
21
0.120893
0
LINE
8
BLACK
6
CONTINUOUS
10
0.279151
20
0.120893
11
0.279219
21
0.120682
0
LINE
8
BLACK
6
CONTINUOUS
10
0.279219
20
0.120682
11
0.279384
21
0.120532
0
LINE
8
BLACK
6
CONTINUOUS
10
0.279384
20
0.120532
11
0.301275
21
0.0822228
0
LINE
8
BLACK
6
CONTINUOUS
10
0.301275
20
0.0822228
11
0.301275
21
0.118579
0
LINE
8
BLACK
6
CONTINUOUS
10
0.301275
20
0.118579
11
0.302027
21
0.120893
0
LINE
8
BLACK
6
CONTINUOUS
10
0.302027
20
0.120893
11
0.303995
21
0.122323
0
LINE
8
BLACK
6
CONTINUOUS
10
0.303995
20
0.122323
11
0.306428
21
0.122323
0
LINE
8
BLACK
6
CONTINUOUS
10
0.306428
20
0.122323
11
0.308397
21
0.120893
0
LINE
8
BLACK
6
CONTINUOUS
10
0.308397
20
0.120893
11
0.309149
21
0.118579
0
LINE
8
BLACK
6
CONTINUOUS
10
0.309149
20
0.118579
11
0.309149
21
0.0673978
0
LINE
8
BLACK
6
CONTINUOUS
10
0.309149
20
0.0673978
11
0.30908
21
0.0671865
0
LINE
8
BLACK
6
CONTINUOUS
10
0.30908
20
0.0671865
11
0.309125
21
0.0669688
0
LINE
8
BLACK
6
CONTINUOUS
10
0.309125
20
0.0669688
11
0.30871
21
0.0660461
0
LINE
8
BLACK
6
CONTINUOUS
10
0.30871
20
0.0660461
11
0.308397
21
0.0650837
0
LINE
8
BLACK
6
CONTINUOUS
10
0.308397
20
0.0650837
11
0.308217
21
0.064953
0
LINE
8
BLACK
6
CONTINUOUS
10
0.308217
20
0.064953
11
0.308126
21
0.0647504
0
LINE
8
BLACK
6
CONTINUOUS
10
0.308126
20
0.0647504
11
0.307247
21
0.0642485
0
LINE
8
BLACK
6
CONTINUOUS
10
0.307247
20
0.0642485
11
0.306428
21
0.0636535
0
LINE
8
BLACK
6
CONTINUOUS
10
0.306428
20
0.0636535
11
0.306206
21
0.0636535
0
LINE
8
BLACK
6
CONTINUOUS
10
0.306206
20
0.0636535
11
0.306013
21
0.0635432
0
LINE
8
BLACK
6
CONTINUOUS
10
0.306013
20
0.0635432
11
0.305007
21
0.0636535
0
LINE
8
BLACK
6
CONTINUOUS
10
0.305007
20
0.0636535
11
0.303995
21
0.0636535
0
LINE
8
BLACK
6
CONTINUOUS
10
0.303995
20
0.0636535
11
0.303815
21
0.0637841
0
LINE
8
BLACK
6
CONTINUOUS
10
0.303815
20
0.0637841
11
0.303594
21
0.0638083
0
LINE
8
BLACK
6
CONTINUOUS
10
0.303594
20
0.0638083
11
0.302845
21
0.0644888
0
LINE
8
BLACK
6
CONTINUOUS
10
0.302845
20
0.0644888
11
0.302027
21
0.0650837
0
LINE
8
BLACK
6
CONTINUOUS
10
0.302027
20
0.0650837
11
0.301958
21
0.065295
0
LINE
8
BLACK
6
CONTINUOUS
10
0.301958
20
0.065295
11
0.301794
21
0.0654445
0
LINE
8
BLACK
6
CONTINUOUS
10
0.301794
20
0.0654445
11
0.279902
21
0.103754
0
LINE
8
BLACK
6
CONTINUOUS
10
0.279902
20
0.103754
11
0.279902
21
0.0673978
0
LINE
8
BLACK
6
CONTINUOUS
10
0.279902
20
0.0673978
11
0.279151
21
0.0650837
0
LINE
8
BLACK
6
CONTINUOUS
10
0.279151
20
0.0650837
11
0.277182
21
0.0636535
0
LINE
8
BLACK
6
CONTINUOUS
10
0.277182
20
0.0636535
11
0.274749
21
0.0636535
0
LINE
8
BLACK
6
CONTINUOUS
10
0.274749
20
0.0636535
11
0.27278
21
0.0650837
0
LINE
8
BLACK
6
CONTINUOUS
10
0.27278
20
0.0650837
11
0.272028
21
0.0673978
0
LINE
8
BLACK
6
CONTINUOUS
10
0.272028
20
0.0673978
11
0.272028
21
0.118579
0
LINE
8
BLACK
6
CONTINUOUS
10
0.272028
20
0.118579
11
0.272097
21
0.11879
0
LINE
8
BLACK
6
CONTINUOUS
10
0.272097
20
0.11879
11
0.272052
21
0.119008
0
LINE
8
BLACK
6
CONTINUOUS
10
0.272052
20
0.119008
11
0.272468
21
0.119931
0
LINE
8
BLACK
6
CONTINUOUS
10
0.272468
20
0.119931
11
0.27278
21
0.120893
0
LINE
8
BLACK
6
CONTINUOUS
10
0.27278
20
0.120893
11
0.27296
21
0.121024
0
LINE
8
BLACK
6
CONTINUOUS
10
0.27296
20
0.121024
11
0.273051
21
0.121226
0
LINE
8
BLACK
6
CONTINUOUS
10
0.273051
20
0.121226
11
0.27393
21
0.121728
0
LINE
8
BLACK
6
CONTINUOUS
10
0.27393
20
0.121728
11
0.274749
21
0.122323
0
LINE
8
BLACK
6
CONTINUOUS
10
0.274749
20
0.122323
11
0.274971
21
0.122323
0
LINE
8
BLACK
6
CONTINUOUS
10
0.274971
20
0.122323
11
0.275164
21
0.122434
0
LINE
8
BLACK
6
CONTINUOUS
10
0.275164
20
0.122434
11
0.27617
21
0.122323
0
LINE
8
BLACK
6
CONTINUOUS
10
0.316373
20
0.224126
11
0.317803
21
0.222158
0
LINE
8
BLACK
6
CONTINUOUS
10
0.317803
20
0.222158
11
0.317803
21
0.219724
0
LINE
8
BLACK
6
CONTINUOUS
10
0.317803
20
0.219724
11
0.316373
21
0.217756
0
LINE
8
BLACK
6
CONTINUOUS
10
0.316373
20
0.217756
11
0.314059
21
0.217004
0
LINE
8
BLACK
6
CONTINUOUS
10
0.314059
20
0.217004
11
0.29325
21
0.217004
0
LINE
8
BLACK
6
CONTINUOUS
10
0.29325
20
0.217004
11
0.292006
21
0.204568
0
LINE
8
BLACK
6
CONTINUOUS
10
0.292006
20
0.204568
11
0.292801
21
0.204965
0
LINE
8
BLACK
6
CONTINUOUS
10
0.292801
20
0.204965
11
0.293698
21
0.2051
0
LINE
8
BLACK
6
CONTINUOUS
10
0.293698
20
0.2051
11
0.294561
21
0.205381
0
LINE
8
BLACK
6
CONTINUOUS
10
0.294561
20
0.205381
11
0.306747
21
0.205381
0
LINE
8
BLACK
6
CONTINUOUS
10
0.306747
20
0.205381
11
0.30761
21
0.2051
0
LINE
8
BLACK
6
CONTINUOUS
10
0.30761
20
0.2051
11
0.308508
21
0.204965
0
LINE
8
BLACK
6
CONTINUOUS
10
0.308508
20
0.204965
11
0.313382
21
0.202528
0
LINE
8
BLACK
6
CONTINUOUS
10
0.313382
20
0.202528
11
0.313837
21
0.20208
0
LINE
8
BLACK
6
CONTINUOUS
10
0.313837
20
0.20208
11
0.314406
21
0.20179
0
LINE
8
BLACK
6
CONTINUOUS
10
0.314406
20
0.20179
11
0.316843
21
0.199353
0
LINE
8
BLACK
6
CONTINUOUS
10
0.316843
20
0.199353
11
0.317132
21
0.198785
0
LINE
8
BLACK
6
CONTINUOUS
10
0.317132
20
0.198785
11
0.31758
21
0.19833
0
LINE
8
BLACK
6
CONTINUOUS
10
0.31758
20
0.19833
11
0.320017
21
0.193455
0
LINE
8
BLACK
6
CONTINUOUS
10
0.320017
20
0.193455
11
0.320153
21
0.192558
0
LINE
8
BLACK
6
CONTINUOUS
10
0.320153
20
0.192558
11
0.320433
21
0.191695
0
LINE
8
BLACK
6
CONTINUOUS
10
0.320433
20
0.191695
11
0.320433
21
0.179509
0
LINE
8
BLACK
6
CONTINUOUS
10
0.320433
20
0.179509
11
0.320153
21
0.178646
0
LINE
8
BLACK
6
CONTINUOUS
10
0.320153
20
0.178646
11
0.320017
21
0.177748
0
LINE
8
BLACK
6
CONTINUOUS
10
0.320017
20
0.177748
11
0.31758
21
0.172874
0
LINE
8
BLACK
6
CONTINUOUS
10
0.31758
20
0.172874
11
0.317132
21
0.172419
0
LINE
8
BLACK
6
CONTINUOUS
10
0.317132
20
0.172419
11
0.316843
21
0.171851
0
LINE
8
BLACK
6
CONTINUOUS
10
0.316843
20
0.171851
11
0.314406
21
0.169413
0
LINE
8
BLACK
6
CONTINUOUS
10
0.314406
20
0.169413
11
0.313837
21
0.169124
0
LINE
8
BLACK
6
CONTINUOUS
10
0.313837
20
0.169124
11
0.313382
21
0.168676
0
LINE
8
BLACK
6
CONTINUOUS
10
0.313382
20
0.168676
11
0.308508
21
0.166239
0
LINE
8
BLACK
6
CONTINUOUS
10
0.308508
20
0.166239
11
0.30761
21
0.166103
0
LINE
8
BLACK
6
CONTINUOUS
10
0.30761
20
0.166103
11
0.306747
21
0.165823
0
LINE
8
BLACK
6
CONTINUOUS
10
0.306747
20
0.165823
11
0.294561
21
0.165823
0
LINE
8
BLACK
6
CONTINUOUS
10
0.294561
20
0.165823
11
0.293698
21
0.166103
0
LINE
8
BLACK
6
CONTINUOUS
10
0.293698
20
0.166103
11
0.292801
21
0.166239
0
LINE
8
BLACK
6
CONTINUOUS
10
0.292801
20
0.166239
11
0.287926
21
0.168676
0
LINE
8
BLACK
6
CONTINUOUS
10
0.287926
20
0.168676
11
0.287472
21
0.169124
0
LINE
8
BLACK
6
CONTINUOUS
10
0.287472
20
0.169124
11
0.286903
21
0.169413
0
LINE
8
BLACK
6
CONTINUOUS
10
0.286903
20
0.169413
11
0.284466
21
0.171851
0
LINE
8
BLACK
6
CONTINUOUS
10
0.284466
20
0.171851
11
0.283361
21
0.174019
0
LINE
8
BLACK
6
CONTINUOUS
10
0.283361
20
0.174019
11
0.283742
21
0.176422
0
LINE
8
BLACK
6
CONTINUOUS
10
0.283742
20
0.176422
11
0.285462
21
0.178142
0
LINE
8
BLACK
6
CONTINUOUS
10
0.285462
20
0.178142
11
0.287866
21
0.178523
0
LINE
8
BLACK
6
CONTINUOUS
10
0.287866
20
0.178523
11
0.290034
21
0.177418
0
LINE
8
BLACK
6
CONTINUOUS
10
0.290034
20
0.177418
11
0.292019
21
0.175433
0
LINE
8
BLACK
6
CONTINUOUS
10
0.292019
20
0.175433
11
0.295491
21
0.173697
0
LINE
8
BLACK
6
CONTINUOUS
10
0.295491
20
0.173697
11
0.305818
21
0.173697
0
LINE
8
BLACK
6
CONTINUOUS
10
0.305818
20
0.173697
11
0.309289
21
0.175433
0
LINE
8
BLACK
6
CONTINUOUS
10
0.309289
20
0.175433
11
0.310823
21
0.176967
0
LINE
8
BLACK
6
CONTINUOUS
10
0.310823
20
0.176967
11
0.312559
21
0.180438
0
LINE
8
BLACK
6
CONTINUOUS
10
0.312559
20
0.180438
11
0.312559
21
0.190765
0
LINE
8
BLACK
6
CONTINUOUS
10
0.312559
20
0.190765
11
0.310823
21
0.194237
0
LINE
8
BLACK
6
CONTINUOUS
10
0.310823
20
0.194237
11
0.30929
21
0.195771
0
LINE
8
BLACK
6
CONTINUOUS
10
0.30929
20
0.195771
11
0.305818
21
0.197507
0
LINE
8
BLACK
6
CONTINUOUS
10
0.305818
20
0.197507
11
0.295491
21
0.197507
0
LINE
8
BLACK
6
CONTINUOUS
10
0.295491
20
0.197507
11
0.292019
21
0.195771
0
LINE
8
BLACK
6
CONTINUOUS
10
0.292019
20
0.195771
11
0.290034
21
0.193785
0
LINE
8
BLACK
6
CONTINUOUS
10
0.290034
20
0.193785
11
0.289045
21
0.193282
0
LINE
8
BLACK
6
CONTINUOUS
10
0.289045
20
0.193282
11
0.288088
21
0.192722
0
LINE
8
BLACK
6
CONTINUOUS
10
0.288088
20
0.192722
11
0.287971
21
0.192734
0
LINE
8
BLACK
6
CONTINUOUS
10
0.287971
20
0.192734
11
0.287866
21
0.192681
0
LINE
8
BLACK
6
CONTINUOUS
10
0.287866
20
0.192681
11
0.28677
21
0.192854
0
LINE
8
BLACK
6
CONTINUOUS
10
0.28677
20
0.192854
11
0.285667
21
0.192964
0
LINE
8
BLACK
6
CONTINUOUS
10
0.285667
20
0.192964
11
0.285579
21
0.193043
0
LINE
8
BLACK
6
CONTINUOUS
10
0.285579
20
0.193043
11
0.285462
21
0.193061
0
LINE
8
BLACK
6
CONTINUOUS
10
0.285462
20
0.193061
11
0.284678
21
0.193846
0
LINE
8
BLACK
6
CONTINUOUS
10
0.284678
20
0.193846
11
0.28385
21
0.194583
0
LINE
8
BLACK
6
CONTINUOUS
10
0.28385
20
0.194583
11
0.283825
21
0.194699
0
LINE
8
BLACK
6
CONTINUOUS
10
0.283825
20
0.194699
11
0.283742
21
0.194782
0
LINE
8
BLACK
6
CONTINUOUS
10
0.283742
20
0.194782
11
0.283568
21
0.195877
0
LINE
8
BLACK
6
CONTINUOUS
10
0.283568
20
0.195877
11
0.283332
21
0.196961
0
LINE
8
BLACK
6
CONTINUOUS
10
0.283332
20
0.196961
11
0.285769
21
0.221333
0
LINE
8
BLACK
6
CONTINUOUS
10
0.285769
20
0.221333
11
0.285943
21
0.221727
0
LINE
8
BLACK
6
CONTINUOUS
10
0.285943
20
0.221727
11
0.285943
21
0.222158
0
LINE
8
BLACK
6
CONTINUOUS
10
0.285943
20
0.222158
11
0.286421
21
0.222816
0
LINE
8
BLACK
6
CONTINUOUS
10
0.286421
20
0.222816
11
0.286748
21
0.223561
0
LINE
8
BLACK
6
CONTINUOUS
10
0.286748
20
0.223561
11
0.28712
21
0.223778
0
LINE
8
BLACK
6
CONTINUOUS
10
0.28712
20
0.223778
11
0.287373
21
0.224126
0
LINE
8
BLACK
6
CONTINUOUS
10
0.287373
20
0.224126
11
0.288146
21
0.224378
0
LINE
8
BLACK
6
CONTINUOUS
10
0.288146
20
0.224378
11
0.288849
21
0.224788
0
LINE
8
BLACK
6
CONTINUOUS
10
0.288849
20
0.224788
11
0.289277
21
0.224745
0
LINE
8
BLACK
6
CONTINUOUS
10
0.289277
20
0.224745
11
0.289687
21
0.224878
0
LINE
8
BLACK
6
CONTINUOUS
10
0.289687
20
0.224878
11
0.314059
21
0.224878
0
LINE
8
BLACK
6
CONTINUOUS
10
0.314059
20
0.224878
11
0.316373
21
0.224126
0
LINE
8
BLACK
6
CONTINUOUS
10
0.367578
20
0.224109
11
0.368993
21
0.222129
0
LINE
8
BLACK
6
CONTINUOUS
10
0.368993
20
0.222129
11
0.368975
21
0.219696
0
LINE
8
BLACK
6
CONTINUOUS
10
0.368975
20
0.219696
11
0.351915
21
0.168515
0
LINE
8
BLACK
6
CONTINUOUS
10
0.351915
20
0.168515
11
0.351209
21
0.167559
0
LINE
8
BLACK
6
CONTINUOUS
10
0.351209
20
0.167559
11
0.350518
21
0.166593
0
LINE
8
BLACK
6
CONTINUOUS
10
0.350518
20
0.166593
11
0.350488
21
0.166583
0
LINE
8
BLACK
6
CONTINUOUS
10
0.350488
20
0.166583
11
0.350469
21
0.166557
0
LINE
8
BLACK
6
CONTINUOUS
10
0.350469
20
0.166557
11
0.349335
21
0.166198
0
LINE
8
BLACK
6
CONTINUOUS
10
0.349335
20
0.166198
11
0.348209
21
0.165823
0
LINE
8
BLACK
6
CONTINUOUS
10
0.348209
20
0.165823
11
0.34818
21
0.165833
0
LINE
8
BLACK
6
CONTINUOUS
10
0.34818
20
0.165833
11
0.34815
21
0.165823
0
LINE
8
BLACK
6
CONTINUOUS
10
0.34815
20
0.165823
11
0.347022
21
0.166199
0
LINE
8
BLACK
6
CONTINUOUS
10
0.347022
20
0.166199
11
0.34589
21
0.166557
0
LINE
8
BLACK
6
CONTINUOUS
10
0.34589
20
0.166557
11
0.345871
21
0.166583
0
LINE
8
BLACK
6
CONTINUOUS
10
0.345871
20
0.166583
11
0.345841
21
0.166593
0
LINE
8
BLACK
6
CONTINUOUS
10
0.345841
20
0.166593
11
0.34515
21
0.167559
0
LINE
8
BLACK
6
CONTINUOUS
10
0.34515
20
0.167559
11
0.344445
21
0.168515
0
LINE
8
BLACK
6
CONTINUOUS
10
0.344445
20
0.168515
11
0.327384
21
0.219696
0
LINE
8
BLACK
6
CONTINUOUS
10
0.327384
20
0.219696
11
0.327366
21
0.222129
0
LINE
8
BLACK
6
CONTINUOUS
10
0.327366
20
0.222129
11
0.328781
21
0.224109
0
LINE
8
BLACK
6
CONTINUOUS
10
0.328781
20
0.224109
11
0.331089
21
0.224878
0
LINE
8
BLACK
6
CONTINUOUS
10
0.331089
20
0.224878
11
0.333409
21
0.224144
0
LINE
8
BLACK
6
CONTINUOUS
10
0.333409
20
0.224144
11
0.334854
21
0.222186
0
LINE
8
BLACK
6
CONTINUOUS
10
0.334854
20
0.222186
11
0.34818
21
0.18221
0
LINE
8
BLACK
6
CONTINUOUS
10
0.34818
20
0.18221
11
0.361505
21
0.222186
0
LINE
8
BLACK
6
CONTINUOUS
10
0.361505
20
0.222186
11
0.36295
21
0.224144
0
LINE
8
BLACK
6
CONTINUOUS
10
0.36295
20
0.224144
11
0.36527
21
0.224878
0
LINE
8
BLACK
6
CONTINUOUS
10
0.36527
20
0.224878
11
0.367578
21
0.224109
0
LINE
8
BLACK
6
CONTINUOUS
10
0.249002
20
0.211069
11
0.249754
21
0.208755
0
LINE
8
BLACK
6
CONTINUOUS
10
0.249754
20
0.208755
11
0.249754
21
0.193195
0
LINE
8
BLACK
6
CONTINUOUS
10
0.249754
20
0.193195
11
0.265315
21
0.193195
0
LINE
8
BLACK
6
CONTINUOUS
10
0.265315
20
0.193195
11
0.267629
21
0.192443
0
LINE
8
BLACK
6
CONTINUOUS
10
0.267629
20
0.192443
11
0.269059
21
0.190474
0
LINE
8
BLACK
6
CONTINUOUS
10
0.269059
20
0.190474
11
0.269059
21
0.188041
0
LINE
8
BLACK
6
CONTINUOUS
10
0.269059
20
0.188041
11
0.267629
21
0.186072
0
LINE
8
BLACK
6
CONTINUOUS
10
0.267629
20
0.186072
11
0.265315
21
0.185321
0
LINE
8
BLACK
6
CONTINUOUS
10
0.265315
20
0.185321
11
0.249754
21
0.185321
0
LINE
8
BLACK
6
CONTINUOUS
10
0.249754
20
0.185321
11
0.249754
21
0.16976
0
LINE
8
BLACK
6
CONTINUOUS
10
0.249754
20
0.16976
11
0.249002
21
0.167446
0
LINE
8
BLACK
6
CONTINUOUS
10
0.249002
20
0.167446
11
0.247034
21
0.166016
0
LINE
8
BLACK
6
CONTINUOUS
10
0.247034
20
0.166016
11
0.244601
21
0.166016
0
LINE
8
BLACK
6
CONTINUOUS
10
0.244601
20
0.166016
11
0.242632
21
0.167446
0
LINE
8
BLACK
6
CONTINUOUS
10
0.242632
20
0.167446
11
0.24188
21
0.16976
0
LINE
8
BLACK
6
CONTINUOUS
10
0.24188
20
0.16976
11
0.24188
21
0.185321
0
LINE
8
BLACK
6
CONTINUOUS
10
0.24188
20
0.185321
11
0.22632
21
0.185321
0
LINE
8
BLACK
6
CONTINUOUS
10
0.22632
20
0.185321
11
0.224006
21
0.186072
0
LINE
8
BLACK
6
CONTINUOUS
10
0.224006
20
0.186072
11
0.222575
21
0.188041
0
LINE
8
BLACK
6
CONTINUOUS
10
0.222575
20
0.188041
11
0.222575
21
0.190474
0
LINE
8
BLACK
6
CONTINUOUS
10
0.222575
20
0.190474
11
0.224006
21
0.192443
0
LINE
8
BLACK
6
CONTINUOUS
10
0.224006
20
0.192443
11
0.22632
21
0.193195
0
LINE
8
BLACK
6
CONTINUOUS
10
0.22632
20
0.193195
11
0.24188
21
0.193195
0
LINE
8
BLACK
6
CONTINUOUS
10
0.24188
20
0.193195
11
0.24188
21
0.208755
0
LINE
8
BLACK
6
CONTINUOUS
10
0.24188
20
0.208755
11
0.242632
21
0.211069
0
LINE
8
BLACK
6
CONTINUOUS
10
0.242632
20
0.211069
11
0.244601
21
0.212499
0
LINE
8
BLACK
6
CONTINUOUS
10
0.244601
20
0.212499
11
0.247034
21
0.212499
0
LINE
8
BLACK
6
CONTINUOUS
10
0.247034
20
0.212499
11
0.249002
21
0.211069
0
LINE
8
BLACK
6
CONTINUOUS
10
0.253019
20
0.323023
11
0.253917
21
0.322888
0
LINE
8
BLACK
6
CONTINUOUS
10
0.253917
20
0.322888
11
0.258791
21
0.320451
0
LINE
8
BLACK
6
CONTINUOUS
10
0.258791
20
0.320451
11
0.259246
21
0.320003
0
LINE
8
BLACK
6
CONTINUOUS
10
0.259246
20
0.320003
11
0.259814
21
0.319713
0
LINE
8
BLACK
6
CONTINUOUS
10
0.259814
20
0.319713
11
0.264689
21
0.314839
0
LINE
8
BLACK
6
CONTINUOUS
10
0.264689
20
0.314839
11
0.265166
21
0.313901
0
LINE
8
BLACK
6
CONTINUOUS
10
0.265166
20
0.313901
11
0.265724
21
0.31301
0
LINE
8
BLACK
6
CONTINUOUS
10
0.265724
20
0.31301
11
0.268161
21
0.303261
0
LINE
8
BLACK
6
CONTINUOUS
10
0.268161
20
0.303261
11
0.268128
21
0.302772
0
LINE
8
BLACK
6
CONTINUOUS
10
0.268128
20
0.302772
11
0.268279
21
0.302306
0
LINE
8
BLACK
6
CONTINUOUS
10
0.268279
20
0.302306
11
0.268279
21
0.285246
0
LINE
8
BLACK
6
CONTINUOUS
10
0.268279
20
0.285246
11
0.268128
21
0.28478
0
LINE
8
BLACK
6
CONTINUOUS
10
0.268128
20
0.28478
11
0.268161
21
0.284291
0
LINE
8
BLACK
6
CONTINUOUS
10
0.268161
20
0.284291
11
0.265724
21
0.274542
0
LINE
8
BLACK
6
CONTINUOUS
10
0.265724
20
0.274542
11
0.265166
21
0.27365
0
LINE
8
BLACK
6
CONTINUOUS
10
0.265166
20
0.27365
11
0.264689
21
0.272713
0
LINE
8
BLACK
6
CONTINUOUS
10
0.264689
20
0.272713
11
0.259814
21
0.267839
0
LINE
8
BLACK
6
CONTINUOUS
10
0.259814
20
0.267839
11
0.259246
21
0.267549
0
LINE
8
BLACK
6
CONTINUOUS
10
0.259246
20
0.267549
11
0.258791
21
0.267101
0
LINE
8
BLACK
6
CONTINUOUS
10
0.258791
20
0.267101
11
0.253917
21
0.264664
0
LINE
8
BLACK
6
CONTINUOUS
10
0.253917
20
0.264664
11
0.253019
21
0.264529
0
LINE
8
BLACK
6
CONTINUOUS
10
0.253019
20
0.264529
11
0.252156
21
0.264248
0
LINE
8
BLACK
6
CONTINUOUS
10
0.252156
20
0.264248
11
0.242407
21
0.264248
0
LINE
8
BLACK
6
CONTINUOUS
10
0.242407
20
0.264248
11
0.241544
21
0.264529
0
LINE
8
BLACK
6
CONTINUOUS
10
0.241544
20
0.264529
11
0.240646
21
0.264664
0
LINE
8
BLACK
6
CONTINUOUS
10
0.240646
20
0.264664
11
0.235772
21
0.267101
0
LINE
8
BLACK
6
CONTINUOUS
10
0.235772
20
0.267101
11
0.235317
21
0.267549
0
LINE
8
BLACK
6
CONTINUOUS
10
0.235317
20
0.267549
11
0.234749
21
0.267839
0
LINE
8
BLACK
6
CONTINUOUS
10
0.234749
20
0.267839
11
0.229874
21
0.272713
0
LINE
8
BLACK
6
CONTINUOUS
10
0.229874
20
0.272713
11
0.229397
21
0.27365
0
LINE
8
BLACK
6
CONTINUOUS
10
0.229397
20
0.27365
11
0.228839
21
0.274542
0
LINE
8
BLACK
6
CONTINUOUS
10
0.228839
20
0.274542
11
0.226402
21
0.284291
0
LINE
8
BLACK
6
CONTINUOUS
10
0.226402
20
0.284291
11
0.226436
21
0.28478
0
LINE
8
BLACK
6
CONTINUOUS
10
0.226436
20
0.28478
11
0.226284
21
0.285246
0
LINE
8
BLACK
6
CONTINUOUS
10
0.226284
20
0.285246
11
0.226284
21
0.302306
0
LINE
8
BLACK
6
CONTINUOUS
10
0.226284
20
0.302306
11
0.226436
21
0.302772
0
LINE
8
BLACK
6
CONTINUOUS
10
0.226436
20
0.302772
11
0.226402
21
0.303261
0
LINE
8
BLACK
6
CONTINUOUS
10
0.226402
20
0.303261
11
0.228839
21
0.31301
0
LINE
8
BLACK
6
CONTINUOUS
10
0.228839
20
0.31301
11
0.229397
21
0.313901
0
LINE
8
BLACK
6
CONTINUOUS
10
0.229397
20
0.313901
11
0.229874
21
0.314839
0
LINE
8
BLACK
6
CONTINUOUS
10
0.229874
20
0.314839
11
0.234749
21
0.319713
0
LINE
8
BLACK
6
CONTINUOUS
10
0.234749
20
0.319713
11
0.235318
21
0.320003
0
LINE
8
BLACK
6
CONTINUOUS
10
0.235318
20
0.320003
11
0.235772
21
0.320451
0
LINE
8
BLACK
6
CONTINUOUS
10
0.235772
20
0.320451
11
0.240646
21
0.322888
0
LINE
8
BLACK
6
CONTINUOUS
10
0.240646
20
0.322888
11
0.241544
21
0.323023
0
LINE
8
BLACK
6
CONTINUOUS
10
0.241544
20
0.323023
11
0.242407
21
0.323303
0
LINE
8
BLACK
6
CONTINUOUS
10
0.242407
20
0.323303
11
0.252156
21
0.323303
0
LINE
8
BLACK
6
CONTINUOUS
10
0.252156
20
0.323303
11
0.253019
21
0.323023
0
LINE
8
BLACK
6
CONTINUOUS
10
0.243337
20
0.315429
11
0.239865
21
0.313694
0
LINE
8
BLACK
6
CONTINUOUS
10
0.239865
20
0.313694
11
0.236213
21
0.310042
0
LINE
8
BLACK
6
CONTINUOUS
10
0.236213
20
0.310042
11
0.234158
21
0.301821
0
LINE
8
BLACK
6
CONTINUOUS
10
0.234158
20
0.301821
11
0.234158
21
0.28573
0
LINE
8
BLACK
6
CONTINUOUS
10
0.234158
20
0.28573
11
0.236213
21
0.27751
0
LINE
8
BLACK
6
CONTINUOUS
10
0.236213
20
0.27751
11
0.239865
21
0.273858
0
LINE
8
BLACK
6
CONTINUOUS
10
0.239865
20
0.273858
11
0.243337
21
0.272122
0
LINE
8
BLACK
6
CONTINUOUS
10
0.243337
20
0.272122
11
0.251227
21
0.272122
0
LINE
8
BLACK
6
CONTINUOUS
10
0.251227
20
0.272122
11
0.254698
21
0.273858
0
LINE
8
BLACK
6
CONTINUOUS
10
0.254698
20
0.273858
11
0.25835
21
0.27751
0
LINE
8
BLACK
6
CONTINUOUS
10
0.25835
20
0.27751
11
0.260405
21
0.28573
0
LINE
8
BLACK
6
CONTINUOUS
10
0.260405
20
0.28573
11
0.260405
21
0.301821
0
LINE
8
BLACK
6
CONTINUOUS
10
0.260405
20
0.301821
11
0.25835
21
0.310042
0
LINE
8
BLACK
6
CONTINUOUS
10
0.25835
20
0.310042
11
0.254698
21
0.313693
0
LINE
8
BLACK
6
CONTINUOUS
10
0.254698
20
0.313693
11
0.251227
21
0.315429
0
LINE
8
BLACK
6
CONTINUOUS
10
0.251227
20
0.315429
11
0.243337
21
0.315429
0
LINE
8
BLACK
6
CONTINUOUS
10
0.289462
20
0.32168
11
0.290214
21
0.319366
0
LINE
8
BLACK
6
CONTINUOUS
10
0.290214
20
0.319366
11
0.290214
21
0.278863
0
LINE
8
BLACK
6
CONTINUOUS
10
0.290214
20
0.278863
11
0.29195
21
0.275392
0
LINE
8
BLACK
6
CONTINUOUS
10
0.29195
20
0.275392
11
0.293483
21
0.273858
0
LINE
8
BLACK
6
CONTINUOUS
10
0.293483
20
0.273858
11
0.296955
21
0.272122
0
LINE
8
BLACK
6
CONTINUOUS
10
0.296955
20
0.272122
11
0.304845
21
0.272122
0
LINE
8
BLACK
6
CONTINUOUS
10
0.304845
20
0.272122
11
0.308317
21
0.273858
0
LINE
8
BLACK
6
CONTINUOUS
10
0.308317
20
0.273858
11
0.30985
21
0.275392
0
LINE
8
BLACK
6
CONTINUOUS
10
0.30985
20
0.275392
11
0.311586
21
0.278863
0
LINE
8
BLACK
6
CONTINUOUS
10
0.311586
20
0.278863
11
0.311586
21
0.319366
0
LINE
8
BLACK
6
CONTINUOUS
10
0.311586
20
0.319366
11
0.312338
21
0.32168
0
LINE
8
BLACK
6
CONTINUOUS
10
0.312338
20
0.32168
11
0.314306
21
0.323111
0
LINE
8
BLACK
6
CONTINUOUS
10
0.314306
20
0.323111
11
0.31674
21
0.323111
0
LINE
8
BLACK
6
CONTINUOUS
10
0.31674
20
0.323111
11
0.318708
21
0.32168
0
LINE
8
BLACK
6
CONTINUOUS
10
0.318708
20
0.32168
11
0.31946
21
0.319366
0
LINE
8
BLACK
6
CONTINUOUS
10
0.31946
20
0.319366
11
0.31946
21
0.277934
0
LINE
8
BLACK
6
CONTINUOUS
10
0.31946
20
0.277934
11
0.31918
21
0.277071
0
LINE
8
BLACK
6
CONTINUOUS
10
0.31918
20
0.277071
11
0.319044
21
0.276173
0
LINE
8
BLACK
6
CONTINUOUS
10
0.319044
20
0.276173
11
0.316607
21
0.271299
0
LINE
8
BLACK
6
CONTINUOUS
10
0.316607
20
0.271299
11
0.316159
21
0.270844
0
LINE
8
BLACK
6
CONTINUOUS
10
0.316159
20
0.270844
11
0.31587
21
0.270276
0
LINE
8
BLACK
6
CONTINUOUS
10
0.31587
20
0.270276
11
0.313433
21
0.267839
0
LINE
8
BLACK
6
CONTINUOUS
10
0.313433
20
0.267839
11
0.312864
21
0.267549
0
LINE
8
BLACK
6
CONTINUOUS
10
0.312864
20
0.267549
11
0.312409
21
0.267101
0
LINE
8
BLACK
6
CONTINUOUS
10
0.312409
20
0.267101
11
0.307535
21
0.264664
0
LINE
8
BLACK
6
CONTINUOUS
10
0.307535
20
0.264664
11
0.306637
21
0.264529
0
LINE
8
BLACK
6
CONTINUOUS
10
0.306637
20
0.264529
11
0.305774
21
0.264248
0
LINE
8
BLACK
6
CONTINUOUS
10
0.305774
20
0.264248
11
0.296025
21
0.264248
0
LINE
8
BLACK
6
CONTINUOUS
10
0.296025
20
0.264248
11
0.295162
21
0.264529
0
LINE
8
BLACK
6
CONTINUOUS
10
0.295162
20
0.264529
11
0.294265
21
0.264664
0
LINE
8
BLACK
6
CONTINUOUS
10
0.294265
20
0.264664
11
0.28939
21
0.267101
0
LINE
8
BLACK
6
CONTINUOUS
10
0.28939
20
0.267101
11
0.288936
21
0.267549
0
LINE
8
BLACK
6
CONTINUOUS
10
0.288936
20
0.267549
11
0.288367
21
0.267839
0
LINE
8
BLACK
6
CONTINUOUS
10
0.288367
20
0.267839
11
0.28593
21
0.270276
0
LINE
8
BLACK
6
CONTINUOUS
10
0.28593
20
0.270276
11
0.28564
21
0.270844
0
LINE
8
BLACK
6
CONTINUOUS
10
0.28564
20
0.270844
11
0.285193
21
0.271299
0
LINE
8
BLACK
6
CONTINUOUS
10
0.285193
20
0.271299
11
0.282755
21
0.276173
0
LINE
8
BLACK
6
CONTINUOUS
10
0.282755
20
0.276173
11
0.28262
21
0.277071
0
LINE
8
BLACK
6
CONTINUOUS
10
0.28262
20
0.277071
11
0.28234
21
0.277934
0
LINE
8
BLACK
6
CONTINUOUS
10
0.28234
20
0.277934
11
0.28234
21
0.319366
0
LINE
8
BLACK
6
CONTINUOUS
10
0.28234
20
0.319366
11
0.283092
21
0.32168
0
LINE
8
BLACK
6
CONTINUOUS
10
0.283092
20
0.32168
11
0.28506
21
0.323111
0
LINE
8
BLACK
6
CONTINUOUS
10
0.28506
20
0.323111
11
0.287493
21
0.323111
0
LINE
8
BLACK
6
CONTINUOUS
10
0.287493
20
0.323111
11
0.289462
21
0.32168
0
LINE
8
BLACK
6
CONTINUOUS
10
0.364144
20
0.322551
11
0.365574
21
0.320583
0
LINE
8
BLACK
6
CONTINUOUS
10
0.365574
20
0.320583
11
0.365574
21
0.31815
0
LINE
8
BLACK
6
CONTINUOUS
10
0.365574
20
0.31815
11
0.364144
21
0.316181
0
LINE
8
BLACK
6
CONTINUOUS
10
0.364144
20
0.316181
11
0.36183
21
0.315429
0
LINE
8
BLACK
6
CONTINUOUS
10
0.36183
20
0.315429
11
0.351144
21
0.315429
0
LINE
8
BLACK
6
CONTINUOUS
10
0.351144
20
0.315429
11
0.351144
21
0.268185
0
LINE
8
BLACK
6
CONTINUOUS
10
0.351144
20
0.268185
11
0.350392
21
0.265871
0
LINE
8
BLACK
6
CONTINUOUS
10
0.350392
20
0.265871
11
0.348423
21
0.264441
0
LINE
8
BLACK
6
CONTINUOUS
10
0.348423
20
0.264441
11
0.34599
21
0.264441
0
LINE
8
BLACK
6
CONTINUOUS
10
0.34599
20
0.264441
11
0.344021
21
0.265871
0
LINE
8
BLACK
6
CONTINUOUS
10
0.344021
20
0.265871
11
0.34327
21
0.268185
0
LINE
8
BLACK
6
CONTINUOUS
10
0.34327
20
0.268185
11
0.34327
21
0.315429
0
LINE
8
BLACK
6
CONTINUOUS
10
0.34327
20
0.315429
11
0.332583
21
0.315429
0
LINE
8
BLACK
6
CONTINUOUS
10
0.332583
20
0.315429
11
0.330269
21
0.316181
0
LINE
8
BLACK
6
CONTINUOUS
10
0.330269
20
0.316181
11
0.328839
21
0.31815
0
LINE
8
BLACK
6
CONTINUOUS
10
0.328839
20
0.31815
11
0.328839
21
0.320583
0
LINE
8
BLACK
6
CONTINUOUS
10
0.328839
20
0.320583
11
0.330269
21
0.322551
0
LINE
8
BLACK
6
CONTINUOUS
10
0.330269
20
0.322551
11
0.332583
21
0.323303
0
LINE
8
BLACK
6
CONTINUOUS
10
0.332583
20
0.323303
11
0.36183
21
0.323303
0
LINE
8
BLACK
6
CONTINUOUS
10
0.36183
20
0.323303
11
0.364144
21
0.322551
0
LINE
8
BLACK
6
CONTINUOUS
10
0.420384
20
0.317885
11
0.420513
21
0.317908
0
LINE
8
BLACK
6
CONTINUOUS
10
0.420513
20
0.317908
11
0.420626
21
0.317842
0
LINE
8
BLACK
6
CONTINUOUS
10
0.420626
20
0.317842
11
0.42101
21
0.317775
0
LINE
8
BLACK
6
CONTINUOUS
10
0.42101
20
0.317775
11
0.421598
21
0.317282
0
LINE
8
BLACK
6
CONTINUOUS
10
0.421598
20
0.317282
11
0.422262
21
0.316898
0
LINE
8
BLACK
6
CONTINUOUS
10
0.422262
20
0.316898
11
0.422353
21
0.316648
0
LINE
8
BLACK
6
CONTINUOUS
10
0.422353
20
0.316648
11
0.422557
21
0.316476
0
LINE
8
BLACK
6
CONTINUOUS
10
0.422557
20
0.316476
11
0.42269
21
0.315721
0
LINE
8
BLACK
6
CONTINUOUS
10
0.42269
20
0.315721
11
0.422953
21
0.315
0
LINE
8
BLACK
6
CONTINUOUS
10
0.422953
20
0.315
11
0.422953
21
0.282953
0
LINE
8
BLACK
6
CONTINUOUS
10
0.422953
20
0.282953
11
0.45
21
0.282953
0
LINE
8
BLACK
6
CONTINUOUS
10
0.45
20
0.282953
11
0.45101
21
0.282775
0
LINE
8
BLACK
6
CONTINUOUS
10
0.45101
20
0.282775
11
0.452557
21
0.281476
0
LINE
8
BLACK
6
CONTINUOUS
10
0.452557
20
0.281476
11
0.452908
21
0.279487
0
LINE
8
BLACK
6
CONTINUOUS
10
0.452908
20
0.279487
11
0.451898
21
0.277738
0
LINE
8
BLACK
6
CONTINUOUS
10
0.451898
20
0.277738
11
0.45
21
0.277047
0
LINE
8
BLACK
6
CONTINUOUS
10
0.45
20
0.277047
11
0.42
21
0.277047
0
LINE
8
BLACK
6
CONTINUOUS
10
0.42
20
0.277047
11
0.419616
21
0.277115
0
LINE
8
BLACK
6
CONTINUOUS
10
0.419616
20
0.277115
11
0.419487
21
0.277092
0
LINE
8
BLACK
6
CONTINUOUS
10
0.419487
20
0.277092
11
0.419374
21
0.277158
0
LINE
8
BLACK
6
CONTINUOUS
10
0.419374
20
0.277158
11
0.41899
21
0.277225
0
LINE
8
BLACK
6
CONTINUOUS
10
0.41899
20
0.277225
11
0.418402
21
0.277718
0
LINE
8
BLACK
6
CONTINUOUS
10
0.418402
20
0.277718
11
0.417738
21
0.278102
0
LINE
8
BLACK
6
CONTINUOUS
10
0.417738
20
0.278102
11
0.417647
21
0.278352
0
LINE
8
BLACK
6
CONTINUOUS
10
0.417647
20
0.278352
11
0.417443
21
0.278524
0
LINE
8
BLACK
6
CONTINUOUS
10
0.417443
20
0.278524
11
0.41731
21
0.279279
0
LINE
8
BLACK
6
CONTINUOUS
10
0.41731
20
0.279279
11
0.417047
21
0.28
0
LINE
8
BLACK
6
CONTINUOUS
10
0.417047
20
0.28
11
0.417047
21
0.312047
0
LINE
8
BLACK
6
CONTINUOUS
10
0.417047
20
0.312047
11
0.392953
21
0.312047
0
LINE
8
BLACK
6
CONTINUOUS
10
0.392953
20
0.312047
11
0.392953
21
0.28
0
LINE
8
BLACK
6
CONTINUOUS
10
0.392953
20
0.28
11
0.392885
21
0.279616
0
LINE
8
BLACK
6
CONTINUOUS
10
0.392885
20
0.279616
11
0.392908
21
0.279487
0
LINE
8
BLACK
6
CONTINUOUS
10
0.392908
20
0.279487
11
0.392842
21
0.279374
0
LINE
8
BLACK
6
CONTINUOUS
10
0.392842
20
0.279374
11
0.392775
21
0.27899
0
LINE
8
BLACK
6
CONTINUOUS
10
0.392775
20
0.27899
11
0.392282
21
0.278402
0
LINE
8
BLACK
6
CONTINUOUS
10
0.392282
20
0.278402
11
0.391898
21
0.277738
0
LINE
8
BLACK
6
CONTINUOUS
10
0.391898
20
0.277738
11
0.391648
21
0.277647
0
LINE
8
BLACK
6
CONTINUOUS
10
0.391648
20
0.277647
11
0.391476
21
0.277443
0
LINE
8
BLACK
6
CONTINUOUS
10
0.391476
20
0.277443
11
0.390721
21
0.27731
0
LINE
8
BLACK
6
CONTINUOUS
10
0.390721
20
0.27731
11
0.39
21
0.277047
0
LINE
8
BLACK
6
CONTINUOUS
10
0.39
20
0.277047
11
0.365
21
0.277047
0
LINE
8
BLACK
6
CONTINUOUS
10
0.365
20
0.277047
11
0.36399
21
0.277225
0
LINE
8
BLACK
6
CONTINUOUS
10
0.36399
20
0.277225
11
0.362443
21
0.278524
0
LINE
8
BLACK
6
CONTINUOUS
10
0.362443
20
0.278524
11
0.362092
21
0.280513
0
LINE
8
BLACK
6
CONTINUOUS
10
0.362092
20
0.280513
11
0.363102
21
0.282262
0
LINE
8
BLACK
6
CONTINUOUS
10
0.363102
20
0.282262
11
0.365
21
0.282953
0
LINE
8
BLACK
6
CONTINUOUS
10
0.365
20
0.282953
11
0.387047
21
0.282953
0
LINE
8
BLACK
6
CONTINUOUS
10
0.387047
20
0.282953
11
0.387047
21
0.315
0
LINE
8
BLACK
6
CONTINUOUS
10
0.387047
20
0.315
11
0.387115
21
0.315384
0
LINE
8
BLACK
6
CONTINUOUS
10
0.387115
20
0.315384
11
0.387092
21
0.315513
0
LINE
8
BLACK
6
CONTINUOUS
10
0.387092
20
0.315513
11
0.387158
21
0.315626
0
LINE
8
BLACK
6
CONTINUOUS
10
0.387158
20
0.315626
11
0.387225
21
0.31601
0
LINE
8
BLACK
6
CONTINUOUS
10
0.387225
20
0.31601
11
0.387718
21
0.316598
0
LINE
8
BLACK
6
CONTINUOUS
10
0.387718
20
0.316598
11
0.388102
21
0.317262
0
LINE
8
BLACK
6
CONTINUOUS
10
0.388102
20
0.317262
11
0.388352
21
0.317353
0
LINE
8
BLACK
6
CONTINUOUS
10
0.388352
20
0.317353
11
0.388524
21
0.317557
0
LINE
8
BLACK
6
CONTINUOUS
10
0.388524
20
0.317557
11
0.389279
21
0.31769
0
LINE
8
BLACK
6
CONTINUOUS
10
0.389279
20
0.31769
11
0.39
21
0.317953
0
LINE
8
BLACK
6
CONTINUOUS
10
0.39
20
0.317953
11
0.42
21
0.317953
0
LINE
8
BLACK
6
CONTINUOUS
10
0.42
20
0.317953
11
0.420384
21
0.317885
  0
ENDSEC
  0
EOF
