  0
SECTION
  2
HEADER
  9
$ANGBASE
  50
0.0
  9
$ANGDIR
  70
1
  9
$MEASUREMENT
  70
0
  0
ENDSEC
  0
SECTION
  2
TABLES
  0
TABLE
  2
LTYPE
  70
4
  0
LTYPE
  5
40F
  2
CONTINUOUS
  70
0
  3
Solid line
  72
65
  73
0
  40
0.0
  0
LTYPE
  5
410
  2
DASHDOT
 70
0
  3
Dash Dot ____ _ ____ _
 72
65
 73
4
 40
2.0
 49
1.25
 49
-0.25
 49
0.25
 49
-0.25
  0
LTYPE
  5
411
  2
DASHED
 70
0
  3
Dashed __ __ __ __ __
 72
65
 73
2
 40
0.75
 49
0.5
 49
-0.25
  0
LTYPE
  5
43B
  2
DOTTED
 70
0
  3
Dotted .  .  .  .
 72
65
 73
2
 40
0.2
 49
0.0
 49
-0.2
  0
ENDTAB
  0
TABLE
  2
STYLE
  70
4
  0
STYLE
  2
KICAD
  70
0
  40
0
  41
1
  42
1
  50
0
  71
0
  3
isocp.shx
  0
STYLE
  2
KICADB
  70
0
  40
0
  41
1
  42
1
  50
0
  71
0
  3
isocp.shx
  0
STYLE
  2
KICADI
  70
0
  40
0
  41
1
  42
1
  50
15
  71
0
  3
isocp.shx
  0
STYLE
  2
KICADBI
  70
0
  40
0
  41
1
  42
1
  50
15
  71
0
  3
isocp.shx
  0
ENDTAB
  0
TABLE
  2
LAYER
  70
1
  0
LAYER
  2
BLACK
  70
0
  62
7
  6
CONTINUOUS
  0
ENDTAB
  0
ENDSEC
  0
SECTION
  2
ENTITIES
0
LINE
8
BLACK
6
CONTINUOUS
10
0.44419
20
0.0960798
11
0.444882
21
0.0944094
0
LINE
8
BLACK
6
CONTINUOUS
10
0.444882
20
0.0944094
11
0.444882
21
0.0601575
0
LINE
8
BLACK
6
CONTINUOUS
10
0.444882
20
0.0601575
11
0.5
21
0.0601575
0
LINE
8
BLACK
6
CONTINUOUS
10
0.5
20
0.0601575
11
0.50167
21
0.0594656
0
LINE
8
BLACK
6
CONTINUOUS
10
0.50167
20
0.0594656
11
0.502362
21
0.0577953
0
LINE
8
BLACK
6
CONTINUOUS
10
0.502362
20
0.0577953
11
0.50167
21
0.056125
0
LINE
8
BLACK
6
CONTINUOUS
10
0.50167
20
0.056125
11
0.5
21
0.0554331
0
LINE
8
BLACK
6
CONTINUOUS
10
0.5
20
0.0554331
11
0.44252
21
0.0554331
0
LINE
8
BLACK
6
CONTINUOUS
10
0.44252
20
0.0554331
11
0.440849
21
0.056125
0
LINE
8
BLACK
6
CONTINUOUS
10
0.440849
20
0.056125
11
0.440157
21
0.0577953
0
LINE
8
BLACK
6
CONTINUOUS
10
0.440157
20
0.0577953
11
0.440157
21
0.0944094
0
LINE
8
BLACK
6
CONTINUOUS
10
0.440157
20
0.0944094
11
0.440849
21
0.0960798
0
LINE
8
BLACK
6
CONTINUOUS
10
0.440849
20
0.0960798
11
0.44252
21
0.0967717
0
LINE
8
BLACK
6
CONTINUOUS
10
0.44252
20
0.0967717
11
0.44419
21
0.0960798
0
LINE
8
BLACK
6
CONTINUOUS
10
0.296749
20
0.127075
11
0.297441
21
0.125405
0
LINE
8
BLACK
6
CONTINUOUS
10
0.297441
20
0.125405
11
0.297441
21
0.112587
0
LINE
8
BLACK
6
CONTINUOUS
10
0.297441
20
0.112587
11
0.296749
21
0.110917
0
LINE
8
BLACK
6
CONTINUOUS
10
0.296749
20
0.110917
11
0.295079
21
0.110225
0
LINE
8
BLACK
6
CONTINUOUS
10
0.295079
20
0.110225
11
0.293408
21
0.110917
0
LINE
8
BLACK
6
CONTINUOUS
10
0.293408
20
0.110917
11
0.292717
21
0.112587
0
LINE
8
BLACK
6
CONTINUOUS
10
0.292717
20
0.112587
11
0.292717
21
0.125405
0
LINE
8
BLACK
6
CONTINUOUS
10
0.292717
20
0.125405
11
0.293408
21
0.127075
0
LINE
8
BLACK
6
CONTINUOUS
10
0.293408
20
0.127075
11
0.295079
21
0.127767
0
LINE
8
BLACK
6
CONTINUOUS
10
0.295079
20
0.127767
11
0.296749
21
0.127075
0
LINE
8
BLACK
6
CONTINUOUS
10
0.256592
20
0.127075
11
0.257283
21
0.125405
0
LINE
8
BLACK
6
CONTINUOUS
10
0.257283
20
0.125405
11
0.257283
21
0.112587
0
LINE
8
BLACK
6
CONTINUOUS
10
0.257283
20
0.112587
11
0.256592
21
0.110917
0
LINE
8
BLACK
6
CONTINUOUS
10
0.256592
20
0.110917
11
0.254921
21
0.110225
0
LINE
8
BLACK
6
CONTINUOUS
10
0.254921
20
0.110225
11
0.253251
21
0.110917
0
LINE
8
BLACK
6
CONTINUOUS
10
0.253251
20
0.110917
11
0.252559
21
0.112587
0
LINE
8
BLACK
6
CONTINUOUS
10
0.252559
20
0.112587
11
0.252559
21
0.125405
0
LINE
8
BLACK
6
CONTINUOUS
10
0.252559
20
0.125405
11
0.253251
21
0.127075
0
LINE
8
BLACK
6
CONTINUOUS
10
0.253251
20
0.127075
11
0.254921
21
0.127767
0
LINE
8
BLACK
6
CONTINUOUS
10
0.254921
20
0.127767
11
0.256592
21
0.127075
0
LINE
8
BLACK
6
CONTINUOUS
10
0.529229
20
0.183875
11
0.529921
21
0.182205
0
LINE
8
BLACK
6
CONTINUOUS
10
0.529921
20
0.182205
11
0.529229
21
0.180534
0
LINE
8
BLACK
6
CONTINUOUS
10
0.529229
20
0.180534
11
0.527559
21
0.179843
0
LINE
8
BLACK
6
CONTINUOUS
10
0.527559
20
0.179843
11
0.444882
21
0.179843
0
LINE
8
BLACK
6
CONTINUOUS
10
0.444882
20
0.179843
11
0.444882
21
0.145591
0
LINE
8
BLACK
6
CONTINUOUS
10
0.444882
20
0.145591
11
0.44419
21
0.14392
0
LINE
8
BLACK
6
CONTINUOUS
10
0.44419
20
0.14392
11
0.44252
21
0.143228
0
LINE
8
BLACK
6
CONTINUOUS
10
0.44252
20
0.143228
11
0.440849
21
0.14392
0
LINE
8
BLACK
6
CONTINUOUS
10
0.440849
20
0.14392
11
0.440157
21
0.145591
0
LINE
8
BLACK
6
CONTINUOUS
10
0.440157
20
0.145591
11
0.440157
21
0.182205
0
LINE
8
BLACK
6
CONTINUOUS
10
0.440157
20
0.182205
11
0.440849
21
0.183875
0
LINE
8
BLACK
6
CONTINUOUS
10
0.440849
20
0.183875
11
0.44252
21
0.184567
0
LINE
8
BLACK
6
CONTINUOUS
10
0.44252
20
0.184567
11
0.527559
21
0.184567
0
LINE
8
BLACK
6
CONTINUOUS
10
0.527559
20
0.184567
11
0.529229
21
0.183875
0
LINE
8
BLACK
6
CONTINUOUS
10
0.371749
20
0.207075
11
0.372441
21
0.205405
0
LINE
8
BLACK
6
CONTINUOUS
10
0.372441
20
0.205405
11
0.372441
21
0.192587
0
LINE
8
BLACK
6
CONTINUOUS
10
0.372441
20
0.192587
11
0.371749
21
0.190917
0
LINE
8
BLACK
6
CONTINUOUS
10
0.371749
20
0.190917
11
0.370079
21
0.190225
0
LINE
8
BLACK
6
CONTINUOUS
10
0.370079
20
0.190225
11
0.368408
21
0.190917
0
LINE
8
BLACK
6
CONTINUOUS
10
0.368408
20
0.190917
11
0.367717
21
0.192587
0
LINE
8
BLACK
6
CONTINUOUS
10
0.367717
20
0.192587
11
0.367717
21
0.205405
0
LINE
8
BLACK
6
CONTINUOUS
10
0.367717
20
0.205405
11
0.368408
21
0.207075
0
LINE
8
BLACK
6
CONTINUOUS
10
0.368408
20
0.207075
11
0.370079
21
0.207767
0
LINE
8
BLACK
6
CONTINUOUS
10
0.370079
20
0.207767
11
0.371749
21
0.207075
0
LINE
8
BLACK
6
CONTINUOUS
10
0.331592
20
0.207075
11
0.332283
21
0.205405
0
LINE
8
BLACK
6
CONTINUOUS
10
0.332283
20
0.205405
11
0.332283
21
0.192587
0
LINE
8
BLACK
6
CONTINUOUS
10
0.332283
20
0.192587
11
0.331592
21
0.190917
0
LINE
8
BLACK
6
CONTINUOUS
10
0.331592
20
0.190917
11
0.329921
21
0.190225
0
LINE
8
BLACK
6
CONTINUOUS
10
0.329921
20
0.190225
11
0.328251
21
0.190917
0
LINE
8
BLACK
6
CONTINUOUS
10
0.328251
20
0.190917
11
0.327559
21
0.192587
0
LINE
8
BLACK
6
CONTINUOUS
10
0.327559
20
0.192587
11
0.327559
21
0.205405
0
LINE
8
BLACK
6
CONTINUOUS
10
0.327559
20
0.205405
11
0.328251
21
0.207075
0
LINE
8
BLACK
6
CONTINUOUS
10
0.328251
20
0.207075
11
0.329921
21
0.207767
0
LINE
8
BLACK
6
CONTINUOUS
10
0.329921
20
0.207767
11
0.331592
21
0.207075
0
LINE
8
BLACK
6
CONTINUOUS
10
0.30101
20
0.212775
11
0.302557
21
0.211476
0
LINE
8
BLACK
6
CONTINUOUS
10
0.302557
20
0.211476
11
0.302908
21
0.209487
0
LINE
8
BLACK
6
CONTINUOUS
10
0.302908
20
0.209487
11
0.301898
21
0.207738
0
LINE
8
BLACK
6
CONTINUOUS
10
0.301898
20
0.207738
11
0.3
21
0.207047
0
LINE
8
BLACK
6
CONTINUOUS
10
0.3
20
0.207047
11
0.24
21
0.207047
0
LINE
8
BLACK
6
CONTINUOUS
10
0.24
20
0.207047
11
0.23899
21
0.207225
0
LINE
8
BLACK
6
CONTINUOUS
10
0.23899
20
0.207225
11
0.237443
21
0.208524
0
LINE
8
BLACK
6
CONTINUOUS
10
0.237443
20
0.208524
11
0.237092
21
0.210513
0
LINE
8
BLACK
6
CONTINUOUS
10
0.237092
20
0.210513
11
0.238102
21
0.212262
0
LINE
8
BLACK
6
CONTINUOUS
10
0.238102
20
0.212262
11
0.24
21
0.212953
0
LINE
8
BLACK
6
CONTINUOUS
10
0.24
20
0.212953
11
0.3
21
0.212953
0
LINE
8
BLACK
6
CONTINUOUS
10
0.3
20
0.212953
11
0.30101
21
0.212775
0
LINE
8
BLACK
6
CONTINUOUS
10
0.420272
20
0.318618
11
0.421004
21
0.31685
0
LINE
8
BLACK
6
CONTINUOUS
10
0.421004
20
0.31685
11
0.421004
21
0.23811
0
LINE
8
BLACK
6
CONTINUOUS
10
0.421004
20
0.23811
11
0.420272
21
0.236342
0
LINE
8
BLACK
6
CONTINUOUS
10
0.420272
20
0.236342
11
0.418504
21
0.23561
0
LINE
8
BLACK
6
CONTINUOUS
10
0.418504
20
0.23561
11
0.416736
21
0.236342
0
LINE
8
BLACK
6
CONTINUOUS
10
0.416736
20
0.236342
11
0.416004
21
0.23811
0
LINE
8
BLACK
6
CONTINUOUS
10
0.416004
20
0.23811
11
0.416004
21
0.31685
0
LINE
8
BLACK
6
CONTINUOUS
10
0.416004
20
0.31685
11
0.416736
21
0.318618
0
LINE
8
BLACK
6
CONTINUOUS
10
0.416736
20
0.318618
11
0.418504
21
0.31935
0
LINE
8
BLACK
6
CONTINUOUS
10
0.418504
20
0.31935
11
0.420272
21
0.318618
0
LINE
8
BLACK
6
CONTINUOUS
10
0.528146
20
0.318618
11
0.528878
21
0.31685
0
LINE
8
BLACK
6
CONTINUOUS
10
0.528878
20
0.31685
11
0.528878
21
0.23811
0
LINE
8
BLACK
6
CONTINUOUS
10
0.528878
20
0.23811
11
0.528146
21
0.236342
0
LINE
8
BLACK
6
CONTINUOUS
10
0.528146
20
0.236342
11
0.526378
21
0.23561
0
LINE
8
BLACK
6
CONTINUOUS
10
0.526378
20
0.23561
11
0.52461
21
0.236342
0
LINE
8
BLACK
6
CONTINUOUS
10
0.52461
20
0.236342
11
0.523878
21
0.23811
0
LINE
8
BLACK
6
CONTINUOUS
10
0.523878
20
0.23811
11
0.523878
21
0.31685
0
LINE
8
BLACK
6
CONTINUOUS
10
0.523878
20
0.31685
11
0.52461
21
0.318618
0
LINE
8
BLACK
6
CONTINUOUS
10
0.52461
20
0.318618
11
0.526378
21
0.31935
0
LINE
8
BLACK
6
CONTINUOUS
10
0.526378
20
0.31935
11
0.528146
21
0.318618
0
LINE
8
BLACK
6
CONTINUOUS
10
0.398863
20
0.25485
11
0.402018
21
0.253328
0
LINE
8
BLACK
6
CONTINUOUS
10
0.402018
20
0.253328
11
0.404201
21
0.250589
0
LINE
8
BLACK
6
CONTINUOUS
10
0.404201
20
0.250589
11
0.40498
21
0.247175
0
LINE
8
BLACK
6
CONTINUOUS
10
0.40498
20
0.247175
11
0.404979
21
0.247147
0
LINE
8
BLACK
6
CONTINUOUS
10
0.404979
20
0.247147
11
0.404189
21
0.243735
0
LINE
8
BLACK
6
CONTINUOUS
10
0.404189
20
0.243735
11
0.401996
21
0.241004
0
LINE
8
BLACK
6
CONTINUOUS
10
0.401996
20
0.241004
11
0.398837
21
0.239493
0
LINE
8
BLACK
6
CONTINUOUS
10
0.398837
20
0.239493
11
0.395334
21
0.239502
0
LINE
8
BLACK
6
CONTINUOUS
10
0.395334
20
0.239502
11
0.392182
21
0.24103
0
LINE
8
BLACK
6
CONTINUOUS
10
0.392182
20
0.24103
11
0.390004
21
0.243772
0
LINE
8
BLACK
6
CONTINUOUS
10
0.390004
20
0.243772
11
0.389231
21
0.247188
0
LINE
8
BLACK
6
CONTINUOUS
10
0.389231
20
0.247188
11
0.390016
21
0.250602
0
LINE
8
BLACK
6
CONTINUOUS
10
0.390016
20
0.250602
11
0.392204
21
0.253337
0
LINE
8
BLACK
6
CONTINUOUS
10
0.392204
20
0.253337
11
0.395361
21
0.254853
0
LINE
8
BLACK
6
CONTINUOUS
10
0.395361
20
0.254853
11
0.398863
21
0.25485
0
LINE
8
BLACK
6
CONTINUOUS
10
0.30167
20
0.28667
11
0.302362
21
0.285
0
LINE
8
BLACK
6
CONTINUOUS
10
0.302362
20
0.285
11
0.302362
21
0.255
0
LINE
8
BLACK
6
CONTINUOUS
10
0.302362
20
0.255
11
0.30167
21
0.25333
0
LINE
8
BLACK
6
CONTINUOUS
10
0.30167
20
0.25333
11
0.3
21
0.252638
0
LINE
8
BLACK
6
CONTINUOUS
10
0.3
20
0.252638
11
0.29833
21
0.25333
0
LINE
8
BLACK
6
CONTINUOUS
10
0.29833
20
0.25333
11
0.297638
21
0.255
0
LINE
8
BLACK
6
CONTINUOUS
10
0.297638
20
0.255
11
0.297638
21
0.285
0
LINE
8
BLACK
6
CONTINUOUS
10
0.297638
20
0.285
11
0.29833
21
0.28667
0
LINE
8
BLACK
6
CONTINUOUS
10
0.29833
20
0.28667
11
0.3
21
0.287362
0
LINE
8
BLACK
6
CONTINUOUS
10
0.3
20
0.287362
11
0.30167
21
0.28667
0
LINE
8
BLACK
6
CONTINUOUS
10
0.24167
20
0.28667
11
0.242362
21
0.285
0
LINE
8
BLACK
6
CONTINUOUS
10
0.242362
20
0.285
11
0.242362
21
0.255
0
LINE
8
BLACK
6
CONTINUOUS
10
0.242362
20
0.255
11
0.24167
21
0.25333
0
LINE
8
BLACK
6
CONTINUOUS
10
0.24167
20
0.25333
11
0.24
21
0.252638
0
LINE
8
BLACK
6
CONTINUOUS
10
0.24
20
0.252638
11
0.23833
21
0.25333
0
LINE
8
BLACK
6
CONTINUOUS
10
0.23833
20
0.25333
11
0.237638
21
0.255
0
LINE
8
BLACK
6
CONTINUOUS
10
0.237638
20
0.255
11
0.237638
21
0.285
0
LINE
8
BLACK
6
CONTINUOUS
10
0.237638
20
0.285
11
0.23833
21
0.28667
0
LINE
8
BLACK
6
CONTINUOUS
10
0.23833
20
0.28667
11
0.24
21
0.287362
0
LINE
8
BLACK
6
CONTINUOUS
10
0.24
20
0.287362
11
0.24167
21
0.28667
0
LINE
8
BLACK
6
CONTINUOUS
10
0.30101
20
0.332775
11
0.302557
21
0.331476
0
LINE
8
BLACK
6
CONTINUOUS
10
0.302557
20
0.331476
11
0.302908
21
0.329487
0
LINE
8
BLACK
6
CONTINUOUS
10
0.302908
20
0.329487
11
0.301898
21
0.327738
0
LINE
8
BLACK
6
CONTINUOUS
10
0.301898
20
0.327738
11
0.3
21
0.327047
0
LINE
8
BLACK
6
CONTINUOUS
10
0.3
20
0.327047
11
0.24
21
0.327047
0
LINE
8
BLACK
6
CONTINUOUS
10
0.24
20
0.327047
11
0.23899
21
0.327225
0
LINE
8
BLACK
6
CONTINUOUS
10
0.23899
20
0.327225
11
0.237443
21
0.328524
0
LINE
8
BLACK
6
CONTINUOUS
10
0.237443
20
0.328524
11
0.237092
21
0.330513
0
LINE
8
BLACK
6
CONTINUOUS
10
0.237092
20
0.330513
11
0.238102
21
0.332262
0
LINE
8
BLACK
6
CONTINUOUS
10
0.238102
20
0.332262
11
0.24
21
0.332953
0
LINE
8
BLACK
6
CONTINUOUS
10
0.24
20
0.332953
11
0.3
21
0.332953
0
LINE
8
BLACK
6
CONTINUOUS
10
0.3
20
0.332953
11
0.30101
21
0.332775
  0
ENDSEC
  0
EOF
