  0
SECTION
  2
HEADER
  9
$ANGBASE
  50
0.0
  9
$ANGDIR
  70
1
  9
$MEASUREMENT
  70
0
  0
ENDSEC
  0
SECTION
  2
TABLES
  0
TABLE
  2
LTYPE
  70
4
  0
LTYPE
  5
40F
  2
CONTINUOUS
  70
0
  3
Solid line
  72
65
  73
0
  40
0.0
  0
LTYPE
  5
410
  2
DASHDOT
 70
0
  3
Dash Dot ____ _ ____ _
 72
65
 73
4
 40
2.0
 49
1.25
 49
-0.25
 49
0.25
 49
-0.25
  0
LTYPE
  5
411
  2
DASHED
 70
0
  3
Dashed __ __ __ __ __
 72
65
 73
2
 40
0.75
 49
0.5
 49
-0.25
  0
LTYPE
  5
43B
  2
DOTTED
 70
0
  3
Dotted .  .  .  .
 72
65
 73
2
 40
0.2
 49
0.0
 49
-0.2
  0
ENDTAB
  0
TABLE
  2
STYLE
  70
4
  0
STYLE
  2
KICAD
  70
0
  40
0
  41
1
  42
1
  50
0
  71
0
  3
isocp.shx
  0
STYLE
  2
KICADB
  70
0
  40
0
  41
1
  42
1
  50
0
  71
0
  3
isocp.shx
  0
STYLE
  2
KICADI
  70
0
  40
0
  41
1
  42
1
  50
15
  71
0
  3
isocp.shx
  0
STYLE
  2
KICADBI
  70
0
  40
0
  41
1
  42
1
  50
15
  71
0
  3
isocp.shx
  0
ENDTAB
  0
TABLE
  2
LAYER
  70
1
  0
LAYER
  2
BLACK
  70
0
  62
7
  6
CONTINUOUS
  0
ENDTAB
  0
ENDSEC
  0
SECTION
  2
ENTITIES
0
LINE
8
BLACK
6
CONTINUOUS
10
0.529528
20
0.0668504
11
0.494094
21
0.0668504
0
LINE
8
BLACK
6
CONTINUOUS
10
0.494094
20
0.0668504
11
0.494094
21
0.0983465
0
LINE
8
BLACK
6
CONTINUOUS
10
0.494094
20
0.0983465
11
0.529528
21
0.0983465
0
LINE
8
BLACK
6
CONTINUOUS
10
0.529528
20
0.0983465
11
0.529528
21
0.0668504
0
LINE
8
BLACK
6
CONTINUOUS
10
0.288384
20
0.104561
11
0.291178
21
0.102694
0
LINE
8
BLACK
6
CONTINUOUS
10
0.291178
20
0.102694
11
0.293045
21
0.0999001
0
LINE
8
BLACK
6
CONTINUOUS
10
0.293045
20
0.0999001
11
0.293701
21
0.0966043
0
LINE
8
BLACK
6
CONTINUOUS
10
0.293701
20
0.0966043
11
0.293701
21
0.0793799
0
LINE
8
BLACK
6
CONTINUOUS
10
0.293701
20
0.0793799
11
0.293045
21
0.0760842
0
LINE
8
BLACK
6
CONTINUOUS
10
0.293045
20
0.0760842
11
0.291178
21
0.0732902
0
LINE
8
BLACK
6
CONTINUOUS
10
0.291178
20
0.0732902
11
0.288384
21
0.0714233
0
LINE
8
BLACK
6
CONTINUOUS
10
0.288384
20
0.0714233
11
0.285089
21
0.0707677
0
LINE
8
BLACK
6
CONTINUOUS
10
0.285089
20
0.0707677
11
0.264911
21
0.0707677
0
LINE
8
BLACK
6
CONTINUOUS
10
0.264911
20
0.0707677
11
0.261616
21
0.0714233
0
LINE
8
BLACK
6
CONTINUOUS
10
0.261616
20
0.0714233
11
0.258822
21
0.0732902
0
LINE
8
BLACK
6
CONTINUOUS
10
0.258822
20
0.0732902
11
0.256955
21
0.0760842
0
LINE
8
BLACK
6
CONTINUOUS
10
0.256955
20
0.0760842
11
0.256299
21
0.0793799
0
LINE
8
BLACK
6
CONTINUOUS
10
0.256299
20
0.0793799
11
0.256299
21
0.0966043
0
LINE
8
BLACK
6
CONTINUOUS
10
0.256299
20
0.0966043
11
0.256955
21
0.0999001
0
LINE
8
BLACK
6
CONTINUOUS
10
0.256955
20
0.0999001
11
0.258822
21
0.102694
0
LINE
8
BLACK
6
CONTINUOUS
10
0.258822
20
0.102694
11
0.261616
21
0.104561
0
LINE
8
BLACK
6
CONTINUOUS
10
0.261616
20
0.104561
11
0.264911
21
0.105217
0
LINE
8
BLACK
6
CONTINUOUS
10
0.264911
20
0.105217
11
0.285089
21
0.105217
0
LINE
8
BLACK
6
CONTINUOUS
10
0.285089
20
0.105217
11
0.288384
21
0.104561
0
LINE
8
BLACK
6
CONTINUOUS
10
0.450787
20
0.104252
11
0.415354
21
0.104252
0
LINE
8
BLACK
6
CONTINUOUS
10
0.415354
20
0.104252
11
0.415354
21
0.135748
0
LINE
8
BLACK
6
CONTINUOUS
10
0.415354
20
0.135748
11
0.450787
21
0.135748
0
LINE
8
BLACK
6
CONTINUOUS
10
0.450787
20
0.135748
11
0.450787
21
0.104252
0
LINE
8
BLACK
6
CONTINUOUS
10
0.288384
20
0.166569
11
0.291178
21
0.164702
0
LINE
8
BLACK
6
CONTINUOUS
10
0.291178
20
0.164702
11
0.293045
21
0.161908
0
LINE
8
BLACK
6
CONTINUOUS
10
0.293045
20
0.161908
11
0.293701
21
0.158612
0
LINE
8
BLACK
6
CONTINUOUS
10
0.293701
20
0.158612
11
0.293701
21
0.141388
0
LINE
8
BLACK
6
CONTINUOUS
10
0.293701
20
0.141388
11
0.293045
21
0.138092
0
LINE
8
BLACK
6
CONTINUOUS
10
0.293045
20
0.138092
11
0.291178
21
0.135298
0
LINE
8
BLACK
6
CONTINUOUS
10
0.291178
20
0.135298
11
0.288384
21
0.133431
0
LINE
8
BLACK
6
CONTINUOUS
10
0.288384
20
0.133431
11
0.285089
21
0.132776
0
LINE
8
BLACK
6
CONTINUOUS
10
0.285089
20
0.132776
11
0.264911
21
0.132776
0
LINE
8
BLACK
6
CONTINUOUS
10
0.264911
20
0.132776
11
0.261616
21
0.133431
0
LINE
8
BLACK
6
CONTINUOUS
10
0.261616
20
0.133431
11
0.258822
21
0.135298
0
LINE
8
BLACK
6
CONTINUOUS
10
0.258822
20
0.135298
11
0.256955
21
0.138092
0
LINE
8
BLACK
6
CONTINUOUS
10
0.256955
20
0.138092
11
0.256299
21
0.141388
0
LINE
8
BLACK
6
CONTINUOUS
10
0.256299
20
0.141388
11
0.256299
21
0.158612
0
LINE
8
BLACK
6
CONTINUOUS
10
0.256299
20
0.158612
11
0.256955
21
0.161908
0
LINE
8
BLACK
6
CONTINUOUS
10
0.256955
20
0.161908
11
0.258822
21
0.164702
0
LINE
8
BLACK
6
CONTINUOUS
10
0.258822
20
0.164702
11
0.261616
21
0.166569
0
LINE
8
BLACK
6
CONTINUOUS
10
0.261616
20
0.166569
11
0.264911
21
0.167224
0
LINE
8
BLACK
6
CONTINUOUS
10
0.264911
20
0.167224
11
0.285089
21
0.167224
0
LINE
8
BLACK
6
CONTINUOUS
10
0.285089
20
0.167224
11
0.288384
21
0.166569
0
LINE
8
BLACK
6
CONTINUOUS
10
0.529528
20
0.141654
11
0.494094
21
0.141654
0
LINE
8
BLACK
6
CONTINUOUS
10
0.494094
20
0.141654
11
0.494094
21
0.17315
0
LINE
8
BLACK
6
CONTINUOUS
10
0.494094
20
0.17315
11
0.529528
21
0.17315
0
LINE
8
BLACK
6
CONTINUOUS
10
0.529528
20
0.17315
11
0.529528
21
0.141654
0
LINE
8
BLACK
6
CONTINUOUS
10
0.363384
20
0.184561
11
0.366178
21
0.182694
0
LINE
8
BLACK
6
CONTINUOUS
10
0.366178
20
0.182694
11
0.368045
21
0.1799
0
LINE
8
BLACK
6
CONTINUOUS
10
0.368045
20
0.1799
11
0.368701
21
0.176604
0
LINE
8
BLACK
6
CONTINUOUS
10
0.368701
20
0.176604
11
0.368701
21
0.15938
0
LINE
8
BLACK
6
CONTINUOUS
10
0.368701
20
0.15938
11
0.368045
21
0.156084
0
LINE
8
BLACK
6
CONTINUOUS
10
0.368045
20
0.156084
11
0.366178
21
0.15329
0
LINE
8
BLACK
6
CONTINUOUS
10
0.366178
20
0.15329
11
0.363384
21
0.151423
0
LINE
8
BLACK
6
CONTINUOUS
10
0.363384
20
0.151423
11
0.360089
21
0.150768
0
LINE
8
BLACK
6
CONTINUOUS
10
0.360089
20
0.150768
11
0.339911
21
0.150768
0
LINE
8
BLACK
6
CONTINUOUS
10
0.339911
20
0.150768
11
0.336616
21
0.151423
0
LINE
8
BLACK
6
CONTINUOUS
10
0.336616
20
0.151423
11
0.333822
21
0.15329
0
LINE
8
BLACK
6
CONTINUOUS
10
0.333822
20
0.15329
11
0.331955
21
0.156084
0
LINE
8
BLACK
6
CONTINUOUS
10
0.331955
20
0.156084
11
0.331299
21
0.15938
0
LINE
8
BLACK
6
CONTINUOUS
10
0.331299
20
0.15938
11
0.331299
21
0.176604
0
LINE
8
BLACK
6
CONTINUOUS
10
0.331299
20
0.176604
11
0.331955
21
0.1799
0
LINE
8
BLACK
6
CONTINUOUS
10
0.331955
20
0.1799
11
0.333822
21
0.182694
0
LINE
8
BLACK
6
CONTINUOUS
10
0.333822
20
0.182694
11
0.336616
21
0.184561
0
LINE
8
BLACK
6
CONTINUOUS
10
0.336616
20
0.184561
11
0.339911
21
0.185217
0
LINE
8
BLACK
6
CONTINUOUS
10
0.339911
20
0.185217
11
0.360089
21
0.185217
0
LINE
8
BLACK
6
CONTINUOUS
10
0.360089
20
0.185217
11
0.363384
21
0.184561
0
LINE
8
BLACK
6
CONTINUOUS
10
0.363384
20
0.246569
11
0.366178
21
0.244702
0
LINE
8
BLACK
6
CONTINUOUS
10
0.366178
20
0.244702
11
0.368045
21
0.241908
0
LINE
8
BLACK
6
CONTINUOUS
10
0.368045
20
0.241908
11
0.368701
21
0.238612
0
LINE
8
BLACK
6
CONTINUOUS
10
0.368701
20
0.238612
11
0.368701
21
0.221388
0
LINE
8
BLACK
6
CONTINUOUS
10
0.368701
20
0.221388
11
0.368045
21
0.218092
0
LINE
8
BLACK
6
CONTINUOUS
10
0.368045
20
0.218092
11
0.366178
21
0.215298
0
LINE
8
BLACK
6
CONTINUOUS
10
0.366178
20
0.215298
11
0.363384
21
0.213431
0
LINE
8
BLACK
6
CONTINUOUS
10
0.363384
20
0.213431
11
0.360089
21
0.212776
0
LINE
8
BLACK
6
CONTINUOUS
10
0.360089
20
0.212776
11
0.339911
21
0.212776
0
LINE
8
BLACK
6
CONTINUOUS
10
0.339911
20
0.212776
11
0.336616
21
0.213431
0
LINE
8
BLACK
6
CONTINUOUS
10
0.336616
20
0.213431
11
0.333822
21
0.215298
0
LINE
8
BLACK
6
CONTINUOUS
10
0.333822
20
0.215298
11
0.331955
21
0.218092
0
LINE
8
BLACK
6
CONTINUOUS
10
0.331955
20
0.218092
11
0.331299
21
0.221388
0
LINE
8
BLACK
6
CONTINUOUS
10
0.331299
20
0.221388
11
0.331299
21
0.238612
0
LINE
8
BLACK
6
CONTINUOUS
10
0.331299
20
0.238612
11
0.331955
21
0.241908
0
LINE
8
BLACK
6
CONTINUOUS
10
0.331955
20
0.241908
11
0.333822
21
0.244702
0
LINE
8
BLACK
6
CONTINUOUS
10
0.333822
20
0.244702
11
0.336616
21
0.246569
0
LINE
8
BLACK
6
CONTINUOUS
10
0.336616
20
0.246569
11
0.339911
21
0.247224
0
LINE
8
BLACK
6
CONTINUOUS
10
0.339911
20
0.247224
11
0.360089
21
0.247224
0
LINE
8
BLACK
6
CONTINUOUS
10
0.360089
20
0.247224
11
0.363384
21
0.246569
0
LINE
8
BLACK
6
CONTINUOUS
10
0.2975
20
0.215
11
0.2425
21
0.215
0
LINE
8
BLACK
6
CONTINUOUS
10
0.2425
20
0.215
11
0.2425
21
0.25
0
LINE
8
BLACK
6
CONTINUOUS
10
0.2425
20
0.25
11
0.2975
21
0.25
0
LINE
8
BLACK
6
CONTINUOUS
10
0.2975
20
0.25
11
0.2975
21
0.215
0
LINE
8
BLACK
6
CONTINUOUS
10
0.469094
20
0.230236
11
0.430906
21
0.230236
0
LINE
8
BLACK
6
CONTINUOUS
10
0.430906
20
0.230236
11
0.430906
21
0.267638
0
LINE
8
BLACK
6
CONTINUOUS
10
0.430906
20
0.267638
11
0.469094
21
0.267638
0
LINE
8
BLACK
6
CONTINUOUS
10
0.469094
20
0.267638
11
0.469094
21
0.230236
0
LINE
8
BLACK
6
CONTINUOUS
10
0.513976
20
0.230236
11
0.480512
21
0.230236
0
LINE
8
BLACK
6
CONTINUOUS
10
0.480512
20
0.230236
11
0.480512
21
0.267638
0
LINE
8
BLACK
6
CONTINUOUS
10
0.480512
20
0.267638
11
0.513976
21
0.267638
0
LINE
8
BLACK
6
CONTINUOUS
10
0.513976
20
0.267638
11
0.513976
21
0.230236
0
LINE
8
BLACK
6
CONTINUOUS
10
0.469094
20
0.279449
11
0.430906
21
0.279449
0
LINE
8
BLACK
6
CONTINUOUS
10
0.430906
20
0.279449
11
0.430906
21
0.324724
0
LINE
8
BLACK
6
CONTINUOUS
10
0.430906
20
0.324724
11
0.469094
21
0.324724
0
LINE
8
BLACK
6
CONTINUOUS
10
0.469094
20
0.324724
11
0.469094
21
0.279449
0
LINE
8
BLACK
6
CONTINUOUS
10
0.513976
20
0.279449
11
0.480512
21
0.279449
0
LINE
8
BLACK
6
CONTINUOUS
10
0.480512
20
0.279449
11
0.480512
21
0.324724
0
LINE
8
BLACK
6
CONTINUOUS
10
0.480512
20
0.324724
11
0.513976
21
0.324724
0
LINE
8
BLACK
6
CONTINUOUS
10
0.513976
20
0.324724
11
0.513976
21
0.279449
0
LINE
8
BLACK
6
CONTINUOUS
10
0.2975
20
0.29
11
0.2425
21
0.29
0
LINE
8
BLACK
6
CONTINUOUS
10
0.2425
20
0.29
11
0.2425
21
0.325
0
LINE
8
BLACK
6
CONTINUOUS
10
0.2425
20
0.325
11
0.2975
21
0.325
0
LINE
8
BLACK
6
CONTINUOUS
10
0.2975
20
0.325
11
0.2975
21
0.29
  0
ENDSEC
  0
EOF
