  0
SECTION
  2
HEADER
  9
$ANGBASE
  50
0.0
  9
$ANGDIR
  70
1
  9
$MEASUREMENT
  70
0
  0
ENDSEC
  0
SECTION
  2
TABLES
  0
TABLE
  2
LTYPE
  70
4
  0
LTYPE
  5
40F
  2
CONTINUOUS
  70
0
  3
Solid line
  72
65
  73
0
  40
0.0
  0
LTYPE
  5
410
  2
DASHDOT
 70
0
  3
Dash Dot ____ _ ____ _
 72
65
 73
4
 40
2.0
 49
1.25
 49
-0.25
 49
0.25
 49
-0.25
  0
LTYPE
  5
411
  2
DASHED
 70
0
  3
Dashed __ __ __ __ __
 72
65
 73
2
 40
0.75
 49
0.5
 49
-0.25
  0
LTYPE
  5
43B
  2
DOTTED
 70
0
  3
Dotted .  .  .  .
 72
65
 73
2
 40
0.2
 49
0.0
 49
-0.2
  0
ENDTAB
  0
TABLE
  2
STYLE
  70
4
  0
STYLE
  2
KICAD
  70
0
  40
0
  41
1
  42
1
  50
0
  71
0
  3
isocp.shx
  0
STYLE
  2
KICADB
  70
0
  40
0
  41
1
  42
1
  50
0
  71
0
  3
isocp.shx
  0
STYLE
  2
KICADI
  70
0
  40
0
  41
1
  42
1
  50
15
  71
0
  3
isocp.shx
  0
STYLE
  2
KICADBI
  70
0
  40
0
  41
1
  42
1
  50
15
  71
0
  3
isocp.shx
  0
ENDTAB
  0
TABLE
  2
LAYER
  70
1
  0
LAYER
  2
BLACK
  70
0
  62
7
  6
CONTINUOUS
  0
ENDTAB
  0
ENDSEC
  0
SECTION
  2
ENTITIES
0
LINE
8
BLACK
6
CONTINUOUS
10
0.478364
20
0.181804
11
0.478382
21
0.181811
0
LINE
8
BLACK
6
CONTINUOUS
10
0.478382
20
0.181811
11
0.479058
21
0.181516
0
LINE
8
BLACK
6
CONTINUOUS
10
0.479058
20
0.181516
11
0.479738
21
0.181234
0
LINE
8
BLACK
6
CONTINUOUS
10
0.479738
20
0.181234
11
0.479746
21
0.181217
0
LINE
8
BLACK
6
CONTINUOUS
10
0.479746
20
0.181217
11
0.479763
21
0.181209
0
LINE
8
BLACK
6
CONTINUOUS
10
0.479763
20
0.181209
11
0.501417
21
0.158768
0
LINE
8
BLACK
6
CONTINUOUS
10
0.501417
20
0.158768
11
0.501686
21
0.158082
0
LINE
8
BLACK
6
CONTINUOUS
10
0.501686
20
0.158082
11
0.501969
21
0.157402
0
LINE
8
BLACK
6
CONTINUOUS
10
0.501969
20
0.157402
11
0.501969
21
0.0609449
0
LINE
8
BLACK
6
CONTINUOUS
10
0.501969
20
0.0609449
11
0.501805
21
0.0605512
0
LINE
8
BLACK
6
CONTINUOUS
10
0.501805
20
0.0605512
11
0.501969
21
0.0601575
0
LINE
8
BLACK
6
CONTINUOUS
10
0.501969
20
0.0601575
11
0.501392
21
0.0587656
0
LINE
8
BLACK
6
CONTINUOUS
10
0.501392
20
0.0587656
11
0.5
21
0.058189
0
LINE
8
BLACK
6
CONTINUOUS
10
0.5
20
0.058189
11
0.444882
21
0.058189
0
LINE
8
BLACK
6
CONTINUOUS
10
0.444882
20
0.058189
11
0.44349
21
0.0587656
0
LINE
8
BLACK
6
CONTINUOUS
10
0.44349
20
0.0587656
11
0.442913
21
0.0601575
0
LINE
8
BLACK
6
CONTINUOUS
10
0.442913
20
0.0601575
11
0.442913
21
0.179843
0
LINE
8
BLACK
6
CONTINUOUS
10
0.442913
20
0.179843
11
0.44349
21
0.181234
0
LINE
8
BLACK
6
CONTINUOUS
10
0.44349
20
0.181234
11
0.444882
21
0.181811
0
LINE
8
BLACK
6
CONTINUOUS
10
0.444882
20
0.181811
11
0.478346
21
0.181811
0
LINE
8
BLACK
6
CONTINUOUS
10
0.478346
20
0.181811
11
0.478364
21
0.181804
0
LINE
8
BLACK
6
CONTINUOUS
10
0.44685
20
0.177874
11
0.44685
21
0.062126
0
LINE
8
BLACK
6
CONTINUOUS
10
0.44685
20
0.062126
11
0.498031
21
0.062126
0
LINE
8
BLACK
6
CONTINUOUS
10
0.498031
20
0.062126
11
0.498031
21
0.156607
0
LINE
8
BLACK
6
CONTINUOUS
10
0.498031
20
0.156607
11
0.47751
21
0.177874
0
LINE
8
BLACK
6
CONTINUOUS
10
0.47751
20
0.177874
11
0.44685
21
0.177874
0
LINE
8
BLACK
6
CONTINUOUS
10
0.48239
20
0.110097
11
0.482822
21
0.109053
0
LINE
8
BLACK
6
CONTINUOUS
10
0.482822
20
0.109053
11
0.482822
21
0.0978046
0
LINE
8
BLACK
6
CONTINUOUS
10
0.482822
20
0.0978046
11
0.48239
21
0.0967607
0
LINE
8
BLACK
6
CONTINUOUS
10
0.48239
20
0.0967607
11
0.481346
21
0.0963283
0
LINE
8
BLACK
6
CONTINUOUS
10
0.481346
20
0.0963283
11
0.480302
21
0.0967607
0
LINE
8
BLACK
6
CONTINUOUS
10
0.480302
20
0.0967607
11
0.47987
21
0.0978046
0
LINE
8
BLACK
6
CONTINUOUS
10
0.47987
20
0.0978046
11
0.47987
21
0.101953
0
LINE
8
BLACK
6
CONTINUOUS
10
0.47987
20
0.101953
11
0.461661
21
0.101953
0
LINE
8
BLACK
6
CONTINUOUS
10
0.461661
20
0.101953
11
0.461521
21
0.102011
0
LINE
8
BLACK
6
CONTINUOUS
10
0.461521
20
0.102011
11
0.461371
21
0.101981
0
LINE
8
BLACK
6
CONTINUOUS
10
0.461371
20
0.101981
11
0.461014
21
0.10222
0
LINE
8
BLACK
6
CONTINUOUS
10
0.461014
20
0.10222
11
0.460617
21
0.102385
0
LINE
8
BLACK
6
CONTINUOUS
10
0.460617
20
0.102385
11
0.460559
21
0.102525
0
LINE
8
BLACK
6
CONTINUOUS
10
0.460559
20
0.102525
11
0.460433
21
0.10261
0
LINE
8
BLACK
6
CONTINUOUS
10
0.460433
20
0.10261
11
0.460349
21
0.103032
0
LINE
8
BLACK
6
CONTINUOUS
10
0.460349
20
0.103032
11
0.460185
21
0.103429
0
LINE
8
BLACK
6
CONTINUOUS
10
0.460185
20
0.103429
11
0.460243
21
0.103569
0
LINE
8
BLACK
6
CONTINUOUS
10
0.460243
20
0.103569
11
0.460213
21
0.103719
0
LINE
8
BLACK
6
CONTINUOUS
10
0.460213
20
0.103719
11
0.460453
21
0.104076
0
LINE
8
BLACK
6
CONTINUOUS
10
0.460453
20
0.104076
11
0.460617
21
0.104473
0
LINE
8
BLACK
6
CONTINUOUS
10
0.460617
20
0.104473
11
0.460758
21
0.104531
0
LINE
8
BLACK
6
CONTINUOUS
10
0.460758
20
0.104531
11
0.460842
21
0.104657
0
LINE
8
BLACK
6
CONTINUOUS
10
0.460842
20
0.104657
11
0.463532
21
0.106451
0
LINE
8
BLACK
6
CONTINUOUS
10
0.463532
20
0.106451
11
0.465135
21
0.108053
0
LINE
8
BLACK
6
CONTINUOUS
10
0.465135
20
0.108053
11
0.465965
21
0.109713
0
LINE
8
BLACK
6
CONTINUOUS
10
0.465965
20
0.109713
11
0.466818
21
0.110454
0
LINE
8
BLACK
6
CONTINUOUS
10
0.466818
20
0.110454
11
0.467946
21
0.110374
0
LINE
8
BLACK
6
CONTINUOUS
10
0.467946
20
0.110374
11
0.468686
21
0.10952
0
LINE
8
BLACK
6
CONTINUOUS
10
0.468686
20
0.10952
11
0.468606
21
0.108393
0
LINE
8
BLACK
6
CONTINUOUS
10
0.468606
20
0.108393
11
0.467668
21
0.106518
0
LINE
8
BLACK
6
CONTINUOUS
10
0.467668
20
0.106518
11
0.467485
21
0.106359
0
LINE
8
BLACK
6
CONTINUOUS
10
0.467485
20
0.106359
11
0.467392
21
0.106134
0
LINE
8
BLACK
6
CONTINUOUS
10
0.467392
20
0.106134
11
0.466163
21
0.104905
0
LINE
8
BLACK
6
CONTINUOUS
10
0.466163
20
0.104905
11
0.47987
21
0.104905
0
LINE
8
BLACK
6
CONTINUOUS
10
0.47987
20
0.104905
11
0.47987
21
0.109053
0
LINE
8
BLACK
6
CONTINUOUS
10
0.47987
20
0.109053
11
0.480302
21
0.110097
0
LINE
8
BLACK
6
CONTINUOUS
10
0.480302
20
0.110097
11
0.481346
21
0.11053
0
LINE
8
BLACK
6
CONTINUOUS
10
0.481346
20
0.11053
11
0.48239
21
0.110097
0
LINE
8
BLACK
6
CONTINUOUS
10
0.477914
20
0.130083
11
0.478257
21
0.130059
0
LINE
8
BLACK
6
CONTINUOUS
10
0.478257
20
0.130059
11
0.480132
21
0.129121
0
LINE
8
BLACK
6
CONTINUOUS
10
0.480132
20
0.129121
11
0.480291
21
0.128938
0
LINE
8
BLACK
6
CONTINUOUS
10
0.480291
20
0.128938
11
0.480515
21
0.128845
0
LINE
8
BLACK
6
CONTINUOUS
10
0.480515
20
0.128845
11
0.481453
21
0.127907
0
LINE
8
BLACK
6
CONTINUOUS
10
0.481453
20
0.127907
11
0.481546
21
0.127683
0
LINE
8
BLACK
6
CONTINUOUS
10
0.481546
20
0.127683
11
0.481729
21
0.127524
0
LINE
8
BLACK
6
CONTINUOUS
10
0.481729
20
0.127524
11
0.482667
21
0.125649
0
LINE
8
BLACK
6
CONTINUOUS
10
0.482667
20
0.125649
11
0.482691
21
0.125306
0
LINE
8
BLACK
6
CONTINUOUS
10
0.482691
20
0.125306
11
0.482822
21
0.124989
0
LINE
8
BLACK
6
CONTINUOUS
10
0.482822
20
0.124989
11
0.482822
21
0.121239
0
LINE
8
BLACK
6
CONTINUOUS
10
0.482822
20
0.121239
11
0.482691
21
0.120922
0
LINE
8
BLACK
6
CONTINUOUS
10
0.482691
20
0.120922
11
0.482667
21
0.120579
0
LINE
8
BLACK
6
CONTINUOUS
10
0.482667
20
0.120579
11
0.481729
21
0.118704
0
LINE
8
BLACK
6
CONTINUOUS
10
0.481729
20
0.118704
11
0.481546
21
0.118545
0
LINE
8
BLACK
6
CONTINUOUS
10
0.481546
20
0.118545
11
0.481453
21
0.118321
0
LINE
8
BLACK
6
CONTINUOUS
10
0.481453
20
0.118321
11
0.480515
21
0.117383
0
LINE
8
BLACK
6
CONTINUOUS
10
0.480515
20
0.117383
11
0.480291
21
0.11729
0
LINE
8
BLACK
6
CONTINUOUS
10
0.480291
20
0.11729
11
0.480132
21
0.117107
0
LINE
8
BLACK
6
CONTINUOUS
10
0.480132
20
0.117107
11
0.478257
21
0.116169
0
LINE
8
BLACK
6
CONTINUOUS
10
0.478257
20
0.116169
11
0.477914
21
0.116145
0
LINE
8
BLACK
6
CONTINUOUS
10
0.477914
20
0.116145
11
0.477597
21
0.116013
0
LINE
8
BLACK
6
CONTINUOUS
10
0.477597
20
0.116013
11
0.461661
21
0.116013
0
LINE
8
BLACK
6
CONTINUOUS
10
0.461661
20
0.116013
11
0.460617
21
0.116446
0
LINE
8
BLACK
6
CONTINUOUS
10
0.460617
20
0.116446
11
0.460185
21
0.11749
0
LINE
8
BLACK
6
CONTINUOUS
10
0.460185
20
0.11749
11
0.460617
21
0.118534
0
LINE
8
BLACK
6
CONTINUOUS
10
0.460617
20
0.118534
11
0.461661
21
0.118966
0
LINE
8
BLACK
6
CONTINUOUS
10
0.461661
20
0.118966
11
0.477248
21
0.118966
0
LINE
8
BLACK
6
CONTINUOUS
10
0.477248
20
0.118966
11
0.478597
21
0.11964
0
LINE
8
BLACK
6
CONTINUOUS
10
0.478597
20
0.11964
11
0.479195
21
0.120239
0
LINE
8
BLACK
6
CONTINUOUS
10
0.479195
20
0.120239
11
0.47987
21
0.121588
0
LINE
8
BLACK
6
CONTINUOUS
10
0.47987
20
0.121588
11
0.47987
21
0.12464
0
LINE
8
BLACK
6
CONTINUOUS
10
0.47987
20
0.12464
11
0.479195
21
0.125989
0
LINE
8
BLACK
6
CONTINUOUS
10
0.479195
20
0.125989
11
0.478597
21
0.126588
0
LINE
8
BLACK
6
CONTINUOUS
10
0.478597
20
0.126588
11
0.477248
21
0.127262
0
LINE
8
BLACK
6
CONTINUOUS
10
0.477248
20
0.127262
11
0.461661
21
0.127262
0
LINE
8
BLACK
6
CONTINUOUS
10
0.461661
20
0.127262
11
0.460617
21
0.127694
0
LINE
8
BLACK
6
CONTINUOUS
10
0.460617
20
0.127694
11
0.460185
21
0.128738
0
LINE
8
BLACK
6
CONTINUOUS
10
0.460185
20
0.128738
11
0.460617
21
0.129782
0
LINE
8
BLACK
6
CONTINUOUS
10
0.460617
20
0.129782
11
0.461661
21
0.130215
0
LINE
8
BLACK
6
CONTINUOUS
10
0.461661
20
0.130215
11
0.477597
21
0.130215
0
LINE
8
BLACK
6
CONTINUOUS
10
0.477597
20
0.130215
11
0.477914
21
0.130083
0
LINE
8
BLACK
6
CONTINUOUS
10
0.25786
20
0.0861081
11
0.257283
21
0.0875
0
LINE
8
BLACK
6
CONTINUOUS
10
0.257283
20
0.0875
11
0.257283
21
0.150492
0
LINE
8
BLACK
6
CONTINUOUS
10
0.257283
20
0.150492
11
0.25786
21
0.151884
0
LINE
8
BLACK
6
CONTINUOUS
10
0.25786
20
0.151884
11
0.259252
21
0.152461
0
LINE
8
BLACK
6
CONTINUOUS
10
0.259252
20
0.152461
11
0.290748
21
0.152461
0
LINE
8
BLACK
6
CONTINUOUS
10
0.290748
20
0.152461
11
0.29214
21
0.151884
0
LINE
8
BLACK
6
CONTINUOUS
10
0.29214
20
0.151884
11
0.292717
21
0.150492
0
LINE
8
BLACK
6
CONTINUOUS
10
0.292717
20
0.150492
11
0.292717
21
0.0875
0
LINE
8
BLACK
6
CONTINUOUS
10
0.292717
20
0.0875
11
0.29214
21
0.0861081
0
LINE
8
BLACK
6
CONTINUOUS
10
0.29214
20
0.0861081
11
0.290748
21
0.0855315
0
LINE
8
BLACK
6
CONTINUOUS
10
0.290748
20
0.0855315
11
0.259252
21
0.0855315
0
LINE
8
BLACK
6
CONTINUOUS
10
0.259252
20
0.0855315
11
0.25786
21
0.0861081
0
LINE
8
BLACK
6
CONTINUOUS
10
0.26122
20
0.148524
11
0.26122
21
0.0894685
0
LINE
8
BLACK
6
CONTINUOUS
10
0.26122
20
0.0894685
11
0.28878
21
0.0894685
0
LINE
8
BLACK
6
CONTINUOUS
10
0.28878
20
0.0894685
11
0.28878
21
0.148524
0
LINE
8
BLACK
6
CONTINUOUS
10
0.28878
20
0.148524
11
0.26122
21
0.148524
0
LINE
8
BLACK
6
CONTINUOUS
10
0.282959
20
0.116457
11
0.283305
21
0.115621
0
LINE
8
BLACK
6
CONTINUOUS
10
0.283305
20
0.115621
11
0.283305
21
0.106623
0
LINE
8
BLACK
6
CONTINUOUS
10
0.283305
20
0.106623
11
0.282959
21
0.105787
0
LINE
8
BLACK
6
CONTINUOUS
10
0.282959
20
0.105787
11
0.282124
21
0.105441
0
LINE
8
BLACK
6
CONTINUOUS
10
0.282124
20
0.105441
11
0.281289
21
0.105787
0
LINE
8
BLACK
6
CONTINUOUS
10
0.281289
20
0.105787
11
0.280943
21
0.106623
0
LINE
8
BLACK
6
CONTINUOUS
10
0.280943
20
0.106623
11
0.280943
21
0.109941
0
LINE
8
BLACK
6
CONTINUOUS
10
0.280943
20
0.109941
11
0.266376
21
0.109941
0
LINE
8
BLACK
6
CONTINUOUS
10
0.266376
20
0.109941
11
0.266264
21
0.109987
0
LINE
8
BLACK
6
CONTINUOUS
10
0.266264
20
0.109987
11
0.266144
21
0.109964
0
LINE
8
BLACK
6
CONTINUOUS
10
0.266144
20
0.109964
11
0.265859
21
0.110155
0
LINE
8
BLACK
6
CONTINUOUS
10
0.265859
20
0.110155
11
0.265541
21
0.110287
0
LINE
8
BLACK
6
CONTINUOUS
10
0.265541
20
0.110287
11
0.265494
21
0.110399
0
LINE
8
BLACK
6
CONTINUOUS
10
0.265494
20
0.110399
11
0.265393
21
0.110467
0
LINE
8
BLACK
6
CONTINUOUS
10
0.265393
20
0.110467
11
0.265327
21
0.110804
0
LINE
8
BLACK
6
CONTINUOUS
10
0.265327
20
0.110804
11
0.265195
21
0.111122
0
LINE
8
BLACK
6
CONTINUOUS
10
0.265195
20
0.111122
11
0.265241
21
0.111234
0
LINE
8
BLACK
6
CONTINUOUS
10
0.265241
20
0.111234
11
0.265218
21
0.111354
0
LINE
8
BLACK
6
CONTINUOUS
10
0.265218
20
0.111354
11
0.265409
21
0.111639
0
LINE
8
BLACK
6
CONTINUOUS
10
0.265409
20
0.111639
11
0.265541
21
0.111957
0
LINE
8
BLACK
6
CONTINUOUS
10
0.265541
20
0.111957
11
0.265653
21
0.112004
0
LINE
8
BLACK
6
CONTINUOUS
10
0.265653
20
0.112004
11
0.265721
21
0.112105
0
LINE
8
BLACK
6
CONTINUOUS
10
0.265721
20
0.112105
11
0.267873
21
0.11354
0
LINE
8
BLACK
6
CONTINUOUS
10
0.267873
20
0.11354
11
0.269155
21
0.114821
0
LINE
8
BLACK
6
CONTINUOUS
10
0.269155
20
0.114821
11
0.269819
21
0.11615
0
LINE
8
BLACK
6
CONTINUOUS
10
0.269819
20
0.11615
11
0.270502
21
0.116742
0
LINE
8
BLACK
6
CONTINUOUS
10
0.270502
20
0.116742
11
0.271404
21
0.116678
0
LINE
8
BLACK
6
CONTINUOUS
10
0.271404
20
0.116678
11
0.271996
21
0.115995
0
LINE
8
BLACK
6
CONTINUOUS
10
0.271996
20
0.115995
11
0.271932
21
0.115093
0
LINE
8
BLACK
6
CONTINUOUS
10
0.271932
20
0.115093
11
0.271182
21
0.113593
0
LINE
8
BLACK
6
CONTINUOUS
10
0.271182
20
0.113593
11
0.271035
21
0.113466
0
LINE
8
BLACK
6
CONTINUOUS
10
0.271035
20
0.113466
11
0.270961
21
0.113286
0
LINE
8
BLACK
6
CONTINUOUS
10
0.270961
20
0.113286
11
0.269977
21
0.112303
0
LINE
8
BLACK
6
CONTINUOUS
10
0.269977
20
0.112303
11
0.280943
21
0.112303
0
LINE
8
BLACK
6
CONTINUOUS
10
0.280943
20
0.112303
11
0.280943
21
0.115621
0
LINE
8
BLACK
6
CONTINUOUS
10
0.280943
20
0.115621
11
0.281289
21
0.116457
0
LINE
8
BLACK
6
CONTINUOUS
10
0.281289
20
0.116457
11
0.282124
21
0.116803
0
LINE
8
BLACK
6
CONTINUOUS
10
0.282124
20
0.116803
11
0.282959
21
0.116457
0
LINE
8
BLACK
6
CONTINUOUS
10
0.275513
20
0.132493
11
0.275661
21
0.132515
0
LINE
8
BLACK
6
CONTINUOUS
10
0.275661
20
0.132515
11
0.278661
21
0.131765
0
LINE
8
BLACK
6
CONTINUOUS
10
0.278661
20
0.131765
11
0.278769
21
0.131686
0
LINE
8
BLACK
6
CONTINUOUS
10
0.278769
20
0.131686
11
0.278903
21
0.131676
0
LINE
8
BLACK
6
CONTINUOUS
10
0.278903
20
0.131676
11
0.280403
21
0.130926
0
LINE
8
BLACK
6
CONTINUOUS
10
0.280403
20
0.130926
11
0.28053
21
0.130779
0
LINE
8
BLACK
6
CONTINUOUS
10
0.28053
20
0.130779
11
0.28071
21
0.130705
0
LINE
8
BLACK
6
CONTINUOUS
10
0.28071
20
0.130705
11
0.282209
21
0.129205
0
LINE
8
BLACK
6
CONTINUOUS
10
0.282209
20
0.129205
11
0.282315
21
0.128951
0
LINE
8
BLACK
6
CONTINUOUS
10
0.282315
20
0.128951
11
0.282495
21
0.128743
0
LINE
8
BLACK
6
CONTINUOUS
10
0.282495
20
0.128743
11
0.283245
21
0.126494
0
LINE
8
BLACK
6
CONTINUOUS
10
0.283245
20
0.126494
11
0.283231
21
0.1263
0
LINE
8
BLACK
6
CONTINUOUS
10
0.283231
20
0.1263
11
0.283305
21
0.12612
0
LINE
8
BLACK
6
CONTINUOUS
10
0.283305
20
0.12612
11
0.283305
21
0.12462
0
LINE
8
BLACK
6
CONTINUOUS
10
0.283305
20
0.12462
11
0.283231
21
0.124441
0
LINE
8
BLACK
6
CONTINUOUS
10
0.283231
20
0.124441
11
0.283245
21
0.124247
0
LINE
8
BLACK
6
CONTINUOUS
10
0.283245
20
0.124247
11
0.282495
21
0.121997
0
LINE
8
BLACK
6
CONTINUOUS
10
0.282495
20
0.121997
11
0.282315
21
0.12179
0
LINE
8
BLACK
6
CONTINUOUS
10
0.282315
20
0.12179
11
0.282209
21
0.121535
0
LINE
8
BLACK
6
CONTINUOUS
10
0.282209
20
0.121535
11
0.281459
21
0.120786
0
LINE
8
BLACK
6
CONTINUOUS
10
0.281459
20
0.120786
11
0.280624
21
0.12044
0
LINE
8
BLACK
6
CONTINUOUS
10
0.280624
20
0.12044
11
0.279789
21
0.120786
0
LINE
8
BLACK
6
CONTINUOUS
10
0.279789
20
0.120786
11
0.279443
21
0.121621
0
LINE
8
BLACK
6
CONTINUOUS
10
0.279443
20
0.121621
11
0.279789
21
0.122456
0
LINE
8
BLACK
6
CONTINUOUS
10
0.279789
20
0.122456
11
0.280342
21
0.123009
0
LINE
8
BLACK
6
CONTINUOUS
10
0.280342
20
0.123009
11
0.280943
21
0.124812
0
LINE
8
BLACK
6
CONTINUOUS
10
0.280943
20
0.124812
11
0.280943
21
0.125929
0
LINE
8
BLACK
6
CONTINUOUS
10
0.280943
20
0.125929
11
0.280342
21
0.127732
0
LINE
8
BLACK
6
CONTINUOUS
10
0.280342
20
0.127732
11
0.279175
21
0.128899
0
LINE
8
BLACK
6
CONTINUOUS
10
0.279175
20
0.128899
11
0.277962
21
0.129505
0
LINE
8
BLACK
6
CONTINUOUS
10
0.277962
20
0.129505
11
0.27523
21
0.130188
0
LINE
8
BLACK
6
CONTINUOUS
10
0.27523
20
0.130188
11
0.273271
21
0.130188
0
LINE
8
BLACK
6
CONTINUOUS
10
0.273271
20
0.130188
11
0.270538
21
0.129505
0
LINE
8
BLACK
6
CONTINUOUS
10
0.270538
20
0.129505
11
0.269325
21
0.128899
0
LINE
8
BLACK
6
CONTINUOUS
10
0.269325
20
0.128899
11
0.268158
21
0.127732
0
LINE
8
BLACK
6
CONTINUOUS
10
0.268158
20
0.127732
11
0.267557
21
0.125929
0
LINE
8
BLACK
6
CONTINUOUS
10
0.267557
20
0.125929
11
0.267557
21
0.124812
0
LINE
8
BLACK
6
CONTINUOUS
10
0.267557
20
0.124812
11
0.268158
21
0.123009
0
LINE
8
BLACK
6
CONTINUOUS
10
0.268158
20
0.123009
11
0.268711
21
0.122456
0
LINE
8
BLACK
6
CONTINUOUS
10
0.268711
20
0.122456
11
0.269057
21
0.121621
0
LINE
8
BLACK
6
CONTINUOUS
10
0.269057
20
0.121621
11
0.268711
21
0.120786
0
LINE
8
BLACK
6
CONTINUOUS
10
0.268711
20
0.120786
11
0.267876
21
0.12044
0
LINE
8
BLACK
6
CONTINUOUS
10
0.267876
20
0.12044
11
0.267041
21
0.120786
0
LINE
8
BLACK
6
CONTINUOUS
10
0.267041
20
0.120786
11
0.266291
21
0.121535
0
LINE
8
BLACK
6
CONTINUOUS
10
0.266291
20
0.121535
11
0.266186
21
0.12179
0
LINE
8
BLACK
6
CONTINUOUS
10
0.266186
20
0.12179
11
0.266006
21
0.121997
0
LINE
8
BLACK
6
CONTINUOUS
10
0.266006
20
0.121997
11
0.265256
21
0.124247
0
LINE
8
BLACK
6
CONTINUOUS
10
0.265256
20
0.124247
11
0.265269
21
0.124441
0
LINE
8
BLACK
6
CONTINUOUS
10
0.265269
20
0.124441
11
0.265195
21
0.12462
0
LINE
8
BLACK
6
CONTINUOUS
10
0.265195
20
0.12462
11
0.265195
21
0.12612
0
LINE
8
BLACK
6
CONTINUOUS
10
0.265195
20
0.12612
11
0.265269
21
0.1263
0
LINE
8
BLACK
6
CONTINUOUS
10
0.265269
20
0.1263
11
0.265256
21
0.126494
0
LINE
8
BLACK
6
CONTINUOUS
10
0.265256
20
0.126494
11
0.266006
21
0.128743
0
LINE
8
BLACK
6
CONTINUOUS
10
0.266006
20
0.128743
11
0.266186
21
0.128951
0
LINE
8
BLACK
6
CONTINUOUS
10
0.266186
20
0.128951
11
0.266291
21
0.129205
0
LINE
8
BLACK
6
CONTINUOUS
10
0.266291
20
0.129205
11
0.267791
21
0.130705
0
LINE
8
BLACK
6
CONTINUOUS
10
0.267791
20
0.130705
11
0.26797
21
0.130779
0
LINE
8
BLACK
6
CONTINUOUS
10
0.26797
20
0.130779
11
0.268098
21
0.130926
0
LINE
8
BLACK
6
CONTINUOUS
10
0.268098
20
0.130926
11
0.269597
21
0.131676
0
LINE
8
BLACK
6
CONTINUOUS
10
0.269597
20
0.131676
11
0.269731
21
0.131686
0
LINE
8
BLACK
6
CONTINUOUS
10
0.269731
20
0.131686
11
0.269839
21
0.131765
0
LINE
8
BLACK
6
CONTINUOUS
10
0.269839
20
0.131765
11
0.272839
21
0.132515
0
LINE
8
BLACK
6
CONTINUOUS
10
0.272839
20
0.132515
11
0.272987
21
0.132493
0
LINE
8
BLACK
6
CONTINUOUS
10
0.272987
20
0.132493
11
0.273125
21
0.132551
0
LINE
8
BLACK
6
CONTINUOUS
10
0.273125
20
0.132551
11
0.275375
21
0.132551
0
LINE
8
BLACK
6
CONTINUOUS
10
0.275375
20
0.132551
11
0.275513
21
0.132493
0
LINE
8
BLACK
6
CONTINUOUS
10
0.33286
20
0.166108
11
0.332283
21
0.1675
0
LINE
8
BLACK
6
CONTINUOUS
10
0.332283
20
0.1675
11
0.332283
21
0.230492
0
LINE
8
BLACK
6
CONTINUOUS
10
0.332283
20
0.230492
11
0.33286
21
0.231884
0
LINE
8
BLACK
6
CONTINUOUS
10
0.33286
20
0.231884
11
0.334252
21
0.232461
0
LINE
8
BLACK
6
CONTINUOUS
10
0.334252
20
0.232461
11
0.365748
21
0.232461
0
LINE
8
BLACK
6
CONTINUOUS
10
0.365748
20
0.232461
11
0.36714
21
0.231884
0
LINE
8
BLACK
6
CONTINUOUS
10
0.36714
20
0.231884
11
0.367717
21
0.230492
0
LINE
8
BLACK
6
CONTINUOUS
10
0.367717
20
0.230492
11
0.367717
21
0.1675
0
LINE
8
BLACK
6
CONTINUOUS
10
0.367717
20
0.1675
11
0.36714
21
0.166108
0
LINE
8
BLACK
6
CONTINUOUS
10
0.36714
20
0.166108
11
0.365748
21
0.165531
0
LINE
8
BLACK
6
CONTINUOUS
10
0.365748
20
0.165531
11
0.334252
21
0.165531
0
LINE
8
BLACK
6
CONTINUOUS
10
0.334252
20
0.165531
11
0.33286
21
0.166108
0
LINE
8
BLACK
6
CONTINUOUS
10
0.33622
20
0.228524
11
0.33622
21
0.169469
0
LINE
8
BLACK
6
CONTINUOUS
10
0.33622
20
0.169469
11
0.36378
21
0.169469
0
LINE
8
BLACK
6
CONTINUOUS
10
0.36378
20
0.169469
11
0.36378
21
0.228524
0
LINE
8
BLACK
6
CONTINUOUS
10
0.36378
20
0.228524
11
0.33622
21
0.228524
0
LINE
8
BLACK
6
CONTINUOUS
10
0.357959
20
0.196457
11
0.358305
21
0.195621
0
LINE
8
BLACK
6
CONTINUOUS
10
0.358305
20
0.195621
11
0.358305
21
0.186623
0
LINE
8
BLACK
6
CONTINUOUS
10
0.358305
20
0.186623
11
0.357959
21
0.185787
0
LINE
8
BLACK
6
CONTINUOUS
10
0.357959
20
0.185787
11
0.357124
21
0.185441
0
LINE
8
BLACK
6
CONTINUOUS
10
0.357124
20
0.185441
11
0.356289
21
0.185787
0
LINE
8
BLACK
6
CONTINUOUS
10
0.356289
20
0.185787
11
0.355943
21
0.186623
0
LINE
8
BLACK
6
CONTINUOUS
10
0.355943
20
0.186623
11
0.355943
21
0.189941
0
LINE
8
BLACK
6
CONTINUOUS
10
0.355943
20
0.189941
11
0.341376
21
0.189941
0
LINE
8
BLACK
6
CONTINUOUS
10
0.341376
20
0.189941
11
0.341264
21
0.189987
0
LINE
8
BLACK
6
CONTINUOUS
10
0.341264
20
0.189987
11
0.341144
21
0.189964
0
LINE
8
BLACK
6
CONTINUOUS
10
0.341144
20
0.189964
11
0.340859
21
0.190155
0
LINE
8
BLACK
6
CONTINUOUS
10
0.340859
20
0.190155
11
0.340541
21
0.190287
0
LINE
8
BLACK
6
CONTINUOUS
10
0.340541
20
0.190287
11
0.340494
21
0.190399
0
LINE
8
BLACK
6
CONTINUOUS
10
0.340494
20
0.190399
11
0.340393
21
0.190467
0
LINE
8
BLACK
6
CONTINUOUS
10
0.340393
20
0.190467
11
0.340327
21
0.190804
0
LINE
8
BLACK
6
CONTINUOUS
10
0.340327
20
0.190804
11
0.340195
21
0.191122
0
LINE
8
BLACK
6
CONTINUOUS
10
0.340195
20
0.191122
11
0.340241
21
0.191234
0
LINE
8
BLACK
6
CONTINUOUS
10
0.340241
20
0.191234
11
0.340218
21
0.191354
0
LINE
8
BLACK
6
CONTINUOUS
10
0.340218
20
0.191354
11
0.340409
21
0.191639
0
LINE
8
BLACK
6
CONTINUOUS
10
0.340409
20
0.191639
11
0.340541
21
0.191957
0
LINE
8
BLACK
6
CONTINUOUS
10
0.340541
20
0.191957
11
0.340653
21
0.192004
0
LINE
8
BLACK
6
CONTINUOUS
10
0.340653
20
0.192004
11
0.340721
21
0.192105
0
LINE
8
BLACK
6
CONTINUOUS
10
0.340721
20
0.192105
11
0.342873
21
0.19354
0
LINE
8
BLACK
6
CONTINUOUS
10
0.342873
20
0.19354
11
0.344155
21
0.194821
0
LINE
8
BLACK
6
CONTINUOUS
10
0.344155
20
0.194821
11
0.344819
21
0.19615
0
LINE
8
BLACK
6
CONTINUOUS
10
0.344819
20
0.19615
11
0.345502
21
0.196742
0
LINE
8
BLACK
6
CONTINUOUS
10
0.345502
20
0.196742
11
0.346404
21
0.196678
0
LINE
8
BLACK
6
CONTINUOUS
10
0.346404
20
0.196678
11
0.346996
21
0.195995
0
LINE
8
BLACK
6
CONTINUOUS
10
0.346996
20
0.195995
11
0.346932
21
0.195093
0
LINE
8
BLACK
6
CONTINUOUS
10
0.346932
20
0.195093
11
0.346182
21
0.193593
0
LINE
8
BLACK
6
CONTINUOUS
10
0.346182
20
0.193593
11
0.346035
21
0.193466
0
LINE
8
BLACK
6
CONTINUOUS
10
0.346035
20
0.193466
11
0.345961
21
0.193286
0
LINE
8
BLACK
6
CONTINUOUS
10
0.345961
20
0.193286
11
0.344977
21
0.192303
0
LINE
8
BLACK
6
CONTINUOUS
10
0.344977
20
0.192303
11
0.355943
21
0.192303
0
LINE
8
BLACK
6
CONTINUOUS
10
0.355943
20
0.192303
11
0.355943
21
0.195621
0
LINE
8
BLACK
6
CONTINUOUS
10
0.355943
20
0.195621
11
0.356289
21
0.196457
0
LINE
8
BLACK
6
CONTINUOUS
10
0.356289
20
0.196457
11
0.357124
21
0.196803
0
LINE
8
BLACK
6
CONTINUOUS
10
0.357124
20
0.196803
11
0.357959
21
0.196457
0
LINE
8
BLACK
6
CONTINUOUS
10
0.357959
20
0.211455
11
0.358305
21
0.21062
0
LINE
8
BLACK
6
CONTINUOUS
10
0.358305
20
0.21062
11
0.357959
21
0.209784
0
LINE
8
BLACK
6
CONTINUOUS
10
0.357959
20
0.209784
11
0.357124
21
0.209439
0
LINE
8
BLACK
6
CONTINUOUS
10
0.357124
20
0.209439
11
0.350806
21
0.209439
0
LINE
8
BLACK
6
CONTINUOUS
10
0.350806
20
0.209439
11
0.350806
21
0.207485
0
LINE
8
BLACK
6
CONTINUOUS
10
0.350806
20
0.207485
11
0.357801
21
0.202588
0
LINE
8
BLACK
6
CONTINUOUS
10
0.357801
20
0.202588
11
0.358287
21
0.201826
0
LINE
8
BLACK
6
CONTINUOUS
10
0.358287
20
0.201826
11
0.358092
21
0.200943
0
LINE
8
BLACK
6
CONTINUOUS
10
0.358092
20
0.200943
11
0.357329
21
0.200458
0
LINE
8
BLACK
6
CONTINUOUS
10
0.357329
20
0.200458
11
0.356447
21
0.200653
0
LINE
8
BLACK
6
CONTINUOUS
10
0.356447
20
0.200653
11
0.3508
21
0.204606
0
LINE
8
BLACK
6
CONTINUOUS
10
0.3508
20
0.204606
11
0.350701
21
0.204366
0
LINE
8
BLACK
6
CONTINUOUS
10
0.350701
20
0.204366
11
0.350681
21
0.204092
0
LINE
8
BLACK
6
CONTINUOUS
10
0.350681
20
0.204092
11
0.349932
21
0.202592
0
LINE
8
BLACK
6
CONTINUOUS
10
0.349932
20
0.202592
11
0.349785
21
0.202465
0
LINE
8
BLACK
6
CONTINUOUS
10
0.349785
20
0.202465
11
0.34971
21
0.202285
0
LINE
8
BLACK
6
CONTINUOUS
10
0.34971
20
0.202285
11
0.34896
21
0.201535
0
LINE
8
BLACK
6
CONTINUOUS
10
0.34896
20
0.201535
11
0.348781
21
0.201461
0
LINE
8
BLACK
6
CONTINUOUS
10
0.348781
20
0.201461
11
0.348653
21
0.201314
0
LINE
8
BLACK
6
CONTINUOUS
10
0.348653
20
0.201314
11
0.347154
21
0.200564
0
LINE
8
BLACK
6
CONTINUOUS
10
0.347154
20
0.200564
11
0.346879
21
0.200545
0
LINE
8
BLACK
6
CONTINUOUS
10
0.346879
20
0.200545
11
0.346625
21
0.20044
0
LINE
8
BLACK
6
CONTINUOUS
10
0.346625
20
0.20044
11
0.344376
21
0.20044
0
LINE
8
BLACK
6
CONTINUOUS
10
0.344376
20
0.20044
11
0.344122
21
0.200545
0
LINE
8
BLACK
6
CONTINUOUS
10
0.344122
20
0.200545
11
0.343847
21
0.200564
0
LINE
8
BLACK
6
CONTINUOUS
10
0.343847
20
0.200564
11
0.342348
21
0.201314
0
LINE
8
BLACK
6
CONTINUOUS
10
0.342348
20
0.201314
11
0.34222
21
0.201461
0
LINE
8
BLACK
6
CONTINUOUS
10
0.34222
20
0.201461
11
0.342041
21
0.201535
0
LINE
8
BLACK
6
CONTINUOUS
10
0.342041
20
0.201535
11
0.341291
21
0.202285
0
LINE
8
BLACK
6
CONTINUOUS
10
0.341291
20
0.202285
11
0.341216
21
0.202465
0
LINE
8
BLACK
6
CONTINUOUS
10
0.341216
20
0.202465
11
0.34107
21
0.202592
0
LINE
8
BLACK
6
CONTINUOUS
10
0.34107
20
0.202592
11
0.34032
21
0.204092
0
LINE
8
BLACK
6
CONTINUOUS
10
0.34032
20
0.204092
11
0.3403
21
0.204366
0
LINE
8
BLACK
6
CONTINUOUS
10
0.3403
20
0.204366
11
0.340195
21
0.20462
0
LINE
8
BLACK
6
CONTINUOUS
10
0.340195
20
0.20462
11
0.340195
21
0.21062
0
LINE
8
BLACK
6
CONTINUOUS
10
0.340195
20
0.21062
11
0.340541
21
0.211455
0
LINE
8
BLACK
6
CONTINUOUS
10
0.340541
20
0.211455
11
0.341376
21
0.211801
0
LINE
8
BLACK
6
CONTINUOUS
10
0.341376
20
0.211801
11
0.357124
21
0.211801
0
LINE
8
BLACK
6
CONTINUOUS
10
0.357124
20
0.211801
11
0.357959
21
0.211455
0
LINE
8
BLACK
6
CONTINUOUS
10
0.342557
20
0.209439
11
0.342557
21
0.204899
0
LINE
8
BLACK
6
CONTINUOUS
10
0.342557
20
0.204899
11
0.343097
21
0.20382
0
LINE
8
BLACK
6
CONTINUOUS
10
0.343097
20
0.20382
11
0.343576
21
0.203341
0
LINE
8
BLACK
6
CONTINUOUS
10
0.343576
20
0.203341
11
0.344655
21
0.202802
0
LINE
8
BLACK
6
CONTINUOUS
10
0.344655
20
0.202802
11
0.346347
21
0.202802
0
LINE
8
BLACK
6
CONTINUOUS
10
0.346347
20
0.202802
11
0.347426
21
0.203341
0
LINE
8
BLACK
6
CONTINUOUS
10
0.347426
20
0.203341
11
0.347904
21
0.20382
0
LINE
8
BLACK
6
CONTINUOUS
10
0.347904
20
0.20382
11
0.348444
21
0.204899
0
LINE
8
BLACK
6
CONTINUOUS
10
0.348444
20
0.204899
11
0.348444
21
0.209439
0
LINE
8
BLACK
6
CONTINUOUS
10
0.348444
20
0.209439
11
0.342557
21
0.209439
0
LINE
8
BLACK
6
CONTINUOUS
10
0.302262
20
0.251898
11
0.302953
21
0.25
0
LINE
8
BLACK
6
CONTINUOUS
10
0.302953
20
0.25
11
0.302953
21
0.21
0
LINE
8
BLACK
6
CONTINUOUS
10
0.302953
20
0.21
11
0.302885
21
0.209616
0
LINE
8
BLACK
6
CONTINUOUS
10
0.302885
20
0.209616
11
0.302908
21
0.209487
0
LINE
8
BLACK
6
CONTINUOUS
10
0.302908
20
0.209487
11
0.302842
21
0.209374
0
LINE
8
BLACK
6
CONTINUOUS
10
0.302842
20
0.209374
11
0.302775
21
0.20899
0
LINE
8
BLACK
6
CONTINUOUS
10
0.302775
20
0.20899
11
0.302282
21
0.208402
0
LINE
8
BLACK
6
CONTINUOUS
10
0.302282
20
0.208402
11
0.301898
21
0.207738
0
LINE
8
BLACK
6
CONTINUOUS
10
0.301898
20
0.207738
11
0.301648
21
0.207647
0
LINE
8
BLACK
6
CONTINUOUS
10
0.301648
20
0.207647
11
0.301476
21
0.207443
0
LINE
8
BLACK
6
CONTINUOUS
10
0.301476
20
0.207443
11
0.300721
21
0.20731
0
LINE
8
BLACK
6
CONTINUOUS
10
0.300721
20
0.20731
11
0.3
21
0.207047
0
LINE
8
BLACK
6
CONTINUOUS
10
0.3
20
0.207047
11
0.24
21
0.207047
0
LINE
8
BLACK
6
CONTINUOUS
10
0.24
20
0.207047
11
0.239616
21
0.207115
0
LINE
8
BLACK
6
CONTINUOUS
10
0.239616
20
0.207115
11
0.239487
21
0.207092
0
LINE
8
BLACK
6
CONTINUOUS
10
0.239487
20
0.207092
11
0.239374
21
0.207158
0
LINE
8
BLACK
6
CONTINUOUS
10
0.239374
20
0.207158
11
0.23899
21
0.207225
0
LINE
8
BLACK
6
CONTINUOUS
10
0.23899
20
0.207225
11
0.238402
21
0.207718
0
LINE
8
BLACK
6
CONTINUOUS
10
0.238402
20
0.207718
11
0.237738
21
0.208102
0
LINE
8
BLACK
6
CONTINUOUS
10
0.237738
20
0.208102
11
0.237647
21
0.208352
0
LINE
8
BLACK
6
CONTINUOUS
10
0.237647
20
0.208352
11
0.237443
21
0.208524
0
LINE
8
BLACK
6
CONTINUOUS
10
0.237443
20
0.208524
11
0.23731
21
0.209279
0
LINE
8
BLACK
6
CONTINUOUS
10
0.23731
20
0.209279
11
0.237047
21
0.21
0
LINE
8
BLACK
6
CONTINUOUS
10
0.237047
20
0.21
11
0.237047
21
0.25
0
LINE
8
BLACK
6
CONTINUOUS
10
0.237047
20
0.25
11
0.237225
21
0.25101
0
LINE
8
BLACK
6
CONTINUOUS
10
0.237225
20
0.25101
11
0.238524
21
0.252557
0
LINE
8
BLACK
6
CONTINUOUS
10
0.238524
20
0.252557
11
0.240513
21
0.252908
0
LINE
8
BLACK
6
CONTINUOUS
10
0.240513
20
0.252908
11
0.242262
21
0.251898
0
LINE
8
BLACK
6
CONTINUOUS
10
0.242262
20
0.251898
11
0.242953
21
0.25
0
LINE
8
BLACK
6
CONTINUOUS
10
0.242953
20
0.25
11
0.242953
21
0.212953
0
LINE
8
BLACK
6
CONTINUOUS
10
0.242953
20
0.212953
11
0.297047
21
0.212953
0
LINE
8
BLACK
6
CONTINUOUS
10
0.297047
20
0.212953
11
0.297047
21
0.25
0
LINE
8
BLACK
6
CONTINUOUS
10
0.297047
20
0.25
11
0.297225
21
0.25101
0
LINE
8
BLACK
6
CONTINUOUS
10
0.297225
20
0.25101
11
0.298524
21
0.252557
0
LINE
8
BLACK
6
CONTINUOUS
10
0.298524
20
0.252557
11
0.300513
21
0.252908
0
LINE
8
BLACK
6
CONTINUOUS
10
0.300513
20
0.252908
11
0.302262
21
0.251898
0
LINE
8
BLACK
6
CONTINUOUS
10
0.421461
20
0.236342
11
0.420728
21
0.23811
0
LINE
8
BLACK
6
CONTINUOUS
10
0.420728
20
0.23811
11
0.420728
21
0.31685
0
LINE
8
BLACK
6
CONTINUOUS
10
0.420728
20
0.31685
11
0.421461
21
0.318618
0
LINE
8
BLACK
6
CONTINUOUS
10
0.421461
20
0.318618
11
0.423228
21
0.31935
0
LINE
8
BLACK
6
CONTINUOUS
10
0.423228
20
0.31935
11
0.521654
21
0.31935
0
LINE
8
BLACK
6
CONTINUOUS
10
0.521654
20
0.31935
11
0.523421
21
0.318618
0
LINE
8
BLACK
6
CONTINUOUS
10
0.523421
20
0.318618
11
0.524154
21
0.31685
0
LINE
8
BLACK
6
CONTINUOUS
10
0.524154
20
0.31685
11
0.524154
21
0.23811
0
LINE
8
BLACK
6
CONTINUOUS
10
0.524154
20
0.23811
11
0.523421
21
0.236342
0
LINE
8
BLACK
6
CONTINUOUS
10
0.523421
20
0.236342
11
0.521654
21
0.23561
0
LINE
8
BLACK
6
CONTINUOUS
10
0.521654
20
0.23561
11
0.423228
21
0.23561
0
LINE
8
BLACK
6
CONTINUOUS
10
0.423228
20
0.23561
11
0.421461
21
0.236342
0
LINE
8
BLACK
6
CONTINUOUS
10
0.425728
20
0.31435
11
0.425728
21
0.24061
0
LINE
8
BLACK
6
CONTINUOUS
10
0.425728
20
0.24061
11
0.519154
21
0.24061
0
LINE
8
BLACK
6
CONTINUOUS
10
0.519154
20
0.24061
11
0.519154
21
0.31435
0
LINE
8
BLACK
6
CONTINUOUS
10
0.519154
20
0.31435
11
0.425728
21
0.31435
0
LINE
8
BLACK
6
CONTINUOUS
10
0.456012
20
0.301815
11
0.456147
21
0.301701
0
LINE
8
BLACK
6
CONTINUOUS
10
0.456147
20
0.301701
11
0.456322
21
0.301681
0
LINE
8
BLACK
6
CONTINUOUS
10
0.456322
20
0.301681
11
0.460072
21
0.299806
0
LINE
8
BLACK
6
CONTINUOUS
10
0.460072
20
0.299806
11
0.460781
21
0.29928
0
LINE
8
BLACK
6
CONTINUOUS
10
0.460781
20
0.29928
11
0.460839
21
0.299253
0
LINE
8
BLACK
6
CONTINUOUS
10
0.460839
20
0.299253
11
0.462714
21
0.297378
0
LINE
8
BLACK
6
CONTINUOUS
10
0.462714
20
0.297378
11
0.463302
21
0.296538
0
LINE
8
BLACK
6
CONTINUOUS
10
0.463302
20
0.296538
11
0.463478
21
0.294526
0
LINE
8
BLACK
6
CONTINUOUS
10
0.463478
20
0.294526
11
0.46232
21
0.292872
0
LINE
8
BLACK
6
CONTINUOUS
10
0.46232
20
0.292872
11
0.460369
21
0.292349
0
LINE
8
BLACK
6
CONTINUOUS
10
0.460369
20
0.292349
11
0.458538
21
0.293203
0
LINE
8
BLACK
6
CONTINUOUS
10
0.458538
20
0.293203
11
0.457002
21
0.294739
0
LINE
8
BLACK
6
CONTINUOUS
10
0.457002
20
0.294739
11
0.454305
21
0.296087
0
LINE
8
BLACK
6
CONTINUOUS
10
0.454305
20
0.296087
11
0.446325
21
0.296087
0
LINE
8
BLACK
6
CONTINUOUS
10
0.446325
20
0.296087
11
0.443628
21
0.294739
0
LINE
8
BLACK
6
CONTINUOUS
10
0.443628
20
0.294739
11
0.44243
21
0.293541
0
LINE
8
BLACK
6
CONTINUOUS
10
0.44243
20
0.293541
11
0.441082
21
0.290844
0
LINE
8
BLACK
6
CONTINUOUS
10
0.441082
20
0.290844
11
0.441082
21
0.288271
0
LINE
8
BLACK
6
CONTINUOUS
10
0.441082
20
0.288271
11
0.442585
21
0.283762
0
LINE
8
BLACK
6
CONTINUOUS
10
0.442585
20
0.283762
11
0.464589
21
0.261758
0
LINE
8
BLACK
6
CONTINUOUS
10
0.464589
20
0.261758
11
0.464959
21
0.26123
0
LINE
8
BLACK
6
CONTINUOUS
10
0.464959
20
0.26123
11
0.465058
21
0.261146
0
LINE
8
BLACK
6
CONTINUOUS
10
0.465058
20
0.261146
11
0.465072
21
0.261068
0
LINE
8
BLACK
6
CONTINUOUS
10
0.465072
20
0.261068
11
0.465177
21
0.260918
0
LINE
8
BLACK
6
CONTINUOUS
10
0.465177
20
0.260918
11
0.465254
21
0.260033
0
LINE
8
BLACK
6
CONTINUOUS
10
0.465254
20
0.260033
11
0.465409
21
0.259157
0
LINE
8
BLACK
6
CONTINUOUS
10
0.465409
20
0.259157
11
0.465341
21
0.25904
0
LINE
8
BLACK
6
CONTINUOUS
10
0.465341
20
0.25904
11
0.465353
21
0.258906
0
LINE
8
BLACK
6
CONTINUOUS
10
0.465353
20
0.258906
11
0.464843
21
0.258178
0
LINE
8
BLACK
6
CONTINUOUS
10
0.464843
20
0.258178
11
0.464399
21
0.257408
0
LINE
8
BLACK
6
CONTINUOUS
10
0.464399
20
0.257408
11
0.464272
21
0.257362
0
LINE
8
BLACK
6
CONTINUOUS
10
0.464272
20
0.257362
11
0.464195
21
0.257251
0
LINE
8
BLACK
6
CONTINUOUS
10
0.464195
20
0.257251
11
0.463336
21
0.257021
0
LINE
8
BLACK
6
CONTINUOUS
10
0.463336
20
0.257021
11
0.462501
21
0.256717
0
LINE
8
BLACK
6
CONTINUOUS
10
0.462501
20
0.256717
11
0.438129
21
0.256717
0
LINE
8
BLACK
6
CONTINUOUS
10
0.438129
20
0.256717
11
0.437119
21
0.256895
0
LINE
8
BLACK
6
CONTINUOUS
10
0.437119
20
0.256895
11
0.435572
21
0.258194
0
LINE
8
BLACK
6
CONTINUOUS
10
0.435572
20
0.258194
11
0.435221
21
0.260183
0
LINE
8
BLACK
6
CONTINUOUS
10
0.435221
20
0.260183
11
0.436231
21
0.261932
0
LINE
8
BLACK
6
CONTINUOUS
10
0.436231
20
0.261932
11
0.438129
21
0.262623
0
LINE
8
BLACK
6
CONTINUOUS
10
0.438129
20
0.262623
11
0.455372
21
0.262623
0
LINE
8
BLACK
6
CONTINUOUS
10
0.455372
20
0.262623
11
0.437916
21
0.280079
0
LINE
8
BLACK
6
CONTINUOUS
10
0.437916
20
0.280079
11
0.437328
21
0.280919
0
LINE
8
BLACK
6
CONTINUOUS
10
0.437328
20
0.280919
11
0.437312
21
0.281095
0
LINE
8
BLACK
6
CONTINUOUS
10
0.437312
20
0.281095
11
0.437203
21
0.281233
0
LINE
8
BLACK
6
CONTINUOUS
10
0.437203
20
0.281233
11
0.435328
21
0.286858
0
LINE
8
BLACK
6
CONTINUOUS
10
0.435328
20
0.286858
11
0.435198
21
0.287731
0
LINE
8
BLACK
6
CONTINUOUS
10
0.435198
20
0.287731
11
0.435176
21
0.287791
0
LINE
8
BLACK
6
CONTINUOUS
10
0.435176
20
0.287791
11
0.435176
21
0.291541
0
LINE
8
BLACK
6
CONTINUOUS
10
0.435176
20
0.291541
11
0.435354
21
0.292551
0
LINE
8
BLACK
6
CONTINUOUS
10
0.435354
20
0.292551
11
0.435468
21
0.292686
0
LINE
8
BLACK
6
CONTINUOUS
10
0.435468
20
0.292686
11
0.435488
21
0.292862
0
LINE
8
BLACK
6
CONTINUOUS
10
0.435488
20
0.292862
11
0.437363
21
0.296611
0
LINE
8
BLACK
6
CONTINUOUS
10
0.437363
20
0.296611
11
0.437889
21
0.29732
0
LINE
8
BLACK
6
CONTINUOUS
10
0.437889
20
0.29732
11
0.437916
21
0.297378
0
LINE
8
BLACK
6
CONTINUOUS
10
0.437916
20
0.297378
11
0.439791
21
0.299253
0
LINE
8
BLACK
6
CONTINUOUS
10
0.439791
20
0.299253
11
0.440514
21
0.29976
0
LINE
8
BLACK
6
CONTINUOUS
10
0.440514
20
0.29976
11
0.440558
21
0.299806
0
LINE
8
BLACK
6
CONTINUOUS
10
0.440558
20
0.299806
11
0.444308
21
0.301681
0
LINE
8
BLACK
6
CONTINUOUS
10
0.444308
20
0.301681
11
0.44529
21
0.301974
0
LINE
8
BLACK
6
CONTINUOUS
10
0.44529
20
0.301974
11
0.445462
21
0.301932
0
LINE
8
BLACK
6
CONTINUOUS
10
0.445462
20
0.301932
11
0.445628
21
0.301993
0
LINE
8
BLACK
6
CONTINUOUS
10
0.445628
20
0.301993
11
0.455002
21
0.301993
0
LINE
8
BLACK
6
CONTINUOUS
10
0.455002
20
0.301993
11
0.456012
21
0.301815
0
LINE
8
BLACK
6
CONTINUOUS
10
0.502258
20
0.300938
11
0.502949
21
0.29904
0
LINE
8
BLACK
6
CONTINUOUS
10
0.502949
20
0.29904
11
0.502949
21
0.267169
0
LINE
8
BLACK
6
CONTINUOUS
10
0.502949
20
0.267169
11
0.502771
21
0.266159
0
LINE
8
BLACK
6
CONTINUOUS
10
0.502771
20
0.266159
11
0.502657
21
0.266024
0
LINE
8
BLACK
6
CONTINUOUS
10
0.502657
20
0.266024
11
0.502637
21
0.265849
0
LINE
8
BLACK
6
CONTINUOUS
10
0.502637
20
0.265849
11
0.500762
21
0.262099
0
LINE
8
BLACK
6
CONTINUOUS
10
0.500762
20
0.262099
11
0.500237
21
0.26139
0
LINE
8
BLACK
6
CONTINUOUS
10
0.500237
20
0.26139
11
0.500209
21
0.261332
0
LINE
8
BLACK
6
CONTINUOUS
10
0.500209
20
0.261332
11
0.498335
21
0.259457
0
LINE
8
BLACK
6
CONTINUOUS
10
0.498335
20
0.259457
11
0.497612
21
0.258951
0
LINE
8
BLACK
6
CONTINUOUS
10
0.497612
20
0.258951
11
0.497567
21
0.258904
0
LINE
8
BLACK
6
CONTINUOUS
10
0.497567
20
0.258904
11
0.493818
21
0.257029
0
LINE
8
BLACK
6
CONTINUOUS
10
0.493818
20
0.257029
11
0.492835
21
0.256737
0
LINE
8
BLACK
6
CONTINUOUS
10
0.492835
20
0.256737
11
0.492663
21
0.256778
0
LINE
8
BLACK
6
CONTINUOUS
10
0.492663
20
0.256778
11
0.492497
21
0.256717
0
LINE
8
BLACK
6
CONTINUOUS
10
0.492497
20
0.256717
11
0.484998
21
0.256717
0
LINE
8
BLACK
6
CONTINUOUS
10
0.484998
20
0.256717
11
0.483988
21
0.256895
0
LINE
8
BLACK
6
CONTINUOUS
10
0.483988
20
0.256895
11
0.483853
21
0.257009
0
LINE
8
BLACK
6
CONTINUOUS
10
0.483853
20
0.257009
11
0.483678
21
0.257029
0
LINE
8
BLACK
6
CONTINUOUS
10
0.483678
20
0.257029
11
0.479928
21
0.258904
0
LINE
8
BLACK
6
CONTINUOUS
10
0.479928
20
0.258904
11
0.479219
21
0.25943
0
LINE
8
BLACK
6
CONTINUOUS
10
0.479219
20
0.25943
11
0.479161
21
0.259457
0
LINE
8
BLACK
6
CONTINUOUS
10
0.479161
20
0.259457
11
0.477286
21
0.261332
0
LINE
8
BLACK
6
CONTINUOUS
10
0.477286
20
0.261332
11
0.47678
21
0.262055
0
LINE
8
BLACK
6
CONTINUOUS
10
0.47678
20
0.262055
11
0.476733
21
0.262099
0
LINE
8
BLACK
6
CONTINUOUS
10
0.476733
20
0.262099
11
0.474858
21
0.265849
0
LINE
8
BLACK
6
CONTINUOUS
10
0.474858
20
0.265849
11
0.474566
21
0.266832
0
LINE
8
BLACK
6
CONTINUOUS
10
0.474566
20
0.266832
11
0.474607
21
0.267003
0
LINE
8
BLACK
6
CONTINUOUS
10
0.474607
20
0.267003
11
0.474546
21
0.267169
0
LINE
8
BLACK
6
CONTINUOUS
10
0.474546
20
0.267169
11
0.474546
21
0.29904
0
LINE
8
BLACK
6
CONTINUOUS
10
0.474546
20
0.29904
11
0.474724
21
0.30005
0
LINE
8
BLACK
6
CONTINUOUS
10
0.474724
20
0.30005
11
0.476023
21
0.301597
0
LINE
8
BLACK
6
CONTINUOUS
10
0.476023
20
0.301597
11
0.478012
21
0.301948
0
LINE
8
BLACK
6
CONTINUOUS
10
0.478012
20
0.301948
11
0.479761
21
0.300938
0
LINE
8
BLACK
6
CONTINUOUS
10
0.479761
20
0.300938
11
0.480452
21
0.29904
0
LINE
8
BLACK
6
CONTINUOUS
10
0.480452
20
0.29904
11
0.480452
21
0.267866
0
LINE
8
BLACK
6
CONTINUOUS
10
0.480452
20
0.267866
11
0.481801
21
0.265169
0
LINE
8
BLACK
6
CONTINUOUS
10
0.481801
20
0.265169
11
0.482998
21
0.263972
0
LINE
8
BLACK
6
CONTINUOUS
10
0.482998
20
0.263972
11
0.485695
21
0.262623
0
LINE
8
BLACK
6
CONTINUOUS
10
0.485695
20
0.262623
11
0.4918
21
0.262623
0
LINE
8
BLACK
6
CONTINUOUS
10
0.4918
20
0.262623
11
0.494498
21
0.263972
0
LINE
8
BLACK
6
CONTINUOUS
10
0.494498
20
0.263972
11
0.495695
21
0.265169
0
LINE
8
BLACK
6
CONTINUOUS
10
0.495695
20
0.265169
11
0.497043
21
0.267866
0
LINE
8
BLACK
6
CONTINUOUS
10
0.497043
20
0.267866
11
0.497043
21
0.29904
0
LINE
8
BLACK
6
CONTINUOUS
10
0.497043
20
0.29904
11
0.497222
21
0.30005
0
LINE
8
BLACK
6
CONTINUOUS
10
0.497222
20
0.30005
11
0.49852
21
0.301597
0
LINE
8
BLACK
6
CONTINUOUS
10
0.49852
20
0.301597
11
0.500509
21
0.301948
0
LINE
8
BLACK
6
CONTINUOUS
10
0.500509
20
0.301948
11
0.502258
21
0.300938
0
LINE
8
BLACK
6
CONTINUOUS
10
0.398863
20
0.25485
11
0.402018
21
0.253328
0
LINE
8
BLACK
6
CONTINUOUS
10
0.402018
20
0.253328
11
0.404201
21
0.250589
0
LINE
8
BLACK
6
CONTINUOUS
10
0.404201
20
0.250589
11
0.40498
21
0.247175
0
LINE
8
BLACK
6
CONTINUOUS
10
0.40498
20
0.247175
11
0.404979
21
0.247147
0
LINE
8
BLACK
6
CONTINUOUS
10
0.404979
20
0.247147
11
0.404189
21
0.243735
0
LINE
8
BLACK
6
CONTINUOUS
10
0.404189
20
0.243735
11
0.401996
21
0.241004
0
LINE
8
BLACK
6
CONTINUOUS
10
0.401996
20
0.241004
11
0.398837
21
0.239493
0
LINE
8
BLACK
6
CONTINUOUS
10
0.398837
20
0.239493
11
0.395334
21
0.239502
0
LINE
8
BLACK
6
CONTINUOUS
10
0.395334
20
0.239502
11
0.392182
21
0.24103
0
LINE
8
BLACK
6
CONTINUOUS
10
0.392182
20
0.24103
11
0.390004
21
0.243772
0
LINE
8
BLACK
6
CONTINUOUS
10
0.390004
20
0.243772
11
0.389231
21
0.247188
0
LINE
8
BLACK
6
CONTINUOUS
10
0.389231
20
0.247188
11
0.390016
21
0.250602
0
LINE
8
BLACK
6
CONTINUOUS
10
0.390016
20
0.250602
11
0.392204
21
0.253337
0
LINE
8
BLACK
6
CONTINUOUS
10
0.392204
20
0.253337
11
0.395361
21
0.254853
0
LINE
8
BLACK
6
CONTINUOUS
10
0.395361
20
0.254853
11
0.398863
21
0.25485
0
LINE
8
BLACK
6
CONTINUOUS
10
0.292932
20
0.268237
11
0.293562
21
0.266717
0
LINE
8
BLACK
6
CONTINUOUS
10
0.293562
20
0.266717
11
0.293562
21
0.254521
0
LINE
8
BLACK
6
CONTINUOUS
10
0.293562
20
0.254521
11
0.292932
21
0.253001
0
LINE
8
BLACK
6
CONTINUOUS
10
0.292932
20
0.253001
11
0.291412
21
0.252371
0
LINE
8
BLACK
6
CONTINUOUS
10
0.291412
20
0.252371
11
0.289892
21
0.253001
0
LINE
8
BLACK
6
CONTINUOUS
10
0.289892
20
0.253001
11
0.289262
21
0.254521
0
LINE
8
BLACK
6
CONTINUOUS
10
0.289262
20
0.254521
11
0.289262
21
0.261526
0
LINE
8
BLACK
6
CONTINUOUS
10
0.289262
20
0.261526
11
0.281675
21
0.253939
0
LINE
8
BLACK
6
CONTINUOUS
10
0.281675
20
0.253939
11
0.281213
21
0.253748
0
LINE
8
BLACK
6
CONTINUOUS
10
0.281213
20
0.253748
11
0.280835
21
0.25342
0
LINE
8
BLACK
6
CONTINUOUS
10
0.280835
20
0.25342
11
0.27802
21
0.252482
0
LINE
8
BLACK
6
CONTINUOUS
10
0.27802
20
0.252482
11
0.277667
21
0.252507
0
LINE
8
BLACK
6
CONTINUOUS
10
0.277667
20
0.252507
11
0.27734
21
0.252371
0
LINE
8
BLACK
6
CONTINUOUS
10
0.27734
20
0.252371
11
0.275464
21
0.252371
0
LINE
8
BLACK
6
CONTINUOUS
10
0.275464
20
0.252371
11
0.275002
21
0.252563
0
LINE
8
BLACK
6
CONTINUOUS
10
0.275002
20
0.252563
11
0.274503
21
0.252598
0
LINE
8
BLACK
6
CONTINUOUS
10
0.274503
20
0.252598
11
0.272627
21
0.253536
0
LINE
8
BLACK
6
CONTINUOUS
10
0.272627
20
0.253536
11
0.272395
21
0.253804
0
LINE
8
BLACK
6
CONTINUOUS
10
0.272395
20
0.253804
11
0.272068
21
0.253939
0
LINE
8
BLACK
6
CONTINUOUS
10
0.272068
20
0.253939
11
0.27113
21
0.254877
0
LINE
8
BLACK
6
CONTINUOUS
10
0.27113
20
0.254877
11
0.270994
21
0.255204
0
LINE
8
BLACK
6
CONTINUOUS
10
0.270994
20
0.255204
11
0.270727
21
0.255436
0
LINE
8
BLACK
6
CONTINUOUS
10
0.270727
20
0.255436
11
0.269789
21
0.257312
0
LINE
8
BLACK
6
CONTINUOUS
10
0.269789
20
0.257312
11
0.269753
21
0.257811
0
LINE
8
BLACK
6
CONTINUOUS
10
0.269753
20
0.257811
11
0.269562
21
0.258274
0
LINE
8
BLACK
6
CONTINUOUS
10
0.269562
20
0.258274
11
0.269562
21
0.262964
0
LINE
8
BLACK
6
CONTINUOUS
10
0.269562
20
0.262964
11
0.269753
21
0.263427
0
LINE
8
BLACK
6
CONTINUOUS
10
0.269753
20
0.263427
11
0.269789
21
0.263926
0
LINE
8
BLACK
6
CONTINUOUS
10
0.269789
20
0.263926
11
0.270727
21
0.265802
0
LINE
8
BLACK
6
CONTINUOUS
10
0.270727
20
0.265802
11
0.270994
21
0.266034
0
LINE
8
BLACK
6
CONTINUOUS
10
0.270994
20
0.266034
11
0.27113
21
0.266361
0
LINE
8
BLACK
6
CONTINUOUS
10
0.27113
20
0.266361
11
0.272068
21
0.267299
0
LINE
8
BLACK
6
CONTINUOUS
10
0.272068
20
0.267299
11
0.273588
21
0.267929
0
LINE
8
BLACK
6
CONTINUOUS
10
0.273588
20
0.267929
11
0.275108
21
0.267299
0
LINE
8
BLACK
6
CONTINUOUS
10
0.275108
20
0.267299
11
0.275738
21
0.265779
0
LINE
8
BLACK
6
CONTINUOUS
10
0.275738
20
0.265779
11
0.275108
21
0.264258
0
LINE
8
BLACK
6
CONTINUOUS
10
0.275108
20
0.264258
11
0.274417
21
0.263567
0
LINE
8
BLACK
6
CONTINUOUS
10
0.274417
20
0.263567
11
0.273862
21
0.262457
0
LINE
8
BLACK
6
CONTINUOUS
10
0.273862
20
0.262457
11
0.273862
21
0.258781
0
LINE
8
BLACK
6
CONTINUOUS
10
0.273862
20
0.258781
11
0.274417
21
0.257671
0
LINE
8
BLACK
6
CONTINUOUS
10
0.274417
20
0.257671
11
0.274862
21
0.257226
0
LINE
8
BLACK
6
CONTINUOUS
10
0.274862
20
0.257226
11
0.275972
21
0.256671
0
LINE
8
BLACK
6
CONTINUOUS
10
0.275972
20
0.256671
11
0.276992
21
0.256671
0
LINE
8
BLACK
6
CONTINUOUS
10
0.276992
20
0.256671
11
0.278993
21
0.257339
0
LINE
8
BLACK
6
CONTINUOUS
10
0.278993
20
0.257339
11
0.289892
21
0.268237
0
LINE
8
BLACK
6
CONTINUOUS
10
0.289892
20
0.268237
11
0.291412
21
0.268867
0
LINE
8
BLACK
6
CONTINUOUS
10
0.291412
20
0.268867
11
0.292932
21
0.268237
0
LINE
8
BLACK
6
CONTINUOUS
10
0.257927
20
0.284025
11
0.258557
21
0.282505
0
LINE
8
BLACK
6
CONTINUOUS
10
0.258557
20
0.282505
11
0.258557
21
0.267495
0
LINE
8
BLACK
6
CONTINUOUS
10
0.258557
20
0.267495
11
0.257927
21
0.265975
0
LINE
8
BLACK
6
CONTINUOUS
10
0.257927
20
0.265975
11
0.256407
21
0.265345
0
LINE
8
BLACK
6
CONTINUOUS
10
0.256407
20
0.265345
11
0.254887
21
0.265975
0
LINE
8
BLACK
6
CONTINUOUS
10
0.254887
20
0.265975
11
0.254257
21
0.267495
0
LINE
8
BLACK
6
CONTINUOUS
10
0.254257
20
0.267495
11
0.254257
21
0.282505
0
LINE
8
BLACK
6
CONTINUOUS
10
0.254257
20
0.282505
11
0.254887
21
0.284025
0
LINE
8
BLACK
6
CONTINUOUS
10
0.254887
20
0.284025
11
0.256407
21
0.284655
0
LINE
8
BLACK
6
CONTINUOUS
10
0.256407
20
0.284655
11
0.257927
21
0.284025
0
LINE
8
BLACK
6
CONTINUOUS
10
0.292932
20
0.286061
11
0.293562
21
0.28454
0
LINE
8
BLACK
6
CONTINUOUS
10
0.293562
20
0.28454
11
0.292932
21
0.28302
0
LINE
8
BLACK
6
CONTINUOUS
10
0.292932
20
0.28302
11
0.291412
21
0.28239
0
LINE
8
BLACK
6
CONTINUOUS
10
0.291412
20
0.28239
11
0.284181
21
0.28239
0
LINE
8
BLACK
6
CONTINUOUS
10
0.284181
20
0.28239
11
0.284181
21
0.280969
0
LINE
8
BLACK
6
CONTINUOUS
10
0.284181
20
0.280969
11
0.292645
21
0.275045
0
LINE
8
BLACK
6
CONTINUOUS
10
0.292645
20
0.275045
11
0.293529
21
0.273657
0
LINE
8
BLACK
6
CONTINUOUS
10
0.293529
20
0.273657
11
0.293173
21
0.27205
0
LINE
8
BLACK
6
CONTINUOUS
10
0.293173
20
0.27205
11
0.291786
21
0.271166
0
LINE
8
BLACK
6
CONTINUOUS
10
0.291786
20
0.271166
11
0.290179
21
0.271522
0
LINE
8
BLACK
6
CONTINUOUS
10
0.290179
20
0.271522
11
0.283882
21
0.27593
0
LINE
8
BLACK
6
CONTINUOUS
10
0.283882
20
0.27593
11
0.283016
21
0.274198
0
LINE
8
BLACK
6
CONTINUOUS
10
0.283016
20
0.274198
11
0.282749
21
0.273966
0
LINE
8
BLACK
6
CONTINUOUS
10
0.282749
20
0.273966
11
0.282613
21
0.273639
0
LINE
8
BLACK
6
CONTINUOUS
10
0.282613
20
0.273639
11
0.281675
21
0.272701
0
LINE
8
BLACK
6
CONTINUOUS
10
0.281675
20
0.272701
11
0.281348
21
0.272566
0
LINE
8
BLACK
6
CONTINUOUS
10
0.281348
20
0.272566
11
0.281116
21
0.272298
0
LINE
8
BLACK
6
CONTINUOUS
10
0.281116
20
0.272298
11
0.27924
21
0.27136
0
LINE
8
BLACK
6
CONTINUOUS
10
0.27924
20
0.27136
11
0.278741
21
0.271325
0
LINE
8
BLACK
6
CONTINUOUS
10
0.278741
20
0.271325
11
0.278279
21
0.271133
0
LINE
8
BLACK
6
CONTINUOUS
10
0.278279
20
0.271133
11
0.275464
21
0.271133
0
LINE
8
BLACK
6
CONTINUOUS
10
0.275464
20
0.271133
11
0.275002
21
0.271325
0
LINE
8
BLACK
6
CONTINUOUS
10
0.275002
20
0.271325
11
0.274503
21
0.27136
0
LINE
8
BLACK
6
CONTINUOUS
10
0.274503
20
0.27136
11
0.272627
21
0.272298
0
LINE
8
BLACK
6
CONTINUOUS
10
0.272627
20
0.272298
11
0.272395
21
0.272566
0
LINE
8
BLACK
6
CONTINUOUS
10
0.272395
20
0.272566
11
0.272068
21
0.272701
0
LINE
8
BLACK
6
CONTINUOUS
10
0.272068
20
0.272701
11
0.27113
21
0.273639
0
LINE
8
BLACK
6
CONTINUOUS
10
0.27113
20
0.273639
11
0.270994
21
0.273966
0
LINE
8
BLACK
6
CONTINUOUS
10
0.270994
20
0.273966
11
0.270727
21
0.274198
0
LINE
8
BLACK
6
CONTINUOUS
10
0.270727
20
0.274198
11
0.269789
21
0.276074
0
LINE
8
BLACK
6
CONTINUOUS
10
0.269789
20
0.276074
11
0.269753
21
0.276573
0
LINE
8
BLACK
6
CONTINUOUS
10
0.269753
20
0.276573
11
0.269562
21
0.277036
0
LINE
8
BLACK
6
CONTINUOUS
10
0.269562
20
0.277036
11
0.269562
21
0.28454
0
LINE
8
BLACK
6
CONTINUOUS
10
0.269562
20
0.28454
11
0.270192
21
0.286061
0
LINE
8
BLACK
6
CONTINUOUS
10
0.270192
20
0.286061
11
0.271712
21
0.28669
0
LINE
8
BLACK
6
CONTINUOUS
10
0.271712
20
0.28669
11
0.291412
21
0.28669
0
LINE
8
BLACK
6
CONTINUOUS
10
0.291412
20
0.28669
11
0.292932
21
0.286061
0
LINE
8
BLACK
6
CONTINUOUS
10
0.273862
20
0.28239
11
0.273862
21
0.277543
0
LINE
8
BLACK
6
CONTINUOUS
10
0.273862
20
0.277543
11
0.274417
21
0.276433
0
LINE
8
BLACK
6
CONTINUOUS
10
0.274417
20
0.276433
11
0.274862
21
0.275988
0
LINE
8
BLACK
6
CONTINUOUS
10
0.274862
20
0.275988
11
0.275972
21
0.275433
0
LINE
8
BLACK
6
CONTINUOUS
10
0.275972
20
0.275433
11
0.277771
21
0.275433
0
LINE
8
BLACK
6
CONTINUOUS
10
0.277771
20
0.275433
11
0.278881
21
0.275988
0
LINE
8
BLACK
6
CONTINUOUS
10
0.278881
20
0.275988
11
0.279326
21
0.276433
0
LINE
8
BLACK
6
CONTINUOUS
10
0.279326
20
0.276433
11
0.279881
21
0.277543
0
LINE
8
BLACK
6
CONTINUOUS
10
0.279881
20
0.277543
11
0.279881
21
0.28239
0
LINE
8
BLACK
6
CONTINUOUS
10
0.279881
20
0.28239
11
0.273862
21
0.28239
0
LINE
8
BLACK
6
CONTINUOUS
10
0.300384
20
0.332885
11
0.300513
21
0.332908
0
LINE
8
BLACK
6
CONTINUOUS
10
0.300513
20
0.332908
11
0.300626
21
0.332842
0
LINE
8
BLACK
6
CONTINUOUS
10
0.300626
20
0.332842
11
0.30101
21
0.332775
0
LINE
8
BLACK
6
CONTINUOUS
10
0.30101
20
0.332775
11
0.301598
21
0.332282
0
LINE
8
BLACK
6
CONTINUOUS
10
0.301598
20
0.332282
11
0.302262
21
0.331898
0
LINE
8
BLACK
6
CONTINUOUS
10
0.302262
20
0.331898
11
0.302353
21
0.331648
0
LINE
8
BLACK
6
CONTINUOUS
10
0.302353
20
0.331648
11
0.302557
21
0.331476
0
LINE
8
BLACK
6
CONTINUOUS
10
0.302557
20
0.331476
11
0.30269
21
0.330721
0
LINE
8
BLACK
6
CONTINUOUS
10
0.30269
20
0.330721
11
0.302953
21
0.33
0
LINE
8
BLACK
6
CONTINUOUS
10
0.302953
20
0.33
11
0.302953
21
0.29
0
LINE
8
BLACK
6
CONTINUOUS
10
0.302953
20
0.29
11
0.302775
21
0.28899
0
LINE
8
BLACK
6
CONTINUOUS
10
0.302775
20
0.28899
11
0.301476
21
0.287443
0
LINE
8
BLACK
6
CONTINUOUS
10
0.301476
20
0.287443
11
0.299487
21
0.287092
0
LINE
8
BLACK
6
CONTINUOUS
10
0.299487
20
0.287092
11
0.297738
21
0.288102
0
LINE
8
BLACK
6
CONTINUOUS
10
0.297738
20
0.288102
11
0.297047
21
0.29
0
LINE
8
BLACK
6
CONTINUOUS
10
0.297047
20
0.29
11
0.297047
21
0.327047
0
LINE
8
BLACK
6
CONTINUOUS
10
0.297047
20
0.327047
11
0.242953
21
0.327047
0
LINE
8
BLACK
6
CONTINUOUS
10
0.242953
20
0.327047
11
0.242953
21
0.29
0
LINE
8
BLACK
6
CONTINUOUS
10
0.242953
20
0.29
11
0.242775
21
0.28899
0
LINE
8
BLACK
6
CONTINUOUS
10
0.242775
20
0.28899
11
0.241476
21
0.287443
0
LINE
8
BLACK
6
CONTINUOUS
10
0.241476
20
0.287443
11
0.239487
21
0.287092
0
LINE
8
BLACK
6
CONTINUOUS
10
0.239487
20
0.287092
11
0.237738
21
0.288102
0
LINE
8
BLACK
6
CONTINUOUS
10
0.237738
20
0.288102
11
0.237047
21
0.29
0
LINE
8
BLACK
6
CONTINUOUS
10
0.237047
20
0.29
11
0.237047
21
0.33
0
LINE
8
BLACK
6
CONTINUOUS
10
0.237047
20
0.33
11
0.237115
21
0.330384
0
LINE
8
BLACK
6
CONTINUOUS
10
0.237115
20
0.330384
11
0.237092
21
0.330513
0
LINE
8
BLACK
6
CONTINUOUS
10
0.237092
20
0.330513
11
0.237158
21
0.330626
0
LINE
8
BLACK
6
CONTINUOUS
10
0.237158
20
0.330626
11
0.237225
21
0.33101
0
LINE
8
BLACK
6
CONTINUOUS
10
0.237225
20
0.33101
11
0.237718
21
0.331598
0
LINE
8
BLACK
6
CONTINUOUS
10
0.237718
20
0.331598
11
0.238102
21
0.332262
0
LINE
8
BLACK
6
CONTINUOUS
10
0.238102
20
0.332262
11
0.238352
21
0.332353
0
LINE
8
BLACK
6
CONTINUOUS
10
0.238352
20
0.332353
11
0.238524
21
0.332557
0
LINE
8
BLACK
6
CONTINUOUS
10
0.238524
20
0.332557
11
0.239279
21
0.33269
0
LINE
8
BLACK
6
CONTINUOUS
10
0.239279
20
0.33269
11
0.24
21
0.332953
0
LINE
8
BLACK
6
CONTINUOUS
10
0.24
20
0.332953
11
0.3
21
0.332953
0
LINE
8
BLACK
6
CONTINUOUS
10
0.3
20
0.332953
11
0.300384
21
0.332885
  0
ENDSEC
  0
EOF
