  0
SECTION
  2
HEADER
  9
$ANGBASE
  50
0.0
  9
$ANGDIR
  70
1
  9
$MEASUREMENT
  70
0
  0
ENDSEC
  0
SECTION
  2
TABLES
  0
TABLE
  2
LTYPE
  70
4
  0
LTYPE
  5
40F
  2
CONTINUOUS
  70
0
  3
Solid line
  72
65
  73
0
  40
0.0
  0
LTYPE
  5
410
  2
DASHDOT
 70
0
  3
Dash Dot ____ _ ____ _
 72
65
 73
4
 40
2.0
 49
1.25
 49
-0.25
 49
0.25
 49
-0.25
  0
LTYPE
  5
411
  2
DASHED
 70
0
  3
Dashed __ __ __ __ __
 72
65
 73
2
 40
0.75
 49
0.5
 49
-0.25
  0
LTYPE
  5
43B
  2
DOTTED
 70
0
  3
Dotted .  .  .  .
 72
65
 73
2
 40
0.2
 49
0.0
 49
-0.2
  0
ENDTAB
  0
TABLE
  2
STYLE
  70
4
  0
STYLE
  2
KICAD
  70
0
  40
0
  41
1
  42
1
  50
0
  71
0
  3
isocp.shx
  0
STYLE
  2
KICADB
  70
0
  40
0
  41
1
  42
1
  50
0
  71
0
  3
isocp.shx
  0
STYLE
  2
KICADI
  70
0
  40
0
  41
1
  42
1
  50
15
  71
0
  3
isocp.shx
  0
STYLE
  2
KICADBI
  70
0
  40
0
  41
1
  42
1
  50
15
  71
0
  3
isocp.shx
  0
ENDTAB
  0
TABLE
  2
LAYER
  70
1
  0
LAYER
  2
BLACK
  70
0
  62
7
  6
CONTINUOUS
  0
ENDTAB
  0
ENDSEC
  0
SECTION
  2
ENTITIES
0
LINE
8
BLACK
6
CONTINUOUS
10
0.359888
20
0.058793
11
0.369416
21
0.0570959
0
LINE
8
BLACK
6
CONTINUOUS
10
0.369416
20
0.0570959
11
0.378539
21
0.0538654
0
LINE
8
BLACK
6
CONTINUOUS
10
0.378539
20
0.0538654
11
0.387011
21
0.0491883
0
LINE
8
BLACK
6
CONTINUOUS
10
0.387011
20
0.0491883
11
0.394606
21
0.0431902
0
LINE
8
BLACK
6
CONTINUOUS
10
0.394606
20
0.0431902
11
0.401119
21
0.0360322
0
LINE
8
BLACK
6
CONTINUOUS
10
0.401119
20
0.0360322
11
0.406376
21
0.0279065
0
LINE
8
BLACK
6
CONTINUOUS
10
0.406376
20
0.0279065
11
0.410235
21
0.0190315
0
LINE
8
BLACK
6
CONTINUOUS
10
0.410235
20
0.0190315
11
0.412593
21
0.00964524
0
LINE
8
BLACK
6
CONTINUOUS
10
0.412593
20
0.00964524
11
0.413386
21
0
0
LINE
8
BLACK
6
CONTINUOUS
10
0.413386
20
0
11
0.413315
21
-0.00288484
0
LINE
8
BLACK
6
CONTINUOUS
10
0.413315
20
-0.00288484
11
0.412052
21
-0.0124798
0
LINE
8
BLACK
6
CONTINUOUS
10
0.412052
20
-0.0124798
11
0.409239
21
-0.0217396
0
LINE
8
BLACK
6
CONTINUOUS
10
0.409239
20
-0.0217396
11
0.404951
21
-0.0304156
0
LINE
8
BLACK
6
CONTINUOUS
10
0.404951
20
-0.0304156
11
0.399303
21
-0.0382748
0
LINE
8
BLACK
6
CONTINUOUS
10
0.399303
20
-0.0382748
11
0.392448
21
-0.0451061
0
LINE
8
BLACK
6
CONTINUOUS
10
0.392448
20
-0.0451061
11
0.384569
21
-0.050726
0
LINE
8
BLACK
6
CONTINUOUS
10
0.384569
20
-0.050726
11
0.375879
21
-0.0549836
0
LINE
8
BLACK
6
CONTINUOUS
10
0.375879
20
-0.0549836
11
0.366609
21
-0.0577646
0
LINE
8
BLACK
6
CONTINUOUS
10
0.366609
20
-0.0577646
11
0.35701
21
-0.0589943
0
LINE
8
BLACK
6
CONTINUOUS
10
0.35701
20
-0.0589943
11
0.347338
21
-0.0586397
0
LINE
8
BLACK
6
CONTINUOUS
10
0.347338
20
-0.0586397
11
0.337855
21
-0.0567103
0
LINE
8
BLACK
6
CONTINUOUS
10
0.337855
20
-0.0567103
11
0.328814
21
-0.0532578
0
LINE
8
BLACK
6
CONTINUOUS
10
0.328814
20
-0.0532578
11
0.320458
21
-0.0483751
0
LINE
8
BLACK
6
CONTINUOUS
10
0.320458
20
-0.0483751
11
0.313012
21
-0.0421933
0
LINE
8
BLACK
6
CONTINUOUS
10
0.313012
20
-0.0421933
11
0.306676
21
-0.0348783
0
LINE
8
BLACK
6
CONTINUOUS
10
0.306676
20
-0.0348783
11
0.301619
21
-0.0266266
0
LINE
8
BLACK
6
CONTINUOUS
10
0.301619
20
-0.0266266
11
0.297978
21
-0.0176599
0
LINE
8
BLACK
6
CONTINUOUS
10
0.297978
20
-0.0176599
11
0.29585
21
-0.0082189
0
LINE
8
BLACK
6
CONTINUOUS
10
0.29585
20
-0.0082189
11
0.295293
21
0.00144283
0
LINE
8
BLACK
6
CONTINUOUS
10
0.295293
20
0.00144283
11
0.296322
21
0.0110658
0
LINE
8
BLACK
6
CONTINUOUS
10
0.296322
20
0.0110658
11
0.298908
21
0.0203916
0
LINE
8
BLACK
6
CONTINUOUS
10
0.298908
20
0.0203916
11
0.302983
21
0.0291698
0
LINE
8
BLACK
6
CONTINUOUS
10
0.302983
20
0.0291698
11
0.308436
21
0.0371646
0
LINE
8
BLACK
6
CONTINUOUS
10
0.308436
20
0.0371646
11
0.315122
21
0.0441613
0
LINE
8
BLACK
6
CONTINUOUS
10
0.315122
20
0.0441613
11
0.322862
21
0.049972
0
LINE
8
BLACK
6
CONTINUOUS
10
0.322862
20
0.049972
11
0.331446
21
0.0544407
0
LINE
8
BLACK
6
CONTINUOUS
10
0.331446
20
0.0544407
11
0.340645
21
0.0574474
0
LINE
8
BLACK
6
CONTINUOUS
10
0.340645
20
0.0574474
11
0.350211
21
0.0589113
0
LINE
8
BLACK
6
CONTINUOUS
10
0.350211
20
0.0589113
11
0.359888
21
0.058793
0
LINE
8
BLACK
6
CONTINUOUS
10
0.532541
20
0.105621
11
0.535095
21
0.103914
0
LINE
8
BLACK
6
CONTINUOUS
10
0.535095
20
0.103914
11
0.536802
21
0.10136
0
LINE
8
BLACK
6
CONTINUOUS
10
0.536802
20
0.10136
11
0.537402
21
0.0983465
0
LINE
8
BLACK
6
CONTINUOUS
10
0.537402
20
0.0983465
11
0.537402
21
0.0668504
0
LINE
8
BLACK
6
CONTINUOUS
10
0.537402
20
0.0668504
11
0.536802
21
0.0638371
0
LINE
8
BLACK
6
CONTINUOUS
10
0.536802
20
0.0638371
11
0.535095
21
0.0612826
0
LINE
8
BLACK
6
CONTINUOUS
10
0.535095
20
0.0612826
11
0.532541
21
0.0595757
0
LINE
8
BLACK
6
CONTINUOUS
10
0.532541
20
0.0595757
11
0.529528
21
0.0589764
0
LINE
8
BLACK
6
CONTINUOUS
10
0.529528
20
0.0589764
11
0.494094
21
0.0589764
0
LINE
8
BLACK
6
CONTINUOUS
10
0.494094
20
0.0589764
11
0.491081
21
0.0595757
0
LINE
8
BLACK
6
CONTINUOUS
10
0.491081
20
0.0595757
11
0.488527
21
0.0612826
0
LINE
8
BLACK
6
CONTINUOUS
10
0.488527
20
0.0612826
11
0.48682
21
0.0638371
0
LINE
8
BLACK
6
CONTINUOUS
10
0.48682
20
0.0638371
11
0.48622
21
0.0668504
0
LINE
8
BLACK
6
CONTINUOUS
10
0.48622
20
0.0668504
11
0.48622
21
0.0983465
0
LINE
8
BLACK
6
CONTINUOUS
10
0.48622
20
0.0983465
11
0.48682
21
0.10136
0
LINE
8
BLACK
6
CONTINUOUS
10
0.48682
20
0.10136
11
0.488527
21
0.103914
0
LINE
8
BLACK
6
CONTINUOUS
10
0.488527
20
0.103914
11
0.491081
21
0.105621
0
LINE
8
BLACK
6
CONTINUOUS
10
0.491081
20
0.105621
11
0.494094
21
0.10622
0
LINE
8
BLACK
6
CONTINUOUS
10
0.494094
20
0.10622
11
0.529528
21
0.10622
0
LINE
8
BLACK
6
CONTINUOUS
10
0.529528
20
0.10622
11
0.532541
21
0.105621
0
LINE
8
BLACK
6
CONTINUOUS
10
0.19321
20
0.134125
11
0.195765
21
0.132418
0
LINE
8
BLACK
6
CONTINUOUS
10
0.195765
20
0.132418
11
0.197471
21
0.129864
0
LINE
8
BLACK
6
CONTINUOUS
10
0.197471
20
0.129864
11
0.198071
21
0.12685
0
LINE
8
BLACK
6
CONTINUOUS
10
0.198071
20
0.12685
11
0.198071
21
0.0668504
0
LINE
8
BLACK
6
CONTINUOUS
10
0.198071
20
0.0668504
11
0.197471
21
0.0638371
0
LINE
8
BLACK
6
CONTINUOUS
10
0.197471
20
0.0638371
11
0.195765
21
0.0612826
0
LINE
8
BLACK
6
CONTINUOUS
10
0.195765
20
0.0612826
11
0.19321
21
0.0595757
0
LINE
8
BLACK
6
CONTINUOUS
10
0.19321
20
0.0595757
11
0.190197
21
0.0589764
0
LINE
8
BLACK
6
CONTINUOUS
10
0.190197
20
0.0589764
11
0.130197
21
0.0589764
0
LINE
8
BLACK
6
CONTINUOUS
10
0.130197
20
0.0589764
11
0.127184
21
0.0595757
0
LINE
8
BLACK
6
CONTINUOUS
10
0.127184
20
0.0595757
11
0.124629
21
0.0612826
0
LINE
8
BLACK
6
CONTINUOUS
10
0.124629
20
0.0612826
11
0.122922
21
0.0638371
0
LINE
8
BLACK
6
CONTINUOUS
10
0.122922
20
0.0638371
11
0.122323
21
0.0668504
0
LINE
8
BLACK
6
CONTINUOUS
10
0.122323
20
0.0668504
11
0.122323
21
0.12685
0
LINE
8
BLACK
6
CONTINUOUS
10
0.122323
20
0.12685
11
0.122922
21
0.129864
0
LINE
8
BLACK
6
CONTINUOUS
10
0.122922
20
0.129864
11
0.124629
21
0.132418
0
LINE
8
BLACK
6
CONTINUOUS
10
0.124629
20
0.132418
11
0.127184
21
0.134125
0
LINE
8
BLACK
6
CONTINUOUS
10
0.127184
20
0.134125
11
0.130197
21
0.134724
0
LINE
8
BLACK
6
CONTINUOUS
10
0.130197
20
0.134724
11
0.190197
21
0.134724
0
LINE
8
BLACK
6
CONTINUOUS
10
0.190197
20
0.134724
11
0.19321
21
0.134125
0
LINE
8
BLACK
6
CONTINUOUS
10
0.290183
20
0.112284
11
0.294779
21
0.109942
0
LINE
8
BLACK
6
CONTINUOUS
10
0.294779
20
0.109942
11
0.298426
21
0.106295
0
LINE
8
BLACK
6
CONTINUOUS
10
0.298426
20
0.106295
11
0.300768
21
0.101699
0
LINE
8
BLACK
6
CONTINUOUS
10
0.300768
20
0.101699
11
0.301575
21
0.0966043
0
LINE
8
BLACK
6
CONTINUOUS
10
0.301575
20
0.0966043
11
0.301575
21
0.0793799
0
LINE
8
BLACK
6
CONTINUOUS
10
0.301575
20
0.0793799
11
0.300768
21
0.0742854
0
LINE
8
BLACK
6
CONTINUOUS
10
0.300768
20
0.0742854
11
0.298426
21
0.0696896
0
LINE
8
BLACK
6
CONTINUOUS
10
0.298426
20
0.0696896
11
0.294779
21
0.0660423
0
LINE
8
BLACK
6
CONTINUOUS
10
0.294779
20
0.0660423
11
0.290183
21
0.0637006
0
LINE
8
BLACK
6
CONTINUOUS
10
0.290183
20
0.0637006
11
0.285089
21
0.0628937
0
LINE
8
BLACK
6
CONTINUOUS
10
0.285089
20
0.0628937
11
0.264911
21
0.0628937
0
LINE
8
BLACK
6
CONTINUOUS
10
0.264911
20
0.0628937
11
0.259817
21
0.0637006
0
LINE
8
BLACK
6
CONTINUOUS
10
0.259817
20
0.0637006
11
0.255221
21
0.0660423
0
LINE
8
BLACK
6
CONTINUOUS
10
0.255221
20
0.0660423
11
0.251574
21
0.0696896
0
LINE
8
BLACK
6
CONTINUOUS
10
0.251574
20
0.0696896
11
0.249232
21
0.0742854
0
LINE
8
BLACK
6
CONTINUOUS
10
0.249232
20
0.0742854
11
0.248425
21
0.0793799
0
LINE
8
BLACK
6
CONTINUOUS
10
0.248425
20
0.0793799
11
0.248425
21
0.0966043
0
LINE
8
BLACK
6
CONTINUOUS
10
0.248425
20
0.0966043
11
0.249232
21
0.101699
0
LINE
8
BLACK
6
CONTINUOUS
10
0.249232
20
0.101699
11
0.251574
21
0.106295
0
LINE
8
BLACK
6
CONTINUOUS
10
0.251574
20
0.106295
11
0.255221
21
0.109942
0
LINE
8
BLACK
6
CONTINUOUS
10
0.255221
20
0.109942
11
0.259817
21
0.112284
0
LINE
8
BLACK
6
CONTINUOUS
10
0.259817
20
0.112284
11
0.264911
21
0.113091
0
LINE
8
BLACK
6
CONTINUOUS
10
0.264911
20
0.113091
11
0.285089
21
0.113091
0
LINE
8
BLACK
6
CONTINUOUS
10
0.285089
20
0.113091
11
0.290183
21
0.112284
0
LINE
8
BLACK
6
CONTINUOUS
10
0.453801
20
0.143023
11
0.456355
21
0.141316
0
LINE
8
BLACK
6
CONTINUOUS
10
0.456355
20
0.141316
11
0.458062
21
0.138761
0
LINE
8
BLACK
6
CONTINUOUS
10
0.458062
20
0.138761
11
0.458661
21
0.135748
0
LINE
8
BLACK
6
CONTINUOUS
10
0.458661
20
0.135748
11
0.458661
21
0.104252
0
LINE
8
BLACK
6
CONTINUOUS
10
0.458661
20
0.104252
11
0.458062
21
0.101239
0
LINE
8
BLACK
6
CONTINUOUS
10
0.458062
20
0.101239
11
0.456355
21
0.0986842
0
LINE
8
BLACK
6
CONTINUOUS
10
0.456355
20
0.0986842
11
0.453801
21
0.0969773
0
LINE
8
BLACK
6
CONTINUOUS
10
0.453801
20
0.0969773
11
0.450787
21
0.096378
0
LINE
8
BLACK
6
CONTINUOUS
10
0.450787
20
0.096378
11
0.415354
21
0.096378
0
LINE
8
BLACK
6
CONTINUOUS
10
0.415354
20
0.096378
11
0.412341
21
0.0969773
0
LINE
8
BLACK
6
CONTINUOUS
10
0.412341
20
0.0969773
11
0.409787
21
0.0986842
0
LINE
8
BLACK
6
CONTINUOUS
10
0.409787
20
0.0986842
11
0.40808
21
0.101239
0
LINE
8
BLACK
6
CONTINUOUS
10
0.40808
20
0.101239
11
0.40748
21
0.104252
0
LINE
8
BLACK
6
CONTINUOUS
10
0.40748
20
0.104252
11
0.40748
21
0.135748
0
LINE
8
BLACK
6
CONTINUOUS
10
0.40748
20
0.135748
11
0.40808
21
0.138761
0
LINE
8
BLACK
6
CONTINUOUS
10
0.40808
20
0.138761
11
0.409787
21
0.141316
0
LINE
8
BLACK
6
CONTINUOUS
10
0.409787
20
0.141316
11
0.412341
21
0.143023
0
LINE
8
BLACK
6
CONTINUOUS
10
0.412341
20
0.143023
11
0.415354
21
0.143622
0
LINE
8
BLACK
6
CONTINUOUS
10
0.415354
20
0.143622
11
0.450787
21
0.143622
0
LINE
8
BLACK
6
CONTINUOUS
10
0.450787
20
0.143622
11
0.453801
21
0.143023
0
LINE
8
BLACK
6
CONTINUOUS
10
0.290183
20
0.174292
11
0.294779
21
0.17195
0
LINE
8
BLACK
6
CONTINUOUS
10
0.294779
20
0.17195
11
0.298426
21
0.168303
0
LINE
8
BLACK
6
CONTINUOUS
10
0.298426
20
0.168303
11
0.300768
21
0.163707
0
LINE
8
BLACK
6
CONTINUOUS
10
0.300768
20
0.163707
11
0.301575
21
0.158612
0
LINE
8
BLACK
6
CONTINUOUS
10
0.301575
20
0.158612
11
0.301575
21
0.141388
0
LINE
8
BLACK
6
CONTINUOUS
10
0.301575
20
0.141388
11
0.300768
21
0.136293
0
LINE
8
BLACK
6
CONTINUOUS
10
0.300768
20
0.136293
11
0.298426
21
0.131697
0
LINE
8
BLACK
6
CONTINUOUS
10
0.298426
20
0.131697
11
0.294779
21
0.12805
0
LINE
8
BLACK
6
CONTINUOUS
10
0.294779
20
0.12805
11
0.290183
21
0.125708
0
LINE
8
BLACK
6
CONTINUOUS
10
0.290183
20
0.125708
11
0.285089
21
0.124902
0
LINE
8
BLACK
6
CONTINUOUS
10
0.285089
20
0.124902
11
0.264911
21
0.124902
0
LINE
8
BLACK
6
CONTINUOUS
10
0.264911
20
0.124902
11
0.259817
21
0.125708
0
LINE
8
BLACK
6
CONTINUOUS
10
0.259817
20
0.125708
11
0.255221
21
0.12805
0
LINE
8
BLACK
6
CONTINUOUS
10
0.255221
20
0.12805
11
0.251574
21
0.131697
0
LINE
8
BLACK
6
CONTINUOUS
10
0.251574
20
0.131697
11
0.249232
21
0.136293
0
LINE
8
BLACK
6
CONTINUOUS
10
0.249232
20
0.136293
11
0.248425
21
0.141388
0
LINE
8
BLACK
6
CONTINUOUS
10
0.248425
20
0.141388
11
0.248425
21
0.158612
0
LINE
8
BLACK
6
CONTINUOUS
10
0.248425
20
0.158612
11
0.249232
21
0.163707
0
LINE
8
BLACK
6
CONTINUOUS
10
0.249232
20
0.163707
11
0.251574
21
0.168303
0
LINE
8
BLACK
6
CONTINUOUS
10
0.251574
20
0.168303
11
0.255221
21
0.17195
0
LINE
8
BLACK
6
CONTINUOUS
10
0.255221
20
0.17195
11
0.259817
21
0.174292
0
LINE
8
BLACK
6
CONTINUOUS
10
0.259817
20
0.174292
11
0.264911
21
0.175098
0
LINE
8
BLACK
6
CONTINUOUS
10
0.264911
20
0.175098
11
0.285089
21
0.175098
0
LINE
8
BLACK
6
CONTINUOUS
10
0.285089
20
0.175098
11
0.290183
21
0.174292
0
LINE
8
BLACK
6
CONTINUOUS
10
0.532541
20
0.180424
11
0.535095
21
0.178717
0
LINE
8
BLACK
6
CONTINUOUS
10
0.535095
20
0.178717
11
0.536802
21
0.176163
0
LINE
8
BLACK
6
CONTINUOUS
10
0.536802
20
0.176163
11
0.537402
21
0.17315
0
LINE
8
BLACK
6
CONTINUOUS
10
0.537402
20
0.17315
11
0.537402
21
0.141654
0
LINE
8
BLACK
6
CONTINUOUS
10
0.537402
20
0.141654
11
0.536802
21
0.13864
0
LINE
8
BLACK
6
CONTINUOUS
10
0.536802
20
0.13864
11
0.535095
21
0.136086
0
LINE
8
BLACK
6
CONTINUOUS
10
0.535095
20
0.136086
11
0.532541
21
0.134379
0
LINE
8
BLACK
6
CONTINUOUS
10
0.532541
20
0.134379
11
0.529528
21
0.13378
0
LINE
8
BLACK
6
CONTINUOUS
10
0.529528
20
0.13378
11
0.494094
21
0.13378
0
LINE
8
BLACK
6
CONTINUOUS
10
0.494094
20
0.13378
11
0.491081
21
0.134379
0
LINE
8
BLACK
6
CONTINUOUS
10
0.491081
20
0.134379
11
0.488527
21
0.136086
0
LINE
8
BLACK
6
CONTINUOUS
10
0.488527
20
0.136086
11
0.48682
21
0.13864
0
LINE
8
BLACK
6
CONTINUOUS
10
0.48682
20
0.13864
11
0.48622
21
0.141654
0
LINE
8
BLACK
6
CONTINUOUS
10
0.48622
20
0.141654
11
0.48622
21
0.17315
0
LINE
8
BLACK
6
CONTINUOUS
10
0.48622
20
0.17315
11
0.48682
21
0.176163
0
LINE
8
BLACK
6
CONTINUOUS
10
0.48682
20
0.176163
11
0.488527
21
0.178717
0
LINE
8
BLACK
6
CONTINUOUS
10
0.488527
20
0.178717
11
0.491081
21
0.180424
0
LINE
8
BLACK
6
CONTINUOUS
10
0.491081
20
0.180424
11
0.494094
21
0.181024
0
LINE
8
BLACK
6
CONTINUOUS
10
0.494094
20
0.181024
11
0.529528
21
0.181024
0
LINE
8
BLACK
6
CONTINUOUS
10
0.529528
20
0.181024
11
0.532541
21
0.180424
0
LINE
8
BLACK
6
CONTINUOUS
10
0.365183
20
0.192284
11
0.369779
21
0.189942
0
LINE
8
BLACK
6
CONTINUOUS
10
0.369779
20
0.189942
11
0.373426
21
0.186295
0
LINE
8
BLACK
6
CONTINUOUS
10
0.373426
20
0.186295
11
0.375768
21
0.181699
0
LINE
8
BLACK
6
CONTINUOUS
10
0.375768
20
0.181699
11
0.376575
21
0.176604
0
LINE
8
BLACK
6
CONTINUOUS
10
0.376575
20
0.176604
11
0.376575
21
0.15938
0
LINE
8
BLACK
6
CONTINUOUS
10
0.376575
20
0.15938
11
0.375768
21
0.154285
0
LINE
8
BLACK
6
CONTINUOUS
10
0.375768
20
0.154285
11
0.373426
21
0.14969
0
LINE
8
BLACK
6
CONTINUOUS
10
0.373426
20
0.14969
11
0.369779
21
0.146042
0
LINE
8
BLACK
6
CONTINUOUS
10
0.369779
20
0.146042
11
0.365183
21
0.143701
0
LINE
8
BLACK
6
CONTINUOUS
10
0.365183
20
0.143701
11
0.360089
21
0.142894
0
LINE
8
BLACK
6
CONTINUOUS
10
0.360089
20
0.142894
11
0.339911
21
0.142894
0
LINE
8
BLACK
6
CONTINUOUS
10
0.339911
20
0.142894
11
0.334817
21
0.143701
0
LINE
8
BLACK
6
CONTINUOUS
10
0.334817
20
0.143701
11
0.330221
21
0.146042
0
LINE
8
BLACK
6
CONTINUOUS
10
0.330221
20
0.146042
11
0.326574
21
0.14969
0
LINE
8
BLACK
6
CONTINUOUS
10
0.326574
20
0.14969
11
0.324232
21
0.154285
0
LINE
8
BLACK
6
CONTINUOUS
10
0.324232
20
0.154285
11
0.323425
21
0.15938
0
LINE
8
BLACK
6
CONTINUOUS
10
0.323425
20
0.15938
11
0.323425
21
0.176604
0
LINE
8
BLACK
6
CONTINUOUS
10
0.323425
20
0.176604
11
0.324232
21
0.181699
0
LINE
8
BLACK
6
CONTINUOUS
10
0.324232
20
0.181699
11
0.326574
21
0.186295
0
LINE
8
BLACK
6
CONTINUOUS
10
0.326574
20
0.186295
11
0.330221
21
0.189942
0
LINE
8
BLACK
6
CONTINUOUS
10
0.330221
20
0.189942
11
0.334817
21
0.192284
0
LINE
8
BLACK
6
CONTINUOUS
10
0.334817
20
0.192284
11
0.339911
21
0.193091
0
LINE
8
BLACK
6
CONTINUOUS
10
0.339911
20
0.193091
11
0.360089
21
0.193091
0
LINE
8
BLACK
6
CONTINUOUS
10
0.360089
20
0.193091
11
0.365183
21
0.192284
0
LINE
8
BLACK
6
CONTINUOUS
10
0.19321
20
0.234125
11
0.195765
21
0.232418
0
LINE
8
BLACK
6
CONTINUOUS
10
0.195765
20
0.232418
11
0.197471
21
0.229864
0
LINE
8
BLACK
6
CONTINUOUS
10
0.197471
20
0.229864
11
0.198071
21
0.22685
0
LINE
8
BLACK
6
CONTINUOUS
10
0.198071
20
0.22685
11
0.198071
21
0.16685
0
LINE
8
BLACK
6
CONTINUOUS
10
0.198071
20
0.16685
11
0.197471
21
0.163837
0
LINE
8
BLACK
6
CONTINUOUS
10
0.197471
20
0.163837
11
0.195765
21
0.161283
0
LINE
8
BLACK
6
CONTINUOUS
10
0.195765
20
0.161283
11
0.19321
21
0.159576
0
LINE
8
BLACK
6
CONTINUOUS
10
0.19321
20
0.159576
11
0.190197
21
0.158976
0
LINE
8
BLACK
6
CONTINUOUS
10
0.190197
20
0.158976
11
0.130197
21
0.158976
0
LINE
8
BLACK
6
CONTINUOUS
10
0.130197
20
0.158976
11
0.127184
21
0.159576
0
LINE
8
BLACK
6
CONTINUOUS
10
0.127184
20
0.159576
11
0.124629
21
0.161283
0
LINE
8
BLACK
6
CONTINUOUS
10
0.124629
20
0.161283
11
0.122922
21
0.163837
0
LINE
8
BLACK
6
CONTINUOUS
10
0.122922
20
0.163837
11
0.122323
21
0.16685
0
LINE
8
BLACK
6
CONTINUOUS
10
0.122323
20
0.16685
11
0.122323
21
0.22685
0
LINE
8
BLACK
6
CONTINUOUS
10
0.122323
20
0.22685
11
0.122922
21
0.229864
0
LINE
8
BLACK
6
CONTINUOUS
10
0.122922
20
0.229864
11
0.124629
21
0.232418
0
LINE
8
BLACK
6
CONTINUOUS
10
0.124629
20
0.232418
11
0.127184
21
0.234125
0
LINE
8
BLACK
6
CONTINUOUS
10
0.127184
20
0.234125
11
0.130197
21
0.234724
0
LINE
8
BLACK
6
CONTINUOUS
10
0.130197
20
0.234724
11
0.190197
21
0.234724
0
LINE
8
BLACK
6
CONTINUOUS
10
0.190197
20
0.234724
11
0.19321
21
0.234125
0
LINE
8
BLACK
6
CONTINUOUS
10
0.365183
20
0.254292
11
0.369779
21
0.25195
0
LINE
8
BLACK
6
CONTINUOUS
10
0.369779
20
0.25195
11
0.373426
21
0.248303
0
LINE
8
BLACK
6
CONTINUOUS
10
0.373426
20
0.248303
11
0.375768
21
0.243707
0
LINE
8
BLACK
6
CONTINUOUS
10
0.375768
20
0.243707
11
0.376575
21
0.238612
0
LINE
8
BLACK
6
CONTINUOUS
10
0.376575
20
0.238612
11
0.376575
21
0.221388
0
LINE
8
BLACK
6
CONTINUOUS
10
0.376575
20
0.221388
11
0.375768
21
0.216293
0
LINE
8
BLACK
6
CONTINUOUS
10
0.375768
20
0.216293
11
0.373426
21
0.211697
0
LINE
8
BLACK
6
CONTINUOUS
10
0.373426
20
0.211697
11
0.369779
21
0.20805
0
LINE
8
BLACK
6
CONTINUOUS
10
0.369779
20
0.20805
11
0.365183
21
0.205708
0
LINE
8
BLACK
6
CONTINUOUS
10
0.365183
20
0.205708
11
0.360089
21
0.204902
0
LINE
8
BLACK
6
CONTINUOUS
10
0.360089
20
0.204902
11
0.339911
21
0.204902
0
LINE
8
BLACK
6
CONTINUOUS
10
0.339911
20
0.204902
11
0.334817
21
0.205708
0
LINE
8
BLACK
6
CONTINUOUS
10
0.334817
20
0.205708
11
0.330221
21
0.20805
0
LINE
8
BLACK
6
CONTINUOUS
10
0.330221
20
0.20805
11
0.326574
21
0.211697
0
LINE
8
BLACK
6
CONTINUOUS
10
0.326574
20
0.211697
11
0.324232
21
0.216293
0
LINE
8
BLACK
6
CONTINUOUS
10
0.324232
20
0.216293
11
0.323425
21
0.221388
0
LINE
8
BLACK
6
CONTINUOUS
10
0.323425
20
0.221388
11
0.323425
21
0.238612
0
LINE
8
BLACK
6
CONTINUOUS
10
0.323425
20
0.238612
11
0.324232
21
0.243707
0
LINE
8
BLACK
6
CONTINUOUS
10
0.324232
20
0.243707
11
0.326574
21
0.248303
0
LINE
8
BLACK
6
CONTINUOUS
10
0.326574
20
0.248303
11
0.330221
21
0.25195
0
LINE
8
BLACK
6
CONTINUOUS
10
0.330221
20
0.25195
11
0.334817
21
0.254292
0
LINE
8
BLACK
6
CONTINUOUS
10
0.334817
20
0.254292
11
0.339911
21
0.255098
0
LINE
8
BLACK
6
CONTINUOUS
10
0.339911
20
0.255098
11
0.360089
21
0.255098
0
LINE
8
BLACK
6
CONTINUOUS
10
0.360089
20
0.255098
11
0.365183
21
0.254292
0
LINE
8
BLACK
6
CONTINUOUS
10
0.300513
20
0.257275
11
0.303068
21
0.255568
0
LINE
8
BLACK
6
CONTINUOUS
10
0.303068
20
0.255568
11
0.304775
21
0.253013
0
LINE
8
BLACK
6
CONTINUOUS
10
0.304775
20
0.253013
11
0.305374
21
0.25
0
LINE
8
BLACK
6
CONTINUOUS
10
0.305374
20
0.25
11
0.305374
21
0.215
0
LINE
8
BLACK
6
CONTINUOUS
10
0.305374
20
0.215
11
0.304775
21
0.211987
0
LINE
8
BLACK
6
CONTINUOUS
10
0.304775
20
0.211987
11
0.303068
21
0.209432
0
LINE
8
BLACK
6
CONTINUOUS
10
0.303068
20
0.209432
11
0.300513
21
0.207725
0
LINE
8
BLACK
6
CONTINUOUS
10
0.300513
20
0.207725
11
0.2975
21
0.207126
0
LINE
8
BLACK
6
CONTINUOUS
10
0.2975
20
0.207126
11
0.2425
21
0.207126
0
LINE
8
BLACK
6
CONTINUOUS
10
0.2425
20
0.207126
11
0.239487
21
0.207725
0
LINE
8
BLACK
6
CONTINUOUS
10
0.239487
20
0.207725
11
0.236932
21
0.209432
0
LINE
8
BLACK
6
CONTINUOUS
10
0.236932
20
0.209432
11
0.235225
21
0.211987
0
LINE
8
BLACK
6
CONTINUOUS
10
0.235225
20
0.211987
11
0.234626
21
0.215
0
LINE
8
BLACK
6
CONTINUOUS
10
0.234626
20
0.215
11
0.234626
21
0.25
0
LINE
8
BLACK
6
CONTINUOUS
10
0.234626
20
0.25
11
0.235225
21
0.253013
0
LINE
8
BLACK
6
CONTINUOUS
10
0.235225
20
0.253013
11
0.236932
21
0.255568
0
LINE
8
BLACK
6
CONTINUOUS
10
0.236932
20
0.255568
11
0.239487
21
0.257275
0
LINE
8
BLACK
6
CONTINUOUS
10
0.239487
20
0.257275
11
0.2425
21
0.257874
0
LINE
8
BLACK
6
CONTINUOUS
10
0.2425
20
0.257874
11
0.2975
21
0.257874
0
LINE
8
BLACK
6
CONTINUOUS
10
0.2975
20
0.257874
11
0.300513
21
0.257275
0
LINE
8
BLACK
6
CONTINUOUS
10
0.472108
20
0.331999
11
0.474662
21
0.330292
0
LINE
8
BLACK
6
CONTINUOUS
10
0.474662
20
0.330292
11
0.474803
21
0.330081
0
LINE
8
BLACK
6
CONTINUOUS
10
0.474803
20
0.330081
11
0.474944
21
0.330292
0
LINE
8
BLACK
6
CONTINUOUS
10
0.474944
20
0.330292
11
0.477499
21
0.331999
0
LINE
8
BLACK
6
CONTINUOUS
10
0.477499
20
0.331999
11
0.480512
21
0.332598
0
LINE
8
BLACK
6
CONTINUOUS
10
0.480512
20
0.332598
11
0.513976
21
0.332598
0
LINE
8
BLACK
6
CONTINUOUS
10
0.513976
20
0.332598
11
0.51699
21
0.331999
0
LINE
8
BLACK
6
CONTINUOUS
10
0.51699
20
0.331999
11
0.519544
21
0.330292
0
LINE
8
BLACK
6
CONTINUOUS
10
0.519544
20
0.330292
11
0.521251
21
0.327738
0
LINE
8
BLACK
6
CONTINUOUS
10
0.521251
20
0.327738
11
0.52185
21
0.324724
0
LINE
8
BLACK
6
CONTINUOUS
10
0.52185
20
0.324724
11
0.52185
21
0.279449
0
LINE
8
BLACK
6
CONTINUOUS
10
0.52185
20
0.279449
11
0.521251
21
0.276436
0
LINE
8
BLACK
6
CONTINUOUS
10
0.521251
20
0.276436
11
0.519544
21
0.273881
0
LINE
8
BLACK
6
CONTINUOUS
10
0.519544
20
0.273881
11
0.519039
21
0.273543
0
LINE
8
BLACK
6
CONTINUOUS
10
0.519039
20
0.273543
11
0.519544
21
0.273206
0
LINE
8
BLACK
6
CONTINUOUS
10
0.519544
20
0.273206
11
0.521251
21
0.270651
0
LINE
8
BLACK
6
CONTINUOUS
10
0.521251
20
0.270651
11
0.52185
21
0.267638
0
LINE
8
BLACK
6
CONTINUOUS
10
0.52185
20
0.267638
11
0.52185
21
0.230236
0
LINE
8
BLACK
6
CONTINUOUS
10
0.52185
20
0.230236
11
0.521251
21
0.227223
0
LINE
8
BLACK
6
CONTINUOUS
10
0.521251
20
0.227223
11
0.519544
21
0.224668
0
LINE
8
BLACK
6
CONTINUOUS
10
0.519544
20
0.224668
11
0.51699
21
0.222962
0
LINE
8
BLACK
6
CONTINUOUS
10
0.51699
20
0.222962
11
0.513976
21
0.222362
0
LINE
8
BLACK
6
CONTINUOUS
10
0.513976
20
0.222362
11
0.480512
21
0.222362
0
LINE
8
BLACK
6
CONTINUOUS
10
0.480512
20
0.222362
11
0.477499
21
0.222962
0
LINE
8
BLACK
6
CONTINUOUS
10
0.477499
20
0.222962
11
0.474944
21
0.224668
0
LINE
8
BLACK
6
CONTINUOUS
10
0.474944
20
0.224668
11
0.474803
21
0.224879
0
LINE
8
BLACK
6
CONTINUOUS
10
0.474803
20
0.224879
11
0.474662
21
0.224668
0
LINE
8
BLACK
6
CONTINUOUS
10
0.474662
20
0.224668
11
0.472108
21
0.222962
0
LINE
8
BLACK
6
CONTINUOUS
10
0.472108
20
0.222962
11
0.469094
21
0.222362
0
LINE
8
BLACK
6
CONTINUOUS
10
0.469094
20
0.222362
11
0.430906
21
0.222362
0
LINE
8
BLACK
6
CONTINUOUS
10
0.430906
20
0.222362
11
0.427892
21
0.222962
0
LINE
8
BLACK
6
CONTINUOUS
10
0.427892
20
0.222962
11
0.425338
21
0.224668
0
LINE
8
BLACK
6
CONTINUOUS
10
0.425338
20
0.224668
11
0.423631
21
0.227223
0
LINE
8
BLACK
6
CONTINUOUS
10
0.423631
20
0.227223
11
0.423031
21
0.230236
0
LINE
8
BLACK
6
CONTINUOUS
10
0.423031
20
0.230236
11
0.423031
21
0.267638
0
LINE
8
BLACK
6
CONTINUOUS
10
0.423031
20
0.267638
11
0.423631
21
0.270651
0
LINE
8
BLACK
6
CONTINUOUS
10
0.423631
20
0.270651
11
0.425338
21
0.273206
0
LINE
8
BLACK
6
CONTINUOUS
10
0.425338
20
0.273206
11
0.425843
21
0.273543
0
LINE
8
BLACK
6
CONTINUOUS
10
0.425843
20
0.273543
11
0.425338
21
0.273881
0
LINE
8
BLACK
6
CONTINUOUS
10
0.425338
20
0.273881
11
0.423631
21
0.276436
0
LINE
8
BLACK
6
CONTINUOUS
10
0.423631
20
0.276436
11
0.423031
21
0.279449
0
LINE
8
BLACK
6
CONTINUOUS
10
0.423031
20
0.279449
11
0.423031
21
0.324724
0
LINE
8
BLACK
6
CONTINUOUS
10
0.423031
20
0.324724
11
0.423631
21
0.327738
0
LINE
8
BLACK
6
CONTINUOUS
10
0.423631
20
0.327738
11
0.425338
21
0.330292
0
LINE
8
BLACK
6
CONTINUOUS
10
0.425338
20
0.330292
11
0.427892
21
0.331999
0
LINE
8
BLACK
6
CONTINUOUS
10
0.427892
20
0.331999
11
0.430906
21
0.332598
0
LINE
8
BLACK
6
CONTINUOUS
10
0.430906
20
0.332598
11
0.469094
21
0.332598
0
LINE
8
BLACK
6
CONTINUOUS
10
0.469094
20
0.332598
11
0.472108
21
0.331999
0
LINE
8
BLACK
6
CONTINUOUS
10
0.474662
20
0.273881
11
0.474157
21
0.273543
0
LINE
8
BLACK
6
CONTINUOUS
10
0.474157
20
0.273543
11
0.474662
21
0.273206
0
LINE
8
BLACK
6
CONTINUOUS
10
0.474662
20
0.273206
11
0.474803
21
0.272995
0
LINE
8
BLACK
6
CONTINUOUS
10
0.474803
20
0.272995
11
0.474944
21
0.273206
0
LINE
8
BLACK
6
CONTINUOUS
10
0.474944
20
0.273206
11
0.47545
21
0.273543
0
LINE
8
BLACK
6
CONTINUOUS
10
0.47545
20
0.273543
11
0.474944
21
0.273881
0
LINE
8
BLACK
6
CONTINUOUS
10
0.474944
20
0.273881
11
0.474803
21
0.274092
0
LINE
8
BLACK
6
CONTINUOUS
10
0.474803
20
0.274092
11
0.474662
21
0.273881
0
LINE
8
BLACK
6
CONTINUOUS
10
0.19321
20
0.334125
11
0.195765
21
0.332418
0
LINE
8
BLACK
6
CONTINUOUS
10
0.195765
20
0.332418
11
0.197471
21
0.329864
0
LINE
8
BLACK
6
CONTINUOUS
10
0.197471
20
0.329864
11
0.198071
21
0.32685
0
LINE
8
BLACK
6
CONTINUOUS
10
0.198071
20
0.32685
11
0.198071
21
0.26685
0
LINE
8
BLACK
6
CONTINUOUS
10
0.198071
20
0.26685
11
0.197471
21
0.263837
0
LINE
8
BLACK
6
CONTINUOUS
10
0.197471
20
0.263837
11
0.195765
21
0.261283
0
LINE
8
BLACK
6
CONTINUOUS
10
0.195765
20
0.261283
11
0.19321
21
0.259576
0
LINE
8
BLACK
6
CONTINUOUS
10
0.19321
20
0.259576
11
0.190197
21
0.258976
0
LINE
8
BLACK
6
CONTINUOUS
10
0.190197
20
0.258976
11
0.130197
21
0.258976
0
LINE
8
BLACK
6
CONTINUOUS
10
0.130197
20
0.258976
11
0.127184
21
0.259576
0
LINE
8
BLACK
6
CONTINUOUS
10
0.127184
20
0.259576
11
0.124629
21
0.261283
0
LINE
8
BLACK
6
CONTINUOUS
10
0.124629
20
0.261283
11
0.122922
21
0.263837
0
LINE
8
BLACK
6
CONTINUOUS
10
0.122922
20
0.263837
11
0.122323
21
0.26685
0
LINE
8
BLACK
6
CONTINUOUS
10
0.122323
20
0.26685
11
0.122323
21
0.32685
0
LINE
8
BLACK
6
CONTINUOUS
10
0.122323
20
0.32685
11
0.122922
21
0.329864
0
LINE
8
BLACK
6
CONTINUOUS
10
0.122922
20
0.329864
11
0.124629
21
0.332418
0
LINE
8
BLACK
6
CONTINUOUS
10
0.124629
20
0.332418
11
0.127184
21
0.334125
0
LINE
8
BLACK
6
CONTINUOUS
10
0.127184
20
0.334125
11
0.130197
21
0.334724
0
LINE
8
BLACK
6
CONTINUOUS
10
0.130197
20
0.334724
11
0.190197
21
0.334724
0
LINE
8
BLACK
6
CONTINUOUS
10
0.190197
20
0.334724
11
0.19321
21
0.334125
0
LINE
8
BLACK
6
CONTINUOUS
10
0.300513
20
0.332275
11
0.303068
21
0.330568
0
LINE
8
BLACK
6
CONTINUOUS
10
0.303068
20
0.330568
11
0.304775
21
0.328013
0
LINE
8
BLACK
6
CONTINUOUS
10
0.304775
20
0.328013
11
0.305374
21
0.325
0
LINE
8
BLACK
6
CONTINUOUS
10
0.305374
20
0.325
11
0.305374
21
0.29
0
LINE
8
BLACK
6
CONTINUOUS
10
0.305374
20
0.29
11
0.304775
21
0.286987
0
LINE
8
BLACK
6
CONTINUOUS
10
0.304775
20
0.286987
11
0.303068
21
0.284432
0
LINE
8
BLACK
6
CONTINUOUS
10
0.303068
20
0.284432
11
0.300513
21
0.282725
0
LINE
8
BLACK
6
CONTINUOUS
10
0.300513
20
0.282725
11
0.2975
21
0.282126
0
LINE
8
BLACK
6
CONTINUOUS
10
0.2975
20
0.282126
11
0.2425
21
0.282126
0
LINE
8
BLACK
6
CONTINUOUS
10
0.2425
20
0.282126
11
0.239487
21
0.282725
0
LINE
8
BLACK
6
CONTINUOUS
10
0.239487
20
0.282725
11
0.236932
21
0.284432
0
LINE
8
BLACK
6
CONTINUOUS
10
0.236932
20
0.284432
11
0.235225
21
0.286987
0
LINE
8
BLACK
6
CONTINUOUS
10
0.235225
20
0.286987
11
0.234626
21
0.29
0
LINE
8
BLACK
6
CONTINUOUS
10
0.234626
20
0.29
11
0.234626
21
0.325
0
LINE
8
BLACK
6
CONTINUOUS
10
0.234626
20
0.325
11
0.235225
21
0.328013
0
LINE
8
BLACK
6
CONTINUOUS
10
0.235225
20
0.328013
11
0.236932
21
0.330568
0
LINE
8
BLACK
6
CONTINUOUS
10
0.236932
20
0.330568
11
0.239487
21
0.332275
0
LINE
8
BLACK
6
CONTINUOUS
10
0.239487
20
0.332275
11
0.2425
21
0.332874
0
LINE
8
BLACK
6
CONTINUOUS
10
0.2425
20
0.332874
11
0.2975
21
0.332874
0
LINE
8
BLACK
6
CONTINUOUS
10
0.2975
20
0.332874
11
0.300513
21
0.332275
0
LINE
8
BLACK
6
CONTINUOUS
10
0.359888
20
0.452494
11
0.369416
21
0.450797
0
LINE
8
BLACK
6
CONTINUOUS
10
0.369416
20
0.450797
11
0.378539
21
0.447566
0
LINE
8
BLACK
6
CONTINUOUS
10
0.378539
20
0.447566
11
0.387011
21
0.442889
0
LINE
8
BLACK
6
CONTINUOUS
10
0.387011
20
0.442889
11
0.394606
21
0.436891
0
LINE
8
BLACK
6
CONTINUOUS
10
0.394606
20
0.436891
11
0.401119
21
0.429733
0
LINE
8
BLACK
6
CONTINUOUS
10
0.401119
20
0.429733
11
0.406376
21
0.421607
0
LINE
8
BLACK
6
CONTINUOUS
10
0.406376
20
0.421607
11
0.410235
21
0.412732
0
LINE
8
BLACK
6
CONTINUOUS
10
0.410235
20
0.412732
11
0.412593
21
0.403346
0
LINE
8
BLACK
6
CONTINUOUS
10
0.412593
20
0.403346
11
0.413386
21
0.393701
0
LINE
8
BLACK
6
CONTINUOUS
10
0.413386
20
0.393701
11
0.413315
21
0.390816
0
LINE
8
BLACK
6
CONTINUOUS
10
0.413315
20
0.390816
11
0.412052
21
0.381221
0
LINE
8
BLACK
6
CONTINUOUS
10
0.412052
20
0.381221
11
0.409239
21
0.371961
0
LINE
8
BLACK
6
CONTINUOUS
10
0.409239
20
0.371961
11
0.404951
21
0.363285
0
LINE
8
BLACK
6
CONTINUOUS
10
0.404951
20
0.363285
11
0.399303
21
0.355426
0
LINE
8
BLACK
6
CONTINUOUS
10
0.399303
20
0.355426
11
0.392448
21
0.348595
0
LINE
8
BLACK
6
CONTINUOUS
10
0.392448
20
0.348595
11
0.384569
21
0.342975
0
LINE
8
BLACK
6
CONTINUOUS
10
0.384569
20
0.342975
11
0.375879
21
0.338717
0
LINE
8
BLACK
6
CONTINUOUS
10
0.375879
20
0.338717
11
0.366609
21
0.335936
0
LINE
8
BLACK
6
CONTINUOUS
10
0.366609
20
0.335936
11
0.35701
21
0.334706
0
LINE
8
BLACK
6
CONTINUOUS
10
0.35701
20
0.334706
11
0.347338
21
0.335061
0
LINE
8
BLACK
6
CONTINUOUS
10
0.347338
20
0.335061
11
0.337855
21
0.336991
0
LINE
8
BLACK
6
CONTINUOUS
10
0.337855
20
0.336991
11
0.328814
21
0.340443
0
LINE
8
BLACK
6
CONTINUOUS
10
0.328814
20
0.340443
11
0.320458
21
0.345326
0
LINE
8
BLACK
6
CONTINUOUS
10
0.320458
20
0.345326
11
0.313012
21
0.351508
0
LINE
8
BLACK
6
CONTINUOUS
10
0.313012
20
0.351508
11
0.306676
21
0.358822
0
LINE
8
BLACK
6
CONTINUOUS
10
0.306676
20
0.358822
11
0.301619
21
0.367074
0
LINE
8
BLACK
6
CONTINUOUS
10
0.301619
20
0.367074
11
0.297978
21
0.376041
0
LINE
8
BLACK
6
CONTINUOUS
10
0.297978
20
0.376041
11
0.29585
21
0.385482
0
LINE
8
BLACK
6
CONTINUOUS
10
0.29585
20
0.385482
11
0.295293
21
0.395144
0
LINE
8
BLACK
6
CONTINUOUS
10
0.295293
20
0.395144
11
0.296322
21
0.404767
0
LINE
8
BLACK
6
CONTINUOUS
10
0.296322
20
0.404767
11
0.298908
21
0.414092
0
LINE
8
BLACK
6
CONTINUOUS
10
0.298908
20
0.414092
11
0.302983
21
0.422871
0
LINE
8
BLACK
6
CONTINUOUS
10
0.302983
20
0.422871
11
0.308436
21
0.430865
0
LINE
8
BLACK
6
CONTINUOUS
10
0.308436
20
0.430865
11
0.315122
21
0.437862
0
LINE
8
BLACK
6
CONTINUOUS
10
0.315122
20
0.437862
11
0.322862
21
0.443673
0
LINE
8
BLACK
6
CONTINUOUS
10
0.322862
20
0.443673
11
0.331446
21
0.448142
0
LINE
8
BLACK
6
CONTINUOUS
10
0.331446
20
0.448142
11
0.340645
21
0.451148
0
LINE
8
BLACK
6
CONTINUOUS
10
0.340645
20
0.451148
11
0.350211
21
0.452612
0
LINE
8
BLACK
6
CONTINUOUS
10
0.350211
20
0.452612
11
0.359888
21
0.452494
  0
ENDSEC
  0
EOF
