  0
SECTION
  2
HEADER
  9
$ANGBASE
  50
0.0
  9
$ANGDIR
  70
1
  9
$MEASUREMENT
  70
0
  0
ENDSEC
  0
SECTION
  2
TABLES
  0
TABLE
  2
LTYPE
  70
4
  0
LTYPE
  5
40F
  2
CONTINUOUS
  70
0
  3
Solid line
  72
65
  73
0
  40
0.0
  0
LTYPE
  5
410
  2
DASHDOT
 70
0
  3
Dash Dot ____ _ ____ _
 72
65
 73
4
 40
2.0
 49
1.25
 49
-0.25
 49
0.25
 49
-0.25
  0
LTYPE
  5
411
  2
DASHED
 70
0
  3
Dashed __ __ __ __ __
 72
65
 73
2
 40
0.75
 49
0.5
 49
-0.25
  0
LTYPE
  5
43B
  2
DOTTED
 70
0
  3
Dotted .  .  .  .
 72
65
 73
2
 40
0.2
 49
0.0
 49
-0.2
  0
ENDTAB
  0
TABLE
  2
STYLE
  70
4
  0
STYLE
  2
KICAD
  70
0
  40
0
  41
1
  42
1
  50
0
  71
0
  3
isocp.shx
  0
STYLE
  2
KICADB
  70
0
  40
0
  41
1
  42
1
  50
0
  71
0
  3
isocp.shx
  0
STYLE
  2
KICADI
  70
0
  40
0
  41
1
  42
1
  50
15
  71
0
  3
isocp.shx
  0
STYLE
  2
KICADBI
  70
0
  40
0
  41
1
  42
1
  50
15
  71
0
  3
isocp.shx
  0
ENDTAB
  0
TABLE
  2
LAYER
  70
1
  0
LAYER
  2
BLACK
  70
0
  62
7
  6
CONTINUOUS
  0
ENDTAB
  0
ENDSEC
  0
SECTION
  2
ENTITIES
0
LINE
8
BLACK
6
CONTINUOUS
10
0.0175413
20
0.041268
11
0.0182321
21
0.03937
0
LINE
8
BLACK
6
CONTINUOUS
10
0.0182321
20
0.03937
11
0.0182321
21
0.0310742
0
LINE
8
BLACK
6
CONTINUOUS
10
0.0182321
20
0.0310742
11
0.0664604
21
0.0310742
0
LINE
8
BLACK
6
CONTINUOUS
10
0.0664604
20
0.0310742
11
0.0674704
21
0.0308961
0
LINE
8
BLACK
6
CONTINUOUS
10
0.0674704
20
0.0308961
11
0.0690176
21
0.0295978
0
LINE
8
BLACK
6
CONTINUOUS
10
0.0690176
20
0.0295978
11
0.0693683
21
0.0276087
0
LINE
8
BLACK
6
CONTINUOUS
10
0.0693683
20
0.0276087
11
0.0683584
21
0.0258595
0
LINE
8
BLACK
6
CONTINUOUS
10
0.0683584
20
0.0258595
11
0.0664604
21
0.0251687
0
LINE
8
BLACK
6
CONTINUOUS
10
0.0664604
20
0.0251687
11
0.0182321
21
0.0251687
0
LINE
8
BLACK
6
CONTINUOUS
10
0.0182321
20
0.0251687
11
0.0182321
21
0.0168729
0
LINE
8
BLACK
6
CONTINUOUS
10
0.0182321
20
0.0168729
11
0.018054
21
0.015863
0
LINE
8
BLACK
6
CONTINUOUS
10
0.018054
20
0.015863
11
0.0167557
21
0.0143157
0
LINE
8
BLACK
6
CONTINUOUS
10
0.0167557
20
0.0143157
11
0.0147666
21
0.013965
0
LINE
8
BLACK
6
CONTINUOUS
10
0.0147666
20
0.013965
11
0.0130174
21
0.0149749
0
LINE
8
BLACK
6
CONTINUOUS
10
0.0130174
20
0.0149749
11
0.0123266
21
0.0168729
0
LINE
8
BLACK
6
CONTINUOUS
10
0.0123266
20
0.0168729
11
0.0123266
21
0.03937
0
LINE
8
BLACK
6
CONTINUOUS
10
0.0123266
20
0.03937
11
0.0125046
21
0.04038
0
LINE
8
BLACK
6
CONTINUOUS
10
0.0125046
20
0.04038
11
0.013803
21
0.0419272
0
LINE
8
BLACK
6
CONTINUOUS
10
0.013803
20
0.0419272
11
0.0157921
21
0.042278
0
LINE
8
BLACK
6
CONTINUOUS
10
0.0157921
20
0.042278
11
0.0175413
21
0.041268
0
LINE
8
BLACK
6
CONTINUOUS
10
0.0175413
20
0.0731391
11
0.0182321
21
0.0712411
0
LINE
8
BLACK
6
CONTINUOUS
10
0.0182321
20
0.0712411
11
0.0182321
21
0.0554462
0
LINE
8
BLACK
6
CONTINUOUS
10
0.0182321
20
0.0554462
11
0.0366985
21
0.0554462
0
LINE
8
BLACK
6
CONTINUOUS
10
0.0366985
20
0.0554462
11
0.0366985
21
0.0656168
0
LINE
8
BLACK
6
CONTINUOUS
10
0.0366985
20
0.0656168
11
0.0368766
21
0.0666267
0
LINE
8
BLACK
6
CONTINUOUS
10
0.0368766
20
0.0666267
11
0.0381749
21
0.0681739
0
LINE
8
BLACK
6
CONTINUOUS
10
0.0381749
20
0.0681739
11
0.040164
21
0.0685247
0
LINE
8
BLACK
6
CONTINUOUS
10
0.040164
20
0.0685247
11
0.0419132
21
0.0675148
0
LINE
8
BLACK
6
CONTINUOUS
10
0.0419132
20
0.0675148
11
0.042604
21
0.0656168
0
LINE
8
BLACK
6
CONTINUOUS
10
0.042604
20
0.0656168
11
0.042604
21
0.0554462
0
LINE
8
BLACK
6
CONTINUOUS
10
0.042604
20
0.0554462
11
0.0664604
21
0.0554462
0
LINE
8
BLACK
6
CONTINUOUS
10
0.0664604
20
0.0554462
11
0.0674704
21
0.0552681
0
LINE
8
BLACK
6
CONTINUOUS
10
0.0674704
20
0.0552681
11
0.0690176
21
0.0539698
0
LINE
8
BLACK
6
CONTINUOUS
10
0.0690176
20
0.0539698
11
0.0693683
21
0.0519807
0
LINE
8
BLACK
6
CONTINUOUS
10
0.0693683
20
0.0519807
11
0.0683584
21
0.0502315
0
LINE
8
BLACK
6
CONTINUOUS
10
0.0683584
20
0.0502315
11
0.0664604
21
0.0495407
0
LINE
8
BLACK
6
CONTINUOUS
10
0.0664604
20
0.0495407
11
0.0152793
21
0.0495407
0
LINE
8
BLACK
6
CONTINUOUS
10
0.0152793
20
0.0495407
11
0.0148958
21
0.0496083
0
LINE
8
BLACK
6
CONTINUOUS
10
0.0148958
20
0.0496083
11
0.0147666
21
0.0495855
0
LINE
8
BLACK
6
CONTINUOUS
10
0.0147666
20
0.0495855
11
0.014653
21
0.0496511
0
LINE
8
BLACK
6
CONTINUOUS
10
0.014653
20
0.0496511
11
0.0142694
21
0.0497187
0
LINE
8
BLACK
6
CONTINUOUS
10
0.0142694
20
0.0497187
11
0.0136817
21
0.0502119
0
LINE
8
BLACK
6
CONTINUOUS
10
0.0136817
20
0.0502119
11
0.0130174
21
0.0505954
0
LINE
8
BLACK
6
CONTINUOUS
10
0.0130174
20
0.0505954
11
0.0129263
21
0.0508458
0
LINE
8
BLACK
6
CONTINUOUS
10
0.0129263
20
0.0508458
11
0.0127222
21
0.051017
0
LINE
8
BLACK
6
CONTINUOUS
10
0.0127222
20
0.051017
11
0.0125889
21
0.0517726
0
LINE
8
BLACK
6
CONTINUOUS
10
0.0125889
20
0.0517726
11
0.0123266
21
0.0524934
0
LINE
8
BLACK
6
CONTINUOUS
10
0.0123266
20
0.0524934
11
0.0123266
21
0.0712411
0
LINE
8
BLACK
6
CONTINUOUS
10
0.0123266
20
0.0712411
11
0.0125046
21
0.072251
0
LINE
8
BLACK
6
CONTINUOUS
10
0.0125046
20
0.072251
11
0.013803
21
0.0737982
0
LINE
8
BLACK
6
CONTINUOUS
10
0.013803
20
0.0737982
11
0.0157921
21
0.074149
0
LINE
8
BLACK
6
CONTINUOUS
10
0.0157921
20
0.074149
11
0.0175413
21
0.0731391
0
LINE
8
BLACK
6
CONTINUOUS
10
0.0333496
20
0.111511
11
0.0333713
21
0.111493
0
LINE
8
BLACK
6
CONTINUOUS
10
0.0333713
20
0.111493
11
0.0333996
21
0.111492
0
LINE
8
BLACK
6
CONTINUOUS
10
0.0333996
20
0.111492
11
0.0382741
21
0.109618
0
LINE
8
BLACK
6
CONTINUOUS
10
0.0382741
20
0.109618
11
0.0389093
21
0.109235
0
LINE
8
BLACK
6
CONTINUOUS
10
0.0389093
20
0.109235
11
0.0390144
21
0.109202
0
LINE
8
BLACK
6
CONTINUOUS
10
0.0390144
20
0.109202
11
0.0414516
21
0.107327
0
LINE
8
BLACK
6
CONTINUOUS
10
0.0414516
20
0.107327
11
0.0421046
21
0.106613
0
LINE
8
BLACK
6
CONTINUOUS
10
0.0421046
20
0.106613
11
0.042127
21
0.106596
0
LINE
8
BLACK
6
CONTINUOUS
10
0.042127
20
0.106596
11
0.0445642
21
0.102847
0
LINE
8
BLACK
6
CONTINUOUS
10
0.0445642
20
0.102847
11
0.0449653
21
0.101903
0
LINE
8
BLACK
6
CONTINUOUS
10
0.0449653
20
0.101903
11
0.0449235
21
0.101561
0
LINE
8
BLACK
6
CONTINUOUS
10
0.0449235
20
0.101561
11
0.0450412
21
0.101237
0
LINE
8
BLACK
6
CONTINUOUS
10
0.0450412
20
0.101237
11
0.0450412
21
0.089192
0
LINE
8
BLACK
6
CONTINUOUS
10
0.0450412
20
0.089192
11
0.0664604
21
0.089192
0
LINE
8
BLACK
6
CONTINUOUS
10
0.0664604
20
0.089192
11
0.0674704
21
0.0890139
0
LINE
8
BLACK
6
CONTINUOUS
10
0.0674704
20
0.0890139
11
0.0690176
21
0.0877156
0
LINE
8
BLACK
6
CONTINUOUS
10
0.0690176
20
0.0877156
11
0.0693683
21
0.0857265
0
LINE
8
BLACK
6
CONTINUOUS
10
0.0693683
20
0.0857265
11
0.0683584
21
0.0839773
0
LINE
8
BLACK
6
CONTINUOUS
10
0.0683584
20
0.0839773
11
0.0664604
21
0.0832865
0
LINE
8
BLACK
6
CONTINUOUS
10
0.0664604
20
0.0832865
11
0.0152793
21
0.0832865
0
LINE
8
BLACK
6
CONTINUOUS
10
0.0152793
20
0.0832865
11
0.0148958
21
0.0833541
0
LINE
8
BLACK
6
CONTINUOUS
10
0.0148958
20
0.0833541
11
0.0147666
21
0.0833313
0
LINE
8
BLACK
6
CONTINUOUS
10
0.0147666
20
0.0833313
11
0.014653
21
0.0833969
0
LINE
8
BLACK
6
CONTINUOUS
10
0.014653
20
0.0833969
11
0.0142694
21
0.0834645
0
LINE
8
BLACK
6
CONTINUOUS
10
0.0142694
20
0.0834645
11
0.0136817
21
0.0839577
0
LINE
8
BLACK
6
CONTINUOUS
10
0.0136817
20
0.0839577
11
0.0130174
21
0.0843412
0
LINE
8
BLACK
6
CONTINUOUS
10
0.0130174
20
0.0843412
11
0.0129263
21
0.0845916
0
LINE
8
BLACK
6
CONTINUOUS
10
0.0129263
20
0.0845916
11
0.0127222
21
0.0847628
0
LINE
8
BLACK
6
CONTINUOUS
10
0.0127222
20
0.0847628
11
0.0125889
21
0.0855184
0
LINE
8
BLACK
6
CONTINUOUS
10
0.0125889
20
0.0855184
11
0.0123266
21
0.0862392
0
LINE
8
BLACK
6
CONTINUOUS
10
0.0123266
20
0.0862392
11
0.0123266
21
0.101237
0
LINE
8
BLACK
6
CONTINUOUS
10
0.0123266
20
0.101237
11
0.0125046
21
0.102247
0
LINE
8
BLACK
6
CONTINUOUS
10
0.0125046
20
0.102247
11
0.012726
21
0.102511
0
LINE
8
BLACK
6
CONTINUOUS
10
0.012726
20
0.102511
11
0.0128036
21
0.102847
0
LINE
8
BLACK
6
CONTINUOUS
10
0.0128036
20
0.102847
11
0.0152408
21
0.106596
0
LINE
8
BLACK
6
CONTINUOUS
10
0.0152408
20
0.106596
11
0.0159012
21
0.107304
0
LINE
8
BLACK
6
CONTINUOUS
10
0.0159012
20
0.107304
11
0.0159162
21
0.107327
0
LINE
8
BLACK
6
CONTINUOUS
10
0.0159162
20
0.107327
11
0.0183534
21
0.109202
0
LINE
8
BLACK
6
CONTINUOUS
10
0.0183534
20
0.109202
11
0.0190106
21
0.109545
0
LINE
8
BLACK
6
CONTINUOUS
10
0.0190106
20
0.109545
11
0.0190937
21
0.109618
0
LINE
8
BLACK
6
CONTINUOUS
10
0.0190937
20
0.109618
11
0.0239681
21
0.111492
0
LINE
8
BLACK
6
CONTINUOUS
10
0.0239681
20
0.111492
11
0.0249747
21
0.111689
0
LINE
8
BLACK
6
CONTINUOUS
10
0.0249747
20
0.111689
11
0.0250015
21
0.111679
0
LINE
8
BLACK
6
CONTINUOUS
10
0.0250015
20
0.111679
11
0.0250281
21
0.111689
0
LINE
8
BLACK
6
CONTINUOUS
10
0.0250281
20
0.111689
11
0.0323397
21
0.111689
0
LINE
8
BLACK
6
CONTINUOUS
10
0.0323397
20
0.111689
11
0.0333496
21
0.111511
0
LINE
8
BLACK
6
CONTINUOUS
10
0.0255764
20
0.105784
11
0.021614
21
0.10426
0
LINE
8
BLACK
6
CONTINUOUS
10
0.021614
20
0.10426
11
0.0199171
21
0.102954
0
LINE
8
BLACK
6
CONTINUOUS
10
0.0199171
20
0.102954
11
0.0182321
21
0.100362
0
LINE
8
BLACK
6
CONTINUOUS
10
0.0182321
20
0.100362
11
0.0182321
21
0.089192
0
LINE
8
BLACK
6
CONTINUOUS
10
0.0182321
20
0.089192
11
0.0391357
21
0.089192
0
LINE
8
BLACK
6
CONTINUOUS
10
0.0391357
20
0.089192
11
0.0391357
21
0.100362
0
LINE
8
BLACK
6
CONTINUOUS
10
0.0391357
20
0.100362
11
0.0374507
21
0.102954
0
LINE
8
BLACK
6
CONTINUOUS
10
0.0374507
20
0.102954
11
0.0357537
21
0.10426
0
LINE
8
BLACK
6
CONTINUOUS
10
0.0357537
20
0.10426
11
0.0317914
21
0.105784
0
LINE
8
BLACK
6
CONTINUOUS
10
0.0317914
20
0.105784
11
0.0255764
21
0.105784
0
LINE
8
BLACK
6
CONTINUOUS
10
0.0333496
20
0.150881
11
0.0333713
21
0.150863
0
LINE
8
BLACK
6
CONTINUOUS
10
0.0333713
20
0.150863
11
0.0333996
21
0.150862
0
LINE
8
BLACK
6
CONTINUOUS
10
0.0333996
20
0.150862
11
0.0382741
21
0.148988
0
LINE
8
BLACK
6
CONTINUOUS
10
0.0382741
20
0.148988
11
0.0389093
21
0.148605
0
LINE
8
BLACK
6
CONTINUOUS
10
0.0389093
20
0.148605
11
0.0390144
21
0.148572
0
LINE
8
BLACK
6
CONTINUOUS
10
0.0390144
20
0.148572
11
0.0414516
21
0.146697
0
LINE
8
BLACK
6
CONTINUOUS
10
0.0414516
20
0.146697
11
0.0421046
21
0.145983
0
LINE
8
BLACK
6
CONTINUOUS
10
0.0421046
20
0.145983
11
0.042127
21
0.145966
0
LINE
8
BLACK
6
CONTINUOUS
10
0.042127
20
0.145966
11
0.0445642
21
0.142217
0
LINE
8
BLACK
6
CONTINUOUS
10
0.0445642
20
0.142217
11
0.0449653
21
0.141273
0
LINE
8
BLACK
6
CONTINUOUS
10
0.0449653
20
0.141273
11
0.0449235
21
0.140931
0
LINE
8
BLACK
6
CONTINUOUS
10
0.0449235
20
0.140931
11
0.0450412
21
0.140607
0
LINE
8
BLACK
6
CONTINUOUS
10
0.0450412
20
0.140607
11
0.0450412
21
0.139927
0
LINE
8
BLACK
6
CONTINUOUS
10
0.0450412
20
0.139927
11
0.0650606
21
0.150706
0
LINE
8
BLACK
6
CONTINUOUS
10
0.0650606
20
0.150706
11
0.0660342
21
0.151028
0
LINE
8
BLACK
6
CONTINUOUS
10
0.0660342
20
0.151028
11
0.068012
21
0.150619
0
LINE
8
BLACK
6
CONTINUOUS
10
0.068012
20
0.150619
11
0.0692639
21
0.149034
0
LINE
8
BLACK
6
CONTINUOUS
10
0.0692639
20
0.149034
11
0.0692039
21
0.147015
0
LINE
8
BLACK
6
CONTINUOUS
10
0.0692039
20
0.147015
11
0.0678603
21
0.145507
0
LINE
8
BLACK
6
CONTINUOUS
10
0.0678603
20
0.145507
11
0.0450412
21
0.133219
0
LINE
8
BLACK
6
CONTINUOUS
10
0.0450412
20
0.133219
11
0.0450412
21
0.128562
0
LINE
8
BLACK
6
CONTINUOUS
10
0.0450412
20
0.128562
11
0.0664604
21
0.128562
0
LINE
8
BLACK
6
CONTINUOUS
10
0.0664604
20
0.128562
11
0.0674704
21
0.128384
0
LINE
8
BLACK
6
CONTINUOUS
10
0.0674704
20
0.128384
11
0.0690176
21
0.127086
0
LINE
8
BLACK
6
CONTINUOUS
10
0.0690176
20
0.127086
11
0.0693683
21
0.125097
0
LINE
8
BLACK
6
CONTINUOUS
10
0.0693683
20
0.125097
11
0.0683584
21
0.123347
0
LINE
8
BLACK
6
CONTINUOUS
10
0.0683584
20
0.123347
11
0.0664604
21
0.122657
0
LINE
8
BLACK
6
CONTINUOUS
10
0.0664604
20
0.122657
11
0.0152793
21
0.122657
0
LINE
8
BLACK
6
CONTINUOUS
10
0.0152793
20
0.122657
11
0.0148958
21
0.122724
0
LINE
8
BLACK
6
CONTINUOUS
10
0.0148958
20
0.122724
11
0.0147666
21
0.122701
0
LINE
8
BLACK
6
CONTINUOUS
10
0.0147666
20
0.122701
11
0.014653
21
0.122767
0
LINE
8
BLACK
6
CONTINUOUS
10
0.014653
20
0.122767
11
0.0142694
21
0.122835
0
LINE
8
BLACK
6
CONTINUOUS
10
0.0142694
20
0.122835
11
0.0136817
21
0.123328
0
LINE
8
BLACK
6
CONTINUOUS
10
0.0136817
20
0.123328
11
0.0130174
21
0.123711
0
LINE
8
BLACK
6
CONTINUOUS
10
0.0130174
20
0.123711
11
0.0129263
21
0.123962
0
LINE
8
BLACK
6
CONTINUOUS
10
0.0129263
20
0.123962
11
0.0127222
21
0.124133
0
LINE
8
BLACK
6
CONTINUOUS
10
0.0127222
20
0.124133
11
0.0125889
21
0.124888
0
LINE
8
BLACK
6
CONTINUOUS
10
0.0125889
20
0.124888
11
0.0123266
21
0.125609
0
LINE
8
BLACK
6
CONTINUOUS
10
0.0123266
20
0.125609
11
0.0123266
21
0.140607
0
LINE
8
BLACK
6
CONTINUOUS
10
0.0123266
20
0.140607
11
0.0125046
21
0.141617
0
LINE
8
BLACK
6
CONTINUOUS
10
0.0125046
20
0.141617
11
0.012726
21
0.141881
0
LINE
8
BLACK
6
CONTINUOUS
10
0.012726
20
0.141881
11
0.0128036
21
0.142217
0
LINE
8
BLACK
6
CONTINUOUS
10
0.0128036
20
0.142217
11
0.0152408
21
0.145966
0
LINE
8
BLACK
6
CONTINUOUS
10
0.0152408
20
0.145966
11
0.0159012
21
0.146674
0
LINE
8
BLACK
6
CONTINUOUS
10
0.0159012
20
0.146674
11
0.0159162
21
0.146697
0
LINE
8
BLACK
6
CONTINUOUS
10
0.0159162
20
0.146697
11
0.0183534
21
0.148572
0
LINE
8
BLACK
6
CONTINUOUS
10
0.0183534
20
0.148572
11
0.0190106
21
0.148915
0
LINE
8
BLACK
6
CONTINUOUS
10
0.0190106
20
0.148915
11
0.0190937
21
0.148988
0
LINE
8
BLACK
6
CONTINUOUS
10
0.0190937
20
0.148988
11
0.0239681
21
0.150862
0
LINE
8
BLACK
6
CONTINUOUS
10
0.0239681
20
0.150862
11
0.0249747
21
0.151059
0
LINE
8
BLACK
6
CONTINUOUS
10
0.0249747
20
0.151059
11
0.0250015
21
0.15105
0
LINE
8
BLACK
6
CONTINUOUS
10
0.0250015
20
0.15105
11
0.0250281
21
0.151059
0
LINE
8
BLACK
6
CONTINUOUS
10
0.0250281
20
0.151059
11
0.0323397
21
0.151059
0
LINE
8
BLACK
6
CONTINUOUS
10
0.0323397
20
0.151059
11
0.0333496
21
0.150881
0
LINE
8
BLACK
6
CONTINUOUS
10
0.0255764
20
0.145154
11
0.021614
21
0.14363
0
LINE
8
BLACK
6
CONTINUOUS
10
0.021614
20
0.14363
11
0.0199171
21
0.142324
0
LINE
8
BLACK
6
CONTINUOUS
10
0.0199171
20
0.142324
11
0.0182321
21
0.139732
0
LINE
8
BLACK
6
CONTINUOUS
10
0.0182321
20
0.139732
11
0.0182321
21
0.128562
0
LINE
8
BLACK
6
CONTINUOUS
10
0.0182321
20
0.128562
11
0.0391357
21
0.128562
0
LINE
8
BLACK
6
CONTINUOUS
10
0.0391357
20
0.128562
11
0.0391357
21
0.139732
0
LINE
8
BLACK
6
CONTINUOUS
10
0.0391357
20
0.139732
11
0.0374507
21
0.142324
0
LINE
8
BLACK
6
CONTINUOUS
10
0.0374507
20
0.142324
11
0.0357537
21
0.14363
0
LINE
8
BLACK
6
CONTINUOUS
10
0.0357537
20
0.14363
11
0.0317914
21
0.145154
0
LINE
8
BLACK
6
CONTINUOUS
10
0.0317914
20
0.145154
11
0.0255764
21
0.145154
0
LINE
8
BLACK
6
CONTINUOUS
10
0.0498235
20
0.192229
11
0.0499577
21
0.192251
0
LINE
8
BLACK
6
CONTINUOUS
10
0.0499577
20
0.192251
11
0.0597064
21
0.190376
0
LINE
8
BLACK
6
CONTINUOUS
10
0.0597064
20
0.190376
11
0.0606646
21
0.190011
0
LINE
8
BLACK
6
CONTINUOUS
10
0.0606646
20
0.190011
11
0.0607779
21
0.189871
0
LINE
8
BLACK
6
CONTINUOUS
10
0.0607779
20
0.189871
11
0.0609491
21
0.189817
0
LINE
8
BLACK
6
CONTINUOUS
10
0.0609491
20
0.189817
11
0.0658235
21
0.186067
0
LINE
8
BLACK
6
CONTINUOUS
10
0.0658235
20
0.186067
11
0.0664767
21
0.185353
0
LINE
8
BLACK
6
CONTINUOUS
10
0.0664767
20
0.185353
11
0.0664989
21
0.185336
0
LINE
8
BLACK
6
CONTINUOUS
10
0.0664989
20
0.185336
11
0.0689361
21
0.181587
0
LINE
8
BLACK
6
CONTINUOUS
10
0.0689361
20
0.181587
11
0.0693372
21
0.180643
0
LINE
8
BLACK
6
CONTINUOUS
10
0.0693372
20
0.180643
11
0.0692954
21
0.180301
0
LINE
8
BLACK
6
CONTINUOUS
10
0.0692954
20
0.180301
11
0.0694132
21
0.179977
0
LINE
8
BLACK
6
CONTINUOUS
10
0.0694132
20
0.179977
11
0.0694132
21
0.172478
0
LINE
8
BLACK
6
CONTINUOUS
10
0.0694132
20
0.172478
11
0.0692351
21
0.171469
0
LINE
8
BLACK
6
CONTINUOUS
10
0.0692351
20
0.171469
11
0.0690137
21
0.171205
0
LINE
8
BLACK
6
CONTINUOUS
10
0.0690137
20
0.171205
11
0.0689361
21
0.170869
0
LINE
8
BLACK
6
CONTINUOUS
10
0.0689361
20
0.170869
11
0.0664989
21
0.16712
0
LINE
8
BLACK
6
CONTINUOUS
10
0.0664989
20
0.16712
11
0.0658385
21
0.166412
0
LINE
8
BLACK
6
CONTINUOUS
10
0.0658385
20
0.166412
11
0.0658235
21
0.166388
0
LINE
8
BLACK
6
CONTINUOUS
10
0.0658235
20
0.166388
11
0.0609491
21
0.162639
0
LINE
8
BLACK
6
CONTINUOUS
10
0.0609491
20
0.162639
11
0.0600401
21
0.162164
0
LINE
8
BLACK
6
CONTINUOUS
10
0.0600401
20
0.162164
11
0.0598606
21
0.162172
0
LINE
8
BLACK
6
CONTINUOUS
10
0.0598606
20
0.162172
11
0.0597064
21
0.16208
0
LINE
8
BLACK
6
CONTINUOUS
10
0.0597064
20
0.16208
11
0.0499577
21
0.160205
0
LINE
8
BLACK
6
CONTINUOUS
10
0.0499577
20
0.160205
11
0.0495278
21
0.160198
0
LINE
8
BLACK
6
CONTINUOUS
10
0.0495278
20
0.160198
11
0.0494
21
0.160152
0
LINE
8
BLACK
6
CONTINUOUS
10
0.0494
20
0.160152
11
0.0323397
21
0.160152
0
LINE
8
BLACK
6
CONTINUOUS
10
0.0323397
20
0.160152
11
0.0319162
21
0.160227
0
LINE
8
BLACK
6
CONTINUOUS
10
0.0319162
20
0.160227
11
0.031782
21
0.160205
0
LINE
8
BLACK
6
CONTINUOUS
10
0.031782
20
0.160205
11
0.0220333
21
0.16208
0
LINE
8
BLACK
6
CONTINUOUS
10
0.0220333
20
0.16208
11
0.0210752
21
0.162445
0
LINE
8
BLACK
6
CONTINUOUS
10
0.0210752
20
0.162445
11
0.0209618
21
0.162585
0
LINE
8
BLACK
6
CONTINUOUS
10
0.0209618
20
0.162585
11
0.0207906
21
0.162639
0
LINE
8
BLACK
6
CONTINUOUS
10
0.0207906
20
0.162639
11
0.0159162
21
0.166388
0
LINE
8
BLACK
6
CONTINUOUS
10
0.0159162
20
0.166388
11
0.0152632
21
0.167103
0
LINE
8
BLACK
6
CONTINUOUS
10
0.0152632
20
0.167103
11
0.0152408
21
0.16712
0
LINE
8
BLACK
6
CONTINUOUS
10
0.0152408
20
0.16712
11
0.0128036
21
0.170869
0
LINE
8
BLACK
6
CONTINUOUS
10
0.0128036
20
0.170869
11
0.0124025
21
0.171813
0
LINE
8
BLACK
6
CONTINUOUS
10
0.0124025
20
0.171813
11
0.0124443
21
0.172155
0
LINE
8
BLACK
6
CONTINUOUS
10
0.0124443
20
0.172155
11
0.0123266
21
0.172478
0
LINE
8
BLACK
6
CONTINUOUS
10
0.0123266
20
0.172478
11
0.0123266
21
0.179977
0
LINE
8
BLACK
6
CONTINUOUS
10
0.0123266
20
0.179977
11
0.0125046
21
0.180987
0
LINE
8
BLACK
6
CONTINUOUS
10
0.0125046
20
0.180987
11
0.012726
21
0.181251
0
LINE
8
BLACK
6
CONTINUOUS
10
0.012726
20
0.181251
11
0.0128036
21
0.181587
0
LINE
8
BLACK
6
CONTINUOUS
10
0.0128036
20
0.181587
11
0.0152408
21
0.185336
0
LINE
8
BLACK
6
CONTINUOUS
10
0.0152408
20
0.185336
11
0.0159013
21
0.186044
0
LINE
8
BLACK
6
CONTINUOUS
10
0.0159013
20
0.186044
11
0.0159162
21
0.186067
0
LINE
8
BLACK
6
CONTINUOUS
10
0.0159162
20
0.186067
11
0.0207906
21
0.189817
0
LINE
8
BLACK
6
CONTINUOUS
10
0.0207906
20
0.189817
11
0.0216996
21
0.190292
0
LINE
8
BLACK
6
CONTINUOUS
10
0.0216996
20
0.190292
11
0.0218791
21
0.190284
0
LINE
8
BLACK
6
CONTINUOUS
10
0.0218791
20
0.190284
11
0.0220333
21
0.190376
0
LINE
8
BLACK
6
CONTINUOUS
10
0.0220333
20
0.190376
11
0.031782
21
0.192251
0
LINE
8
BLACK
6
CONTINUOUS
10
0.031782
20
0.192251
11
0.0322119
21
0.192258
0
LINE
8
BLACK
6
CONTINUOUS
10
0.0322119
20
0.192258
11
0.0323397
21
0.192304
0
LINE
8
BLACK
6
CONTINUOUS
10
0.0323397
20
0.192304
11
0.0494
21
0.192304
0
LINE
8
BLACK
6
CONTINUOUS
10
0.0494
20
0.192304
11
0.0498235
21
0.192229
0
LINE
8
BLACK
6
CONTINUOUS
10
0.0326211
20
0.186399
11
0.0238362
21
0.184709
0
LINE
8
BLACK
6
CONTINUOUS
10
0.0238362
20
0.184709
11
0.019917
21
0.181694
0
LINE
8
BLACK
6
CONTINUOUS
10
0.019917
20
0.181694
11
0.0182321
21
0.179102
0
LINE
8
BLACK
6
CONTINUOUS
10
0.0182321
20
0.179102
11
0.0182321
21
0.173354
0
LINE
8
BLACK
6
CONTINUOUS
10
0.0182321
20
0.173354
11
0.019917
21
0.170761
0
LINE
8
BLACK
6
CONTINUOUS
10
0.019917
20
0.170761
11
0.0238362
21
0.167747
0
LINE
8
BLACK
6
CONTINUOUS
10
0.0238362
20
0.167747
11
0.0326211
21
0.166057
0
LINE
8
BLACK
6
CONTINUOUS
10
0.0326211
20
0.166057
11
0.0491188
21
0.166057
0
LINE
8
BLACK
6
CONTINUOUS
10
0.0491188
20
0.166057
11
0.0579035
21
0.167747
0
LINE
8
BLACK
6
CONTINUOUS
10
0.0579035
20
0.167747
11
0.0618227
21
0.170761
0
LINE
8
BLACK
6
CONTINUOUS
10
0.0618227
20
0.170761
11
0.0635077
21
0.173354
0
LINE
8
BLACK
6
CONTINUOUS
10
0.0635077
20
0.173354
11
0.0635077
21
0.179102
0
LINE
8
BLACK
6
CONTINUOUS
10
0.0635077
20
0.179102
11
0.0618227
21
0.181694
0
LINE
8
BLACK
6
CONTINUOUS
10
0.0618227
20
0.181694
11
0.0579035
21
0.184709
0
LINE
8
BLACK
6
CONTINUOUS
10
0.0579035
20
0.184709
11
0.0491188
21
0.186399
0
LINE
8
BLACK
6
CONTINUOUS
10
0.0491188
20
0.186399
11
0.0326211
21
0.186399
0
LINE
8
BLACK
6
CONTINUOUS
10
0.0577216
20
0.231496
11
0.0577433
21
0.231478
0
LINE
8
BLACK
6
CONTINUOUS
10
0.0577433
20
0.231478
11
0.0577717
21
0.231477
0
LINE
8
BLACK
6
CONTINUOUS
10
0.0577717
20
0.231477
11
0.062646
21
0.229603
0
LINE
8
BLACK
6
CONTINUOUS
10
0.062646
20
0.229603
11
0.0632812
21
0.22922
0
LINE
8
BLACK
6
CONTINUOUS
10
0.0632812
20
0.22922
11
0.0633863
21
0.229187
0
LINE
8
BLACK
6
CONTINUOUS
10
0.0633863
20
0.229187
11
0.0658235
21
0.227312
0
LINE
8
BLACK
6
CONTINUOUS
10
0.0658235
20
0.227312
11
0.0664767
21
0.226598
0
LINE
8
BLACK
6
CONTINUOUS
10
0.0664767
20
0.226598
11
0.0664989
21
0.226581
0
LINE
8
BLACK
6
CONTINUOUS
10
0.0664989
20
0.226581
11
0.0689361
21
0.222832
0
LINE
8
BLACK
6
CONTINUOUS
10
0.0689361
20
0.222832
11
0.0693372
21
0.221888
0
LINE
8
BLACK
6
CONTINUOUS
10
0.0693372
20
0.221888
11
0.0692954
21
0.221546
0
LINE
8
BLACK
6
CONTINUOUS
10
0.0692954
20
0.221546
11
0.0694132
21
0.221222
0
LINE
8
BLACK
6
CONTINUOUS
10
0.0694132
20
0.221222
11
0.0694132
21
0.206224
0
LINE
8
BLACK
6
CONTINUOUS
10
0.0694132
20
0.206224
11
0.0693456
21
0.205841
0
LINE
8
BLACK
6
CONTINUOUS
10
0.0693456
20
0.205841
11
0.0693683
21
0.205711
0
LINE
8
BLACK
6
CONTINUOUS
10
0.0693683
20
0.205711
11
0.0693028
21
0.205598
0
LINE
8
BLACK
6
CONTINUOUS
10
0.0693028
20
0.205598
11
0.0692351
21
0.205214
0
LINE
8
BLACK
6
CONTINUOUS
10
0.0692351
20
0.205214
11
0.068742
21
0.204627
0
LINE
8
BLACK
6
CONTINUOUS
10
0.068742
20
0.204627
11
0.0683584
21
0.203962
0
LINE
8
BLACK
6
CONTINUOUS
10
0.0683584
20
0.203962
11
0.0681081
21
0.203871
0
LINE
8
BLACK
6
CONTINUOUS
10
0.0681081
20
0.203871
11
0.0679368
21
0.203667
0
LINE
8
BLACK
6
CONTINUOUS
10
0.0679368
20
0.203667
11
0.0671813
21
0.203534
0
LINE
8
BLACK
6
CONTINUOUS
10
0.0671813
20
0.203534
11
0.0664604
21
0.203271
0
LINE
8
BLACK
6
CONTINUOUS
10
0.0664604
20
0.203271
11
0.0152793
21
0.203271
0
LINE
8
BLACK
6
CONTINUOUS
10
0.0152793
20
0.203271
11
0.0148958
21
0.203339
0
LINE
8
BLACK
6
CONTINUOUS
10
0.0148958
20
0.203339
11
0.0147666
21
0.203316
0
LINE
8
BLACK
6
CONTINUOUS
10
0.0147666
20
0.203316
11
0.014653
21
0.203382
0
LINE
8
BLACK
6
CONTINUOUS
10
0.014653
20
0.203382
11
0.0142694
21
0.20345
0
LINE
8
BLACK
6
CONTINUOUS
10
0.0142694
20
0.20345
11
0.0136817
21
0.203943
0
LINE
8
BLACK
6
CONTINUOUS
10
0.0136817
20
0.203943
11
0.0130174
21
0.204326
0
LINE
8
BLACK
6
CONTINUOUS
10
0.0130174
20
0.204326
11
0.0129263
21
0.204577
0
LINE
8
BLACK
6
CONTINUOUS
10
0.0129263
20
0.204577
11
0.0127222
21
0.204748
0
LINE
8
BLACK
6
CONTINUOUS
10
0.0127222
20
0.204748
11
0.0125889
21
0.205503
0
LINE
8
BLACK
6
CONTINUOUS
10
0.0125889
20
0.205503
11
0.0123266
21
0.206224
0
LINE
8
BLACK
6
CONTINUOUS
10
0.0123266
20
0.206224
11
0.0123266
21
0.219348
0
LINE
8
BLACK
6
CONTINUOUS
10
0.0123266
20
0.219348
11
0.0125046
21
0.220357
0
LINE
8
BLACK
6
CONTINUOUS
10
0.0125046
20
0.220357
11
0.012726
21
0.220621
0
LINE
8
BLACK
6
CONTINUOUS
10
0.012726
20
0.220621
11
0.0128036
21
0.220957
0
LINE
8
BLACK
6
CONTINUOUS
10
0.0128036
20
0.220957
11
0.0152408
21
0.224706
0
LINE
8
BLACK
6
CONTINUOUS
10
0.0152408
20
0.224706
11
0.0159011
21
0.225414
0
LINE
8
BLACK
6
CONTINUOUS
10
0.0159011
20
0.225414
11
0.0159162
21
0.225438
0
LINE
8
BLACK
6
CONTINUOUS
10
0.0159162
20
0.225438
11
0.0183533
21
0.227312
0
LINE
8
BLACK
6
CONTINUOUS
10
0.0183533
20
0.227312
11
0.0190106
21
0.227655
0
LINE
8
BLACK
6
CONTINUOUS
10
0.0190106
20
0.227655
11
0.0190937
21
0.227728
0
LINE
8
BLACK
6
CONTINUOUS
10
0.0190937
20
0.227728
11
0.0239681
21
0.229603
0
LINE
8
BLACK
6
CONTINUOUS
10
0.0239681
20
0.229603
11
0.0249747
21
0.229799
0
LINE
8
BLACK
6
CONTINUOUS
10
0.0249747
20
0.229799
11
0.0250015
21
0.22979
0
LINE
8
BLACK
6
CONTINUOUS
10
0.0250015
20
0.22979
11
0.0250281
21
0.229799
0
LINE
8
BLACK
6
CONTINUOUS
10
0.0250281
20
0.229799
11
0.0299025
21
0.229799
0
LINE
8
BLACK
6
CONTINUOUS
10
0.0299025
20
0.229799
11
0.0309124
21
0.229621
0
LINE
8
BLACK
6
CONTINUOUS
10
0.0309124
20
0.229621
11
0.0309341
21
0.229603
0
LINE
8
BLACK
6
CONTINUOUS
10
0.0309341
20
0.229603
11
0.0309624
21
0.229603
0
LINE
8
BLACK
6
CONTINUOUS
10
0.0309624
20
0.229603
11
0.0358369
21
0.227728
0
LINE
8
BLACK
6
CONTINUOUS
10
0.0358369
20
0.227728
11
0.0364721
21
0.227346
0
LINE
8
BLACK
6
CONTINUOUS
10
0.0364721
20
0.227346
11
0.0365772
21
0.227312
0
LINE
8
BLACK
6
CONTINUOUS
10
0.0365772
20
0.227312
11
0.0390144
21
0.225438
0
LINE
8
BLACK
6
CONTINUOUS
10
0.0390144
20
0.225438
11
0.0390536
21
0.225395
0
LINE
8
BLACK
6
CONTINUOUS
10
0.0390536
20
0.225395
11
0.0393791
21
0.226146
0
LINE
8
BLACK
6
CONTINUOUS
10
0.0393791
20
0.226146
11
0.0399441
21
0.227002
0
LINE
8
BLACK
6
CONTINUOUS
10
0.0399441
20
0.227002
11
0.0401592
21
0.227109
0
LINE
8
BLACK
6
CONTINUOUS
10
0.0401592
20
0.227109
11
0.0402881
21
0.227312
0
LINE
8
BLACK
6
CONTINUOUS
10
0.0402881
20
0.227312
11
0.0427254
21
0.229187
0
LINE
8
BLACK
6
CONTINUOUS
10
0.0427254
20
0.229187
11
0.0433824
21
0.22953
0
LINE
8
BLACK
6
CONTINUOUS
10
0.0433824
20
0.22953
11
0.0434657
21
0.229603
0
LINE
8
BLACK
6
CONTINUOUS
10
0.0434657
20
0.229603
11
0.0483401
21
0.231477
0
LINE
8
BLACK
6
CONTINUOUS
10
0.0483401
20
0.231477
11
0.0493466
21
0.231674
0
LINE
8
BLACK
6
CONTINUOUS
10
0.0493466
20
0.231674
11
0.0493734
21
0.231664
0
LINE
8
BLACK
6
CONTINUOUS
10
0.0493734
20
0.231664
11
0.0494
21
0.231674
0
LINE
8
BLACK
6
CONTINUOUS
10
0.0494
20
0.231674
11
0.0567117
21
0.231674
0
LINE
8
BLACK
6
CONTINUOUS
10
0.0567117
20
0.231674
11
0.0577216
21
0.231496
0
LINE
8
BLACK
6
CONTINUOUS
10
0.0255764
20
0.223894
11
0.0216141
21
0.22237
0
LINE
8
BLACK
6
CONTINUOUS
10
0.0216141
20
0.22237
11
0.019917
21
0.221064
0
LINE
8
BLACK
6
CONTINUOUS
10
0.019917
20
0.221064
11
0.0182321
21
0.218472
0
LINE
8
BLACK
6
CONTINUOUS
10
0.0182321
20
0.218472
11
0.0182321
21
0.209177
0
LINE
8
BLACK
6
CONTINUOUS
10
0.0182321
20
0.209177
11
0.0366985
21
0.209177
0
LINE
8
BLACK
6
CONTINUOUS
10
0.0366985
20
0.209177
11
0.0366985
21
0.218472
0
LINE
8
BLACK
6
CONTINUOUS
10
0.0366985
20
0.218472
11
0.0350136
21
0.221064
0
LINE
8
BLACK
6
CONTINUOUS
10
0.0350136
20
0.221064
11
0.0333166
21
0.22237
0
LINE
8
BLACK
6
CONTINUOUS
10
0.0333166
20
0.22237
11
0.0293542
21
0.223894
0
LINE
8
BLACK
6
CONTINUOUS
10
0.0293542
20
0.223894
11
0.0255764
21
0.223894
0
LINE
8
BLACK
6
CONTINUOUS
10
0.0499483
20
0.225769
11
0.045986
21
0.224245
0
LINE
8
BLACK
6
CONTINUOUS
10
0.045986
20
0.224245
11
0.0444942
21
0.223097
0
LINE
8
BLACK
6
CONTINUOUS
10
0.0444942
20
0.223097
11
0.042604
21
0.218735
0
LINE
8
BLACK
6
CONTINUOUS
10
0.042604
20
0.218735
11
0.042604
21
0.209177
0
LINE
8
BLACK
6
CONTINUOUS
10
0.042604
20
0.209177
11
0.0635077
21
0.209177
0
LINE
8
BLACK
6
CONTINUOUS
10
0.0635077
20
0.209177
11
0.0635077
21
0.220347
0
LINE
8
BLACK
6
CONTINUOUS
10
0.0635077
20
0.220347
11
0.0618227
21
0.222939
0
LINE
8
BLACK
6
CONTINUOUS
10
0.0618227
20
0.222939
11
0.0601257
21
0.224245
0
LINE
8
BLACK
6
CONTINUOUS
10
0.0601257
20
0.224245
11
0.0561633
21
0.225769
0
LINE
8
BLACK
6
CONTINUOUS
10
0.0561633
20
0.225769
11
0.0499483
21
0.225769
0
LINE
8
BLACK
6
CONTINUOUS
10
0.0687224
20
0.26624
11
0.0694132
21
0.264342
0
LINE
8
BLACK
6
CONTINUOUS
10
0.0694132
20
0.264342
11
0.0694132
21
0.245594
0
LINE
8
BLACK
6
CONTINUOUS
10
0.0694132
20
0.245594
11
0.0693456
21
0.245211
0
LINE
8
BLACK
6
CONTINUOUS
10
0.0693456
20
0.245211
11
0.0693683
21
0.245082
0
LINE
8
BLACK
6
CONTINUOUS
10
0.0693683
20
0.245082
11
0.0693028
21
0.244968
0
LINE
8
BLACK
6
CONTINUOUS
10
0.0693028
20
0.244968
11
0.0692351
21
0.244584
0
LINE
8
BLACK
6
CONTINUOUS
10
0.0692351
20
0.244584
11
0.068742
21
0.243997
0
LINE
8
BLACK
6
CONTINUOUS
10
0.068742
20
0.243997
11
0.0683584
21
0.243332
0
LINE
8
BLACK
6
CONTINUOUS
10
0.0683584
20
0.243332
11
0.0681081
21
0.243241
0
LINE
8
BLACK
6
CONTINUOUS
10
0.0681081
20
0.243241
11
0.0679368
21
0.243037
0
LINE
8
BLACK
6
CONTINUOUS
10
0.0679368
20
0.243037
11
0.0671813
21
0.242904
0
LINE
8
BLACK
6
CONTINUOUS
10
0.0671813
20
0.242904
11
0.0664604
21
0.242642
0
LINE
8
BLACK
6
CONTINUOUS
10
0.0664604
20
0.242642
11
0.0152793
21
0.242642
0
LINE
8
BLACK
6
CONTINUOUS
10
0.0152793
20
0.242642
11
0.0148958
21
0.242709
0
LINE
8
BLACK
6
CONTINUOUS
10
0.0148958
20
0.242709
11
0.0147666
21
0.242686
0
LINE
8
BLACK
6
CONTINUOUS
10
0.0147666
20
0.242686
11
0.014653
21
0.242752
0
LINE
8
BLACK
6
CONTINUOUS
10
0.014653
20
0.242752
11
0.0142694
21
0.24282
0
LINE
8
BLACK
6
CONTINUOUS
10
0.0142694
20
0.24282
11
0.0136817
21
0.243313
0
LINE
8
BLACK
6
CONTINUOUS
10
0.0136817
20
0.243313
11
0.0130174
21
0.243696
0
LINE
8
BLACK
6
CONTINUOUS
10
0.0130174
20
0.243696
11
0.0129263
21
0.243947
0
LINE
8
BLACK
6
CONTINUOUS
10
0.0129263
20
0.243947
11
0.0127222
21
0.244118
0
LINE
8
BLACK
6
CONTINUOUS
10
0.0127222
20
0.244118
11
0.0125889
21
0.244873
0
LINE
8
BLACK
6
CONTINUOUS
10
0.0125889
20
0.244873
11
0.0123266
21
0.245594
0
LINE
8
BLACK
6
CONTINUOUS
10
0.0123266
20
0.245594
11
0.0123266
21
0.264342
0
LINE
8
BLACK
6
CONTINUOUS
10
0.0123266
20
0.264342
11
0.0125046
21
0.265352
0
LINE
8
BLACK
6
CONTINUOUS
10
0.0125046
20
0.265352
11
0.013803
21
0.266899
0
LINE
8
BLACK
6
CONTINUOUS
10
0.013803
20
0.266899
11
0.0157921
21
0.26725
0
LINE
8
BLACK
6
CONTINUOUS
10
0.0157921
20
0.26725
11
0.0175413
21
0.26624
0
LINE
8
BLACK
6
CONTINUOUS
10
0.0175413
20
0.26624
11
0.0182321
21
0.264342
0
LINE
8
BLACK
6
CONTINUOUS
10
0.0182321
20
0.264342
11
0.0182321
21
0.248547
0
LINE
8
BLACK
6
CONTINUOUS
10
0.0182321
20
0.248547
11
0.0366985
21
0.248547
0
LINE
8
BLACK
6
CONTINUOUS
10
0.0366985
20
0.248547
11
0.0366985
21
0.258718
0
LINE
8
BLACK
6
CONTINUOUS
10
0.0366985
20
0.258718
11
0.0368766
21
0.259728
0
LINE
8
BLACK
6
CONTINUOUS
10
0.0368766
20
0.259728
11
0.0381749
21
0.261275
0
LINE
8
BLACK
6
CONTINUOUS
10
0.0381749
20
0.261275
11
0.040164
21
0.261626
0
LINE
8
BLACK
6
CONTINUOUS
10
0.040164
20
0.261626
11
0.0419132
21
0.260616
0
LINE
8
BLACK
6
CONTINUOUS
10
0.0419132
20
0.260616
11
0.042604
21
0.258718
0
LINE
8
BLACK
6
CONTINUOUS
10
0.042604
20
0.258718
11
0.042604
21
0.248547
0
LINE
8
BLACK
6
CONTINUOUS
10
0.042604
20
0.248547
11
0.0635077
21
0.248547
0
LINE
8
BLACK
6
CONTINUOUS
10
0.0635077
20
0.248547
11
0.0635077
21
0.264342
0
LINE
8
BLACK
6
CONTINUOUS
10
0.0635077
20
0.264342
11
0.0636857
21
0.265352
0
LINE
8
BLACK
6
CONTINUOUS
10
0.0636857
20
0.265352
11
0.0649841
21
0.266899
0
LINE
8
BLACK
6
CONTINUOUS
10
0.0649841
20
0.266899
11
0.0669732
21
0.26725
0
LINE
8
BLACK
6
CONTINUOUS
10
0.0669732
20
0.26725
11
0.0687224
21
0.26624
0
LINE
8
BLACK
6
CONTINUOUS
10
0.0473864
20
0.304715
11
0.0475205
21
0.304737
0
LINE
8
BLACK
6
CONTINUOUS
10
0.0475205
20
0.304737
11
0.0572693
21
0.302862
0
LINE
8
BLACK
6
CONTINUOUS
10
0.0572693
20
0.302862
11
0.0576396
21
0.302721
0
LINE
8
BLACK
6
CONTINUOUS
10
0.0576396
20
0.302721
11
0.0577717
21
0.302718
0
LINE
8
BLACK
6
CONTINUOUS
10
0.0577717
20
0.302718
11
0.062646
21
0.300844
0
LINE
8
BLACK
6
CONTINUOUS
10
0.062646
20
0.300844
11
0.0632812
21
0.300461
0
LINE
8
BLACK
6
CONTINUOUS
10
0.0632812
20
0.300461
11
0.0633863
21
0.300428
0
LINE
8
BLACK
6
CONTINUOUS
10
0.0633863
20
0.300428
11
0.0658235
21
0.298553
0
LINE
8
BLACK
6
CONTINUOUS
10
0.0658235
20
0.298553
11
0.0664767
21
0.297839
0
LINE
8
BLACK
6
CONTINUOUS
10
0.0664767
20
0.297839
11
0.0664989
21
0.297822
0
LINE
8
BLACK
6
CONTINUOUS
10
0.0664989
20
0.297822
11
0.0689361
21
0.294073
0
LINE
8
BLACK
6
CONTINUOUS
10
0.0689361
20
0.294073
11
0.0693372
21
0.293129
0
LINE
8
BLACK
6
CONTINUOUS
10
0.0693372
20
0.293129
11
0.0692954
21
0.292787
0
LINE
8
BLACK
6
CONTINUOUS
10
0.0692954
20
0.292787
11
0.0694132
21
0.292463
0
LINE
8
BLACK
6
CONTINUOUS
10
0.0694132
20
0.292463
11
0.0694132
21
0.288714
0
LINE
8
BLACK
6
CONTINUOUS
10
0.0694132
20
0.288714
11
0.0692351
21
0.287704
0
LINE
8
BLACK
6
CONTINUOUS
10
0.0692351
20
0.287704
11
0.0690137
21
0.28744
0
LINE
8
BLACK
6
CONTINUOUS
10
0.0690137
20
0.28744
11
0.0689361
21
0.287105
0
LINE
8
BLACK
6
CONTINUOUS
10
0.0689361
20
0.287105
11
0.0664989
21
0.283355
0
LINE
8
BLACK
6
CONTINUOUS
10
0.0664989
20
0.283355
11
0.0658385
21
0.282648
0
LINE
8
BLACK
6
CONTINUOUS
10
0.0658385
20
0.282648
11
0.0658235
21
0.282624
0
LINE
8
BLACK
6
CONTINUOUS
10
0.0658235
20
0.282624
11
0.0633863
21
0.280749
0
LINE
8
BLACK
6
CONTINUOUS
10
0.0633863
20
0.280749
11
0.0627293
21
0.280406
0
LINE
8
BLACK
6
CONTINUOUS
10
0.0627293
20
0.280406
11
0.062646
21
0.280334
0
LINE
8
BLACK
6
CONTINUOUS
10
0.062646
20
0.280334
11
0.0577717
21
0.278459
0
LINE
8
BLACK
6
CONTINUOUS
10
0.0577717
20
0.278459
11
0.0573826
21
0.278383
0
LINE
8
BLACK
6
CONTINUOUS
10
0.0573826
20
0.278383
11
0.0572693
21
0.278315
0
LINE
8
BLACK
6
CONTINUOUS
10
0.0572693
20
0.278315
11
0.0475205
21
0.27644
0
LINE
8
BLACK
6
CONTINUOUS
10
0.0475205
20
0.27644
11
0.0470906
21
0.276434
0
LINE
8
BLACK
6
CONTINUOUS
10
0.0470906
20
0.276434
11
0.0469629
21
0.276387
0
LINE
8
BLACK
6
CONTINUOUS
10
0.0469629
20
0.276387
11
0.0347769
21
0.276387
0
LINE
8
BLACK
6
CONTINUOUS
10
0.0347769
20
0.276387
11
0.0343534
21
0.276462
0
LINE
8
BLACK
6
CONTINUOUS
10
0.0343534
20
0.276462
11
0.0342193
21
0.27644
0
LINE
8
BLACK
6
CONTINUOUS
10
0.0342193
20
0.27644
11
0.0244705
21
0.278315
0
LINE
8
BLACK
6
CONTINUOUS
10
0.0244705
20
0.278315
11
0.0241002
21
0.278456
0
LINE
8
BLACK
6
CONTINUOUS
10
0.0241002
20
0.278456
11
0.0239681
21
0.278459
0
LINE
8
BLACK
6
CONTINUOUS
10
0.0239681
20
0.278459
11
0.0190937
21
0.280334
0
LINE
8
BLACK
6
CONTINUOUS
10
0.0190937
20
0.280334
11
0.0184585
21
0.280716
0
LINE
8
BLACK
6
CONTINUOUS
10
0.0184585
20
0.280716
11
0.0183533
21
0.280749
0
LINE
8
BLACK
6
CONTINUOUS
10
0.0183533
20
0.280749
11
0.0159162
21
0.282624
0
LINE
8
BLACK
6
CONTINUOUS
10
0.0159162
20
0.282624
11
0.0152631
21
0.283338
0
LINE
8
BLACK
6
CONTINUOUS
10
0.0152631
20
0.283338
11
0.0152408
21
0.283355
0
LINE
8
BLACK
6
CONTINUOUS
10
0.0152408
20
0.283355
11
0.0128036
21
0.287105
0
LINE
8
BLACK
6
CONTINUOUS
10
0.0128036
20
0.287105
11
0.0124025
21
0.288048
0
LINE
8
BLACK
6
CONTINUOUS
10
0.0124025
20
0.288048
11
0.0124443
21
0.28839
0
LINE
8
BLACK
6
CONTINUOUS
10
0.0124443
20
0.28839
11
0.0123266
21
0.288714
0
LINE
8
BLACK
6
CONTINUOUS
10
0.0123266
20
0.288714
11
0.0123266
21
0.292463
0
LINE
8
BLACK
6
CONTINUOUS
10
0.0123266
20
0.292463
11
0.0125046
21
0.293473
0
LINE
8
BLACK
6
CONTINUOUS
10
0.0125046
20
0.293473
11
0.012726
21
0.293737
0
LINE
8
BLACK
6
CONTINUOUS
10
0.012726
20
0.293737
11
0.0128036
21
0.294073
0
LINE
8
BLACK
6
CONTINUOUS
10
0.0128036
20
0.294073
11
0.0152408
21
0.297822
0
LINE
8
BLACK
6
CONTINUOUS
10
0.0152408
20
0.297822
11
0.0159011
21
0.29853
0
LINE
8
BLACK
6
CONTINUOUS
10
0.0159011
20
0.29853
11
0.0159162
21
0.298553
0
LINE
8
BLACK
6
CONTINUOUS
10
0.0159162
20
0.298553
11
0.0183533
21
0.300428
0
LINE
8
BLACK
6
CONTINUOUS
10
0.0183533
20
0.300428
11
0.0190106
21
0.300771
0
LINE
8
BLACK
6
CONTINUOUS
10
0.0190106
20
0.300771
11
0.0190937
21
0.300844
0
LINE
8
BLACK
6
CONTINUOUS
10
0.0190937
20
0.300844
11
0.0239681
21
0.302718
0
LINE
8
BLACK
6
CONTINUOUS
10
0.0239681
20
0.302718
11
0.0243572
21
0.302794
0
LINE
8
BLACK
6
CONTINUOUS
10
0.0243572
20
0.302794
11
0.0244705
21
0.302862
0
LINE
8
BLACK
6
CONTINUOUS
10
0.0244705
20
0.302862
11
0.0342193
21
0.304737
0
LINE
8
BLACK
6
CONTINUOUS
10
0.0342193
20
0.304737
11
0.0346491
21
0.304744
0
LINE
8
BLACK
6
CONTINUOUS
10
0.0346491
20
0.304744
11
0.0347769
21
0.30479
0
LINE
8
BLACK
6
CONTINUOUS
10
0.0347769
20
0.30479
11
0.0469629
21
0.30479
0
LINE
8
BLACK
6
CONTINUOUS
10
0.0469629
20
0.30479
11
0.0473864
21
0.304715
0
LINE
8
BLACK
6
CONTINUOUS
10
0.0350583
20
0.298884
11
0.0258434
21
0.297112
0
LINE
8
BLACK
6
CONTINUOUS
10
0.0258434
20
0.297112
11
0.0216141
21
0.295486
0
LINE
8
BLACK
6
CONTINUOUS
10
0.0216141
20
0.295486
11
0.019917
21
0.29418
0
LINE
8
BLACK
6
CONTINUOUS
10
0.019917
20
0.29418
11
0.0182321
21
0.291588
0
LINE
8
BLACK
6
CONTINUOUS
10
0.0182321
20
0.291588
11
0.0182321
21
0.289589
0
LINE
8
BLACK
6
CONTINUOUS
10
0.0182321
20
0.289589
11
0.019917
21
0.286997
0
LINE
8
BLACK
6
CONTINUOUS
10
0.019917
20
0.286997
11
0.0216141
21
0.285692
0
LINE
8
BLACK
6
CONTINUOUS
10
0.0216141
20
0.285692
11
0.0258434
21
0.284065
0
LINE
8
BLACK
6
CONTINUOUS
10
0.0258434
20
0.284065
11
0.0350583
21
0.282293
0
LINE
8
BLACK
6
CONTINUOUS
10
0.0350583
20
0.282293
11
0.0466816
21
0.282293
0
LINE
8
BLACK
6
CONTINUOUS
10
0.0466816
20
0.282293
11
0.0558963
21
0.284065
0
LINE
8
BLACK
6
CONTINUOUS
10
0.0558963
20
0.284065
11
0.0601257
21
0.285692
0
LINE
8
BLACK
6
CONTINUOUS
10
0.0601257
20
0.285692
11
0.0618227
21
0.286997
0
LINE
8
BLACK
6
CONTINUOUS
10
0.0618227
20
0.286997
11
0.0635077
21
0.289589
0
LINE
8
BLACK
6
CONTINUOUS
10
0.0635077
20
0.289589
11
0.0635077
21
0.291588
0
LINE
8
BLACK
6
CONTINUOUS
10
0.0635077
20
0.291588
11
0.0618227
21
0.29418
0
LINE
8
BLACK
6
CONTINUOUS
10
0.0618227
20
0.29418
11
0.0601257
21
0.295486
0
LINE
8
BLACK
6
CONTINUOUS
10
0.0601257
20
0.295486
11
0.0558963
21
0.297112
0
LINE
8
BLACK
6
CONTINUOUS
10
0.0558963
20
0.297112
11
0.0466816
21
0.298884
0
LINE
8
BLACK
6
CONTINUOUS
10
0.0466816
20
0.298884
11
0.0350583
21
0.298884
0
LINE
8
BLACK
6
CONTINUOUS
10
0.0687224
20
0.341231
11
0.0694132
21
0.339333
0
LINE
8
BLACK
6
CONTINUOUS
10
0.0694132
20
0.339333
11
0.0694132
21
0.316835
0
LINE
8
BLACK
6
CONTINUOUS
10
0.0694132
20
0.316835
11
0.0692351
21
0.315825
0
LINE
8
BLACK
6
CONTINUOUS
10
0.0692351
20
0.315825
11
0.0679368
21
0.314278
0
LINE
8
BLACK
6
CONTINUOUS
10
0.0679368
20
0.314278
11
0.0659477
21
0.313927
0
LINE
8
BLACK
6
CONTINUOUS
10
0.0659477
20
0.313927
11
0.0641985
21
0.314937
0
LINE
8
BLACK
6
CONTINUOUS
10
0.0641985
20
0.314937
11
0.0635077
21
0.316835
0
LINE
8
BLACK
6
CONTINUOUS
10
0.0635077
20
0.316835
11
0.0635077
21
0.325131
0
LINE
8
BLACK
6
CONTINUOUS
10
0.0635077
20
0.325131
11
0.026398
21
0.325131
0
LINE
8
BLACK
6
CONTINUOUS
10
0.026398
20
0.325131
11
0.0292656
21
0.322925
0
LINE
8
BLACK
6
CONTINUOUS
10
0.0292656
20
0.322925
11
0.0299188
21
0.322211
0
LINE
8
BLACK
6
CONTINUOUS
10
0.0299188
20
0.322211
11
0.029941
21
0.322194
0
LINE
8
BLACK
6
CONTINUOUS
10
0.029941
20
0.322194
11
0.0323782
21
0.318445
0
LINE
8
BLACK
6
CONTINUOUS
10
0.0323782
20
0.318445
11
0.0327793
21
0.317501
0
LINE
8
BLACK
6
CONTINUOUS
10
0.0327793
20
0.317501
11
0.032534
21
0.315496
0
LINE
8
BLACK
6
CONTINUOUS
10
0.032534
20
0.315496
11
0.0310573
21
0.314118
0
LINE
8
BLACK
6
CONTINUOUS
10
0.0310573
20
0.314118
11
0.0290404
21
0.314011
0
LINE
8
BLACK
6
CONTINUOUS
10
0.0290404
20
0.314011
11
0.0274268
21
0.315226
0
LINE
8
BLACK
6
CONTINUOUS
10
0.0274268
20
0.315226
11
0.0252648
21
0.318552
0
LINE
8
BLACK
6
CONTINUOUS
10
0.0252648
20
0.318552
11
0.0210039
21
0.32183
0
LINE
8
BLACK
6
CONTINUOUS
10
0.0210039
20
0.32183
11
0.0139319
21
0.325457
0
LINE
8
BLACK
6
CONTINUOUS
10
0.0139319
20
0.325457
11
0.0131146
21
0.326076
0
LINE
8
BLACK
6
CONTINUOUS
10
0.0131146
20
0.326076
11
0.0129826
21
0.326389
0
LINE
8
BLACK
6
CONTINUOUS
10
0.0129826
20
0.326389
11
0.0127222
21
0.326608
0
LINE
8
BLACK
6
CONTINUOUS
10
0.0127222
20
0.326608
11
0.012601
21
0.327295
0
LINE
8
BLACK
6
CONTINUOUS
10
0.012601
20
0.327295
11
0.0123302
21
0.327937
0
LINE
8
BLACK
6
CONTINUOUS
10
0.0123302
20
0.327937
11
0.0124304
21
0.328262
0
LINE
8
BLACK
6
CONTINUOUS
10
0.0124304
20
0.328262
11
0.0123714
21
0.328597
0
LINE
8
BLACK
6
CONTINUOUS
10
0.0123714
20
0.328597
11
0.0127201
21
0.329201
0
LINE
8
BLACK
6
CONTINUOUS
10
0.0127201
20
0.329201
11
0.0129258
21
0.329867
0
LINE
8
BLACK
6
CONTINUOUS
10
0.0129258
20
0.329867
11
0.0132114
21
0.330052
0
LINE
8
BLACK
6
CONTINUOUS
10
0.0132114
20
0.330052
11
0.0133813
21
0.330346
0
LINE
8
BLACK
6
CONTINUOUS
10
0.0133813
20
0.330346
11
0.0140367
21
0.330584
0
LINE
8
BLACK
6
CONTINUOUS
10
0.0140367
20
0.330584
11
0.0146226
21
0.330963
0
LINE
8
BLACK
6
CONTINUOUS
10
0.0146226
20
0.330963
11
0.0149599
21
0.33092
0
LINE
8
BLACK
6
CONTINUOUS
10
0.0149599
20
0.33092
11
0.0152793
21
0.331037
0
LINE
8
BLACK
6
CONTINUOUS
10
0.0152793
20
0.331037
11
0.0635077
21
0.331037
0
LINE
8
BLACK
6
CONTINUOUS
10
0.0635077
20
0.331037
11
0.0635077
21
0.339333
0
LINE
8
BLACK
6
CONTINUOUS
10
0.0635077
20
0.339333
11
0.0636857
21
0.340342
0
LINE
8
BLACK
6
CONTINUOUS
10
0.0636857
20
0.340342
11
0.0649841
21
0.34189
0
LINE
8
BLACK
6
CONTINUOUS
10
0.0649841
20
0.34189
11
0.0669732
21
0.34224
0
LINE
8
BLACK
6
CONTINUOUS
10
0.0669732
20
0.34224
11
0.0687224
21
0.341231
0
LINE
8
BLACK
6
CONTINUOUS
10
0.0685708
20
0.378893
11
0.0694046
21
0.377053
0
LINE
8
BLACK
6
CONTINUOUS
10
0.0694046
20
0.377053
11
0.0688607
21
0.375108
0
LINE
8
BLACK
6
CONTINUOUS
10
0.0688607
20
0.375108
11
0.0671938
21
0.373968
0
LINE
8
BLACK
6
CONTINUOUS
10
0.0671938
20
0.373968
11
0.05479
21
0.370787
0
LINE
8
BLACK
6
CONTINUOUS
10
0.05479
20
0.370787
11
0.05479
21
0.356622
0
LINE
8
BLACK
6
CONTINUOUS
10
0.05479
20
0.356622
11
0.0671938
21
0.353441
0
LINE
8
BLACK
6
CONTINUOUS
10
0.0671938
20
0.353441
11
0.0681279
21
0.353018
0
LINE
8
BLACK
6
CONTINUOUS
10
0.0681279
20
0.353018
11
0.0693042
21
0.351376
0
LINE
8
BLACK
6
CONTINUOUS
10
0.0693042
20
0.351376
11
0.0691499
21
0.349362
0
LINE
8
BLACK
6
CONTINUOUS
10
0.0691499
20
0.349362
11
0.0677371
21
0.347919
0
LINE
8
BLACK
6
CONTINUOUS
10
0.0677371
20
0.347919
11
0.065727
21
0.347721
0
LINE
8
BLACK
6
CONTINUOUS
10
0.065727
20
0.347721
11
0.0145459
21
0.360844
0
LINE
8
BLACK
6
CONTINUOUS
10
0.0145459
20
0.360844
11
0.0136119
21
0.361268
0
LINE
8
BLACK
6
CONTINUOUS
10
0.0136119
20
0.361268
11
0.0134381
21
0.36151
0
LINE
8
BLACK
6
CONTINUOUS
10
0.0134381
20
0.36151
11
0.013169
21
0.361639
0
LINE
8
BLACK
6
CONTINUOUS
10
0.013169
20
0.361639
11
0.0128648
21
0.36231
0
LINE
8
BLACK
6
CONTINUOUS
10
0.0128648
20
0.36231
11
0.0124356
21
0.36291
0
LINE
8
BLACK
6
CONTINUOUS
10
0.0124356
20
0.36291
11
0.0124584
21
0.363207
0
LINE
8
BLACK
6
CONTINUOUS
10
0.0124584
20
0.363207
11
0.0123352
21
0.363479
0
LINE
8
BLACK
6
CONTINUOUS
10
0.0123352
20
0.363479
11
0.0125336
21
0.364189
0
LINE
8
BLACK
6
CONTINUOUS
10
0.0125336
20
0.364189
11
0.0125899
21
0.364923
0
LINE
8
BLACK
6
CONTINUOUS
10
0.0125899
20
0.364923
11
0.0127987
21
0.365137
0
LINE
8
BLACK
6
CONTINUOUS
10
0.0127987
20
0.365137
11
0.012879
21
0.365424
0
LINE
8
BLACK
6
CONTINUOUS
10
0.012879
20
0.365424
11
0.0134872
21
0.36584
0
LINE
8
BLACK
6
CONTINUOUS
10
0.0134872
20
0.36584
11
0.0140026
21
0.366367
0
LINE
8
BLACK
6
CONTINUOUS
10
0.0140026
20
0.366367
11
0.0142996
21
0.366396
0
LINE
8
BLACK
6
CONTINUOUS
10
0.0142996
20
0.366396
11
0.0145459
21
0.366565
0
LINE
8
BLACK
6
CONTINUOUS
10
0.0145459
20
0.366565
11
0.065727
21
0.379688
0
LINE
8
BLACK
6
CONTINUOUS
10
0.065727
20
0.379688
11
0.0667496
21
0.379766
0
LINE
8
BLACK
6
CONTINUOUS
10
0.0667496
20
0.379766
11
0.0685708
21
0.378893
0
LINE
8
BLACK
6
CONTINUOUS
10
0.0271676
20
0.363705
11
0.0488845
21
0.358136
0
LINE
8
BLACK
6
CONTINUOUS
10
0.0488845
20
0.358136
11
0.0488845
21
0.369273
0
LINE
8
BLACK
6
CONTINUOUS
10
0.0488845
20
0.369273
11
0.0271676
21
0.363705
0
LINE
8
BLACK
6
CONTINUOUS
10
0.0990318
20
0.38422
11
0.100981
21
0.385636
0
LINE
8
BLACK
6
CONTINUOUS
10
0.100981
20
0.385636
11
0.102185
21
0.385827
0
LINE
8
BLACK
6
CONTINUOUS
10
0.102185
20
0.385827
11
0.284463
21
0.385827
0
LINE
8
BLACK
6
CONTINUOUS
10
0.284463
20
0.385827
11
0.286754
21
0.385082
0
LINE
8
BLACK
6
CONTINUOUS
10
0.286754
20
0.385082
11
0.28817
21
0.383134
0
LINE
8
BLACK
6
CONTINUOUS
10
0.28817
20
0.383134
11
0.288301
21
0.382609
0
LINE
8
BLACK
6
CONTINUOUS
10
0.288301
20
0.382609
11
0.289269
21
0.377148
0
LINE
8
BLACK
6
CONTINUOUS
10
0.289269
20
0.377148
11
0.289269
21
0.377148
0
LINE
8
BLACK
6
CONTINUOUS
10
0.289269
20
0.377148
11
0.289295
21
0.377002
0
LINE
8
BLACK
6
CONTINUOUS
10
0.289295
20
0.377002
11
0.292569
21
0.367357
0
LINE
8
BLACK
6
CONTINUOUS
10
0.292569
20
0.367357
11
0.292637
21
0.367226
0
LINE
8
BLACK
6
CONTINUOUS
10
0.292637
20
0.367226
11
0.292637
21
0.367226
0
LINE
8
BLACK
6
CONTINUOUS
10
0.292637
20
0.367226
11
0.295911
21
0.360922
0
LINE
8
BLACK
6
CONTINUOUS
10
0.295911
20
0.360922
11
0.297264
21
0.358318
0
LINE
8
BLACK
6
CONTINUOUS
10
0.297264
20
0.358318
11
0.303273
21
0.350093
0
LINE
8
BLACK
6
CONTINUOUS
10
0.303273
20
0.350093
11
0.310456
21
0.342872
0
LINE
8
BLACK
6
CONTINUOUS
10
0.310456
20
0.342872
11
0.310575
21
0.342784
0
LINE
8
BLACK
6
CONTINUOUS
10
0.310575
20
0.342784
11
0.310575
21
0.342784
0
LINE
8
BLACK
6
CONTINUOUS
10
0.310575
20
0.342784
11
0.31639
21
0.338489
0
LINE
8
BLACK
6
CONTINUOUS
10
0.31639
20
0.338489
11
0.31865
21
0.33682
0
LINE
8
BLACK
6
CONTINUOUS
10
0.31865
20
0.33682
11
0.32325
21
0.3344
0
LINE
8
BLACK
6
CONTINUOUS
10
0.32325
20
0.3344
11
0.327533
21
0.332146
0
LINE
8
BLACK
6
CONTINUOUS
10
0.327533
20
0.332146
11
0.327533
21
0.332146
0
LINE
8
BLACK
6
CONTINUOUS
10
0.327533
20
0.332146
11
0.327664
21
0.332078
0
LINE
8
BLACK
6
CONTINUOUS
10
0.327664
20
0.332078
11
0.337292
21
0.328753
0
LINE
8
BLACK
6
CONTINUOUS
10
0.337292
20
0.328753
11
0.337438
21
0.328726
0
LINE
8
BLACK
6
CONTINUOUS
10
0.337438
20
0.328726
11
0.337438
21
0.328726
0
LINE
8
BLACK
6
CONTINUOUS
10
0.337438
20
0.328726
11
0.345764
21
0.327206
0
LINE
8
BLACK
6
CONTINUOUS
10
0.345764
20
0.327206
11
0.347312
21
0.326923
0
LINE
8
BLACK
6
CONTINUOUS
10
0.347312
20
0.326923
11
0.350575
21
0.326752
0
LINE
8
BLACK
6
CONTINUOUS
10
0.350575
20
0.326752
11
0.356918
21
0.326752
0
LINE
8
BLACK
6
CONTINUOUS
10
0.356918
20
0.326752
11
0.359951
21
0.326983
0
LINE
8
BLACK
6
CONTINUOUS
10
0.359951
20
0.326983
11
0.364339
21
0.327316
0
LINE
8
BLACK
6
CONTINUOUS
10
0.364339
20
0.327316
11
0.36434
21
0.327316
0
LINE
8
BLACK
6
CONTINUOUS
10
0.36434
20
0.327316
11
0.364487
21
0.327328
0
LINE
8
BLACK
6
CONTINUOUS
10
0.364487
20
0.327328
11
0.37441
21
0.329628
0
LINE
8
BLACK
6
CONTINUOUS
10
0.37441
20
0.329628
11
0.383871
21
0.333402
0
LINE
8
BLACK
6
CONTINUOUS
10
0.383871
20
0.333402
11
0.392652
21
0.338564
0
LINE
8
BLACK
6
CONTINUOUS
10
0.392652
20
0.338564
11
0.400551
21
0.344995
0
LINE
8
BLACK
6
CONTINUOUS
10
0.400551
20
0.344995
11
0.405165
21
0.350093
0
LINE
8
BLACK
6
CONTINUOUS
10
0.405165
20
0.350093
11
0.407287
21
0.352437
0
LINE
8
BLACK
6
CONTINUOUS
10
0.407287
20
0.352437
11
0.407287
21
0.352437
0
LINE
8
BLACK
6
CONTINUOUS
10
0.407287
20
0.352437
11
0.407386
21
0.352547
0
LINE
8
BLACK
6
CONTINUOUS
10
0.407386
20
0.352547
11
0.413001
21
0.361045
0
LINE
8
BLACK
6
CONTINUOUS
10
0.413001
20
0.361045
11
0.417265
21
0.370296
0
LINE
8
BLACK
6
CONTINUOUS
10
0.417265
20
0.370296
11
0.420081
21
0.380084
0
LINE
8
BLACK
6
CONTINUOUS
10
0.420081
20
0.380084
11
0.420384
21
0.382428
0
LINE
8
BLACK
6
CONTINUOUS
10
0.420384
20
0.382428
11
0.421415
21
0.384605
0
LINE
8
BLACK
6
CONTINUOUS
10
0.421415
20
0.384605
11
0.423529
21
0.38576
0
LINE
8
BLACK
6
CONTINUOUS
10
0.423529
20
0.38576
11
0.424249
21
0.385827
0
LINE
8
BLACK
6
CONTINUOUS
10
0.424249
20
0.385827
11
0.539409
21
0.385827
0
LINE
8
BLACK
6
CONTINUOUS
10
0.539409
20
0.385827
11
0.5417
21
0.385082
0
LINE
8
BLACK
6
CONTINUOUS
10
0.5417
20
0.385082
11
0.543116
21
0.383134
0
LINE
8
BLACK
6
CONTINUOUS
10
0.543116
20
0.383134
11
0.543307
21
0.381929
0
LINE
8
BLACK
6
CONTINUOUS
10
0.543307
20
0.381929
11
0.543307
21
0.0117717
0
LINE
8
BLACK
6
CONTINUOUS
10
0.543307
20
0.0117717
11
0.542563
21
0.00948067
0
LINE
8
BLACK
6
CONTINUOUS
10
0.542563
20
0.00948067
11
0.540614
21
0.00806476
0
LINE
8
BLACK
6
CONTINUOUS
10
0.540614
20
0.00806476
11
0.539409
21
0.00787402
0
LINE
8
BLACK
6
CONTINUOUS
10
0.539409
20
0.00787402
11
0.424198
21
0.00787402
0
LINE
8
BLACK
6
CONTINUOUS
10
0.424198
20
0.00787402
11
0.421907
21
0.00861839
0
LINE
8
BLACK
6
CONTINUOUS
10
0.421907
20
0.00861839
11
0.420492
21
0.0105672
0
LINE
8
BLACK
6
CONTINUOUS
10
0.420492
20
0.0105672
11
0.420361
21
0.0110915
0
LINE
8
BLACK
6
CONTINUOUS
10
0.420361
20
0.0110915
11
0.419393
21
0.0165526
0
LINE
8
BLACK
6
CONTINUOUS
10
0.419393
20
0.0165526
11
0.419393
21
0.0165529
0
LINE
8
BLACK
6
CONTINUOUS
10
0.419393
20
0.0165529
11
0.419367
21
0.0166985
0
LINE
8
BLACK
6
CONTINUOUS
10
0.419367
20
0.0166985
11
0.416093
21
0.0263437
0
LINE
8
BLACK
6
CONTINUOUS
10
0.416093
20
0.0263437
11
0.412884
21
0.0325208
0
LINE
8
BLACK
6
CONTINUOUS
10
0.412884
20
0.0325208
11
0.411466
21
0.0352513
0
LINE
8
BLACK
6
CONTINUOUS
10
0.411466
20
0.0352513
11
0.411466
21
0.0352515
0
LINE
8
BLACK
6
CONTINUOUS
10
0.411466
20
0.0352515
11
0.411397
21
0.0353828
0
LINE
8
BLACK
6
CONTINUOUS
10
0.411397
20
0.0353828
11
0.405389
21
0.0436076
0
LINE
8
BLACK
6
CONTINUOUS
10
0.405389
20
0.0436076
11
0.398205
21
0.0508289
0
LINE
8
BLACK
6
CONTINUOUS
10
0.398205
20
0.0508289
11
0.398086
21
0.0509167
0
LINE
8
BLACK
6
CONTINUOUS
10
0.398086
20
0.0509167
11
0.398086
21
0.0509169
0
LINE
8
BLACK
6
CONTINUOUS
10
0.398086
20
0.0509169
11
0.390131
21
0.0567924
0
LINE
8
BLACK
6
CONTINUOUS
10
0.390131
20
0.0567924
11
0.390012
21
0.0568806
0
LINE
8
BLACK
6
CONTINUOUS
10
0.390012
20
0.0568806
11
0.383515
21
0.0602987
0
LINE
8
BLACK
6
CONTINUOUS
10
0.383515
20
0.0602987
11
0.381128
21
0.0615544
0
LINE
8
BLACK
6
CONTINUOUS
10
0.381128
20
0.0615544
11
0.381128
21
0.0615544
0
LINE
8
BLACK
6
CONTINUOUS
10
0.381128
20
0.0615544
11
0.380997
21
0.0616233
0
LINE
8
BLACK
6
CONTINUOUS
10
0.380997
20
0.0616233
11
0.380079
21
0.0619404
0
LINE
8
BLACK
6
CONTINUOUS
10
0.380079
20
0.0619404
11
0.37151
21
0.0648994
0
LINE
8
BLACK
6
CONTINUOUS
10
0.37151
20
0.0648994
11
0.37151
21
0.0648994
0
LINE
8
BLACK
6
CONTINUOUS
10
0.37151
20
0.0648994
11
0.371369
21
0.0649478
0
LINE
8
BLACK
6
CONTINUOUS
10
0.371369
20
0.0649478
11
0.371224
21
0.0649744
0
LINE
8
BLACK
6
CONTINUOUS
10
0.371224
20
0.0649744
11
0.371224
21
0.0649745
0
LINE
8
BLACK
6
CONTINUOUS
10
0.371224
20
0.0649745
11
0.361472
21
0.0667554
0
LINE
8
BLACK
6
CONTINUOUS
10
0.361472
20
0.0667554
11
0.361472
21
0.0667554
0
LINE
8
BLACK
6
CONTINUOUS
10
0.361472
20
0.0667554
11
0.361349
21
0.0667778
0
LINE
8
BLACK
6
CONTINUOUS
10
0.361349
20
0.0667778
11
0.358087
21
0.0669488
0
LINE
8
BLACK
6
CONTINUOUS
10
0.358087
20
0.0669488
11
0.351743
21
0.0669488
0
LINE
8
BLACK
6
CONTINUOUS
10
0.351743
20
0.0669488
11
0.34871
21
0.0667181
0
LINE
8
BLACK
6
CONTINUOUS
10
0.34871
20
0.0667181
11
0.344322
21
0.0663843
0
LINE
8
BLACK
6
CONTINUOUS
10
0.344322
20
0.0663843
11
0.344322
21
0.0663843
0
LINE
8
BLACK
6
CONTINUOUS
10
0.344322
20
0.0663843
11
0.344174
21
0.0663731
0
LINE
8
BLACK
6
CONTINUOUS
10
0.344174
20
0.0663731
11
0.334251
21
0.0640731
0
LINE
8
BLACK
6
CONTINUOUS
10
0.334251
20
0.0640731
11
0.324791
21
0.0602987
0
LINE
8
BLACK
6
CONTINUOUS
10
0.324791
20
0.0602987
11
0.31601
21
0.0551366
0
LINE
8
BLACK
6
CONTINUOUS
10
0.31601
20
0.0551366
11
0.315895
21
0.0550431
0
LINE
8
BLACK
6
CONTINUOUS
10
0.315895
20
0.0550431
11
0.315895
21
0.055043
0
LINE
8
BLACK
6
CONTINUOUS
10
0.315895
20
0.055043
11
0.311942
21
0.0518251
0
LINE
8
BLACK
6
CONTINUOUS
10
0.311942
20
0.0518251
11
0.308111
21
0.0487057
0
LINE
8
BLACK
6
CONTINUOUS
10
0.308111
20
0.0487057
11
0.308011
21
0.0485961
0
LINE
8
BLACK
6
CONTINUOUS
10
0.308011
20
0.0485961
11
0.308011
21
0.0485961
0
LINE
8
BLACK
6
CONTINUOUS
10
0.308011
20
0.0485961
11
0.301375
21
0.0412638
0
LINE
8
BLACK
6
CONTINUOUS
10
0.301375
20
0.0412638
11
0.301374
21
0.0412637
0
LINE
8
BLACK
6
CONTINUOUS
10
0.301374
20
0.0412637
11
0.301275
21
0.0411541
0
LINE
8
BLACK
6
CONTINUOUS
10
0.301275
20
0.0411541
11
0.295661
21
0.0326553
0
LINE
8
BLACK
6
CONTINUOUS
10
0.295661
20
0.0326553
11
0.291396
21
0.0234051
0
LINE
8
BLACK
6
CONTINUOUS
10
0.291396
20
0.0234051
11
0.28858
21
0.0136163
0
LINE
8
BLACK
6
CONTINUOUS
10
0.28858
20
0.0136163
11
0.288342
21
0.0117717
0
LINE
8
BLACK
6
CONTINUOUS
10
0.288342
20
0.0117717
11
0.288278
21
0.011273
0
LINE
8
BLACK
6
CONTINUOUS
10
0.288278
20
0.011273
11
0.287247
21
0.00909614
0
LINE
8
BLACK
6
CONTINUOUS
10
0.287247
20
0.00909614
11
0.285133
21
0.00794114
0
LINE
8
BLACK
6
CONTINUOUS
10
0.285133
20
0.00794114
11
0.284412
21
0.00787402
0
LINE
8
BLACK
6
CONTINUOUS
10
0.284412
20
0.00787402
11
0.102185
21
0.00787402
0
LINE
8
BLACK
6
CONTINUOUS
10
0.102185
20
0.00787402
11
0.0998941
21
0.00861839
0
LINE
8
BLACK
6
CONTINUOUS
10
0.0998941
20
0.00861839
11
0.0984781
21
0.0105672
0
LINE
8
BLACK
6
CONTINUOUS
10
0.0984781
20
0.0105672
11
0.0982874
21
0.0117717
0
LINE
8
BLACK
6
CONTINUOUS
10
0.0982874
20
0.0117717
11
0.0982874
21
0.381929
0
LINE
8
BLACK
6
CONTINUOUS
10
0.0982874
20
0.381929
11
0.0990318
21
0.38422
0
LINE
8
BLACK
6
CONTINUOUS
10
0.114276
20
0.066699
11
0.114984
21
0.0622261
0
LINE
8
BLACK
6
CONTINUOUS
10
0.114984
20
0.0622261
11
0.115172
21
0.0616499
0
LINE
8
BLACK
6
CONTINUOUS
10
0.115172
20
0.0616499
11
0.117158
21
0.0577514
0
LINE
8
BLACK
6
CONTINUOUS
10
0.117158
20
0.0577514
11
0.117514
21
0.0572615
0
LINE
8
BLACK
6
CONTINUOUS
10
0.117514
20
0.0572615
11
0.120608
21
0.0541675
0
LINE
8
BLACK
6
CONTINUOUS
10
0.120608
20
0.0541675
11
0.121098
21
0.0538115
0
LINE
8
BLACK
6
CONTINUOUS
10
0.121098
20
0.0538115
11
0.124996
21
0.0518251
0
LINE
8
BLACK
6
CONTINUOUS
10
0.124996
20
0.0518251
11
0.125573
21
0.0516379
0
LINE
8
BLACK
6
CONTINUOUS
10
0.125573
20
0.0516379
11
0.130045
21
0.0509295
0
LINE
8
BLACK
6
CONTINUOUS
10
0.130045
20
0.0509295
11
0.13035
21
0.0509055
0
LINE
8
BLACK
6
CONTINUOUS
10
0.13035
20
0.0509055
11
0.151706
21
0.0509055
0
LINE
8
BLACK
6
CONTINUOUS
10
0.151706
20
0.0509055
11
0.152205
21
0.0510678
0
LINE
8
BLACK
6
CONTINUOUS
10
0.152205
20
0.0510678
11
0.152323
21
0.05123
0
LINE
8
BLACK
6
CONTINUOUS
10
0.152323
20
0.05123
11
0.152323
21
0.0668504
0
LINE
8
BLACK
6
CONTINUOUS
10
0.152323
20
0.0668504
11
0.130197
21
0.0668504
0
LINE
8
BLACK
6
CONTINUOUS
10
0.130197
20
0.0668504
11
0.130197
21
0.0889764
0
LINE
8
BLACK
6
CONTINUOUS
10
0.130197
20
0.0889764
11
0.114869
21
0.0889764
0
LINE
8
BLACK
6
CONTINUOUS
10
0.114869
20
0.0889764
11
0.11437
21
0.0888141
0
LINE
8
BLACK
6
CONTINUOUS
10
0.11437
20
0.0888141
11
0.114252
21
0.0886519
0
LINE
8
BLACK
6
CONTINUOUS
10
0.114252
20
0.0886519
11
0.114252
21
0.0670037
0
LINE
8
BLACK
6
CONTINUOUS
10
0.114252
20
0.0670037
11
0.114276
21
0.066699
0
LINE
8
BLACK
6
CONTINUOUS
10
0.190197
20
0.0889764
11
0.190197
21
0.0668504
0
LINE
8
BLACK
6
CONTINUOUS
10
0.190197
20
0.0668504
11
0.168071
21
0.0668504
0
LINE
8
BLACK
6
CONTINUOUS
10
0.168071
20
0.0668504
11
0.168071
21
0.0515228
0
LINE
8
BLACK
6
CONTINUOUS
10
0.168071
20
0.0515228
11
0.168233
21
0.0510234
0
LINE
8
BLACK
6
CONTINUOUS
10
0.168233
20
0.0510234
11
0.168395
21
0.0509055
0
LINE
8
BLACK
6
CONTINUOUS
10
0.168395
20
0.0509055
11
0.190044
21
0.0509055
0
LINE
8
BLACK
6
CONTINUOUS
10
0.190044
20
0.0509055
11
0.190348
21
0.0509295
0
LINE
8
BLACK
6
CONTINUOUS
10
0.190348
20
0.0509295
11
0.194821
21
0.0516379
0
LINE
8
BLACK
6
CONTINUOUS
10
0.194821
20
0.0516379
11
0.195397
21
0.0518251
0
LINE
8
BLACK
6
CONTINUOUS
10
0.195397
20
0.0518251
11
0.199296
21
0.0538115
0
LINE
8
BLACK
6
CONTINUOUS
10
0.199296
20
0.0538115
11
0.199786
21
0.0541675
0
LINE
8
BLACK
6
CONTINUOUS
10
0.199786
20
0.0541675
11
0.20288
21
0.0572615
0
LINE
8
BLACK
6
CONTINUOUS
10
0.20288
20
0.0572615
11
0.203236
21
0.0577514
0
LINE
8
BLACK
6
CONTINUOUS
10
0.203236
20
0.0577514
11
0.205222
21
0.0616499
0
LINE
8
BLACK
6
CONTINUOUS
10
0.205222
20
0.0616499
11
0.205409
21
0.0622261
0
LINE
8
BLACK
6
CONTINUOUS
10
0.205409
20
0.0622261
11
0.206118
21
0.066699
0
LINE
8
BLACK
6
CONTINUOUS
10
0.206118
20
0.066699
11
0.206142
21
0.0670037
0
LINE
8
BLACK
6
CONTINUOUS
10
0.206142
20
0.0670037
11
0.206142
21
0.0883591
0
LINE
8
BLACK
6
CONTINUOUS
10
0.206142
20
0.0883591
11
0.205979
21
0.0888585
0
LINE
8
BLACK
6
CONTINUOUS
10
0.205979
20
0.0888585
11
0.205817
21
0.0889764
0
LINE
8
BLACK
6
CONTINUOUS
10
0.205817
20
0.0889764
11
0.190197
21
0.0889764
0
LINE
8
BLACK
6
CONTINUOUS
10
0.190197
20
0.12685
11
0.190197
21
0.104724
0
LINE
8
BLACK
6
CONTINUOUS
10
0.190197
20
0.104724
11
0.205524
21
0.104724
0
LINE
8
BLACK
6
CONTINUOUS
10
0.205524
20
0.104724
11
0.206024
21
0.104887
0
LINE
8
BLACK
6
CONTINUOUS
10
0.206024
20
0.104887
11
0.206142
21
0.105049
0
LINE
8
BLACK
6
CONTINUOUS
10
0.206142
20
0.105049
11
0.206142
21
0.126697
0
LINE
8
BLACK
6
CONTINUOUS
10
0.206142
20
0.126697
11
0.206118
21
0.127002
0
LINE
8
BLACK
6
CONTINUOUS
10
0.206118
20
0.127002
11
0.205409
21
0.131475
0
LINE
8
BLACK
6
CONTINUOUS
10
0.205409
20
0.131475
11
0.205222
21
0.132051
0
LINE
8
BLACK
6
CONTINUOUS
10
0.205222
20
0.132051
11
0.203236
21
0.135949
0
LINE
8
BLACK
6
CONTINUOUS
10
0.203236
20
0.135949
11
0.20288
21
0.136439
0
LINE
8
BLACK
6
CONTINUOUS
10
0.20288
20
0.136439
11
0.199786
21
0.139533
0
LINE
8
BLACK
6
CONTINUOUS
10
0.199786
20
0.139533
11
0.199296
21
0.139889
0
LINE
8
BLACK
6
CONTINUOUS
10
0.199296
20
0.139889
11
0.195397
21
0.141876
0
LINE
8
BLACK
6
CONTINUOUS
10
0.195397
20
0.141876
11
0.194821
21
0.142063
0
LINE
8
BLACK
6
CONTINUOUS
10
0.194821
20
0.142063
11
0.190348
21
0.142771
0
LINE
8
BLACK
6
CONTINUOUS
10
0.190348
20
0.142771
11
0.190044
21
0.142795
0
LINE
8
BLACK
6
CONTINUOUS
10
0.190044
20
0.142795
11
0.168688
21
0.142795
0
LINE
8
BLACK
6
CONTINUOUS
10
0.168688
20
0.142795
11
0.168189
21
0.142633
0
LINE
8
BLACK
6
CONTINUOUS
10
0.168189
20
0.142633
11
0.168071
21
0.142471
0
LINE
8
BLACK
6
CONTINUOUS
10
0.168071
20
0.142471
11
0.168071
21
0.12685
0
LINE
8
BLACK
6
CONTINUOUS
10
0.168071
20
0.12685
11
0.190197
21
0.12685
0
LINE
8
BLACK
6
CONTINUOUS
10
0.122722
20
0.163754
11
0.124476
21
0.16113
0
LINE
8
BLACK
6
CONTINUOUS
10
0.124476
20
0.16113
11
0.124795
21
0.160916
0
LINE
8
BLACK
6
CONTINUOUS
10
0.124795
20
0.160916
11
0.125788
21
0.160253
0
LINE
8
BLACK
6
CONTINUOUS
10
0.125788
20
0.160253
11
0.127101
21
0.159376
0
LINE
8
BLACK
6
CONTINUOUS
10
0.127101
20
0.159376
11
0.127477
21
0.159301
0
LINE
8
BLACK
6
CONTINUOUS
10
0.127477
20
0.159301
11
0.127477
21
0.159301
0
LINE
8
BLACK
6
CONTINUOUS
10
0.127477
20
0.159301
11
0.128472
21
0.159103
0
LINE
8
BLACK
6
CONTINUOUS
10
0.128472
20
0.159103
11
0.130197
21
0.15876
0
LINE
8
BLACK
6
CONTINUOUS
10
0.130197
20
0.15876
11
0.190197
21
0.15876
0
LINE
8
BLACK
6
CONTINUOUS
10
0.190197
20
0.15876
11
0.191921
21
0.159103
0
LINE
8
BLACK
6
CONTINUOUS
10
0.191921
20
0.159103
11
0.192916
21
0.159301
0
LINE
8
BLACK
6
CONTINUOUS
10
0.192916
20
0.159301
11
0.192916
21
0.159301
0
LINE
8
BLACK
6
CONTINUOUS
10
0.192916
20
0.159301
11
0.193293
21
0.159376
0
LINE
8
BLACK
6
CONTINUOUS
10
0.193293
20
0.159376
11
0.194605
21
0.160253
0
LINE
8
BLACK
6
CONTINUOUS
10
0.194605
20
0.160253
11
0.195598
21
0.160916
0
LINE
8
BLACK
6
CONTINUOUS
10
0.195598
20
0.160916
11
0.195918
21
0.16113
0
LINE
8
BLACK
6
CONTINUOUS
10
0.195918
20
0.16113
11
0.197672
21
0.163754
0
LINE
8
BLACK
6
CONTINUOUS
10
0.197672
20
0.163754
11
0.198287
21
0.16685
0
LINE
8
BLACK
6
CONTINUOUS
10
0.198287
20
0.16685
11
0.198287
21
0.22685
0
LINE
8
BLACK
6
CONTINUOUS
10
0.198287
20
0.22685
11
0.197941
21
0.228594
0
LINE
8
BLACK
6
CONTINUOUS
10
0.197941
20
0.228594
11
0.197746
21
0.22957
0
LINE
8
BLACK
6
CONTINUOUS
10
0.197746
20
0.22957
11
0.197746
21
0.22957
0
LINE
8
BLACK
6
CONTINUOUS
10
0.197746
20
0.22957
11
0.197672
21
0.229946
0
LINE
8
BLACK
6
CONTINUOUS
10
0.197672
20
0.229946
11
0.195918
21
0.232571
0
LINE
8
BLACK
6
CONTINUOUS
10
0.195918
20
0.232571
11
0.193293
21
0.234325
0
LINE
8
BLACK
6
CONTINUOUS
10
0.193293
20
0.234325
11
0.192916
21
0.2344
0
LINE
8
BLACK
6
CONTINUOUS
10
0.192916
20
0.2344
11
0.192916
21
0.2344
0
LINE
8
BLACK
6
CONTINUOUS
10
0.192916
20
0.2344
11
0.191921
21
0.234598
0
LINE
8
BLACK
6
CONTINUOUS
10
0.191921
20
0.234598
11
0.190197
21
0.234941
0
LINE
8
BLACK
6
CONTINUOUS
10
0.190197
20
0.234941
11
0.130197
21
0.234941
0
LINE
8
BLACK
6
CONTINUOUS
10
0.130197
20
0.234941
11
0.128472
21
0.234598
0
LINE
8
BLACK
6
CONTINUOUS
10
0.128472
20
0.234598
11
0.127477
21
0.2344
0
LINE
8
BLACK
6
CONTINUOUS
10
0.127477
20
0.2344
11
0.127477
21
0.2344
0
LINE
8
BLACK
6
CONTINUOUS
10
0.127477
20
0.2344
11
0.127101
21
0.234325
0
LINE
8
BLACK
6
CONTINUOUS
10
0.127101
20
0.234325
11
0.124476
21
0.232571
0
LINE
8
BLACK
6
CONTINUOUS
10
0.124476
20
0.232571
11
0.122722
21
0.229946
0
LINE
8
BLACK
6
CONTINUOUS
10
0.122722
20
0.229946
11
0.122647
21
0.22957
0
LINE
8
BLACK
6
CONTINUOUS
10
0.122647
20
0.22957
11
0.122647
21
0.22957
0
LINE
8
BLACK
6
CONTINUOUS
10
0.122647
20
0.22957
11
0.122453
21
0.228594
0
LINE
8
BLACK
6
CONTINUOUS
10
0.122453
20
0.228594
11
0.122106
21
0.22685
0
LINE
8
BLACK
6
CONTINUOUS
10
0.122106
20
0.22685
11
0.122106
21
0.16685
0
LINE
8
BLACK
6
CONTINUOUS
10
0.122106
20
0.16685
11
0.122722
21
0.163754
0
LINE
8
BLACK
6
CONTINUOUS
10
0.114414
20
0.104842
11
0.114576
21
0.104724
0
LINE
8
BLACK
6
CONTINUOUS
10
0.114576
20
0.104724
11
0.130197
21
0.104724
0
LINE
8
BLACK
6
CONTINUOUS
10
0.130197
20
0.104724
11
0.130197
21
0.12685
0
LINE
8
BLACK
6
CONTINUOUS
10
0.130197
20
0.12685
11
0.152323
21
0.12685
0
LINE
8
BLACK
6
CONTINUOUS
10
0.152323
20
0.12685
11
0.152323
21
0.142178
0
LINE
8
BLACK
6
CONTINUOUS
10
0.152323
20
0.142178
11
0.152228
21
0.142471
0
LINE
8
BLACK
6
CONTINUOUS
10
0.152228
20
0.142471
11
0.152161
21
0.142677
0
LINE
8
BLACK
6
CONTINUOUS
10
0.152161
20
0.142677
11
0.151998
21
0.142795
0
LINE
8
BLACK
6
CONTINUOUS
10
0.151998
20
0.142795
11
0.13035
21
0.142795
0
LINE
8
BLACK
6
CONTINUOUS
10
0.13035
20
0.142795
11
0.130045
21
0.142771
0
LINE
8
BLACK
6
CONTINUOUS
10
0.130045
20
0.142771
11
0.125573
21
0.142063
0
LINE
8
BLACK
6
CONTINUOUS
10
0.125573
20
0.142063
11
0.124996
21
0.141876
0
LINE
8
BLACK
6
CONTINUOUS
10
0.124996
20
0.141876
11
0.121098
21
0.139889
0
LINE
8
BLACK
6
CONTINUOUS
10
0.121098
20
0.139889
11
0.120608
21
0.139533
0
LINE
8
BLACK
6
CONTINUOUS
10
0.120608
20
0.139533
11
0.117514
21
0.136439
0
LINE
8
BLACK
6
CONTINUOUS
10
0.117514
20
0.136439
11
0.117158
21
0.135949
0
LINE
8
BLACK
6
CONTINUOUS
10
0.117158
20
0.135949
11
0.115172
21
0.132051
0
LINE
8
BLACK
6
CONTINUOUS
10
0.115172
20
0.132051
11
0.114984
21
0.131475
0
LINE
8
BLACK
6
CONTINUOUS
10
0.114984
20
0.131475
11
0.114276
21
0.127002
0
LINE
8
BLACK
6
CONTINUOUS
10
0.114276
20
0.127002
11
0.114252
21
0.126697
0
LINE
8
BLACK
6
CONTINUOUS
10
0.114252
20
0.126697
11
0.114252
21
0.105342
0
LINE
8
BLACK
6
CONTINUOUS
10
0.114252
20
0.105342
11
0.114414
21
0.104842
0
LINE
8
BLACK
6
CONTINUOUS
10
0.374355
20
0.223081
11
0.378144
21
0.218144
0
LINE
8
BLACK
6
CONTINUOUS
10
0.378144
20
0.218144
11
0.378346
21
0.217988
0
LINE
8
BLACK
6
CONTINUOUS
10
0.378346
20
0.217988
11
0.380739
21
0.216152
0
LINE
8
BLACK
6
CONTINUOUS
10
0.380739
20
0.216152
11
0.382103
21
0.214167
0
LINE
8
BLACK
6
CONTINUOUS
10
0.382103
20
0.214167
11
0.382264
21
0.21306
0
LINE
8
BLACK
6
CONTINUOUS
10
0.382264
20
0.21306
11
0.382264
21
0.183568
0
LINE
8
BLACK
6
CONTINUOUS
10
0.382264
20
0.183568
11
0.381458
21
0.181196
0
LINE
8
BLACK
6
CONTINUOUS
10
0.381458
20
0.181196
11
0.379355
21
0.178455
0
LINE
8
BLACK
6
CONTINUOUS
10
0.379355
20
0.178455
11
0.376974
21
0.172705
0
LINE
8
BLACK
6
CONTINUOUS
10
0.376974
20
0.172705
11
0.376161
21
0.166535
0
LINE
8
BLACK
6
CONTINUOUS
10
0.376161
20
0.166535
11
0.376974
21
0.160366
0
LINE
8
BLACK
6
CONTINUOUS
10
0.376974
20
0.160366
11
0.379355
21
0.154616
0
LINE
8
BLACK
6
CONTINUOUS
10
0.379355
20
0.154616
11
0.383144
21
0.149679
0
LINE
8
BLACK
6
CONTINUOUS
10
0.383144
20
0.149679
11
0.388081
21
0.145891
0
LINE
8
BLACK
6
CONTINUOUS
10
0.388081
20
0.145891
11
0.39383
21
0.143509
0
LINE
8
BLACK
6
CONTINUOUS
10
0.39383
20
0.143509
11
0.4
21
0.142697
0
LINE
8
BLACK
6
CONTINUOUS
10
0.4
20
0.142697
11
0.40617
21
0.143509
0
LINE
8
BLACK
6
CONTINUOUS
10
0.40617
20
0.143509
11
0.411919
21
0.145891
0
LINE
8
BLACK
6
CONTINUOUS
10
0.411919
20
0.145891
11
0.416856
21
0.149679
0
LINE
8
BLACK
6
CONTINUOUS
10
0.416856
20
0.149679
11
0.420645
21
0.154616
0
LINE
8
BLACK
6
CONTINUOUS
10
0.420645
20
0.154616
11
0.423026
21
0.160366
0
LINE
8
BLACK
6
CONTINUOUS
10
0.423026
20
0.160366
11
0.423839
21
0.166535
0
LINE
8
BLACK
6
CONTINUOUS
10
0.423839
20
0.166535
11
0.423026
21
0.172705
0
LINE
8
BLACK
6
CONTINUOUS
10
0.423026
20
0.172705
11
0.420645
21
0.178455
0
LINE
8
BLACK
6
CONTINUOUS
10
0.420645
20
0.178455
11
0.418542
21
0.181196
0
LINE
8
BLACK
6
CONTINUOUS
10
0.418542
20
0.181196
11
0.417736
21
0.183568
0
LINE
8
BLACK
6
CONTINUOUS
10
0.417736
20
0.183568
11
0.417736
21
0.227363
0
LINE
8
BLACK
6
CONTINUOUS
10
0.417736
20
0.227363
11
0.417869
21
0.228372
0
LINE
8
BLACK
6
CONTINUOUS
10
0.417869
20
0.228372
11
0.417929
21
0.228594
0
LINE
8
BLACK
6
CONTINUOUS
10
0.417929
20
0.228594
11
0.418026
21
0.22883
0
LINE
8
BLACK
6
CONTINUOUS
10
0.418026
20
0.22883
11
0.418839
21
0.235
0
LINE
8
BLACK
6
CONTINUOUS
10
0.418839
20
0.235
11
0.418026
21
0.24117
0
LINE
8
BLACK
6
CONTINUOUS
10
0.418026
20
0.24117
11
0.415645
21
0.246919
0
LINE
8
BLACK
6
CONTINUOUS
10
0.415645
20
0.246919
11
0.411856
21
0.251856
0
LINE
8
BLACK
6
CONTINUOUS
10
0.411856
20
0.251856
11
0.406919
21
0.255645
0
LINE
8
BLACK
6
CONTINUOUS
10
0.406919
20
0.255645
11
0.40117
21
0.258026
0
LINE
8
BLACK
6
CONTINUOUS
10
0.40117
20
0.258026
11
0.395711
21
0.258745
0
LINE
8
BLACK
6
CONTINUOUS
10
0.395711
20
0.258745
11
0.395253
21
0.258805
0
LINE
8
BLACK
6
CONTINUOUS
10
0.395253
20
0.258805
11
0.395
21
0.258839
0
LINE
8
BLACK
6
CONTINUOUS
10
0.395
20
0.258839
11
0.394747
21
0.258805
0
LINE
8
BLACK
6
CONTINUOUS
10
0.394747
20
0.258805
11
0.394289
21
0.258745
0
LINE
8
BLACK
6
CONTINUOUS
10
0.394289
20
0.258745
11
0.38883
21
0.258026
0
LINE
8
BLACK
6
CONTINUOUS
10
0.38883
20
0.258026
11
0.383081
21
0.255645
0
LINE
8
BLACK
6
CONTINUOUS
10
0.383081
20
0.255645
11
0.378144
21
0.251856
0
LINE
8
BLACK
6
CONTINUOUS
10
0.378144
20
0.251856
11
0.374355
21
0.246919
0
LINE
8
BLACK
6
CONTINUOUS
10
0.374355
20
0.246919
11
0.371974
21
0.24117
0
LINE
8
BLACK
6
CONTINUOUS
10
0.371974
20
0.24117
11
0.371161
21
0.235
0
LINE
8
BLACK
6
CONTINUOUS
10
0.371161
20
0.235
11
0.371974
21
0.22883
0
LINE
8
BLACK
6
CONTINUOUS
10
0.371974
20
0.22883
11
0.374355
21
0.223081
0
LINE
8
BLACK
6
CONTINUOUS
10
0.324355
20
0.278081
11
0.328144
21
0.273144
0
LINE
8
BLACK
6
CONTINUOUS
10
0.328144
20
0.273144
11
0.333081
21
0.269355
0
LINE
8
BLACK
6
CONTINUOUS
10
0.333081
20
0.269355
11
0.33883
21
0.266974
0
LINE
8
BLACK
6
CONTINUOUS
10
0.33883
20
0.266974
11
0.345
21
0.266161
0
LINE
8
BLACK
6
CONTINUOUS
10
0.345
20
0.266161
11
0.35117
21
0.266974
0
LINE
8
BLACK
6
CONTINUOUS
10
0.35117
20
0.266974
11
0.356919
21
0.269355
0
LINE
8
BLACK
6
CONTINUOUS
10
0.356919
20
0.269355
11
0.358136
21
0.270289
0
LINE
8
BLACK
6
CONTINUOUS
10
0.358136
20
0.270289
11
0.35966
21
0.271458
0
LINE
8
BLACK
6
CONTINUOUS
10
0.35966
20
0.271458
11
0.362033
21
0.272264
0
LINE
8
BLACK
6
CONTINUOUS
10
0.362033
20
0.272264
11
0.431039
21
0.272264
0
LINE
8
BLACK
6
CONTINUOUS
10
0.431039
20
0.272264
11
0.43333
21
0.271519
0
LINE
8
BLACK
6
CONTINUOUS
10
0.43333
20
0.271519
11
0.433795
21
0.271122
0
LINE
8
BLACK
6
CONTINUOUS
10
0.433795
20
0.271122
11
0.451122
21
0.253795
0
LINE
8
BLACK
6
CONTINUOUS
10
0.451122
20
0.253795
11
0.452216
21
0.251649
0
LINE
8
BLACK
6
CONTINUOUS
10
0.452216
20
0.251649
11
0.452264
21
0.251039
0
LINE
8
BLACK
6
CONTINUOUS
10
0.452264
20
0.251039
11
0.452264
21
0.102033
0
LINE
8
BLACK
6
CONTINUOUS
10
0.452264
20
0.102033
11
0.451458
21
0.0996602
0
LINE
8
BLACK
6
CONTINUOUS
10
0.451458
20
0.0996602
11
0.449355
21
0.0969193
0
LINE
8
BLACK
6
CONTINUOUS
10
0.449355
20
0.0969193
11
0.446974
21
0.0911699
0
LINE
8
BLACK
6
CONTINUOUS
10
0.446974
20
0.0911699
11
0.446161
21
0.085
0
LINE
8
BLACK
6
CONTINUOUS
10
0.446161
20
0.085
11
0.446974
21
0.0788301
0
LINE
8
BLACK
6
CONTINUOUS
10
0.446974
20
0.0788301
11
0.449355
21
0.0730807
0
LINE
8
BLACK
6
CONTINUOUS
10
0.449355
20
0.0730807
11
0.453144
21
0.0681436
0
LINE
8
BLACK
6
CONTINUOUS
10
0.453144
20
0.0681436
11
0.458081
21
0.0643552
0
LINE
8
BLACK
6
CONTINUOUS
10
0.458081
20
0.0643552
11
0.458681
21
0.0641066
0
LINE
8
BLACK
6
CONTINUOUS
10
0.458681
20
0.0641066
11
0.463221
21
0.0622261
0
LINE
8
BLACK
6
CONTINUOUS
10
0.463221
20
0.0622261
11
0.46383
21
0.0619737
0
LINE
8
BLACK
6
CONTINUOUS
10
0.46383
20
0.0619737
11
0.47
21
0.0611614
0
LINE
8
BLACK
6
CONTINUOUS
10
0.47
20
0.0611614
11
0.47617
21
0.0619737
0
LINE
8
BLACK
6
CONTINUOUS
10
0.47617
20
0.0619737
11
0.476779
21
0.0622261
0
LINE
8
BLACK
6
CONTINUOUS
10
0.476779
20
0.0622261
11
0.481319
21
0.0641066
0
LINE
8
BLACK
6
CONTINUOUS
10
0.481319
20
0.0641066
11
0.481919
21
0.0643552
0
LINE
8
BLACK
6
CONTINUOUS
10
0.481919
20
0.0643552
11
0.486856
21
0.0681436
0
LINE
8
BLACK
6
CONTINUOUS
10
0.486856
20
0.0681436
11
0.490645
21
0.0730807
0
LINE
8
BLACK
6
CONTINUOUS
10
0.490645
20
0.0730807
11
0.493026
21
0.0788301
0
LINE
8
BLACK
6
CONTINUOUS
10
0.493026
20
0.0788301
11
0.493839
21
0.085
0
LINE
8
BLACK
6
CONTINUOUS
10
0.493839
20
0.085
11
0.493026
21
0.0911699
0
LINE
8
BLACK
6
CONTINUOUS
10
0.493026
20
0.0911699
11
0.490645
21
0.0969193
0
LINE
8
BLACK
6
CONTINUOUS
10
0.490645
20
0.0969193
11
0.488542
21
0.0996602
0
LINE
8
BLACK
6
CONTINUOUS
10
0.488542
20
0.0996602
11
0.487736
21
0.102033
0
LINE
8
BLACK
6
CONTINUOUS
10
0.487736
20
0.102033
11
0.487736
21
0.258745
0
LINE
8
BLACK
6
CONTINUOUS
10
0.487736
20
0.258745
11
0.487763
21
0.259203
0
LINE
8
BLACK
6
CONTINUOUS
10
0.487763
20
0.259203
11
0.48789
21
0.260274
0
LINE
8
BLACK
6
CONTINUOUS
10
0.48789
20
0.260274
11
0.487924
21
0.260563
0
LINE
8
BLACK
6
CONTINUOUS
10
0.487924
20
0.260563
11
0.487506
21
0.262852
0
LINE
8
BLACK
6
CONTINUOUS
10
0.487506
20
0.262852
11
0.487486
21
0.262972
0
LINE
8
BLACK
6
CONTINUOUS
10
0.487486
20
0.262972
11
0.487417
21
0.263435
0
LINE
8
BLACK
6
CONTINUOUS
10
0.487417
20
0.263435
11
0.48714
21
0.265273
0
LINE
8
BLACK
6
CONTINUOUS
10
0.48714
20
0.265273
11
0.487017
21
0.265529
0
LINE
8
BLACK
6
CONTINUOUS
10
0.487017
20
0.265529
11
0.486966
21
0.265809
0
LINE
8
BLACK
6
CONTINUOUS
10
0.486966
20
0.265809
11
0.486783
21
0.266161
0
LINE
8
BLACK
6
CONTINUOUS
10
0.486783
20
0.266161
11
0.485894
21
0.267873
0
LINE
8
BLACK
6
CONTINUOUS
10
0.485894
20
0.267873
11
0.485839
21
0.267983
0
LINE
8
BLACK
6
CONTINUOUS
10
0.485839
20
0.267983
11
0.484832
21
0.27008
0
LINE
8
BLACK
6
CONTINUOUS
10
0.484832
20
0.27008
11
0.484671
21
0.270255
0
LINE
8
BLACK
6
CONTINUOUS
10
0.484671
20
0.270255
11
0.484611
21
0.270344
0
LINE
8
BLACK
6
CONTINUOUS
10
0.484611
20
0.270344
11
0.484508
21
0.270541
0
LINE
8
BLACK
6
CONTINUOUS
10
0.484508
20
0.270541
11
0.48431
21
0.270773
0
LINE
8
BLACK
6
CONTINUOUS
10
0.48431
20
0.270773
11
0.482797
21
0.272286
0
LINE
8
BLACK
6
CONTINUOUS
10
0.482797
20
0.272286
11
0.482691
21
0.272396
0
LINE
8
BLACK
6
CONTINUOUS
10
0.482691
20
0.272396
11
0.48141
21
0.273782
0
LINE
8
BLACK
6
CONTINUOUS
10
0.48141
20
0.273782
11
0.481213
21
0.273996
0
LINE
8
BLACK
6
CONTINUOUS
10
0.481213
20
0.273996
11
0.480981
21
0.27413
0
LINE
8
BLACK
6
CONTINUOUS
10
0.480981
20
0.27413
11
0.48071
21
0.274372
0
LINE
8
BLACK
6
CONTINUOUS
10
0.48071
20
0.274372
11
0.453428
21
0.301654
0
LINE
8
BLACK
6
CONTINUOUS
10
0.453428
20
0.301654
11
0.453124
21
0.301998
0
LINE
8
BLACK
6
CONTINUOUS
10
0.453124
20
0.301998
11
0.452456
21
0.302844
0
LINE
8
BLACK
6
CONTINUOUS
10
0.452456
20
0.302844
11
0.452456
21
0.302844
0
LINE
8
BLACK
6
CONTINUOUS
10
0.452456
20
0.302844
11
0.452276
21
0.303073
0
LINE
8
BLACK
6
CONTINUOUS
10
0.452276
20
0.303073
11
0.451242
21
0.303787
0
LINE
8
BLACK
6
CONTINUOUS
10
0.451242
20
0.303787
11
0.450363
21
0.304395
0
LINE
8
BLACK
6
CONTINUOUS
10
0.450363
20
0.304395
11
0.450263
21
0.304466
0
LINE
8
BLACK
6
CONTINUOUS
10
0.450263
20
0.304466
11
0.448626
21
0.305675
0
LINE
8
BLACK
6
CONTINUOUS
10
0.448626
20
0.305675
11
0.448626
21
0.305676
0
LINE
8
BLACK
6
CONTINUOUS
10
0.448626
20
0.305676
11
0.448391
21
0.305849
0
LINE
8
BLACK
6
CONTINUOUS
10
0.448391
20
0.305849
11
0.448123
21
0.305943
0
LINE
8
BLACK
6
CONTINUOUS
10
0.448123
20
0.305943
11
0.447889
21
0.306104
0
LINE
8
BLACK
6
CONTINUOUS
10
0.447889
20
0.306104
11
0.447612
21
0.306192
0
LINE
8
BLACK
6
CONTINUOUS
10
0.447612
20
0.306192
11
0.447612
21
0.306192
0
LINE
8
BLACK
6
CONTINUOUS
10
0.447612
20
0.306192
11
0.446124
21
0.306663
0
LINE
8
BLACK
6
CONTINUOUS
10
0.446124
20
0.306663
11
0.44567
21
0.306806
0
LINE
8
BLACK
6
CONTINUOUS
10
0.44567
20
0.306806
11
0.445557
21
0.306844
0
LINE
8
BLACK
6
CONTINUOUS
10
0.445557
20
0.306844
11
0.44336
21
0.307615
0
LINE
8
BLACK
6
CONTINUOUS
10
0.44336
20
0.307615
11
0.443123
21
0.307625
0
LINE
8
BLACK
6
CONTINUOUS
10
0.443123
20
0.307625
11
0.443017
21
0.307645
0
LINE
8
BLACK
6
CONTINUOUS
10
0.443017
20
0.307645
11
0.442805
21
0.307712
0
LINE
8
BLACK
6
CONTINUOUS
10
0.442805
20
0.307712
11
0.442584
21
0.30773
0
LINE
8
BLACK
6
CONTINUOUS
10
0.442584
20
0.30773
11
0.442584
21
0.30773
0
LINE
8
BLACK
6
CONTINUOUS
10
0.442584
20
0.30773
11
0.442581
21
0.30773
0
LINE
8
BLACK
6
CONTINUOUS
10
0.442581
20
0.30773
11
0.442501
21
0.307736
0
LINE
8
BLACK
6
CONTINUOUS
10
0.442501
20
0.307736
11
0.440363
21
0.307736
0
LINE
8
BLACK
6
CONTINUOUS
10
0.440363
20
0.307736
11
0.44021
21
0.307739
0
LINE
8
BLACK
6
CONTINUOUS
10
0.44021
20
0.307739
11
0.438323
21
0.307813
0
LINE
8
BLACK
6
CONTINUOUS
10
0.438323
20
0.307813
11
0.438323
21
0.307813
0
LINE
8
BLACK
6
CONTINUOUS
10
0.438323
20
0.307813
11
0.438032
21
0.307825
0
LINE
8
BLACK
6
CONTINUOUS
10
0.438032
20
0.307825
11
0.437774
21
0.307756
0
LINE
8
BLACK
6
CONTINUOUS
10
0.437774
20
0.307756
11
0.43741
21
0.307736
0
LINE
8
BLACK
6
CONTINUOUS
10
0.43741
20
0.307736
11
0.362033
21
0.307736
0
LINE
8
BLACK
6
CONTINUOUS
10
0.362033
20
0.307736
11
0.35966
21
0.308542
0
LINE
8
BLACK
6
CONTINUOUS
10
0.35966
20
0.308542
11
0.357122
21
0.310489
0
LINE
8
BLACK
6
CONTINUOUS
10
0.357122
20
0.310489
11
0.356919
21
0.310645
0
LINE
8
BLACK
6
CONTINUOUS
10
0.356919
20
0.310645
11
0.35117
21
0.313026
0
LINE
8
BLACK
6
CONTINUOUS
10
0.35117
20
0.313026
11
0.345
21
0.313839
0
LINE
8
BLACK
6
CONTINUOUS
10
0.345
20
0.313839
11
0.33883
21
0.313026
0
LINE
8
BLACK
6
CONTINUOUS
10
0.33883
20
0.313026
11
0.333081
21
0.310645
0
LINE
8
BLACK
6
CONTINUOUS
10
0.333081
20
0.310645
11
0.328144
21
0.306856
0
LINE
8
BLACK
6
CONTINUOUS
10
0.328144
20
0.306856
11
0.324355
21
0.301919
0
LINE
8
BLACK
6
CONTINUOUS
10
0.324355
20
0.301919
11
0.321974
21
0.29617
0
LINE
8
BLACK
6
CONTINUOUS
10
0.321974
20
0.29617
11
0.321161
21
0.29
0
LINE
8
BLACK
6
CONTINUOUS
10
0.321161
20
0.29
11
0.321974
21
0.28383
0
LINE
8
BLACK
6
CONTINUOUS
10
0.321974
20
0.28383
11
0.324355
21
0.278081
0
LINE
8
BLACK
6
CONTINUOUS
10
0.197672
20
0.329946
11
0.195918
21
0.332571
0
LINE
8
BLACK
6
CONTINUOUS
10
0.195918
20
0.332571
11
0.193293
21
0.334325
0
LINE
8
BLACK
6
CONTINUOUS
10
0.193293
20
0.334325
11
0.192916
21
0.3344
0
LINE
8
BLACK
6
CONTINUOUS
10
0.192916
20
0.3344
11
0.192916
21
0.3344
0
LINE
8
BLACK
6
CONTINUOUS
10
0.192916
20
0.3344
11
0.191921
21
0.334598
0
LINE
8
BLACK
6
CONTINUOUS
10
0.191921
20
0.334598
11
0.190197
21
0.334941
0
LINE
8
BLACK
6
CONTINUOUS
10
0.190197
20
0.334941
11
0.130197
21
0.334941
0
LINE
8
BLACK
6
CONTINUOUS
10
0.130197
20
0.334941
11
0.128472
21
0.334598
0
LINE
8
BLACK
6
CONTINUOUS
10
0.128472
20
0.334598
11
0.127477
21
0.3344
0
LINE
8
BLACK
6
CONTINUOUS
10
0.127477
20
0.3344
11
0.127477
21
0.3344
0
LINE
8
BLACK
6
CONTINUOUS
10
0.127477
20
0.3344
11
0.127101
21
0.334325
0
LINE
8
BLACK
6
CONTINUOUS
10
0.127101
20
0.334325
11
0.124476
21
0.332571
0
LINE
8
BLACK
6
CONTINUOUS
10
0.124476
20
0.332571
11
0.122722
21
0.329946
0
LINE
8
BLACK
6
CONTINUOUS
10
0.122722
20
0.329946
11
0.122106
21
0.32685
0
LINE
8
BLACK
6
CONTINUOUS
10
0.122106
20
0.32685
11
0.122106
21
0.26685
0
LINE
8
BLACK
6
CONTINUOUS
10
0.122106
20
0.26685
11
0.122722
21
0.263754
0
LINE
8
BLACK
6
CONTINUOUS
10
0.122722
20
0.263754
11
0.124476
21
0.26113
0
LINE
8
BLACK
6
CONTINUOUS
10
0.124476
20
0.26113
11
0.127101
21
0.259376
0
LINE
8
BLACK
6
CONTINUOUS
10
0.127101
20
0.259376
11
0.127477
21
0.259301
0
LINE
8
BLACK
6
CONTINUOUS
10
0.127477
20
0.259301
11
0.127477
21
0.259301
0
LINE
8
BLACK
6
CONTINUOUS
10
0.127477
20
0.259301
11
0.128472
21
0.259103
0
LINE
8
BLACK
6
CONTINUOUS
10
0.128472
20
0.259103
11
0.130197
21
0.25876
0
LINE
8
BLACK
6
CONTINUOUS
10
0.130197
20
0.25876
11
0.190197
21
0.25876
0
LINE
8
BLACK
6
CONTINUOUS
10
0.190197
20
0.25876
11
0.191921
21
0.259103
0
LINE
8
BLACK
6
CONTINUOUS
10
0.191921
20
0.259103
11
0.192916
21
0.259301
0
LINE
8
BLACK
6
CONTINUOUS
10
0.192916
20
0.259301
11
0.192916
21
0.259301
0
LINE
8
BLACK
6
CONTINUOUS
10
0.192916
20
0.259301
11
0.193293
21
0.259376
0
LINE
8
BLACK
6
CONTINUOUS
10
0.193293
20
0.259376
11
0.195918
21
0.26113
0
LINE
8
BLACK
6
CONTINUOUS
10
0.195918
20
0.26113
11
0.197672
21
0.263754
0
LINE
8
BLACK
6
CONTINUOUS
10
0.197672
20
0.263754
11
0.198287
21
0.26685
0
LINE
8
BLACK
6
CONTINUOUS
10
0.198287
20
0.26685
11
0.198287
21
0.32685
0
LINE
8
BLACK
6
CONTINUOUS
10
0.198287
20
0.32685
11
0.197672
21
0.329946
0
LINE
8
BLACK
6
CONTINUOUS
10
0.44696
20
0.29696
11
0.47696
21
0.26696
0
LINE
8
BLACK
6
CONTINUOUS
10
0.47696
20
0.26696
11
0.479093
21
0.263767
0
LINE
8
BLACK
6
CONTINUOUS
10
0.479093
20
0.263767
11
0.479843
21
0.26
0
LINE
8
BLACK
6
CONTINUOUS
10
0.479843
20
0.26
11
0.479843
21
0.26
0
LINE
8
BLACK
6
CONTINUOUS
10
0.479843
20
0.26
11
0.479843
21
0.0971544
0
LINE
8
BLACK
6
CONTINUOUS
10
0.479843
20
0.0971544
11
0.48274
21
0.0942565
0
LINE
8
BLACK
6
CONTINUOUS
10
0.48274
20
0.0942565
11
0.484977
21
0.0898664
0
LINE
8
BLACK
6
CONTINUOUS
10
0.484977
20
0.0898664
11
0.485748
21
0.085
0
LINE
8
BLACK
6
CONTINUOUS
10
0.485748
20
0.085
11
0.484977
21
0.0801336
0
LINE
8
BLACK
6
CONTINUOUS
10
0.484977
20
0.0801336
11
0.48274
21
0.0757435
0
LINE
8
BLACK
6
CONTINUOUS
10
0.48274
20
0.0757435
11
0.479256
21
0.0722596
0
LINE
8
BLACK
6
CONTINUOUS
10
0.479256
20
0.0722596
11
0.474866
21
0.0700227
0
LINE
8
BLACK
6
CONTINUOUS
10
0.474866
20
0.0700227
11
0.47
21
0.069252
0
LINE
8
BLACK
6
CONTINUOUS
10
0.47
20
0.069252
11
0.465134
21
0.0700227
0
LINE
8
BLACK
6
CONTINUOUS
10
0.465134
20
0.0700227
11
0.460744
21
0.0722596
0
LINE
8
BLACK
6
CONTINUOUS
10
0.460744
20
0.0722596
11
0.45726
21
0.0757435
0
LINE
8
BLACK
6
CONTINUOUS
10
0.45726
20
0.0757435
11
0.455023
21
0.0801336
0
LINE
8
BLACK
6
CONTINUOUS
10
0.455023
20
0.0801336
11
0.454252
21
0.085
0
LINE
8
BLACK
6
CONTINUOUS
10
0.454252
20
0.085
11
0.455023
21
0.0898664
0
LINE
8
BLACK
6
CONTINUOUS
10
0.455023
20
0.0898664
11
0.45726
21
0.0942565
0
LINE
8
BLACK
6
CONTINUOUS
10
0.45726
20
0.0942565
11
0.460157
21
0.0971544
0
LINE
8
BLACK
6
CONTINUOUS
10
0.460157
20
0.0971544
11
0.460157
21
0.255923
0
LINE
8
BLACK
6
CONTINUOUS
10
0.460157
20
0.255923
11
0.435923
21
0.280157
0
LINE
8
BLACK
6
CONTINUOUS
10
0.435923
20
0.280157
11
0.357154
21
0.280157
0
LINE
8
BLACK
6
CONTINUOUS
10
0.357154
20
0.280157
11
0.354256
21
0.27726
0
LINE
8
BLACK
6
CONTINUOUS
10
0.354256
20
0.27726
11
0.349866
21
0.275023
0
LINE
8
BLACK
6
CONTINUOUS
10
0.349866
20
0.275023
11
0.345
21
0.274252
0
LINE
8
BLACK
6
CONTINUOUS
10
0.345
20
0.274252
11
0.340134
21
0.275023
0
LINE
8
BLACK
6
CONTINUOUS
10
0.340134
20
0.275023
11
0.335744
21
0.27726
0
LINE
8
BLACK
6
CONTINUOUS
10
0.335744
20
0.27726
11
0.33226
21
0.280744
0
LINE
8
BLACK
6
CONTINUOUS
10
0.33226
20
0.280744
11
0.330023
21
0.285134
0
LINE
8
BLACK
6
CONTINUOUS
10
0.330023
20
0.285134
11
0.329252
21
0.29
0
LINE
8
BLACK
6
CONTINUOUS
10
0.329252
20
0.29
11
0.330023
21
0.294866
0
LINE
8
BLACK
6
CONTINUOUS
10
0.330023
20
0.294866
11
0.33226
21
0.299256
0
LINE
8
BLACK
6
CONTINUOUS
10
0.33226
20
0.299256
11
0.335744
21
0.30274
0
LINE
8
BLACK
6
CONTINUOUS
10
0.335744
20
0.30274
11
0.340134
21
0.304977
0
LINE
8
BLACK
6
CONTINUOUS
10
0.340134
20
0.304977
11
0.345
21
0.305748
0
LINE
8
BLACK
6
CONTINUOUS
10
0.345
20
0.305748
11
0.349866
21
0.304977
0
LINE
8
BLACK
6
CONTINUOUS
10
0.349866
20
0.304977
11
0.354256
21
0.30274
0
LINE
8
BLACK
6
CONTINUOUS
10
0.354256
20
0.30274
11
0.357154
21
0.299843
0
LINE
8
BLACK
6
CONTINUOUS
10
0.357154
20
0.299843
11
0.44
21
0.299843
0
LINE
8
BLACK
6
CONTINUOUS
10
0.44
20
0.299843
11
0.443767
21
0.299093
0
LINE
8
BLACK
6
CONTINUOUS
10
0.443767
20
0.299093
11
0.44696
21
0.29696
0
LINE
8
BLACK
6
CONTINUOUS
10
0.399866
20
0.249977
11
0.404256
21
0.24774
0
LINE
8
BLACK
6
CONTINUOUS
10
0.404256
20
0.24774
11
0.40774
21
0.244256
0
LINE
8
BLACK
6
CONTINUOUS
10
0.40774
20
0.244256
11
0.409977
21
0.239866
0
LINE
8
BLACK
6
CONTINUOUS
10
0.409977
20
0.239866
11
0.410748
21
0.235
0
LINE
8
BLACK
6
CONTINUOUS
10
0.410748
20
0.235
11
0.409977
21
0.230134
0
LINE
8
BLACK
6
CONTINUOUS
10
0.409977
20
0.230134
11
0.409843
21
0.229869
0
LINE
8
BLACK
6
CONTINUOUS
10
0.409843
20
0.229869
11
0.409843
21
0.17869
0
LINE
8
BLACK
6
CONTINUOUS
10
0.409843
20
0.17869
11
0.41274
21
0.175792
0
LINE
8
BLACK
6
CONTINUOUS
10
0.41274
20
0.175792
11
0.414977
21
0.171402
0
LINE
8
BLACK
6
CONTINUOUS
10
0.414977
20
0.171402
11
0.415748
21
0.166535
0
LINE
8
BLACK
6
CONTINUOUS
10
0.415748
20
0.166535
11
0.414977
21
0.161669
0
LINE
8
BLACK
6
CONTINUOUS
10
0.414977
20
0.161669
11
0.41274
21
0.157279
0
LINE
8
BLACK
6
CONTINUOUS
10
0.41274
20
0.157279
11
0.409256
21
0.153795
0
LINE
8
BLACK
6
CONTINUOUS
10
0.409256
20
0.153795
11
0.404866
21
0.151558
0
LINE
8
BLACK
6
CONTINUOUS
10
0.404866
20
0.151558
11
0.4
21
0.150787
0
LINE
8
BLACK
6
CONTINUOUS
10
0.4
20
0.150787
11
0.395134
21
0.151558
0
LINE
8
BLACK
6
CONTINUOUS
10
0.395134
20
0.151558
11
0.390744
21
0.153795
0
LINE
8
BLACK
6
CONTINUOUS
10
0.390744
20
0.153795
11
0.38726
21
0.157279
0
LINE
8
BLACK
6
CONTINUOUS
10
0.38726
20
0.157279
11
0.385023
21
0.161669
0
LINE
8
BLACK
6
CONTINUOUS
10
0.385023
20
0.161669
11
0.384252
21
0.166535
0
LINE
8
BLACK
6
CONTINUOUS
10
0.384252
20
0.166535
11
0.385023
21
0.171402
0
LINE
8
BLACK
6
CONTINUOUS
10
0.385023
20
0.171402
11
0.38726
21
0.175792
0
LINE
8
BLACK
6
CONTINUOUS
10
0.38726
20
0.175792
11
0.390157
21
0.17869
0
LINE
8
BLACK
6
CONTINUOUS
10
0.390157
20
0.17869
11
0.390157
21
0.220019
0
LINE
8
BLACK
6
CONTINUOUS
10
0.390157
20
0.220019
11
0.390134
21
0.220023
0
LINE
8
BLACK
6
CONTINUOUS
10
0.390134
20
0.220023
11
0.385744
21
0.22226
0
LINE
8
BLACK
6
CONTINUOUS
10
0.385744
20
0.22226
11
0.38226
21
0.225744
0
LINE
8
BLACK
6
CONTINUOUS
10
0.38226
20
0.225744
11
0.380023
21
0.230134
0
LINE
8
BLACK
6
CONTINUOUS
10
0.380023
20
0.230134
11
0.379252
21
0.235
0
LINE
8
BLACK
6
CONTINUOUS
10
0.379252
20
0.235
11
0.380023
21
0.239866
0
LINE
8
BLACK
6
CONTINUOUS
10
0.380023
20
0.239866
11
0.38226
21
0.244256
0
LINE
8
BLACK
6
CONTINUOUS
10
0.38226
20
0.244256
11
0.385744
21
0.24774
0
LINE
8
BLACK
6
CONTINUOUS
10
0.385744
20
0.24774
11
0.390134
21
0.249977
0
LINE
8
BLACK
6
CONTINUOUS
10
0.390134
20
0.249977
11
0.395
21
0.250748
0
LINE
8
BLACK
6
CONTINUOUS
10
0.395
20
0.250748
11
0.399866
21
0.249977
0
LINE
8
BLACK
6
CONTINUOUS
10
0.190197
20
0.16685
11
0.130197
21
0.16685
0
LINE
8
BLACK
6
CONTINUOUS
10
0.130197
20
0.16685
11
0.130197
21
0.22685
0
LINE
8
BLACK
6
CONTINUOUS
10
0.130197
20
0.22685
11
0.190197
21
0.22685
0
LINE
8
BLACK
6
CONTINUOUS
10
0.190197
20
0.22685
11
0.190197
21
0.16685
0
LINE
8
BLACK
6
CONTINUOUS
10
0.190197
20
0.26685
11
0.130197
21
0.26685
0
LINE
8
BLACK
6
CONTINUOUS
10
0.130197
20
0.26685
11
0.130197
21
0.32685
0
LINE
8
BLACK
6
CONTINUOUS
10
0.130197
20
0.32685
11
0.190197
21
0.32685
0
LINE
8
BLACK
6
CONTINUOUS
10
0.190197
20
0.32685
11
0.190197
21
0.26685
0
CIRCLE
8
BLACK
10
0.395
20
0.235
40
0.00787402
0
CIRCLE
8
BLACK
10
0.4
20
0.166535
40
0.00787402
0
CIRCLE
8
BLACK
10
0.445
20
0.03
40
0.00787402
0
CIRCLE
8
BLACK
10
0.375
20
0.11
40
0.00787402
0
CIRCLE
8
BLACK
10
0.445
20
0.36
40
0.00787402
0
CIRCLE
8
BLACK
10
0.5
20
0.36
40
0.00787402
0
CIRCLE
8
BLACK
10
0.495
20
0.03
40
0.00787402
0
CIRCLE
8
BLACK
10
0.27
20
0.035
40
0.00787402
0
CIRCLE
8
BLACK
10
0.345
20
0.29
40
0.00787402
0
CIRCLE
8
BLACK
10
0.47
20
0.085
40
0.00787402
  0
ENDSEC
  0
EOF
